<svg xmlns="http://www.w3.org/2000/svg" width="138" height="30" fill="none" viewBox="0 0 138 30">
  <g clip-path="url(#a)">
    <path fill="#43413D" d="M3.126 28.639a.31.31 0 0 0-.142-.204.358.358 0 0 0-.259-.05.324.324 0 0 0-.215.134c-.097.127-.197.25-.293.377.188.123.389.23.597.327.089-.111.173-.227.262-.342.05-.07.07-.154.054-.239l-.004-.003ZM17.554 8.426c0 .177.154.32.343.32h5.289v-.64h-5.289c-.189 0-.343.143-.343.32Zm-1.487.354c.19-.015.328-.172.309-.346-.016-.165-.166-.288-.34-.288h-.03c-4.46.377-8.188 3.615-8.863 7.704-.786 4.754-2.15 8.784-3.95 11.661-.097.15-.04.347.123.435.05.027.111.042.173.042a.352.352 0 0 0 .297-.157c1.843-2.943 3.238-7.054 4.036-11.885.628-3.8 4.094-6.815 8.245-7.165Z"/>
    <path fill="#43413D" d="M7.366 22.807a.362.362 0 0 0-.262.02.315.315 0 0 0-.17.188c-.898 2.616-2.004 4.789-3.292 6.489.243.057.494.092.752.103 1.245-1.715 2.317-3.857 3.192-6.4.058-.165-.043-.346-.22-.4Zm1.281-6.742a45.839 45.839 0 0 1-1.28 5.623.298.298 0 0 0 .03.243.351.351 0 0 0 .298.161.34.34 0 0 0 .331-.234c.528-1.754.964-3.67 1.3-5.7.562-3.42 3.815-6 7.558-6h6.303v-.639h-6.303c-4.078 0-7.62 2.812-8.237 6.539v.007Z"/>
    <path fill="#43413D" d="M13.294 12.662a.305.305 0 0 0 .077-.447.362.362 0 0 0-.478-.072c-1.476.988-2.474 2.496-2.748 4.134-.917 5.55-2.556 10.096-4.788 13.342h.798c2.17-3.303 3.766-7.807 4.665-13.246.242-1.469 1.144-2.823 2.47-3.715l.004.004Zm.916-1.208a.32.32 0 0 0-.182.173.295.295 0 0 0 0 .243.347.347 0 0 0 .447.169 6.431 6.431 0 0 1 2.406-.462h6.302v-.638h-6.302c-.926 0-1.824.173-2.676.515h.004Z"/>
    <path fill="#43413D" d="M16.883 12.993h3.67c.189 0 .343-.142.343-.32 0-.176-.154-.319-.343-.319h-3.67c-2.594 0-4.845 1.781-5.234 4.143-.88 5.311-2.425 9.769-4.53 13.127h.779c2.054-3.396 3.565-7.812 4.425-13.031.34-2.054 2.297-3.6 4.56-3.6Zm5.532-.319c0 .177.154.319.343.319h.432v-.639h-.432c-.189 0-.343.143-.343.32Zm-12.35 15.934a.339.339 0 0 0-.173-.185c-.17-.077-.378-.011-.46.147a24.67 24.67 0 0 1-.581 1.05h.778c.143-.254.282-.508.417-.774a.296.296 0 0 0 .015-.242l.004.004Z"/>
    <path fill="#43413D" d="M13.15 16.707c-.64 3.873-1.635 7.339-2.961 10.297-.073.161.011.35.185.419a.376.376 0 0 0 .13.023.34.34 0 0 0 .317-.196c1.345-3.008 2.359-6.523 3.007-10.446.227-1.37 1.542-2.4 3.056-2.4h6.303v-.639h-6.303c-1.85 0-3.457 1.265-3.735 2.942Z"/>
    <path fill="#43413D" d="M15.072 17.916a.352.352 0 0 0-.22-.131.35.35 0 0 0-.254.05.314.314 0 0 0-.143.208c-.829 4.45-2.162 8.361-3.916 11.577h.767c1.711-3.22 3.01-7.093 3.824-11.47a.296.296 0 0 0-.058-.238v.004Zm-.2-1.613a.297.297 0 0 0-.023.243c.027.08.085.146.166.188.05.023.104.038.162.038a.352.352 0 0 0 .305-.173c.265-.473.82-.78 1.406-.78h6.303v-.639h-6.303c-.836 0-1.627.439-2.012 1.12l-.004.003Z"/>
    <path fill="#43413D" d="M16.883 16.596c-.358 0-.682.238-.732.542-.675 4.088-1.739 7.773-3.165 10.95a.304.304 0 0 0 0 .246.34.34 0 0 0 .185.173c.043.02.089.027.131.027a.37.37 0 0 0 .128-.023.323.323 0 0 0 .188-.173c1.446-3.223 2.525-6.95 3.204-11.077a.093.093 0 0 1 .061-.023h6.303V16.6h-6.303v-.004Z"/>
    <path fill="#43413D" d="M17.805 18.476a.35.35 0 0 0-.255.05.313.313 0 0 0-.143.208c-.77 4.054-1.962 7.723-3.507 10.885h.763c1.5-3.131 2.648-6.731 3.42-10.773a.326.326 0 0 0-.278-.37Zm1.041-.146c0 .177.154.32.343.32h4.002v-.64h-4.002c-.189 0-.343.143-.343.32Zm-.081 1.355c-.632 3.089-1.495 5.966-2.57 8.55a.29.29 0 0 0 .007.247.34.34 0 0 0 .312.188.343.343 0 0 0 .32-.204c1.06-2.55 1.92-5.373 2.552-8.4h3.805v-.638h-4.086a.334.334 0 0 0-.336.257h-.004Zm-2.691 9.676a.356.356 0 0 0-.45.17l-.047.092h.694a.22.22 0 0 0-.015-.085.334.334 0 0 0-.185-.177h.003Z"/>
    <path fill="#43413D" d="M23.186 20.843h-1.53v.638h1.53v-.638Zm-2.497.35-.671-.131-.008.035c-.702 3.096-1.638 5.946-2.795 8.526h.74c1.126-2.553 2.04-5.361 2.726-8.396l.008-.034Zm.543 1.31a45.973 45.973 0 0 1-2.386 7.112 4.64 4.64 0 0 0 .775-.085 46.573 46.573 0 0 0 2.216-6.638h1.354v-.639h-1.893l-.062.247-.004.003Z"/>
    <path fill="#43413D" d="M22.427 23.911a45.811 45.811 0 0 1-1.77 5.262 4.47 4.47 0 0 0 .987-.65 49.535 49.535 0 0 0 1.38-4.216h.162v-.638h-.694l-.065.242ZM1.283 25.674a.32.32 0 0 0-.165-.189.353.353 0 0 0-.463.127c-.112.193-.231.377-.35.562.065.277.153.546.269.8.235-.331.463-.685.682-1.054a.297.297 0 0 0 .027-.242v-.004Zm2.711-10.278c-.567 3.427-1.477 6.504-2.633 8.896a.29.29 0 0 0-.008.246.335.335 0 0 0 .178.177.366.366 0 0 0 .262.012.335.335 0 0 0 .193-.17c1.198-2.48 2.104-5.53 2.686-9.061.93-5.63 6.068-9.72 12.216-9.72h6.302v-.638h-6.302c-6.488 0-11.907 4.316-12.89 10.258h-.004Z"/>
    <path fill="#43413D" d="M10.63 5.719a.339.339 0 0 0 .174-.185.281.281 0 0 0-.02-.242.341.341 0 0 0-.196-.162.365.365 0 0 0-.262.02c-4.19 1.942-7.12 5.696-7.836 10.034-.594 3.596-1.465 6.204-2.302 8.046v1.523c1.319-2.43 2.363-5.727 2.98-9.473.682-4.134 3.473-7.707 7.463-9.557v-.004Zm1.097-1.134a.342.342 0 0 0-.193.166.29.29 0 0 0-.008.246c.031.08.097.142.181.177a.366.366 0 0 0 .262.011 14.998 14.998 0 0 1 4.92-.819h6.275a4.31 4.31 0 0 0-.124-.638h-6.152c-1.78 0-3.515.288-5.158.861l-.003-.004Z"/>
    <path fill="#43413D" d="m23.186 2.946-.046-.058c-.143-.177-.293-.365-.47-.565l-.012-.015h-5.273c-7.594 0-14.205 4.6-16.078 11.188-.05.17.065.346.254.388a.329.329 0 0 0 .089.012c.162 0 .3-.1.343-.238C3.78 7.35 10.11 2.946 17.385 2.946h5.801ZM1.441 15.774a.353.353 0 0 0-.22-.131.346.346 0 0 0-.254.05.312.312 0 0 0-.143.212c-.185.988-.4 1.919-.636 2.807v2.335c.524-1.485.96-3.166 1.31-5.031a.296.296 0 0 0-.057-.238v-.004Z"/>
    <path fill="#43413D" d="M7.054 4.31c.023 0 .042.005.065.005.07 0 .14-.02.2-.058 2.938-1.789 6.4-2.73 10.008-2.73h4.614l-.062-.062a16.355 16.355 0 0 0-.597-.566L21.27.888h-3.943c-3.755 0-7.355.98-10.408 2.842-.162.1-.204.296-.093.442.054.073.135.12.232.135l-.004.004ZM5.743 5.378a.305.305 0 0 0 .035-.45.337.337 0 0 0-.236-.108H5.52a.358.358 0 0 0-.223.077C2.933 6.812 1.175 9.293.188 12.058v2.673C.82 11.09 2.786 7.774 5.743 5.378Z"/>
    <path fill="#43413D" d="M1.138 7.119a.302.302 0 0 0 .088.442.347.347 0 0 0 .197.058c.112 0 .216-.05.281-.139C4.484 3.726 8.76 1.207 13.54.4h-2.753C6.908 1.6 3.505 3.93 1.142 7.118h-.004ZM.766 8.238a.357.357 0 0 0-.466.12c-.039.065-.073.13-.112.192v1.4c.216-.435.451-.858.71-1.277a.31.31 0 0 0-.128-.435H.766Z"/>
    <path fill="#43413D" d="M8.268.446a.341.341 0 0 0 .181-.193c.012-.03.012-.065.012-.1H7.32C4.494 1.561 2.073 3.52.188 5.907v1.177c2.009-2.811 4.8-5.135 8.08-6.642v.004ZM.845 3.838l.061.042A20.912 20.912 0 0 1 5.355.4h-.702c-.208 0-.412.019-.613.046-.312.207-.62.419-.921.638-.836.812-1.6 1.738-2.274 2.754Zm4.328 15.393c-.185-.038-.37.062-.413.235-.91 3.48-2.177 6.342-3.692 8.342.138.189.289.366.454.527 1.604-2.061 2.946-5.054 3.901-8.719a.322.322 0 0 0-.25-.385Zm.355-1.224a.337.337 0 0 0 .335-.258c.143-.665.27-1.346.382-2.03.366-2.22 1.492-4.204 3.261-5.743a.301.301 0 0 0 .015-.45.366.366 0 0 0-.485-.015c-1.881 1.639-3.08 3.754-3.47 6.112a41.524 41.524 0 0 1-.377 2.004c-.02.084 0 .169.05.238.05.07.127.12.22.135.019.003.042.007.065.007h.004Zm5.106-9.662a.306.306 0 0 0-.1.443c.062.092.17.146.29.146a.38.38 0 0 0 .184-.05 11.347 11.347 0 0 1 5.875-1.616h6.303V6.63h-6.303c-2.224 0-4.383.596-6.248 1.72v-.005ZM44.65.397h-2.344l-7.821 17.185-.035.076h1.426l3.026-6.638h8.018l2.98 6.608.015.034h2.475L44.673.432l-.015-.035h-.008Zm1.777 9.504h-7.004l3.515-7.754 3.489 7.754ZM72.373 4.82c-.825-1.32-2.07-2.4-3.697-3.208C67.053.805 65.072.397 62.786.397h-6.727v17.262h6.727c2.282 0 4.263-.408 5.89-1.216 1.627-.808 2.872-1.885 3.697-3.196.825-1.308 1.245-2.72 1.245-4.196 0-1.477-.417-2.916-1.245-4.23Zm-1.165 4.185a7.137 7.137 0 0 1-1.021 3.688c-.675 1.139-1.7 2.073-3.041 2.78-1.346.709-2.996 1.066-4.9 1.066h-3.87V1.516h3.99c1.885 0 3.515.358 4.837 1.066 1.323.707 2.332 1.638 2.995 2.769a7.12 7.12 0 0 1 1.007 3.654h.004Zm19.391 8.652h2.475L85.353.427l-.016-.035h-2.344l-7.82 17.185-.035.077h1.426l3.026-6.639h8.018l2.98 6.608.015.034h-.004Zm-3.485-7.761H80.11l3.516-7.754 3.488 7.754Zm20.739 5.401L99.203.424l-.02-.027h-2.432v17.262h1.33V2.847l8.596 14.785.015.026h1.234l8.823-14.734v14.735h2.321V.396h-2.313l-8.904 14.9Zm27.075-5.82c-.86-.396-2.028-.861-3.462-1.392-1.272-.462-2.286-.862-3.011-1.185-.713-.315-1.314-.703-1.792-1.15-.459-.427-.682-.915-.682-1.488 0-.954.458-1.673 1.399-2.189.968-.53 2.17-.8 3.577-.8 1.145 0 2.255.181 3.304.539 1.033.354 1.846.858 2.417 1.5l.158.177.875-.78-.143-.15c-.74-.797-1.727-1.4-2.926-1.805a11.896 11.896 0 0 0-3.808-.604c-1.238 0-2.413.173-3.489.516-1.091.346-1.985.865-2.656 1.538-.686.685-1.033 1.508-1.033 2.439 0 .884.324 1.657.96 2.296.617.62 1.372 1.138 2.251 1.55.86.404 2.024.865 3.466 1.38 1.249.447 2.255.84 2.991 1.174.721.323 1.334.723 1.823 1.184.471.443.698.939.698 1.512 0 .954-.493 1.673-1.515 2.196-1.048.542-2.344.815-3.855.815-1.264 0-2.494-.196-3.646-.588-1.145-.385-2.055-.946-2.702-1.67l-.178-.196-.782.862.127.135c.802.857 1.866 1.515 3.165 1.95 1.287.43 2.659.65 4.074.65 1.295 0 2.54-.177 3.697-.527 1.168-.354 2.124-.877 2.833-1.558.729-.696 1.099-1.52 1.099-2.458 0-.938-.328-1.684-.972-2.33a7.698 7.698 0 0 0-2.266-1.55l.004.007Z"/>
    <path fill="url(#b)" d="M77.958 25.396h-1.303v4.347h1.33c1.496 0 2.352-.8 2.352-2.193 0-1.392-.845-2.154-2.383-2.154h.004Zm-.509.608h.463c1.052 0 1.607.535 1.607 1.546 0 1.012-.555 1.585-1.607 1.585h-.463V26v.004Z"/>
    <path fill="url(#c)" d="M83.105 27.777h1.839v-.627h-1.839v-1.134h2.178v-.62h-2.972v4.347h3.045v-.627h-2.25v-1.339Z"/>
    <path fill="url(#d)" d="m89.43 27.347-.69-.254c-.382-.139-.744-.27-.744-.612 0-.319.32-.523.81-.523.392 0 .736.123 1.04.373l.066.054.454-.469-.069-.058c-.39-.342-.933-.538-1.496-.538-.932 0-1.61.504-1.61 1.192 0 .527.338.904 1.04 1.158l.698.261c.447.173.744.289.744.654 0 .366-.355.592-.922.592a1.93 1.93 0 0 1-1.276-.5l-.065-.057-.497.496.069.061c.463.412 1.087.639 1.762.639 1.021 0 1.738-.523 1.738-1.277 0-.704-.532-1-1.056-1.196l.004.004Z"/>
    <path fill="url(#e)" d="M93.162 25.396h-.794v4.347h.794v-4.346Z"/>
    <path fill="url(#f)" d="M97.232 28.02h1.026v.957c-.181.127-.478.204-.783.204-.952 0-1.519-.607-1.519-1.623 0-1.015.579-1.6 1.511-1.6.498 0 .787.2.983.373l.066.058.462-.47-.065-.06c-.393-.358-.887-.54-1.457-.54-1.384 0-2.313.905-2.313 2.25 0 1.347.894 2.25 2.278 2.25.62 0 1.203-.188 1.565-.515l.02-.019v-1.88h-1.77v.611l-.004.004Z"/>
    <path fill="url(#g)" d="M103.955 27.639c0 .334.023.677.05 1.015l-.362-.6-1.758-2.63-.019-.027h-.775v4.346h.763v-2.27c0-.334-.023-.673-.054-.984l.359.588 1.765 2.639.019.027h.775v-4.346h-.763v2.242Z"/>
    <path fill="url(#h)" d="m111.684 27.346-.69-.254c-.382-.138-.744-.269-.744-.611 0-.32.32-.523.809-.523.394 0 .737.123 1.041.373l.066.054.455-.47-.07-.061c-.389-.342-.933-.539-1.495-.539-.933 0-1.612.504-1.612 1.193 0 .527.34.904 1.041 1.157l.698.262c.447.173.744.288.744.654 0 .365-.355.592-.921.592-.459 0-.922-.18-1.276-.5l-.066-.058-.493.493.069.061c.463.412 1.091.639 1.762.639 1.021 0 1.738-.523 1.738-1.277 0-.704-.532-1-1.056-1.196v.011Z"/>
    <path fill="url(#i)" d="M114.016 26.016h1.461v3.727h.802v-3.727h1.465v-.62h-3.728v.62Z"/>
    <path fill="url(#j)" d="M122.411 27.942c0 .83-.347 1.235-1.057 1.235-.709 0-1.04-.404-1.04-1.235v-2.55h-.794v2.535c0 1.234.632 1.888 1.834 1.888 1.203 0 1.828-.635 1.828-1.888v-2.535h-.771v2.55Z"/>
    <path fill="url(#k)" d="M126.721 25.396h-1.303v4.347h1.33c1.495 0 2.351-.8 2.351-2.193 0-1.392-.844-2.154-2.382-2.154h.004Zm-.509.608h.462c1.053 0 1.608.535 1.608 1.546 0 1.012-.555 1.585-1.608 1.585h-.462V26v.004Z"/>
    <path fill="url(#l)" d="M131.867 25.396h-.794v4.347h.794v-4.346Z"/>
    <path fill="url(#m)" d="M136.003 25.32c-1.311 0-2.159.877-2.159 2.23 0 1.354.867 2.27 2.159 2.27 1.291 0 2.166-.912 2.166-2.27 0-1.357-.852-2.23-2.166-2.23Zm1.341 2.23c0 .993-.528 1.631-1.341 1.631-.814 0-1.342-.638-1.342-1.63 0-.993.528-1.593 1.342-1.593.813 0 1.341.623 1.341 1.593Z"/>
    <path fill="url(#n)" d="M72.03 27.312H34.446v.515H72.03v-.515Z"/>
  </g>
  <defs>
    <linearGradient id="b" x1="78.498" x2="78.498" y1="29.743" y2="25.396" gradientUnits="userSpaceOnUse">
      <stop offset=".08" stop-color="#A47E57"/>
      <stop offset=".32" stop-color="#DCB380"/>
      <stop offset=".75" stop-color="#D5AC7A"/>
      <stop offset=".97" stop-color="#9E7853"/>
    </linearGradient>
    <linearGradient id="c" x1="83.834" x2="83.834" y1="-97.884" y2="-97.884" gradientUnits="userSpaceOnUse">
      <stop offset=".08" stop-color="#A47E57"/>
      <stop offset=".32" stop-color="#DCB380"/>
      <stop offset=".75" stop-color="#D5AC7A"/>
      <stop offset=".97" stop-color="#9E7853"/>
    </linearGradient>
    <linearGradient id="d" x1="88.701" x2="88.701" y1="29.82" y2="25.32" gradientUnits="userSpaceOnUse">
      <stop offset=".08" stop-color="#A47E57"/>
      <stop offset=".32" stop-color="#DCB380"/>
      <stop offset=".75" stop-color="#D5AC7A"/>
      <stop offset=".97" stop-color="#9E7853"/>
    </linearGradient>
    <linearGradient id="e" x1="92.765" x2="92.765" y1="-97.884" y2="-97.884" gradientUnits="userSpaceOnUse">
      <stop offset=".08" stop-color="#A47E57"/>
      <stop offset=".32" stop-color="#DCB380"/>
      <stop offset=".75" stop-color="#D5AC7A"/>
      <stop offset=".97" stop-color="#9E7853"/>
    </linearGradient>
    <linearGradient id="f" x1="97.07" x2="97.07" y1="29.82" y2="25.32" gradientUnits="userSpaceOnUse">
      <stop offset=".08" stop-color="#A47E57"/>
      <stop offset=".32" stop-color="#DCB380"/>
      <stop offset=".75" stop-color="#D5AC7A"/>
      <stop offset=".97" stop-color="#9E7853"/>
    </linearGradient>
    <linearGradient id="g" x1="102.906" x2="102.906" y1="-97.884" y2="-97.884" gradientUnits="userSpaceOnUse">
      <stop offset=".08" stop-color="#A47E57"/>
      <stop offset=".32" stop-color="#DCB380"/>
      <stop offset=".75" stop-color="#D5AC7A"/>
      <stop offset=".97" stop-color="#9E7853"/>
    </linearGradient>
    <linearGradient id="h" x1="110.955" x2="110.955" y1="29.819" y2="25.319" gradientUnits="userSpaceOnUse">
      <stop offset=".08" stop-color="#A47E57"/>
      <stop offset=".32" stop-color="#DCB380"/>
      <stop offset=".75" stop-color="#D5AC7A"/>
      <stop offset=".97" stop-color="#9E7853"/>
    </linearGradient>
    <linearGradient id="i" x1="115.878" x2="115.878" y1="-97.884" y2="-97.884" gradientUnits="userSpaceOnUse">
      <stop offset=".08" stop-color="#A47E57"/>
      <stop offset=".32" stop-color="#DCB380"/>
      <stop offset=".75" stop-color="#D5AC7A"/>
      <stop offset=".97" stop-color="#9E7853"/>
    </linearGradient>
    <linearGradient id="j" x1="121.351" x2="121.351" y1="29.819" y2="-97.885" gradientUnits="userSpaceOnUse">
      <stop offset=".08" stop-color="#A47E57"/>
      <stop offset=".32" stop-color="#DCB380"/>
      <stop offset=".75" stop-color="#D5AC7A"/>
      <stop offset=".97" stop-color="#9E7853"/>
    </linearGradient>
    <linearGradient id="k" x1="127.26" x2="127.26" y1="-97.884" y2="-97.884" gradientUnits="userSpaceOnUse">
      <stop offset=".08" stop-color="#A47E57"/>
      <stop offset=".32" stop-color="#DCB380"/>
      <stop offset=".75" stop-color="#D5AC7A"/>
      <stop offset=".97" stop-color="#9E7853"/>
    </linearGradient>
    <linearGradient id="l" x1="131.47" x2="131.47" y1="-97.884" y2="-97.884" gradientUnits="userSpaceOnUse">
      <stop offset=".08" stop-color="#A47E57"/>
      <stop offset=".32" stop-color="#DCB380"/>
      <stop offset=".75" stop-color="#D5AC7A"/>
      <stop offset=".97" stop-color="#9E7853"/>
    </linearGradient>
    <linearGradient id="m" x1="136.007" x2="136.007" y1="29.82" y2="25.32" gradientUnits="userSpaceOnUse">
      <stop offset=".08" stop-color="#A47E57"/>
      <stop offset=".32" stop-color="#DCB380"/>
      <stop offset=".75" stop-color="#D5AC7A"/>
      <stop offset=".97" stop-color="#9E7853"/>
    </linearGradient>
    <linearGradient id="n" x1="62.763" x2="43.755" y1="37.074" y2="18.023" gradientUnits="userSpaceOnUse">
      <stop offset=".08" stop-color="#A47E57"/>
      <stop offset=".32" stop-color="#DCB380"/>
      <stop offset=".75" stop-color="#D5AC7A"/>
      <stop offset=".97" stop-color="#9E7853"/>
    </linearGradient>
    <clipPath id="a">
      <path fill="#fff" d="M0 0h138v30H0z"/>
    </clipPath>
  </defs>
</svg>
