<svg width="391" height="85" viewBox="0 0 391 85" fill="none" xmlns="http://www.w3.org/2000/svg">
<g clip-path="url(#clip0_652_8368)">
<path d="M8.85733 81.0165C8.81364 80.7771 8.66073 80.5704 8.45322 80.4398C8.23478 80.2984 7.97266 80.2549 7.72146 80.2984C7.47026 80.3419 7.25183 80.4725 7.10984 80.6792C6.8368 81.0383 6.55283 81.3865 6.27979 81.7455C6.81495 82.0937 7.38289 82.3984 7.97267 82.6704C8.22387 82.3548 8.46415 82.0284 8.71535 81.702C8.85733 81.5061 8.91194 81.2668 8.86825 81.0274L8.85733 81.0165Z" fill="#ffffff"/>
<path d="M49.7368 23.8377C49.7368 24.3382 50.1737 24.7407 50.7089 24.7407H65.6935V22.9346H50.7089C50.1737 22.9346 49.7368 23.3372 49.7368 23.8377Z" fill="#ffffff"/>
<path d="M45.5236 24.8402C46.0587 24.7967 46.4519 24.3506 46.3973 23.861C46.3536 23.3931 45.9277 23.0449 45.4362 23.0449C45.4034 23.0449 45.3816 23.0449 45.3488 23.0449C32.7123 24.1112 22.1509 33.2726 20.2396 44.8386C18.0116 58.287 14.1453 69.6898 9.0448 77.8285C8.77176 78.2528 8.93558 78.8077 9.3943 79.058C9.53628 79.1341 9.71103 79.1776 9.88578 79.1776C10.2353 79.1776 10.552 79.0035 10.7268 78.7315C15.9474 70.4079 19.9011 58.7766 22.1619 45.1107C23.9421 34.3607 33.7608 25.8303 45.5236 24.8402Z" fill="#ffffff"/>
<path d="M20.8708 64.5207C20.6196 64.4445 20.3574 64.4663 20.1281 64.5751C19.8987 64.6839 19.724 64.8689 19.6475 65.1082C17.1027 72.507 13.9682 78.6545 10.3203 83.4637C11.0084 83.6269 11.7183 83.7249 12.4501 83.7575C15.9778 78.9048 19.0141 72.8443 21.4933 65.6523C21.6571 65.1844 21.3732 64.673 20.8708 64.5207Z" fill="#ffffff"/>
<path d="M24.4987 45.4484C23.5595 51.1171 22.3362 56.4704 20.8727 61.3557C20.8072 61.5842 20.829 61.8345 20.9601 62.0412C21.0911 62.2479 21.2986 62.4003 21.5389 62.4655C21.6263 62.4873 21.7137 62.4982 21.801 62.4982C22.227 62.4982 22.6202 62.237 22.7403 61.8344C24.2366 56.8729 25.4708 51.4544 26.421 45.7095C28.0155 36.0367 37.2335 28.7359 47.8386 28.7359H65.6957V26.9297H47.8386C36.2833 26.9297 26.2462 34.8834 24.4987 45.4266V45.4484Z" fill="#ffffff"/>
<path d="M37.6677 35.8189C38.1045 35.5251 38.2028 34.9593 37.8861 34.5567C37.5803 34.1541 36.9686 34.0671 36.5318 34.35C32.3487 37.1463 29.52 41.4115 28.7446 46.0466C26.1452 61.7472 21.5034 74.608 15.1797 83.7912H17.4405C23.5895 74.4448 28.1111 61.7037 30.6559 46.3186C31.3439 42.1622 33.8996 38.3323 37.6567 35.808L37.6677 35.8189Z" fill="#ffffff"/>
<path d="M40.2594 32.4033C40.0191 32.5012 39.8335 32.6753 39.7461 32.8929C39.6478 33.1105 39.6478 33.3608 39.7461 33.5784C39.8553 33.8069 40.041 33.9701 40.2813 34.068C40.3905 34.1115 40.5106 34.1333 40.6307 34.1333C40.7618 34.1333 40.8929 34.1115 41.013 34.0571C43.1865 33.1867 45.48 32.7515 47.8282 32.7515H65.6853V30.9453H47.8282C45.207 30.9453 42.6622 31.4349 40.2485 32.4033H40.2594Z" fill="#ffffff"/>
<path d="M47.8363 36.7554H58.2338C58.769 36.7554 59.2059 36.3528 59.2059 35.8523C59.2059 35.3518 58.769 34.9492 58.2338 34.9492H47.8363C40.4859 34.9492 34.1076 39.9869 33.0045 46.6676C30.5143 61.6936 26.1347 74.3041 20.1714 83.8028H22.3776C28.1989 74.1953 32.4802 61.7045 34.9158 46.9396C35.8769 41.1294 41.4252 36.7554 47.8363 36.7554Z" fill="#ffffff"/>
<path d="M63.5083 35.8523C63.5083 36.3528 63.9452 36.7554 64.4803 36.7554H65.7036V34.9492H64.4803C63.9452 34.9492 63.5083 35.3518 63.5083 35.8523Z" fill="#ffffff"/>
<path d="M28.518 80.9299C28.4306 80.7014 28.2559 80.5164 28.0265 80.4076C27.546 80.19 26.9562 80.375 26.7268 80.8211C26.1917 81.8439 25.6456 82.8231 25.0776 83.7915H27.2838C27.6879 83.0734 28.0811 82.3553 28.4634 81.6045C28.5726 81.3869 28.5945 81.1475 28.5071 80.919L28.518 80.9299Z" fill="#ffffff"/>
<path d="M37.2562 47.264C35.4432 58.2207 32.6253 68.0241 28.8682 76.3912C28.6607 76.8482 28.901 77.3814 29.3925 77.5772C29.5126 77.6207 29.6328 77.6425 29.7638 77.6425C30.1461 77.6425 30.5065 77.4358 30.6594 77.0876C34.4711 68.579 37.3435 58.6342 39.1784 47.5361C39.8228 43.6626 43.5471 40.7466 47.8394 40.7466H65.6965V38.9404H47.8394C42.5969 38.9404 38.0425 42.5201 37.2562 47.264Z" fill="#ffffff"/>
<path d="M42.7039 50.683C42.551 50.4871 42.3325 50.3566 42.0813 50.313C41.8301 50.2695 41.5789 50.313 41.3605 50.4545C41.1421 50.5959 41.0001 50.8027 40.9564 51.042C38.6082 63.6308 34.8293 74.6963 29.8599 83.7925H32.0333C36.8826 74.6855 40.5632 63.7287 42.8677 51.3467C42.9114 51.1073 42.8568 50.868 42.7039 50.6721V50.683Z" fill="#ffffff"/>
<path d="M42.1375 46.1215C42.0173 46.3391 41.9955 46.5784 42.0719 46.8069C42.1484 47.0354 42.3122 47.2204 42.5416 47.3401C42.6836 47.4054 42.8365 47.4489 43.0003 47.4489C43.0986 47.4489 43.1969 47.438 43.2843 47.4054C43.5355 47.3292 43.7321 47.1769 43.8631 46.9593C44.6167 45.621 46.1894 44.7505 47.8496 44.7505H65.7067V42.9443H47.8496C45.4795 42.9443 43.2406 44.1847 42.1484 46.1106L42.1375 46.1215Z" fill="#ffffff"/>
<path d="M47.8359 46.9482C46.8201 46.9482 45.9027 47.6228 45.7607 48.4824C43.8494 60.0484 40.835 70.472 36.7939 79.4593C36.6956 79.6878 36.6956 79.9272 36.7939 80.1557C36.8922 80.3733 37.0779 80.5474 37.3182 80.6453C37.4383 80.6997 37.5694 80.7215 37.6895 80.7215C37.8097 80.7215 37.9298 80.6997 38.0499 80.6562C38.2902 80.5691 38.4868 80.395 38.5851 80.1665C42.6808 71.0486 45.7389 60.5054 47.6611 48.8306C47.683 48.8088 47.7485 48.7653 47.8359 48.7653H65.693V46.9591H47.8359V46.9482Z" fill="#ffffff"/>
<path d="M50.4461 52.2681C50.1949 52.2246 49.9437 52.2681 49.7253 52.4096C49.5068 52.551 49.3648 52.7577 49.3212 52.9971C47.1368 64.4652 43.762 74.8452 39.3823 83.789H41.5448C45.7934 74.9323 49.0481 64.7481 51.2325 53.3126C51.3198 52.823 50.9703 52.3552 50.4461 52.2681Z" fill="#ffffff"/>
<path d="M53.3975 51.8543C53.3975 52.3548 53.8343 52.7573 54.3695 52.7573H65.7063V50.9512H54.3695C53.8343 50.9512 53.3975 51.3538 53.3975 51.8543Z" fill="#ffffff"/>
<path d="M53.1681 55.6889C51.377 64.426 48.9305 72.5647 45.8833 79.8764C45.785 80.1049 45.7959 80.3442 45.9051 80.5727C46.0144 80.7903 46.2 80.9644 46.4403 81.0515C46.5495 81.095 46.6697 81.1059 46.7898 81.1059C47.183 81.1059 47.5434 80.8883 47.6963 80.5292C50.6998 73.3154 53.1354 65.3291 54.9265 56.7661H65.7064V54.96H54.1292C53.6596 54.96 53.2664 55.2646 53.1791 55.6889H53.1681Z" fill="#ffffff"/>
<path d="M45.5442 83.0613C45.0527 82.8655 44.4847 83.0831 44.2663 83.5401C44.2226 83.6271 44.1789 83.7142 44.1353 83.8012H46.1012C46.1012 83.725 46.0902 83.638 46.0575 83.5618C45.9592 83.3333 45.7735 83.1593 45.5332 83.0613H45.5442Z" fill="#ffffff"/>
<path d="M65.6943 58.9629H61.3584V60.7691H65.6943V58.9629Z" fill="#ffffff"/>
<path d="M58.6174 59.9539L56.717 59.584L56.6952 59.6819C54.7074 68.4407 52.0534 76.5032 48.7769 83.804H50.8738C54.063 76.5794 56.6515 68.6366 58.5955 60.0518L58.6174 59.9539Z" fill="#ffffff"/>
<path d="M60.1581 63.6614C58.3669 70.8316 56.0951 77.5449 53.3975 83.7795C54.1511 83.7577 54.8828 83.6816 55.5927 83.5401C58.072 77.6755 60.1799 71.4083 61.8728 64.7603H65.7063V62.9541H60.3437L60.169 63.6505L60.1581 63.6614Z" fill="#ffffff"/>
<path d="M63.5429 67.6435C62.134 72.8335 60.452 77.8059 58.5298 82.5281C59.5455 82.0384 60.4848 81.4182 61.3258 80.6892C62.7784 76.8593 64.089 72.8661 65.2358 68.7642H65.6945V66.958H63.7286L63.5429 67.6435Z" fill="#ffffff"/>
<path d="M3.63595 72.6289C3.5595 72.4005 3.39567 72.2046 3.16631 72.0958C2.69668 71.8564 2.1069 72.0196 1.85569 72.4549C1.53896 72.9989 1.20039 73.5211 0.861816 74.0434C1.04749 74.8268 1.29868 75.5885 1.62634 76.3066C2.29257 75.3708 2.93696 74.3698 3.5595 73.3253C3.67964 73.1186 3.7124 72.8683 3.63595 72.6398V72.6289Z" fill="#ffffff"/>
<path d="M11.3159 43.5546C9.71039 53.2491 7.13285 61.9535 3.85631 68.7212C3.74709 68.9389 3.73618 69.1891 3.83447 69.4176C3.93277 69.6461 4.10752 69.8202 4.33687 69.9181C4.46793 69.9725 4.59899 70.0051 4.74097 70.0051C4.85019 70.0051 4.97034 69.9834 5.07956 69.9508C5.31983 69.8637 5.51643 69.7005 5.62564 69.472C9.02232 62.4541 11.5889 53.8258 13.2381 43.8375C15.8703 27.9083 30.429 16.3423 47.8493 16.3423H65.7064V14.5361H47.8493C29.4679 14.5361 14.1119 26.7441 11.3268 43.5546H11.3159Z" fill="#ffffff"/>
<path d="M30.1203 16.1776C30.3497 16.0688 30.5244 15.8838 30.6118 15.6553C30.6992 15.4268 30.6773 15.1766 30.5572 14.9699C30.4371 14.7522 30.2405 14.589 30.0002 14.5129C29.7599 14.4367 29.4978 14.4585 29.2575 14.5673C17.3855 20.062 9.08496 30.6814 7.05351 42.9546C5.37156 53.1279 2.90323 60.5049 0.533203 65.7167V70.0254C4.26845 63.1489 7.22826 53.8243 8.97575 43.2266C10.9089 31.53 18.8163 21.422 30.1203 16.1885V16.1776Z" fill="#ffffff"/>
<path d="M33.2256 12.9713C32.9854 13.0583 32.7888 13.2215 32.6796 13.4392C32.5703 13.6568 32.5594 13.907 32.6577 14.1355C32.7451 14.364 32.9308 14.5381 33.171 14.636C33.3021 14.6904 33.4332 14.723 33.5752 14.723C33.6844 14.723 33.8045 14.7013 33.9137 14.6687C38.348 13.1345 43.0443 12.3511 47.8499 12.3511H65.6306C65.5651 11.7309 65.434 11.1325 65.2811 10.5449H47.8499C42.8041 10.5449 37.8892 11.361 33.2366 12.9822L33.2256 12.9713Z" fill="#ffffff"/>
<path d="M65.6942 8.33449L65.5631 8.17129C65.159 7.67079 64.7331 7.13764 64.2307 6.57185L64.1979 6.52832H49.2569C27.741 6.52832 9.0101 19.5414 3.70211 38.1798C3.56012 38.6586 3.88778 39.1591 4.42295 39.2788C4.4994 39.3005 4.58677 39.3114 4.67415 39.3114C5.13286 39.3114 5.52604 39.0285 5.64618 38.6368C10.7139 20.7927 28.6475 8.33449 49.2569 8.33449H65.6833H65.6942Z" fill="#ffffff"/>
<path d="M4.08278 44.6224C3.92988 44.4266 3.71144 44.296 3.46024 44.2525C3.20904 44.209 2.94692 44.2525 2.73941 44.3939C2.52097 44.5354 2.37899 44.7421 2.3353 44.9924C1.81105 47.7887 1.19943 50.4217 0.533203 52.9351V59.5396C2.01857 55.3397 3.25273 50.585 4.24661 45.3079C4.2903 45.0685 4.23569 44.8291 4.08278 44.6333V44.6224Z" fill="#ffffff"/>
<path d="M19.9862 12.1954C20.0517 12.1954 20.1063 12.2063 20.1718 12.2063C20.3684 12.2063 20.565 12.1519 20.7398 12.0431C29.0622 6.98363 38.8699 4.31789 49.0927 4.31789H62.1661L61.9913 4.1438C61.4343 3.58889 60.8664 3.05574 60.2985 2.54436L60.2657 2.51172H49.0927C38.4549 2.51172 28.2539 5.28627 19.6039 10.5525C19.1452 10.8353 19.025 11.3903 19.3418 11.8037C19.4947 12.0104 19.724 12.141 19.9971 12.1845L19.9862 12.1954Z" fill="#ffffff"/>
<path d="M16.2715 15.2125C16.6756 14.886 16.7193 14.3094 16.3698 13.9394C16.195 13.7545 15.9657 13.6456 15.7036 13.6348C15.6817 13.6348 15.6599 13.6348 15.638 13.6348C15.4087 13.6348 15.1793 13.7109 15.0046 13.8524C8.30952 19.2709 3.32918 26.2888 0.533203 34.112V41.6739C2.32438 31.37 7.89449 21.991 16.2715 15.2125Z" fill="#ffffff"/>
<path d="M3.22332 20.1392C2.91751 20.5526 3.02674 21.1075 3.47453 21.3904C3.63836 21.4992 3.82403 21.5536 4.03154 21.5536C4.34827 21.5536 4.64316 21.4122 4.82883 21.162C12.7034 10.5425 24.8157 3.41577 38.3587 1.13086H30.5606C19.5732 4.52559 9.9293 11.1192 3.23425 20.1392H3.22332Z" fill="#ffffff"/>
<path d="M2.17147 23.3047C1.94211 23.185 1.67999 23.1523 1.43971 23.2176C1.18851 23.2829 0.980997 23.4352 0.849936 23.642C0.740718 23.8269 0.642421 24.0119 0.533203 24.186V28.1465C1.14482 26.917 1.81106 25.7201 2.54282 24.5342C2.80494 24.0989 2.64111 23.5549 2.1824 23.3047H2.17147Z" fill="#ffffff"/>
<path d="M23.4253 1.26053C23.6656 1.15172 23.8512 0.95587 23.9386 0.716498C23.9714 0.629454 23.9714 0.531519 23.9714 0.433594H20.7385C12.7328 4.41587 5.87396 9.95406 0.533203 16.7109V20.0404C6.22345 12.0867 14.1308 5.51481 23.4253 1.24963V1.26053Z" fill="#ffffff"/>
<path d="M2.39355 10.8581L2.5683 10.9778C6.28171 7.1478 10.5303 3.85099 15.172 1.13086H13.1843C12.5945 1.13086 12.0156 1.18527 11.4477 1.26144C10.5631 1.84899 9.6893 2.44742 8.8374 3.06761C6.46737 5.3634 4.30487 7.98562 2.39355 10.8581Z" fill="#ffffff"/>
<path d="M14.6566 54.405C14.1324 54.2962 13.6081 54.5791 13.488 55.0687C10.9104 64.9156 7.31717 73.0107 3.0249 78.6686C3.41809 79.2018 3.84404 79.7023 4.31367 80.1593C8.85714 74.3273 12.6579 65.8622 15.3665 55.4931C15.4867 55.0143 15.1699 54.5247 14.6566 54.405Z" fill="#ffffff"/>
<path d="M15.6621 50.9411C16.1208 50.9411 16.5249 50.6364 16.6123 50.2121C17.0164 48.3297 17.3768 46.4039 17.6936 44.4671C18.7311 38.1891 21.9203 32.5747 26.9334 28.2225C27.3266 27.8852 27.3484 27.3085 26.9771 26.9495C26.6167 26.5904 25.9941 26.5687 25.601 26.906C20.2711 31.5411 16.8744 37.5254 15.7713 44.1951C15.4655 46.0666 15.1051 47.9816 14.701 49.8639C14.6464 50.1033 14.701 50.3427 14.843 50.5385C14.985 50.7344 15.2034 50.8758 15.4655 50.9193C15.5201 50.9302 15.5857 50.9411 15.6512 50.9411H15.6621Z" fill="#ffffff"/>
<path d="M30.1314 23.6086C29.6836 23.8806 29.5525 24.4355 29.8474 24.8599C30.0222 25.121 30.328 25.2733 30.6666 25.2733C30.8522 25.2733 31.0379 25.2189 31.1908 25.1319C36.1493 22.1397 41.9051 20.562 47.8356 20.562H65.6927V18.7559H47.8356C41.5337 18.7559 35.4175 20.4423 30.1314 23.6195V23.6086Z" fill="#ffffff"/>
<path d="M126.508 1.12207H119.868L97.7077 49.7363L97.6094 49.9539H101.65L110.224 31.1741H132.941L141.384 49.8669L141.428 49.9648H148.439L126.574 1.21999L126.53 1.12207H126.508ZM131.543 28.0079H111.698L121.659 6.0727L131.543 28.0079Z" fill="#ffffff"/>
<path d="M205.056 13.6347C202.719 9.90267 199.191 6.84524 194.582 4.56032C189.984 2.27541 184.371 1.12207 177.894 1.12207H158.835V49.9539H177.894C184.36 49.9539 189.973 48.8006 194.582 46.5157C199.191 44.2308 202.719 41.1842 205.056 37.474C207.394 33.7746 208.584 29.7814 208.584 25.6033C208.584 21.4252 207.405 17.3558 205.056 13.6347ZM201.758 25.4727C201.758 29.1612 200.786 32.6756 198.864 35.9072C196.952 39.1278 194.047 41.7718 190.247 43.7738C186.435 45.7758 181.76 46.7877 176.365 46.7877H165.399V4.28831H176.704C182.044 4.28831 186.664 5.30019 190.41 7.30221C194.157 9.30423 197.018 11.9373 198.897 15.1362C200.786 18.346 201.747 21.8169 201.747 25.4727H201.758Z" fill="#ffffff"/>
<path d="M256.697 49.9521H263.709L241.832 1.2073L241.789 1.10938H235.148L212.988 49.7236L212.89 49.9412H216.931L225.504 31.1614H248.222L256.664 49.8542L256.708 49.9521H256.697ZM246.824 27.9952H226.979L236.939 6.06003L246.824 27.9952Z" fill="#ffffff"/>
<path d="M305.583 43.2733L281.075 1.19824L281.02 1.12207H274.128V49.9539H277.896V8.05297L302.252 49.8778L302.296 49.9539H305.791L330.791 8.27059V49.9539H337.366V1.12207H330.813L305.583 43.2733Z" fill="#ffffff"/>
<path d="M382.295 26.8101C379.859 25.6894 376.55 24.3729 372.487 22.8713C368.883 21.5657 366.011 20.4341 363.957 19.5202C361.937 18.628 360.233 17.529 358.879 16.2669C357.579 15.0591 356.946 13.6773 356.946 12.0561C356.946 9.35771 358.245 7.32308 360.91 5.86509C363.652 4.36358 367.059 3.60192 371.046 3.60192C374.289 3.60192 377.435 4.1133 380.406 5.12519C383.333 6.1262 385.637 7.55154 387.254 9.36859L387.701 9.86912L390.181 7.66037L389.776 7.23602C387.679 4.98375 384.884 3.2755 381.487 2.13304C378.123 1.00146 374.497 0.424805 370.696 0.424805C367.19 0.424805 363.859 0.914442 360.812 1.88281C357.721 2.86206 355.187 4.33093 353.287 6.23503C351.343 8.17176 350.36 10.5002 350.36 13.1333C350.36 15.6358 351.277 17.8228 353.079 19.629C354.827 21.3807 356.967 22.8496 359.458 24.0138C361.893 25.1563 365.192 26.4619 369.276 27.9199C372.815 29.1821 375.666 30.2919 377.752 31.2385C379.794 32.1525 381.531 33.284 382.918 34.5897C384.25 35.841 384.894 37.2446 384.894 38.8658C384.894 41.5641 383.496 43.5988 380.602 45.0785C377.631 46.6127 373.962 47.3852 369.68 47.3852C366.098 47.3852 362.614 46.8303 359.348 45.7205C356.105 44.6324 353.527 43.0439 351.692 40.9983L351.19 40.4434L348.973 42.8807L349.333 43.2615C351.605 45.6879 354.619 47.5484 358.3 48.7779C361.948 49.9965 365.836 50.6167 369.844 50.6167C373.514 50.6167 377.042 50.1162 380.318 49.1261C383.627 48.1251 386.336 46.6453 388.346 44.7195C390.41 42.7501 391.458 40.4217 391.458 37.7668C391.458 35.112 390.53 33.0011 388.706 31.1732C386.937 29.3997 384.774 27.9308 382.284 26.7883L382.295 26.8101Z" fill="#ffffff"/>
<path d="M220.882 71.8457H217.19V84.1407H220.958C225.196 84.1407 227.62 81.8776 227.62 77.9388C227.62 74.0001 225.228 71.8457 220.871 71.8457H220.882ZM219.44 73.5648H220.75C223.732 73.5648 225.305 75.0772 225.305 77.9388C225.305 80.8004 223.732 82.4216 220.75 82.4216H219.44V73.554V73.5648Z" fill="url(#paint0_linear_652_8368)"/>
<path d="M235.464 78.5808H240.674V76.8072H235.464V73.5975H241.635V71.8457H233.214V84.1407H241.843V82.3672H235.464V78.5808Z" fill="url(#paint1_linear_652_8368)"/>
<path d="M253.384 77.363L251.429 76.6449C250.348 76.2532 249.321 75.8832 249.321 74.9149C249.321 74.0118 250.227 73.4351 251.615 73.4351C252.729 73.4351 253.701 73.7833 254.563 74.4905L254.749 74.6428L256.038 73.3154L255.841 73.1522C254.738 72.1838 253.198 71.6289 251.604 71.6289C248.961 71.6289 247.038 73.0543 247.038 75.0019C247.038 76.4925 247.999 77.5588 249.987 78.2769L251.964 79.0168C253.231 79.5064 254.072 79.8329 254.072 80.8665C254.072 81.9002 253.067 82.5421 251.462 82.5421C250.162 82.5421 248.851 82.0307 247.847 81.1276L247.661 80.9644L246.252 82.368L246.449 82.5421C247.759 83.7063 249.528 84.3483 251.44 84.3483C254.334 84.3483 256.366 82.8685 256.366 80.7359C256.366 78.7448 254.858 77.907 253.373 77.3521L253.384 77.363Z" fill="url(#paint2_linear_652_8368)"/>
<path d="M263.959 71.8457H261.709V84.1407H263.959V71.8457Z" fill="url(#paint3_linear_652_8368)"/>
<path d="M275.491 79.2671H278.397V81.9763C277.883 82.3354 277.042 82.553 276.179 82.553C273.482 82.553 271.876 80.8339 271.876 77.9614C271.876 75.0889 273.515 73.4351 276.158 73.4351C277.567 73.4351 278.386 74.0009 278.943 74.4905L279.128 74.6537L280.439 73.3263L280.253 73.1522C279.139 72.1403 277.741 71.6289 276.125 71.6289C272.204 71.6289 269.572 74.1858 269.572 77.994C269.572 81.8022 272.106 84.3592 276.027 84.3592C277.785 84.3592 279.434 83.826 280.461 82.9012L280.515 82.8468V77.5262H275.502V79.2562L275.491 79.2671Z" fill="url(#paint4_linear_652_8368)"/>
<path d="M294.539 78.189C294.539 79.1357 294.604 80.104 294.681 81.0615L293.654 79.3642L288.674 71.9219L288.619 71.8457H286.424V84.1407H288.586V77.7212C288.586 76.7746 288.521 75.8171 288.433 74.9358L289.449 76.6005L294.451 84.0646L294.506 84.1407H296.701V71.8457H294.539V78.189Z" fill="url(#paint5_linear_652_8368)"/>
<path d="M316.438 77.3611L314.483 76.643C313.402 76.2513 312.375 75.8814 312.375 74.913C312.375 74.0099 313.281 73.4332 314.669 73.4332C315.783 73.4332 316.755 73.7814 317.617 74.4887L317.803 74.641L319.092 73.3136L318.895 73.1395C317.792 72.1711 316.252 71.6162 314.658 71.6162C312.015 71.6162 310.092 73.0416 310.092 74.9892C310.092 76.4798 311.053 77.5461 313.041 78.2642L315.018 79.0041C316.285 79.4937 317.126 79.8201 317.126 80.8538C317.126 81.8874 316.121 82.5294 314.516 82.5294C313.216 82.5294 311.905 82.018 310.901 81.1149L310.715 80.9517L309.317 82.3444L309.514 82.5185C310.824 83.6827 312.604 84.3247 314.505 84.3247C317.399 84.3247 319.43 82.8449 319.43 80.7123C319.43 78.7212 317.923 77.8834 316.438 77.3285V77.3611Z" fill="url(#paint6_linear_652_8368)"/>
<path d="M323.046 73.5975H327.185V84.1407H329.457V73.5975H333.607V71.8457H323.046V73.5975Z" fill="url(#paint7_linear_652_8368)"/>
<path d="M346.831 79.0468C346.831 81.397 345.848 82.5395 343.838 82.5395C341.829 82.5395 340.89 81.397 340.89 79.0468V71.833H338.64V79.0033C338.64 82.4959 340.431 84.3456 343.838 84.3456C347.246 84.3456 349.015 82.5503 349.015 79.0033V71.833H346.831V79.0468Z" fill="url(#paint8_linear_652_8368)"/>
<path d="M359.042 71.8457H355.351V84.1407H359.119C363.356 84.1407 365.781 81.8776 365.781 77.9388C365.781 74.0001 363.389 71.8457 359.031 71.8457H359.042ZM357.601 73.5648H358.911C361.893 73.5648 363.466 75.0772 363.466 77.9388C363.466 80.8004 361.893 82.4216 358.911 82.4216H357.601V73.554V73.5648Z" fill="url(#paint9_linear_652_8368)"/>
<path d="M373.625 71.8457H371.375V84.1407H373.625V71.8457Z" fill="url(#paint10_linear_652_8368)"/>
<path d="M385.341 71.6289C381.628 71.6289 379.225 74.1097 379.225 77.9396C379.225 81.7696 381.683 84.3592 385.341 84.3592C389 84.3592 391.479 81.7805 391.479 77.9396C391.479 74.0988 389.066 71.6289 385.341 71.6289ZM389.142 77.9396C389.142 80.7468 387.646 82.553 385.341 82.553C383.037 82.553 381.541 80.7468 381.541 77.9396C381.541 75.1325 383.037 73.4351 385.341 73.4351C387.646 73.4351 389.142 75.1977 389.142 77.9396Z" fill="url(#paint11_linear_652_8368)"/>
<path d="M204.084 77.2646H97.5962V78.7226H204.084V77.2646Z" fill="url(#paint12_linear_652_8368)"/>
</g>
<defs>
<linearGradient id="paint0_linear_652_8368" x1="222.411" y1="84.1407" x2="222.411" y2="71.8457" gradientUnits="userSpaceOnUse">
<stop offset="0.08" stop-color="#A47E57"/>
<stop offset="0.32" stop-color="#DCB380"/>
<stop offset="0.75" stop-color="#D5AC7A"/>
<stop offset="0.97" stop-color="#9E7853"/>
</linearGradient>
<linearGradient id="paint1_linear_652_8368" x1="237.528" y1="-276.908" x2="237.528" y2="-276.908" gradientUnits="userSpaceOnUse">
<stop offset="0.08" stop-color="#A47E57"/>
<stop offset="0.32" stop-color="#DCB380"/>
<stop offset="0.75" stop-color="#D5AC7A"/>
<stop offset="0.97" stop-color="#9E7853"/>
</linearGradient>
<linearGradient id="paint2_linear_652_8368" x1="251.32" y1="84.3591" x2="251.32" y2="71.6289" gradientUnits="userSpaceOnUse">
<stop offset="0.08" stop-color="#A47E57"/>
<stop offset="0.32" stop-color="#DCB380"/>
<stop offset="0.75" stop-color="#D5AC7A"/>
<stop offset="0.97" stop-color="#9E7853"/>
</linearGradient>
<linearGradient id="paint3_linear_652_8368" x1="262.834" y1="-276.908" x2="262.834" y2="-276.908" gradientUnits="userSpaceOnUse">
<stop offset="0.08" stop-color="#A47E57"/>
<stop offset="0.32" stop-color="#DCB380"/>
<stop offset="0.75" stop-color="#D5AC7A"/>
<stop offset="0.97" stop-color="#9E7853"/>
</linearGradient>
<linearGradient id="paint4_linear_652_8368" x1="275.033" y1="84.3592" x2="275.033" y2="71.6289" gradientUnits="userSpaceOnUse">
<stop offset="0.08" stop-color="#A47E57"/>
<stop offset="0.32" stop-color="#DCB380"/>
<stop offset="0.75" stop-color="#D5AC7A"/>
<stop offset="0.97" stop-color="#9E7853"/>
</linearGradient>
<linearGradient id="paint5_linear_652_8368" x1="291.568" y1="-276.908" x2="291.568" y2="-276.908" gradientUnits="userSpaceOnUse">
<stop offset="0.08" stop-color="#A47E57"/>
<stop offset="0.32" stop-color="#DCB380"/>
<stop offset="0.75" stop-color="#D5AC7A"/>
<stop offset="0.97" stop-color="#9E7853"/>
</linearGradient>
<linearGradient id="paint6_linear_652_8368" x1="314.374" y1="84.3573" x2="314.374" y2="71.6271" gradientUnits="userSpaceOnUse">
<stop offset="0.08" stop-color="#A47E57"/>
<stop offset="0.32" stop-color="#DCB380"/>
<stop offset="0.75" stop-color="#D5AC7A"/>
<stop offset="0.97" stop-color="#9E7853"/>
</linearGradient>
<linearGradient id="paint7_linear_652_8368" x1="328.321" y1="-276.908" x2="328.321" y2="-276.908" gradientUnits="userSpaceOnUse">
<stop offset="0.08" stop-color="#A47E57"/>
<stop offset="0.32" stop-color="#DCB380"/>
<stop offset="0.75" stop-color="#D5AC7A"/>
<stop offset="0.97" stop-color="#9E7853"/>
</linearGradient>
<linearGradient id="paint8_linear_652_8368" x1="343.828" y1="84.3565" x2="343.828" y2="-276.91" gradientUnits="userSpaceOnUse">
<stop offset="0.08" stop-color="#A47E57"/>
<stop offset="0.32" stop-color="#DCB380"/>
<stop offset="0.75" stop-color="#D5AC7A"/>
<stop offset="0.97" stop-color="#9E7853"/>
</linearGradient>
<linearGradient id="paint9_linear_652_8368" x1="360.571" y1="-276.908" x2="360.571" y2="-276.908" gradientUnits="userSpaceOnUse">
<stop offset="0.08" stop-color="#A47E57"/>
<stop offset="0.32" stop-color="#DCB380"/>
<stop offset="0.75" stop-color="#D5AC7A"/>
<stop offset="0.97" stop-color="#9E7853"/>
</linearGradient>
<linearGradient id="paint10_linear_652_8368" x1="372.5" y1="-276.908" x2="372.5" y2="-276.908" gradientUnits="userSpaceOnUse">
<stop offset="0.08" stop-color="#A47E57"/>
<stop offset="0.32" stop-color="#DCB380"/>
<stop offset="0.75" stop-color="#D5AC7A"/>
<stop offset="0.97" stop-color="#9E7853"/>
</linearGradient>
<linearGradient id="paint11_linear_652_8368" x1="385.352" y1="84.3592" x2="385.352" y2="71.6289" gradientUnits="userSpaceOnUse">
<stop offset="0.08" stop-color="#A47E57"/>
<stop offset="0.32" stop-color="#DCB380"/>
<stop offset="0.75" stop-color="#D5AC7A"/>
<stop offset="0.97" stop-color="#9E7853"/>
</linearGradient>
<linearGradient id="paint12_linear_652_8368" x1="177.828" y1="104.879" x2="124.057" y2="50.9043" gradientUnits="userSpaceOnUse">
<stop offset="0.08" stop-color="#A47E57"/>
<stop offset="0.32" stop-color="#DCB380"/>
<stop offset="0.75" stop-color="#D5AC7A"/>
<stop offset="0.97" stop-color="#9E7853"/>
</linearGradient>
<clipPath id="clip0_652_8368">
<rect width="391" height="84.8682" fill="white"/>
</clipPath>
</defs>
</svg>
