<svg xmlns="http://www.w3.org/2000/svg" width="109" height="30" fill="none" viewBox="0 0 109 30">
  <path fill="#04091C" d="M53.774 28.172c0 .249-.065.446-.194.592-.126.142-.348.252-.666.328-.315.073-.75.11-1.303.11a12 12 0 0 1-1.293-.075 9.899 9.899 0 0 1-1.144-.194l.145-.81c.868.192 1.722.288 2.56.288.388 0 .642-.019.761-.055.12-.036.18-.108.18-.214 0-.096-.03-.159-.085-.189-.053-.033-.155-.056-.304-.07l-1.874-.109c-.514-.023-.882-.117-1.104-.283-.222-.166-.333-.411-.333-.736 0-.378.175-.65.527-.816.351-.169.921-.253 1.71-.253.312 0 .683.023 1.114.07.434.043.814.099 1.139.168l-.164.761a11.975 11.975 0 0 0-2.322-.208c-.448 0-.735.016-.86.05-.127.029-.19.097-.19.203 0 .09.032.15.095.18.063.029.177.049.343.059l1.85.11c.487.026.843.127 1.069.302.228.176.343.44.343.791Zm6.751.612c-.444.281-1.15.422-2.118.422s-1.674-.14-2.119-.422c-.444-.285-.666-.733-.666-1.343s.222-1.056.666-1.337c.445-.286 1.15-.428 2.119-.428.968 0 1.674.142 2.118.428.444.281.666.727.666 1.337s-.222 1.058-.666 1.343Zm-2.118-.443c.67 0 1.128-.066 1.377-.199.252-.132.378-.366.378-.7 0-.336-.126-.57-.378-.702-.249-.133-.708-.199-1.377-.199-.673 0-1.137.068-1.393.204-.255.133-.383.365-.383.696 0 .332.128.565.383.701.256.133.72.2 1.393.2Zm5.576.796h-1.01v-3.392H67.5v.866h-3.516v.621h3.421v.796h-3.42v1.109Zm7.348-2.527h-2.014v-.864h5.033v.865h-2.01v2.526h-1.009V26.61Zm6.209 2.527-1.511-3.392h1.139l1.049 2.472 1.213-2.471h1.203l1.243 2.47 1.025-2.47h1.138l-1.511 3.39h-1.293l-1.198-2.41-1.204 2.41H77.54Zm11.844 0-.407-.657H86.47l-.413.657h-1.213l2.212-3.392H88.4l2.208 3.392h-1.224Zm-2.476-1.358h1.626l-.81-1.302-.816 1.302Zm6.413 1.358h-1.01v-3.392h3.397c.945 0 1.417.395 1.417 1.184 0 .713-.398 1.1-1.193 1.164l-.219.005.269.164 1.113.875h-1.268l-1.218-.985h-1.288v.985Zm0-2.526v.785h2.288c.165 0 .285-.03.358-.09.076-.059.114-.158.114-.297 0-.15-.037-.252-.11-.309-.072-.06-.193-.09-.362-.09H93.32Zm10.262 2.526h-4.525v-3.392h4.525v.791h-3.516v.562h3.421v.651h-3.421v.597h3.516v.79Z"/>
  <path fill="#04091C" fill-rule="evenodd" d="M87.938 5.366c-.87 0-1.585-.252-2.146-.754a2.557 2.557 0 0 1-.812-1.915c0-.773.27-1.411.812-1.914C86.352.261 87.068 0 87.938 0c.85 0 1.547.261 2.088.783.561.503.842 1.14.842 1.914 0 .754-.28 1.393-.842 1.915-.541.502-1.237.754-2.088.754Zm2.465 17.866h-4.96V7.048h4.96v16.184ZM17.634 2.872v20.36h-4.96V14.85H4.96v8.382H0V2.872h4.96v7.976h7.715V2.87h4.96ZM42.76 30v-9.03c.483.735 1.15 1.334 2.001 1.798.87.464 1.866.696 2.988.696 1.334 0 2.542-.338 3.625-1.015 1.083-.696 1.934-1.673 2.552-2.93.639-1.275.958-2.745.958-4.408 0-1.663-.32-3.123-.958-4.38-.618-1.256-1.469-2.223-2.552-2.9s-2.291-1.015-3.625-1.015c-1.141 0-2.137.232-2.988.696-.85.464-1.518 1.073-2.001 1.827V7.048H37.8V30h4.96Zm-15.644 0 9.76-22.952h-5.365L27.8 17.17 24.057 7.048h-5.54l6.584 15.633L21.803 30h5.313Zm21.677-17.79c.696.697 1.044 1.664 1.044 2.901 0 1.238-.348 2.224-1.044 2.959-.696.715-1.537 1.073-2.524 1.073-.986 0-1.827-.358-2.523-1.073-.677-.716-1.015-1.692-1.015-2.93 0-1.237.338-2.214 1.015-2.93.696-.715 1.537-1.073 2.523-1.073 1.006 0 1.847.358 2.524 1.074Zm23.369 2.669c0 .464-.03.947-.087 1.45H60.85c.077 1.006.396 1.78.957 2.32.58.523 1.286.784 2.117.784 1.238 0 2.098-.522 2.582-1.567h5.278a7.149 7.149 0 0 1-1.479 2.872c-.696.85-1.576 1.518-2.639 2.001-1.063.483-2.253.725-3.567.725-1.586 0-2.998-.338-4.235-1.015a7.221 7.221 0 0 1-2.9-2.9c-.697-1.257-1.045-2.727-1.045-4.409s.339-3.152 1.016-4.409a7.22 7.22 0 0 1 2.9-2.9c1.237-.677 2.659-1.015 4.264-1.015 1.566 0 2.958.329 4.176.986a6.987 6.987 0 0 1 2.842 2.813c.697 1.219 1.045 2.64 1.045 4.264Zm-5.076-1.305c0-.85-.29-1.528-.87-2.03-.58-.503-1.305-.755-2.175-.755-.832 0-1.538.242-2.118.726-.56.483-.909 1.17-1.044 2.059h6.207Zm13.667-5.917a6.406 6.406 0 0 0-2.175 2.088V7.048h-4.96v16.184h4.96V15.72c0-1.334.309-2.262.928-2.784.618-.542 1.547-.812 2.784-.812h1.363v-5.25c-1.063 0-2.03.261-2.9.783Zm15.159 14.792c1.276.677 2.707 1.015 4.293 1.015 1.585 0 3.016-.338 4.292-1.015a7.46 7.46 0 0 0 3.046-2.9c.754-1.276 1.131-2.746 1.131-4.409 0-1.663-.368-3.123-1.102-4.38a7.456 7.456 0 0 0-3.017-2.929c-1.276-.677-2.707-1.015-4.292-1.015-1.586 0-3.017.338-4.293 1.015a7.451 7.451 0 0 0-3.016 2.93c-.735 1.256-1.103 2.716-1.103 4.38 0 1.681.358 3.15 1.074 4.408a7.556 7.556 0 0 0 2.987 2.9Zm6.7-4.322c-.658.697-1.46 1.045-2.407 1.045-.948 0-1.74-.348-2.379-1.044-.618-.697-.928-1.692-.928-2.988 0-1.315.32-2.31.957-2.987.638-.696 1.44-1.045 2.408-1.045.947 0 1.74.349 2.378 1.045.657.696.986 1.692.986 2.987 0 1.296-.338 2.291-1.015 2.988Z" clip-rule="evenodd"/>
  <path fill="#FD9E28" d="M85.792 4.612c.56.502 1.276.754 2.146.754.85 0 1.547-.252 2.088-.754.561-.522.842-1.16.842-1.915 0-.773-.28-1.411-.842-1.914C89.485.261 88.79 0 87.938 0c-.87 0-1.585.261-2.146.783-.542.503-.812 1.14-.812 1.914 0 .754.27 1.393.812 1.915Z"/>
</svg>
