<svg xmlns="http://www.w3.org/2000/svg" width="109" height="31" fill="none" viewBox="0 0 109 31">
  <path fill="#fff" d="M53.774 28.352c0 .248-.065.445-.194.591-.126.143-.348.252-.666.328-.315.073-.75.11-1.303.11-.411 0-.842-.025-1.293-.075a9.9 9.9 0 0 1-1.144-.194l.145-.81c.868.192 1.722.288 2.56.288.388 0 .642-.018.761-.054.12-.037.18-.108.18-.214 0-.096-.03-.16-.085-.19-.053-.032-.155-.056-.304-.069l-1.874-.11c-.514-.022-.882-.117-1.104-.283-.222-.165-.333-.41-.333-.736 0-.377.175-.65.527-.815.351-.17.921-.254 1.71-.254.312 0 .683.024 1.114.07.434.043.814.1 1.139.17l-.164.76a11.966 11.966 0 0 0-2.322-.209c-.448 0-.735.017-.86.05-.127.03-.19.098-.19.204 0 .09.032.149.095.179s.177.05.343.06l1.85.109c.487.026.843.127 1.069.303.228.176.343.44.343.79Zm6.751.611c-.444.282-1.15.423-2.118.423s-1.674-.141-2.119-.423c-.444-.285-.666-.732-.666-1.342 0-.61.222-1.056.666-1.338.445-.285 1.15-.428 2.119-.428.968 0 1.674.143 2.118.428.444.282.666.728.666 1.338 0 .61-.222 1.057-.666 1.342Zm-2.118-.442c.67 0 1.128-.067 1.377-.2.252-.132.378-.366.378-.7 0-.335-.126-.569-.378-.701-.249-.133-.708-.2-1.377-.2-.673 0-1.137.069-1.393.204-.255.133-.383.365-.383.697 0 .331.128.565.383.7.256.133.72.2 1.393.2Zm5.576.795h-1.01v-3.39H67.5v.864h-3.516v.622h3.421v.795h-3.42v1.11Zm7.348-2.526h-2.014v-.865h5.033v.865h-2.01v2.526h-1.009V26.79Zm6.209 2.526-1.511-3.39h1.139l1.049 2.47 1.213-2.47h1.203l1.243 2.47 1.025-2.47h1.138l-1.511 3.39h-1.293l-1.198-2.411-1.204 2.411H77.54Zm11.844 0-.407-.656H86.47l-.413.656h-1.213l2.212-3.39H88.4l2.208 3.39h-1.224Zm-2.476-1.357h1.626l-.81-1.303-.816 1.303Zm6.413 1.357h-1.01v-3.39h3.397c.945 0 1.417.394 1.417 1.183 0 .712-.398 1.1-1.193 1.163l-.219.005.269.164 1.113.875h-1.268l-1.218-.984h-1.288v.984Zm0-2.526v.786h2.288c.165 0 .285-.03.358-.09.076-.06.114-.159.114-.298 0-.15-.037-.252-.11-.308-.072-.06-.193-.09-.362-.09H93.32Zm10.262 2.526h-4.525v-3.39h4.525v.79h-3.516v.562h3.421v.651h-3.421v.597h3.516v.79Z"/>
  <path fill="#fff" fill-rule="evenodd" d="M87.938 5.545c-.87 0-1.585-.25-2.146-.754a2.557 2.557 0 0 1-.812-1.914c0-.773.27-1.411.812-1.914.56-.522 1.276-.783 2.146-.783.85 0 1.547.26 2.088.783.561.503.842 1.14.842 1.914 0 .754-.28 1.392-.842 1.914-.541.503-1.237.754-2.088.754Zm2.465 17.867h-4.96V7.228h4.96v16.184ZM17.634 3.052v20.36h-4.96V15.03H4.96v8.382H0V3.052h4.96v7.975h7.715V3.051h4.96ZM42.76 30.18v-9.03c.483.734 1.15 1.334 2.001 1.798.87.464 1.866.696 2.988.696 1.334 0 2.542-.338 3.625-1.015 1.083-.696 1.934-1.673 2.552-2.93.639-1.276.958-2.745.958-4.408 0-1.663-.32-3.123-.958-4.38-.618-1.257-1.469-2.223-2.552-2.9s-2.291-1.015-3.625-1.015c-1.141 0-2.137.232-2.988.696-.85.464-1.518 1.073-2.001 1.827V7.228H37.8V30.18h4.96Zm-15.644 0 9.76-22.952h-5.365L27.8 17.35 24.057 7.228h-5.54l6.584 15.633-3.298 7.319h5.313Zm21.677-17.79c.696.696 1.044 1.663 1.044 2.9 0 1.238-.348 2.224-1.044 2.96-.696.715-1.537 1.072-2.524 1.072-.986 0-1.827-.357-2.523-1.073-.677-.715-1.015-1.692-1.015-2.93 0-1.237.338-2.213 1.015-2.929.696-.715 1.537-1.073 2.523-1.073 1.006 0 1.847.358 2.524 1.073Zm23.369 2.669c0 .464-.03.947-.087 1.45H60.85c.077 1.005.396 1.779.957 2.32.58.522 1.286.783 2.117.783 1.238 0 2.098-.522 2.582-1.566h5.278a7.149 7.149 0 0 1-1.479 2.872c-.696.85-1.576 1.517-2.639 2-1.063.484-2.253.726-3.567.726-1.586 0-2.998-.338-4.235-1.015a7.22 7.22 0 0 1-2.9-2.9c-.697-1.258-1.045-2.727-1.045-4.41 0-1.682.339-3.151 1.016-4.408a7.22 7.22 0 0 1 2.9-2.9c1.237-.677 2.659-1.015 4.264-1.015 1.566 0 2.958.328 4.176.986a6.987 6.987 0 0 1 2.842 2.813c.697 1.218 1.045 2.64 1.045 4.264Zm-5.076-1.305c0-.851-.29-1.528-.87-2.03-.58-.504-1.305-.755-2.175-.755-.832 0-1.538.242-2.118.725-.56.484-.909 1.17-1.044 2.06h6.207Zm13.667-5.917a6.406 6.406 0 0 0-2.175 2.088V7.228h-4.96v16.184h4.96V15.9c0-1.334.309-2.263.928-2.785.618-.541 1.547-.812 2.784-.812h1.363v-5.25c-1.063 0-2.03.262-2.9.784Zm15.159 14.792c1.276.676 2.707 1.015 4.293 1.015 1.585 0 3.016-.338 4.292-1.015a7.458 7.458 0 0 0 3.046-2.9c.754-1.277 1.131-2.746 1.131-4.41 0-1.662-.368-3.122-1.102-4.379a7.456 7.456 0 0 0-3.017-2.93c-1.276-.676-2.707-1.014-4.292-1.014-1.586 0-3.017.338-4.293 1.015a7.451 7.451 0 0 0-3.016 2.93c-.735 1.256-1.103 2.716-1.103 4.379 0 1.682.358 3.151 1.074 4.408a7.555 7.555 0 0 0 2.987 2.9Zm6.7-4.322c-.658.696-1.46 1.044-2.407 1.044-.948 0-1.74-.348-2.379-1.044-.618-.696-.928-1.692-.928-2.987 0-1.315.32-2.31.957-2.988.638-.696 1.44-1.044 2.408-1.044.947 0 1.74.348 2.378 1.044.657.696.986 1.692.986 2.988 0 1.295-.338 2.291-1.015 2.987Z" clip-rule="evenodd"/>
</svg>
