<svg xmlns="http://www.w3.org/2000/svg" width="107" height="134" fill="none" viewBox="0 0 107 134">
  <path fill="#D0B181" d="M13.935 127.918a1.384 1.384 0 0 0-.636-.91c-.344-.224-.756-.292-1.152-.224a1.444 1.444 0 0 0-.962.602c-.43.567-.876 1.116-1.306 1.683a20.89 20.89 0 0 0 2.664 1.46c.395-.498.773-1.013 1.168-1.529a1.38 1.38 0 0 0 .24-1.065l-.016-.017Zm64.331-90.281c0 .79.687 1.426 1.53 1.426h23.578V36.21H79.795c-.842 0-1.53.636-1.53 1.426Zm-6.633 1.583c.842-.068 1.46-.773 1.374-1.546-.068-.739-.739-1.288-1.512-1.288h-.137c-19.884 1.683-36.503 16.148-39.51 34.41-3.506 21.234-9.59 39.238-17.616 52.088-.43.67-.172 1.547.55 1.942.224.12.499.189.774.189.55 0 1.048-.275 1.323-.705 8.215-13.142 14.436-31.507 17.993-53.084 2.802-16.974 18.252-30.442 36.76-32.006Z"/>
  <path fill="#D0B181" d="M32.84 101.873a1.613 1.613 0 0 0-1.169.086 1.41 1.41 0 0 0-.756.842c-4.004 11.682-8.937 21.388-14.677 28.981 1.083.258 2.2.413 3.352.464 5.55-7.662 10.328-17.231 14.23-28.586.257-.739-.19-1.547-.98-1.787Zm5.711-30.114c-1.478 8.95-3.403 17.403-5.706 25.117-.103.36-.068.755.138 1.082.206.326.533.567.91.67.138.034.276.051.413.051.67 0 1.29-.412 1.478-1.048 2.355-7.834 4.297-16.389 5.792-25.46 2.509-15.272 17.014-26.8 33.701-26.8h28.099V42.52H75.277c-18.183 0-33.976 12.559-36.726 29.206v.034Z"/>
  <path fill="#D0B181" d="M59.272 56.555c.688-.464.842-1.357.344-1.993-.481-.635-1.444-.773-2.131-.326-6.582 4.415-11.033 11.15-12.254 18.468-4.09 24.79-11.394 45.096-21.344 59.595h3.557c9.676-14.757 16.79-34.874 20.795-59.166 1.083-6.562 5.104-12.61 11.016-16.595l.017.017Zm4.078-5.392c-.379.155-.67.43-.808.774a1.32 1.32 0 0 0 0 1.082 1.55 1.55 0 0 0 1.392.876c.206 0 .412-.035.601-.12a28.626 28.626 0 0 1 10.724-2.062h28.099v-2.852H75.259a31.76 31.76 0 0 0-11.927 2.302h.017Z"/>
  <path fill="#D0B181" d="M75.274 58.034h16.36c.843 0 1.53-.635 1.53-1.425s-.687-1.426-1.53-1.426h-16.36c-11.566 0-21.603 7.954-23.339 18.502-3.918 23.725-10.81 43.636-20.193 58.634h3.472c9.16-15.17 15.897-34.892 19.729-58.205 1.512-9.173 10.243-16.08 20.33-16.08Zm24.66-1.426c0 .79.687 1.426 1.529 1.426h1.925v-2.851h-1.925c-.842 0-1.53.635-1.53 1.425Zm-55.06 71.173a1.508 1.508 0 0 0-.773-.824c-.756-.344-1.684-.052-2.045.652a110.361 110.361 0 0 1-2.595 4.69h3.471a92.633 92.633 0 0 0 1.856-3.453c.172-.343.207-.721.07-1.082l.017.017Z"/>
  <path fill="#D0B181" d="M58.625 74.626c-2.853 17.3-7.287 32.778-13.199 45.989-.326.722.052 1.563.825 1.873.19.068.378.103.585.103.601 0 1.168-.327 1.409-.876 5.998-13.435 10.517-29.137 13.405-46.66 1.014-6.116 6.874-10.72 13.628-10.72h28.099v-2.852h-28.1c-8.248 0-15.415 5.652-16.652 13.143Z"/>
  <path fill="#D0B181" d="M67.195 80.025a1.571 1.571 0 0 0-.98-.585c-.395-.068-.79 0-1.134.224a1.4 1.4 0 0 0-.636.928c-3.695 19.876-9.641 37.348-17.46 51.71h3.42c7.63-14.379 13.421-31.679 17.048-51.23a1.323 1.323 0 0 0-.258-1.065v.018Zm-.889-7.203a1.33 1.33 0 0 0-.103 1.082c.12.361.378.653.739.842.223.103.464.172.722.172.154 0 .31-.017.447-.069.395-.12.704-.36.91-.704 1.186-2.113 3.661-3.487 6.273-3.487h28.099v-2.852H75.294c-3.73 0-7.252 1.958-8.97 4.999l-.018.017Zm8.966 1.305c-1.598 0-3.042 1.065-3.265 2.422-3.008 18.262-7.751 34.72-14.11 48.91a1.362 1.362 0 0 0 0 1.1c.155.343.447.618.825.773.19.086.395.12.584.12.19 0 .379-.034.568-.103.378-.137.687-.412.842-.773 6.444-14.396 11.256-31.043 14.281-49.477a.415.415 0 0 1 .275-.103h28.099v-2.852H75.272v-.017Z"/>
  <path fill="#D0B181" d="M79.378 82.528c-.395-.07-.79 0-1.134.223a1.4 1.4 0 0 0-.636.927c-3.437 18.108-8.748 34.497-15.64 48.618h3.403c6.686-13.984 11.807-30.064 15.244-48.12.138-.772-.412-1.511-1.237-1.648Zm4.642-.654c0 .79.687 1.426 1.53 1.426h17.838v-2.852H85.549c-.842 0-1.53.636-1.53 1.426Zm-.357 6.053c-2.819 13.795-6.668 26.646-11.463 38.19-.155.361-.138.739.034 1.1a1.491 1.491 0 0 0 1.392.842c.619 0 1.186-.344 1.427-.911 4.726-11.39 8.558-24 11.377-37.52h16.962v-2.852H85.175c-.739 0-1.358.481-1.495 1.151h-.017Zm-12.001 43.22c-.773-.309-1.667.034-2.01.756-.07.137-.138.275-.207.412h3.094a.982.982 0 0 0-.069-.378 1.49 1.49 0 0 0-.825-.79h.017Z"/>
  <path fill="#D0B181" d="M103.374 93.098h-6.823v2.852h6.823v-2.852Zm-11.14 1.564-2.99-.584-.034.155c-3.128 13.829-7.304 26.559-12.46 38.087h3.3c5.018-11.408 9.09-23.949 12.15-37.503l.034-.155Zm2.423 5.854c-2.818 11.321-6.393 21.921-10.638 31.765a20.64 20.64 0 0 0 3.455-.378c3.901-9.26 7.218-19.155 9.882-29.652h6.032v-2.852H94.95l-.275 1.1-.017.017Z"/>
  <path fill="#D0B181" d="M99.986 106.803a204.849 204.849 0 0 1-7.888 23.502 19.962 19.962 0 0 0 4.4-2.904 221.69 221.69 0 0 0 6.152-18.828h.722v-2.852h-3.094l-.292 1.082Zm-94.261 7.873c-.12-.36-.379-.67-.74-.841-.738-.378-1.666-.121-2.062.566a60.04 60.04 0 0 1-1.564 2.509 19.415 19.415 0 0 0 1.203 3.573 69.308 69.308 0 0 0 3.042-4.707c.19-.327.24-.722.12-1.082v-.018Zm12.079-45.907c-2.526 15.307-6.582 29.05-11.738 39.736a1.296 1.296 0 0 0-.034 1.1c.154.36.43.635.79.79.207.086.413.137.636.137a1.9 1.9 0 0 0 .533-.086c.378-.137.687-.395.86-.756 5.344-11.08 9.383-24.704 11.978-40.474 4.142-25.151 27.05-43.413 54.461-43.413h28.099v-2.852H75.29c-28.923 0-53.086 19.276-57.469 45.818h-.017Z"/>
  <path fill="#D0B181" d="M47.392 25.543c.361-.171.636-.463.773-.824a1.256 1.256 0 0 0-.085-1.082 1.524 1.524 0 0 0-.877-.722 1.626 1.626 0 0 0-1.169.086c-18.68 8.675-31.742 25.443-34.938 44.821-2.647 16.063-6.53 27.71-10.26 35.94v6.803C6.713 99.707 11.37 84.985 14.12 68.252c3.042-18.468 15.485-34.428 33.272-42.691v-.018Zm4.888-5.063a1.526 1.526 0 0 0-.858.74c-.172.343-.19.738-.035 1.099.138.36.43.635.808.79.206.086.413.137.636.137.172 0 .36-.034.533-.085 6.977-2.423 14.367-3.66 21.929-3.66h27.978c-.103-.979-.309-1.924-.55-2.852H75.293c-7.94 0-15.674 1.289-22.995 3.849l-.017-.018Z"/>
  <path fill="#D0B181" d="m103.372 13.16-.206-.258c-.636-.79-1.306-1.632-2.097-2.526l-.051-.068h-23.51c-33.856 0-63.33 20.546-71.682 49.975-.224.756.292 1.546 1.134 1.735.12.034.258.051.395.051.722 0 1.34-.446 1.53-1.065C16.859 32.83 45.078 13.16 77.507 13.16h25.865ZM6.421 70.455a1.57 1.57 0 0 0-.98-.584c-.395-.069-.807 0-1.134.224-.343.223-.567.55-.635.944A174.12 174.12 0 0 1 .836 83.58v10.428c2.337-6.63 4.28-14.138 5.843-22.47a1.323 1.323 0 0 0-.258-1.066v-.017Z"/>
  <path fill="#D0B181" d="M31.45 19.256c.102 0 .188.017.291.017.31 0 .619-.086.894-.258C45.73 11.027 61.163 6.818 77.249 6.818h20.572l-.275-.275a72.792 72.792 0 0 0-2.664-2.526l-.052-.051H77.25c-16.74 0-32.791 4.38-46.402 12.695-.722.447-.911 1.323-.413 1.976.24.326.602.533 1.031.601l-.017.018ZM25.6 24.02c.636-.516.705-1.427.155-2.01a1.502 1.502 0 0 0-1.048-.482h-.103c-.361 0-.722.12-.997.344C13.072 30.427 5.235 41.508.836 53.86V65.8C3.654 49.53 12.419 34.722 25.6 24.02Z"/>
  <path fill="#D0B181" d="M5.073 31.798c-.481.653-.31 1.529.395 1.975.258.172.55.258.877.258.498 0 .962-.223 1.254-.618C19.99 16.645 39.05 5.393 60.36 1.785H48.09c-17.29 5.36-32.465 15.771-43 30.013h-.017Zm-1.659 4.999a1.59 1.59 0 0 0-2.08.533c-.172.292-.326.584-.498.859v6.253a71.406 71.406 0 0 1 3.162-5.704c.413-.687.155-1.546-.567-1.94h-.017Z"/>
  <path fill="#D0B181" d="M36.857 1.99c.378-.172.67-.48.808-.859.052-.137.052-.292.052-.446H32.63C20.032 6.972 9.24 15.717.836 26.385v5.257C9.79 19.084 22.232 8.707 36.857 1.973v.017ZM3.766 17.144l.275.189C9.884 11.285 16.569 6.08 23.873 1.785h-3.128c-.928 0-1.839.086-2.732.206a116.242 116.242 0 0 0-4.108 2.852c-3.73 3.625-7.132 7.765-10.14 12.3ZM23.06 85.9c-.824-.172-1.65.275-1.838 1.048-4.056 15.547-9.71 28.329-16.464 37.262a19.02 19.02 0 0 0 2.028 2.354c7.149-9.208 13.13-22.574 17.392-38.946.189-.756-.31-1.53-1.117-1.718Zm1.583-5.468c.722 0 1.357-.481 1.495-1.151a188.05 188.05 0 0 0 1.701-9.071c1.633-9.912 6.651-18.777 14.54-25.649a1.346 1.346 0 0 0 .068-2.01c-.567-.567-1.547-.601-2.165-.069-8.387 7.319-13.732 16.767-15.467 27.299a185.8 185.8 0 0 1-1.685 8.95c-.085.378 0 .756.224 1.065.223.31.567.533.98.601.085.018.189.035.292.035h.017ZM47.41 37.276c-.704.43-.91 1.306-.447 1.976.275.412.757.653 1.29.653.291 0 .584-.086.824-.224 7.803-4.724 16.86-7.215 26.191-7.215h28.099v-2.852H75.268c-9.916 0-19.54 2.663-27.858 7.68v-.018Z"/>
</svg>
