<svg xmlns="http://www.w3.org/2000/svg" width="312" height="16" fill="none" viewBox="0 0 312 16">
  <path fill="#FD9E28" fill-rule="evenodd" d="M69.08 14.232C-42.677 11.605 26.55 14.02.087 4.77 15.47-.314 8.93-.054 62.157.506 156.026 4.594 29.4.39 123.854 3.14c67.313-1.862 99.68 1.482 166.999-1.605 35.149-2.934 21.266 14.876-7.782 13.706-31.763-2.022-53.407 4.052-73.772-3.421 18.803-.675 74.593 3.156 73.771.425-35.522-.547-71.391-.95-103.155-4.315-33.472 3.24-67.963 2.243-101.195 1.461 8.016 3.787 74.745 2.52 102.473 2.791-55.681 6.27-54.722 1.754-112.114 2.051Z" clip-rule="evenodd"/>
</svg>
