<svg xmlns="http://www.w3.org/2000/svg" width="36" height="36" fill="none" viewBox="0 0 36 36">
  <path fill="#fff" d="M10.545.126C8.63.216 7.322.522 6.18.97a8.809 8.809 0 0 0-3.184 2.082 8.817 8.817 0 0 0-2.07 3.19C.48 7.39.18 8.698.095 10.614c-.084 1.916-.103 2.532-.094 7.42.01 4.889.031 5.502.124 7.422.091 1.915.396 3.222.845 4.366a8.818 8.818 0 0 0 2.082 3.184 8.808 8.808 0 0 0 3.193 2.07c1.145.443 2.454.744 4.37.828 1.916.084 2.533.103 7.42.094 4.886-.01 5.501-.03 7.421-.122 1.92-.091 3.22-.398 4.365-.845a8.821 8.821 0 0 0 3.184-2.082 8.821 8.821 0 0 0 2.07-3.193c.443-1.145.744-2.454.828-4.368.083-1.922.103-2.535.094-7.423-.01-4.887-.031-5.5-.122-7.42-.092-1.919-.396-3.222-.845-4.367a8.837 8.837 0 0 0-2.082-3.184 8.784 8.784 0 0 0-3.192-2.07C28.61.483 27.303.18 25.387.098 23.47.014 22.854-.007 17.966.002c-4.889.01-5.5.03-7.42.124Zm.21 32.54c-1.755-.076-2.707-.368-3.343-.612A5.605 5.605 0 0 1 5.34 30.71c-.633-.626-1.022-1.227-1.35-2.067-.247-.635-.544-1.587-.626-3.342-.09-1.896-.108-2.466-.119-7.272-.01-4.805.008-5.374.092-7.272.074-1.753.368-2.707.612-3.342A5.574 5.574 0 0 1 5.29 5.343c.628-.632 1.228-1.022 2.067-1.35.635-.248 1.587-.542 3.341-.626 1.898-.09 2.467-.108 7.272-.118 4.805-.01 5.375.007 7.274.091 1.754.076 2.708.367 3.342.612.841.324 1.44.713 2.073 1.342a5.555 5.555 0 0 1 1.35 2.069c.248.632.543 1.584.626 3.34.09 1.897.11 2.466.12 7.271.008 4.805-.009 5.375-.092 7.272-.077 1.755-.368 2.709-.612 3.344a5.579 5.579 0 0 1-1.343 2.073 5.561 5.561 0 0 1-2.068 1.35c-.633.247-1.586.542-3.34.626-1.897.089-2.466.107-7.273.118-4.807.01-5.374-.009-7.272-.091M25.43 8.38a2.16 2.16 0 1 0 4.319-.007 2.16 2.16 0 0 0-4.32.007ZM8.758 18.018a9.242 9.242 0 0 0 9.26 9.224 9.243 9.243 0 1 0-9.26-9.224ZM12 18.012a6 6 0 1 1 12.002-.024A6 6 0 0 1 12 18.012Z"/>
</svg>
