<svg xmlns="http://www.w3.org/2000/svg" width="40" height="40" fill="none" viewBox="0 0 40 40">
  <circle cx="19.688" cy="20.313" r="19.688" fill="#0077B5"/>
  <g clip-path="url(#a)">
    <path fill="#fff" d="M29.167 10.625H10.833c-.5 0-.833.333-.833.833v18.334c0 .5.333.833.833.833h18.334c.5 0 .833-.333.833-.833V11.458c0-.5-.333-.833-.833-.833Zm-13.25 17.083H13v-9.583h3v9.583h-.083Zm-1.5-10.916c-.917 0-1.75-.75-1.75-1.75 0-.917.75-1.75 1.75-1.75.916 0 1.75.75 1.75 1.75s-.75 1.75-1.75 1.75Zm12.666 10.916h-3v-4.666c0-1.084 0-2.5-1.5-2.5-1.583 0-1.75 1.166-1.75 2.416v4.75h-3v-9.583h2.834v1.333c.416-.75 1.333-1.5 2.833-1.5 3 0 3.583 2 3.583 4.584v5.166Z"/>
  </g>
  <defs>
    <clipPath id="a">
      <path fill="#fff" d="M0 0h20v20H0z" transform="translate(10 10.625)"/>
    </clipPath>
  </defs>
</svg>
