<svg xmlns="http://www.w3.org/2000/svg" width="48" height="49" fill="none" viewBox="0 0 48 49">
  <path stroke="#FD9E28" stroke-linecap="square" stroke-miterlimit="10" stroke-width="3" d="M24 38.451a21 21 0 0 0 21-21 20.909 20.909 0 0 0-7.608 1.443M24 38.451a21 21 0 0 1-21-21c2.604.003 5.184.493 7.608 1.443"/>
  <path stroke="#FD9E28" stroke-linecap="square" stroke-miterlimit="10" stroke-width="3" d="M3.78 35.301a14.21 14.21 0 0 0-1.816 1.607 14.251 14.251 0 0 0 22.035 1.543"/>
  <path stroke="#FD9E28" stroke-linecap="square" stroke-miterlimit="10" stroke-width="3" d="M24 38.45c4.142 0 7.5-7.79 7.5-17.399 0-9.609-3.358-17.398-7.5-17.398-4.142 0-7.5 7.79-7.5 17.398 0 9.61 3.358 17.399 7.5 17.399Z"/>
  <path stroke="#FD9E28" stroke-linecap="square" stroke-miterlimit="10" stroke-width="3" d="M44.218 35.301c.65.482 1.258 1.019 1.817 1.604A14.25 14.25 0 0 1 24 38.45"/>
</svg>
