<svg xmlns="http://www.w3.org/2000/svg" width="40" height="41" fill="none" viewBox="0 0 40 41">
  <circle cx="19.688" cy="20.563" r="19.688" fill="#FD9E28"/>
  <path fill="#fff" d="M20.482 23.177a1.688 1.688 0 0 1-1.587 0L10.688 18.8v6.825a2.227 2.227 0 0 0 2.25 2.25h13.5a2.226 2.226 0 0 0 2.25-2.25V18.8l-8.206 4.377Z"/>
  <path fill="#fff" d="M26.438 13.25h-13.5a2.227 2.227 0 0 0-2.25 2.25v1.688a.563.563 0 0 0 .297.496l8.438 4.5a.566.566 0 0 0 .53 0l8.437-4.5a.562.562 0 0 0 .298-.496V15.5a2.225 2.225 0 0 0-2.25-2.25Z"/>
</svg>
