<svg xmlns="http://www.w3.org/2000/svg" width="12" height="13" fill="currentColor" viewBox="0 0 12 13">
  <g clip-path="url(#a)">
    <path d="M11.315 8.3 8.962 7.256a1.156 1.156 0 0 0-1.368.332l-.71.888a9.32 9.32 0 0 1-2.86-2.859l.888-.71a1.156 1.156 0 0 0 .333-1.369L4.2 1.185A1.154 1.154 0 0 0 2.855.537l-1.989.517a1.159 1.159 0 0 0-.855 1.279 11.982 11.982 0 0 0 10.157 10.156 1.158 1.158 0 0 0 1.279-.854l.516-1.99a1.15 1.15 0 0 0-.648-1.345Z"/>
  </g>
  <defs>
    <clipPath id="a">
      <path d="M0 0h12v12H0z" transform="translate(0 .5)"/>
    </clipPath>
  </defs>
</svg>
