<svg xmlns="http://www.w3.org/2000/svg" width="18" height="18" fill="currentColor" viewBox="0 0 18 18">
  <path d="M17.187 8.72a.562.562 0 0 1-.563-.563 6.194 6.194 0 0 0-6.187-6.187.562.562 0 0 1 0-1.125 7.321 7.321 0 0 1 7.313 7.312.563.563 0 0 1-.563.563Z"/>
  <path d="M13.812 8.72a.562.562 0 0 1-.563-.563 2.816 2.816 0 0 0-2.812-2.812.562.562 0 0 1 0-1.125 3.942 3.942 0 0 1 3.938 3.937.563.563 0 0 1-.563.563Zm-1.672 2.547-1.375 1.72a14.513 14.513 0 0 1-5.157-5.158l1.72-1.375a1.169 1.169 0 0 0 .337-1.386L6.098 1.539A1.168 1.168 0 0 0 4.736.882l-2.98.774a1.174 1.174 0 0 0-.87 1.298A17.334 17.334 0 0 0 15.64 17.71a1.174 1.174 0 0 0 1.297-.868l.774-2.981a1.168 1.168 0 0 0-.656-1.36l-3.528-1.57a1.168 1.168 0 0 0-1.386.337Z"/>
</svg>
