<svg xmlns="http://www.w3.org/2000/svg" width="56" height="43" fill="none" viewBox="0 0 56 43">
  <path fill="currentColor" d="M0 43V30.697c0-3.538.66-7.217 1.983-11.036A47.389 47.389 0 0 1 7.51 8.745C9.874 5.287 12.518 2.372 15.442 0l10.095 6.574a65.441 65.441 0 0 0-5.949 11.217c-1.562 3.86-2.323 8.122-2.283 12.785V43H0Zm30.463 0V30.697c0-3.538.662-7.217 1.983-11.036a47.384 47.384 0 0 1 5.528-10.916C40.338 5.287 42.981 2.372 45.906 0L56 6.574a65.441 65.441 0 0 0-5.949 11.217c-1.562 3.86-2.323 8.122-2.283 12.785V43H30.463Z"/>
</svg>
