<svg xmlns="http://www.w3.org/2000/svg" width="25" height="25" fill="currentColor" viewBox="0 0 25 25">
  <g clip-path="url(#a)">
    <path d="M9.679 18.066a2.994 2.994 0 0 0 2.988 2.885 2.993 2.993 0 0 0 2.986-2.885H9.679Z"/>
    <path fill-rule="evenodd" d="M4.667 8.951a8 8 0 1 1 16 0v4.417c1.433.894 2.4 2.214 3.017 3.52.69 1.458.983 2.979.983 4.063h-2c0-.779-.223-2.008-.79-3.208-.565-1.194-1.431-2.278-2.66-2.9l-.55-.277V8.951a6 6 0 0 0-12 0v5.612l-.545.279c-1.25.638-2.116 1.724-2.675 2.911-.563 1.194-.78 2.416-.78 3.198h-2c0-1.08.283-2.593.97-4.05.616-1.307 1.586-2.628 3.03-3.531V8.95Z" clip-rule="evenodd"/>
    <path fill-rule="evenodd" d="M2.687 20.951c.04.056.14.169.386.328.435.28 1.13.57 2.079.829 1.883.513 4.54.843 7.515.843 2.975 0 5.632-.33 7.515-.843.949-.259 1.644-.55 2.079-.83.246-.158.346-.27.386-.327-.04-.056-.14-.169-.386-.327-.435-.28-1.13-.57-2.079-.83-1.883-.513-4.54-.843-7.515-.843-2.975 0-5.632.33-7.515.844-.949.258-1.644.549-2.079.829-.246.159-.346.27-.386.327Zm1.939-3.086c2.098-.572 4.94-.914 8.041-.914 3.1 0 5.943.342 8.041.914 1.042.284 1.958.64 2.637 1.078.633.409 1.322 1.064 1.322 2.008s-.689 1.6-1.323 2.008c-.678.438-1.594.794-2.636 1.078-2.098.573-4.94.914-8.041.914-3.1 0-5.943-.341-8.041-.914-1.042-.284-1.958-.64-2.636-1.078-.634-.408-1.323-1.064-1.323-2.008s.689-1.6 1.323-2.008c.678-.438 1.594-.794 2.636-1.078Z" clip-rule="evenodd"/>
  </g>
  <defs>
    <clipPath id="a">
      <path d="M.667.951h24v24h-24z"/>
    </clipPath>
  </defs>
</svg>
