<svg xmlns="http://www.w3.org/2000/svg" width="70" height="71" fill="none" viewBox="0 0 70 71">
  <path fill="#FC0" d="M70 .5H0v70h70V.5Z"/>
  <path fill="red" d="M33.055 31.903V18.972H19.152v9.82h-9.43v13.416h9.43v9.82h13.903V39.097H29.75v9.82h-7.292v-9.82h-9.43v-7.194h9.43v-9.82h7.292v9.82h3.305Z"/>
  <path fill="#000" d="M52.075 30.741c0 2.346-1.937 4.175-4.392 4.175h-3.739v-8.069h3.739c2.55 0 4.392 1.642 4.392 3.894Zm-2.787-11.769H35v33.056h8.944v-9.82h5.344c6.564 0 11.664-5.008 11.664-11.478 0-6.516-5.194-11.758-11.664-11.758Z"/>
</svg>
