<svg xmlns="http://www.w3.org/2000/svg" width="140" height="11" fill="none" viewBox="0 0 140 11">
  <path fill="#FD9E28" fill-rule="evenodd" d="M31.398 9.961c-50.174-1.37-19.07.013-31.219-6.16C6.916.298 3.993.498 27.87.682c42.2 2.426-14.689.041 27.734 1.558C85.719.73 100.33 2.878 130.409.538c15.664-2.118 9.994 10.006-3.062 9.32-14.3-1.254-23.813 2.943-33.173-2.048 8.407-.526 33.532 1.865 33.079.017-15.939-.24-32.029-.382-46.371-2.546-14.903 2.32-30.394 1.77-45.314 1.363C39.28 9.18 69.15 8.077 81.587 8.159c-24.763 4.455-24.474 1.39-50.19 1.802Z" clip-rule="evenodd"/>
</svg>
