<svg xmlns="http://www.w3.org/2000/svg" width="36" height="36" fill="none" viewBox="0 0 36 36">
  <g clip-path="url(#a)">
    <path fill="#fff" d="M18.014 36.028c9.949 0 18.014-8.065 18.014-18.014S27.963 0 18.014 0 0 8.065 0 18.014s8.065 18.014 18.014 18.014Z"/>
    <path fill="#333" fill-rule="evenodd" d="M8.137 17.818c5.247-2.301 8.755-3.788 10.523-4.518 4.994-2.076 6.032-2.44 6.706-2.469.14 0 .477.028.701.197.169.14.225.336.253.476.028.14.056.45.028.702-.28 2.834-1.431 9.765-2.048 12.935-.253 1.347-.758 1.796-1.235 1.852-1.038.084-1.852-.701-2.862-1.347-1.571-1.038-2.47-1.683-4.012-2.693-1.768-1.179-.618-1.824.392-2.862.253-.281 4.883-4.462 4.967-4.855 0-.056.028-.224-.084-.308-.113-.085-.253-.056-.365-.028-.168.028-2.694 1.711-7.604 5.022-.73.505-1.375.73-1.964.73-.646 0-1.88-.365-2.806-.674-1.123-.364-2.02-.56-1.936-1.178.056-.309.505-.646 1.346-.982Z" clip-rule="evenodd"/>
  </g>
  <defs>
    <clipPath id="a">
      <path fill="#fff" d="M0 0h36v36H0z"/>
    </clipPath>
  </defs>
</svg>
