<svg xmlns="http://www.w3.org/2000/svg" width="40" height="40" fill="none" viewBox="0 0 40 40">
  <circle cx="19.688" cy="19.688" r="19.688" fill="#1DA1F2"/>
  <g clip-path="url(#a)">
    <path fill="#fff" d="M30 13.833c-.75.334-1.5.584-2.333.667.833-.5 1.5-1.333 1.833-2.25-.833.5-1.667.833-2.583 1a4.034 4.034 0 0 0-3-1.333A4.09 4.09 0 0 0 19.833 16c0 .333 0 .667.084.917-3.5-.167-6.5-1.834-8.5-4.334-.417.667-.584 1.334-.584 2.084 0 1.416.75 2.666 1.834 3.416-.667 0-1.334-.166-1.834-.5v.084c0 2 1.417 3.666 3.25 4-.333.083-.666.166-1.083.166-.25 0-.5 0-.75-.083.5 1.667 2 2.833 3.833 2.833-1.416 1.084-3.166 1.75-5.083 1.75-.333 0-.667 0-1-.083 1.833 1.167 4 1.833 6.25 1.833 7.583 0 11.667-6.25 11.667-11.666v-.5c.833-.584 1.5-1.334 2.083-2.084Z"/>
  </g>
  <defs>
    <clipPath id="a">
      <path fill="#fff" d="M0 0h20v20H0z" transform="translate(10 10)"/>
    </clipPath>
  </defs>
</svg>
