<svg xmlns="http://www.w3.org/2000/svg" width="24" height="24" fill="none" viewBox="0 0 24 24">
  <path fill="#B41F30" d="M24 4a1 1 0 0 0-1-1H10v10H0v7a1 1 0 0 0 1 1h22a1 1 0 0 0 1-1V4Z"/>
  <path fill="#E6E6E6" d="M24 5H10v2h14V5Zm0 4H10v2h14V9ZM0 13v2h24v-2H0Zm24 4H0v2h24v-2Z"/>
  <path fill="#00256A" d="M10 13H0V4a1 1 0 0 1 1-1h9v10Z"/>
  <path fill="#fff" d="m4.998 6.96-.316.685H3.93l.55.57-.203.824.721-.41.722.41-.203-.824.55-.57h-.753l-.316-.684ZM2.552 4.515l-.316.684h-.752l.55.57-.203.824.721-.41.722.41-.203-.824.55-.57h-.753l-.316-.684Zm4.895 0 .316.684h.752l-.55.57.204.824-.722-.41-.722.41.204-.824-.55-.57h.753l.315-.684Zm-4.895 6.971-.316-.684h-.752l.55-.57-.203-.825.721.41.722-.41-.203.825.55.57h-.753l-.316.684Zm4.895 0 .316-.684h.752l-.55-.57.204-.825-.722.41-.722-.41.204.825-.55.57h.753l.315.684Z"/>
</svg>
