<svg xmlns="http://www.w3.org/2000/svg" width="36" height="36" fill="none" viewBox="0 0 36 36">
  <g clip-path="url(#a)">
    <path fill="#fff" d="M0 17.25C0 9.118 0 5.053 2.526 2.526 5.052-.001 9.118 0 17.25 0h1.5c8.131 0 12.198 0 14.724 2.526C36 5.053 36 9.118 36 17.25v1.5c0 8.131 0 12.198-2.526 14.724C30.947 36 26.882 36 18.75 36h-1.5c-8.132 0-12.197 0-14.724-2.526C0 30.947 0 26.882 0 18.75v-1.5Z"/>
    <path fill="#333" fill-rule="evenodd" d="M9.752 11.25H7.127c-.75 0-.9.352-.9.742 0 .696.89 4.144 4.143 8.705 2.17 3.115 5.226 4.803 8.007 4.803 1.668 0 1.875-.375 1.875-1.02v-2.355c0-.75.157-.9.686-.9.39 0 1.057.195 2.614 1.697 1.78 1.78 2.073 2.578 3.075 2.578h2.625c.75 0 1.125-.375.908-1.115-.236-.738-1.086-1.808-2.214-3.076-.612-.723-1.53-1.502-1.808-1.892-.39-.5-.277-.723 0-1.167 0 0 3.198-4.505 3.533-6.035.166-.556 0-.965-.795-.965h-2.624c-.668 0-.975.352-1.142.742 0 0-1.335 3.254-3.226 5.367-.612.612-.89.807-1.224.807-.166 0-.408-.195-.408-.75v-5.2c0-.668-.194-.966-.75-.966h-4.125c-.417 0-.667.31-.667.604 0 .632.945.778 1.042 2.557v3.867c0 .847-.153 1-.487 1-.89 0-3.054-3.268-4.338-7.007-.252-.729-.505-1.021-1.175-1.021Z" clip-rule="evenodd"/>
  </g>
  <defs>
    <clipPath id="a">
      <path fill="#fff" d="M0 0h36v36H0z"/>
    </clipPath>
  </defs>
</svg>
