<svg xmlns="http://www.w3.org/2000/svg" width="19" height="19" fill="currentColor" viewBox="0 0 19 19">
  <path d="m.125 18.72 1.266-4.622A8.902 8.902 0 0 1 .2 9.638C.202 4.722 4.204.72 9.122.72c2.387 0 4.627.93 6.312 2.616a8.864 8.864 0 0 1 2.61 6.31c-.002 4.918-4.004 8.92-8.922 8.92H9.12a8.918 8.918 0 0 1-4.264-1.087l-4.73 1.24Zm4.949-2.855.27.16A7.406 7.406 0 0 0 9.12 17.06h.003c4.088 0 7.414-3.326 7.416-7.414 0-1.98-.77-3.843-2.17-5.245a7.367 7.367 0 0 0-5.243-2.174c-4.09 0-7.417 3.326-7.419 7.413 0 1.4.392 2.765 1.134 3.946l.176.28-.749 2.736 2.807-.736Z"/>
  <path fill-rule="evenodd" d="M6.892 5.91c-.18-.435-.364-.376-.501-.383a8.941 8.941 0 0 0-.427-.007.82.82 0 0 0-.595.278c-.204.224-.78.763-.78 1.86s.799 2.156.91 2.305c.112.149 1.572 2.4 3.809 3.365.531.23.947.367 1.27.47.535.17 1.02.146 1.405.088.428-.064 1.319-.54 1.504-1.06.186-.52.186-.966.13-1.06-.055-.092-.204-.148-.427-.26-.223-.111-1.319-.65-1.523-.725-.204-.074-.353-.111-.502.112-.148.223-.576.725-.706.874-.13.148-.26.167-.483.055-.223-.111-.94-.347-1.792-1.106-.663-.59-1.11-1.32-1.24-1.544-.13-.223-.014-.343.097-.455.1-.1.223-.26.334-.39.112-.13.15-.223.223-.372.075-.149.038-.279-.018-.39-.056-.112-.502-1.209-.688-1.655Z" clip-rule="evenodd"/>
</svg>
