<svg xmlns="http://www.w3.org/2000/svg" width="40" height="40" fill="none" viewBox="0 0 40 40">
  <circle cx="19.688" cy="19.938" r="19.688" fill="#25D366"/>
  <path fill="#fff" d="m10.688 28.938 1.265-4.622a8.902 8.902 0 0 1-1.19-4.46c.001-4.918 4.004-8.919 8.922-8.919a8.866 8.866 0 0 1 6.311 2.616 8.864 8.864 0 0 1 2.611 6.31c-.002 4.918-4.005 8.92-8.922 8.92h-.004a8.917 8.917 0 0 1-4.264-1.086l-4.73 1.24Zm4.948-2.856.271.161a7.406 7.406 0 0 0 3.775 1.033h.003c4.087 0 7.414-3.325 7.416-7.413 0-1.981-.77-3.844-2.17-5.245a7.367 7.367 0 0 0-5.243-2.174c-4.09 0-7.418 3.325-7.42 7.413 0 1.4.392 2.765 1.135 3.945l.176.28-.75 2.736 2.807-.736Z"/>
  <path fill="#fff" fill-rule="evenodd" d="M17.454 16.128c-.18-.435-.365-.376-.502-.383a8.884 8.884 0 0 0-.427-.008.82.82 0 0 0-.594.28c-.205.222-.78.762-.78 1.859 0 1.096.798 2.156.91 2.305.111.149 1.572 2.4 3.808 3.365.532.23.947.367 1.271.47.534.17 1.02.145 1.404.088.428-.064 1.32-.54 1.505-1.06.186-.52.186-.967.13-1.06-.056-.093-.204-.148-.427-.26-.223-.111-1.32-.65-1.524-.725-.204-.074-.353-.111-.501.112-.149.223-.576.725-.706.873-.13.15-.26.168-.483.056-.223-.111-.941-.347-1.793-1.106-.663-.59-1.11-1.32-1.24-1.544-.13-.223-.014-.344.098-.455.1-.1.223-.26.334-.39.111-.13.149-.223.223-.372.074-.149.037-.279-.019-.39-.055-.112-.501-1.209-.687-1.655Z" clip-rule="evenodd"/>
</svg>
