<svg xmlns="http://www.w3.org/2000/svg" width="193" height="91" fill="none" viewBox="0 0 193 91">
  <path fill="#FD9E28" d="M13.176 50.872c-.221.664-.498 1.107-.83 1.328-.221.221-.72.83-1.494 1.826-.553.664-.885 1.107-.996 1.328-.11.11-.332.443-.664.996l.83-.83c.221-.221.387-.443.498-.664l.664-.664c1.107-1.217 1.937-1.992 2.49-2.324.664-.332 1.273-.498 1.826-.498.996.11 1.605.498 1.826 1.162.221.553.277 1.273.166 2.158 0 .775-.11 1.66-.332 2.656-.11.885-.055 1.715.166 2.49 0 .332.166.498.498.498.885 0 2.213-.94 3.984-2.822 1.881-1.992 3.43-4.095 4.648-6.308.775-1.439 1.605-2.158 2.49-2.158 1.328.11 1.881.72 1.66 1.826-.11 1.107-.609 2.38-1.494 3.818-.885 1.439-1.992 2.877-3.32 4.316-1.217 1.439-2.324 2.545-3.32 3.32-1.66 1.217-3.21 1.826-4.648 1.826-1.55 0-2.711-.498-3.486-1.494-.775-1.107-1.107-2.38-.996-3.818 0-.443-.055-.664-.166-.664-.11 0-.83.72-2.158 2.158-2.877 3.099-4.925 4.925-6.142 5.478-.664.221-1.107.332-1.328.332-.332 0-.72-.11-1.162-.332-1.107-.775-1.439-1.881-.996-3.32.221-.664.72-1.715 1.494-3.154A49.732 49.732 0 0 1 5.54 54.69a44.901 44.901 0 0 1 2.988-4.15c1.107-1.217 1.992-1.826 2.656-1.826.553 0 1.051.221 1.494.664.553.443.72.94.498 1.494Zm17.503 16.6c-1.66-.332-2.435-1.328-2.324-2.988.11-1.77.608-3.652 1.494-5.644a23.797 23.797 0 0 1 2.988-5.478c1.217-1.77 2.102-2.767 2.656-2.988.221-.11.498-.166.83-.166 1.106 0 1.66.553 1.66 1.66 0 .664-.388 1.494-1.162 2.49-.775.885-1.771 2.545-2.988 4.98a106.53 106.53 0 0 0-.83 2.158c-.332.885-.498 1.439-.498 1.66 0 .221.83-.221 2.49-1.328 1.66-1.107 3.486-2.38 5.478-3.818a941.117 941.117 0 0 0 5.478-3.984l2.656-1.826c1.438.332 2.213.885 2.324 1.66.11.664-.222 1.383-.996 2.158-3.099 2.324-5.7 4.205-7.802 5.644-2.103 1.439-3.874 2.6-5.312 3.486-1.328.885-2.38 1.494-3.154 1.826-.886.332-1.66.498-2.324.498h-.664Zm9.462-20.916c-.775-.332-1.273-.775-1.494-1.328-.111-.664.11-1.273.664-1.826.442-.443.94-.664 1.494-.664 1.106 0 1.715.498 1.826 1.494.221.664.11 1.273-.332 1.826-.443.443-.941.664-1.494.664h-.332c-.111-.11-.222-.166-.332-.166Zm23.546-17.762c-1.66 0-3.652.055-5.976.166-2.214.11-4.538.332-6.972.664a66.034 66.034 0 0 0-6.972.996c-2.214.443-4.04.996-5.478 1.66-.443.221-1.052.332-1.826.332-1.218 0-1.826-.498-1.826-1.494-.11-.996.553-1.826 1.992-2.49 1.66-.775 3.707-1.383 6.142-1.826 2.434-.553 4.98-.94 7.636-1.162a96.831 96.831 0 0 1 7.802-.664c2.656-.11 4.87-.166 6.64-.166.885 0 1.383-.11 1.494-.332l1.328-1.992c3.43-5.312 6.086-9.407 7.968-12.284 1.992-2.988 3.486-5.146 4.482-6.474 1.106-1.439 1.881-2.269 2.324-2.49.442-.332.83-.498 1.162-.498 1.438-.221 2.158.387 2.158 1.826l-.332.664c-.11.221-.443.664-.996 1.328-.664.885-1.77 2.435-3.32 4.648a232.952 232.952 0 0 1-4.482 6.64c-1.77 2.767-3.652 5.7-5.644 8.798.996 0 2.988.11 5.976.332 3.098.11 6.252.332 9.462.664s6.031.83 8.466 1.494c2.434.664 3.652 1.494 3.652 2.49 0 1.217-.609 1.826-1.826 1.826-.554 0-1.162-.055-1.826-.166a15.357 15.357 0 0 0-1.826-.498c-1.55-.332-3.43-.609-5.644-.83a61.035 61.035 0 0 0-6.474-.664 143.667 143.667 0 0 0-6.308-.498c-1.882-.11-3.43-.166-4.648-.166h-1.162c-.222.11-.388.166-.498.166l-2.324 3.818c-5.423 8.743-9.905 16.434-13.446 23.074-3.43 6.64-6.087 12.173-7.968 16.6-1.992 4.316-3.32 7.636-3.984 9.96l-.996 3.32c.11.221 1.162-.664 3.154-2.656a590.77 590.77 0 0 1 7.138-7.802 573.62 573.62 0 0 1 8.964-9.794c3.21-3.43 6.086-6.474 8.632-9.13l2.822-2.822c.442-.443.885-.83 1.328-1.162 1.106.332 1.826.72 2.158 1.162.332.332.387.775.166 1.328-.11.443-.388.94-.83 1.494a20.19 20.19 0 0 1-1.494 1.66c-4.316 4.205-8.245 8.3-11.786 12.284a2242.7 2242.7 0 0 1-9.462 10.292c-2.656 2.988-4.98 5.367-6.972 7.138-2.103 1.77-3.818 2.656-5.146 2.656-.554 0-.94-.055-1.162-.166v.166c-.996-.553-1.494-1.383-1.494-2.49-.11-1.217-.056-2.38.166-3.486.664-2.877 1.826-6.197 3.486-9.96a162.016 162.016 0 0 1 5.644-11.786 251.5 251.5 0 0 1 6.308-12.118c2.213-3.984 4.205-7.525 5.976-10.624a504.37 504.37 0 0 1 4.648-7.802c1.217-1.992 1.826-3.043 1.826-3.154Zm25.88 24.9c-.885.221-2.324.775-4.316 1.66-1.881.885-3.43 1.66-4.648 2.324-2.545 1.439-4.537 2.767-5.976 3.984-1.438 1.107-2.49 2.103-3.154 2.988-.775.775-1.328 1.383-1.66 1.826-.442.443-.94.664-1.494.664-.553 0-1.051-.11-1.494-.332-.664-.332-.94-.83-.83-1.494.11-.775.94-2.49 2.49-5.146 1.55-2.767 3.984-6.917 7.304-12.45 3.43-5.533 8.19-13.335 14.276-23.406 3.32-5.533 5.92-9.794 7.802-12.782 1.882-3.099 3.265-5.367 4.15-6.806.886-1.55 1.439-2.435 1.66-2.656.222-.332.388-.553.498-.664.443-.221.83-.332 1.162-.332.775 0 1.384.277 1.826.83.443.553.388 1.217-.166 1.992l-6.474 10.79a1038.45 1038.45 0 0 0-6.972 11.454 2974.489 2974.489 0 0 1-6.806 11.288 2426.785 2426.785 0 0 1-5.644 9.462l-3.984 6.64-1.494 2.49 1.66-.83a95.386 95.386 0 0 1 3.818-2.158 87.197 87.197 0 0 1 4.648-2.158c1.55-.664 2.822-1.051 3.818-1.162 1.66 0 2.878.609 3.652 1.826.332.885.443 1.881.332 2.988-.11.996-.276 1.937-.498 2.822a19.17 19.17 0 0 0-.166 2.324c0 .553.388.83 1.162.83.775 0 2.047-.443 3.818-1.328 1.882-.885 4.593-2.435 8.134-4.648a22.882 22.882 0 0 1 1.494-.83 8.768 8.768 0 0 1 1.328-.83c.332-.221.72-.443 1.162-.664 1.218.221 1.882.775 1.992 1.66.222.885-.166 1.66-1.162 2.324-.553.332-1.604.996-3.154 1.992a62.57 62.57 0 0 1-4.814 2.656 114.23 114.23 0 0 1-5.312 2.49c-1.77.664-3.21.996-4.316.996-2.102 0-3.43-1.162-3.984-3.486-.221-.664-.332-1.494-.332-2.49.11-.996.332-2.545.664-4.648Zm27.705 27.058c-.553.664-1.162.996-1.826.996-.553 0-.996-.277-1.328-.83-.442-.553-.553-1.217-.332-1.992l3.486-5.644a1194.22 1194.22 0 0 1 8.466-14.11c3.32-5.644 6.972-11.73 10.956-18.26 3.984-6.53 7.692-12.616 11.122-18.26a2391.441 2391.441 0 0 0 8.798-14.11c2.435-3.873 3.763-5.865 3.984-5.976.443-.221.775-.332.996-.332.554 0 1.052.277 1.494.83.443.443.443 1.107 0 1.992l-45.816 75.696Zm21.417-14.608c-.664.221-1.162.332-1.494.332-.885 0-1.549-.332-1.992-.996-.553-.775-.775-1.826-.664-3.154 0-1.107.277-2.38.83-3.818a18.747 18.747 0 0 1 1.826-4.316c.664-1.328 1.383-2.49 2.158-3.486.775-1.107 1.439-1.77 1.992-1.992.885-.221 1.66-.553 2.324-.996.775-.553 1.771-.885 2.988-.996 2.103 0 3.099.94 2.988 2.822-.111 1.881-.83 3.984-2.158 6.308a36.799 36.799 0 0 1-4.482 6.64c-1.66 1.992-3.099 3.21-4.316 3.652Zm.166-4.98c.332-.332.83-.94 1.494-1.826a62.29 62.29 0 0 0 1.992-2.822 36.033 36.033 0 0 0 1.992-3.154c.664-.996.996-1.715.996-2.158-1.549.553-2.656 1.328-3.32 2.324-.553.885-1.162 2.103-1.826 3.652a58.324 58.324 0 0 0-.996 2.49c-.221.775-.332 1.273-.332 1.494Zm9.151 4.814c-.222-.885-.166-2.047.166-3.486s.83-2.933 1.494-4.482a26.716 26.716 0 0 1 2.324-4.316c.774-1.328 1.438-2.269 1.992-2.822.664-.664 1.328-.996 1.992-.996.885 0 1.549.387 1.992 1.162.442.775.276 1.439-.498 1.992-.554.332-1.162.996-1.826 1.992a80.72 80.72 0 0 0-1.66 3.154 158.361 158.361 0 0 0-1.66 4.15 200.22 200.22 0 0 0 4.15-4.648c1.217-1.55 2.6-3.32 4.15-5.312a91.651 91.651 0 0 0 4.482-6.308 248.043 248.043 0 0 1 1.826-2.49c.442-.443.94-.664 1.494-.664 1.217 0 1.826.609 1.826 1.826 0 .553-.72 1.937-2.158 4.15-1.439 2.213-3.154 4.648-5.146 7.304a98.589 98.589 0 0 1-6.142 7.138c-1.992 2.213-3.597 3.597-4.814 4.15-.664.221-1.162.332-1.494.332-1.439 0-2.269-.609-2.49-1.826Zm24.036-15.77c1.881-1.439 3.652-2.158 5.312-2.158 2.213 0 3.541 1.107 3.984 3.32.553 2.103-.498 4.371-3.154 6.806-.885.885-1.771 1.494-2.656 1.826-.775.332-1.494.498-2.158.498-1.107 0-1.937-.221-2.49-.664-.553-.553-.83-.775-.83-.664-.111.11-.221.498-.332 1.162-.221.553-.332 1.051-.332 1.494.553 0 1.549-.166 2.988-.498 1.439-.332 3.486-1.162 6.142-2.49 1.881-.996 3.431-1.77 4.648-2.324a181.527 181.527 0 0 0 2.988-1.66 28.85 28.85 0 0 1 2.324-1.328 36.77 36.77 0 0 1 2.158-1.328c.885.221 1.494.553 1.826.996.332.332.498.72.498 1.162 0 .332-.111.664-.332.996a2.603 2.603 0 0 1-.664.498 293.5 293.5 0 0 0-4.98 2.988 144.449 144.449 0 0 1-5.976 3.32 93.825 93.825 0 0 1-6.142 2.656c-1.992.664-3.652.996-4.98.996-.664 0-1.162-.055-1.494-.166-1.549-.443-2.435-1.273-2.656-2.49-.332-1.328-.221-2.767.332-4.316.443-1.66 1.217-3.265 2.324-4.814 1.107-1.55 2.324-2.822 3.652-3.818Zm.996 6.308c.111.221.553.11 1.328-.332.885-.443 1.605-1.107 2.158-1.992.996-1.439 1.217-2.158.664-2.158-.885 0-2.103.664-3.652 1.992-.332.332-.498.664-.498.996.111.332.111.664 0 .996v.498Z"/>
</svg>
