<svg xmlns="http://www.w3.org/2000/svg" width="520" height="520" fill="none" viewBox="0 0 520 520">
  <path fill="#221F1F" d="M298.367 393s-10.74 11.06-9 12.92c.52.54 16.85 6.06 31.09 14.51a10.217 10.217 0 0 0 1.79-.62c-1.33-1.4-8.34-7.18-17.58-12.34-6.48-3.6-6.3-14.47-6.3-14.47Zm-136.12-10.95c3.06 2.74 9.05 20.1 11.46 21.48 2.87 1.65 11.82-1.47 20.75-2.32a115.18 115.18 0 0 1 18.34-.16c8-1.73.08-17.6.08-17.6s-3.69 8.66-8.1 12.48c-9-.71-23.63 3-25.9 3.17-5 .42-5.89-4.6-7.79-8-1.71-3.1-5.02-8.24-8.84-9.05Z"/>
  <path fill="#FD9E28" d="M301.476 186.76a6.34 6.34 0 0 0-.41-7c-.44-.62-1.85-.49-2.08.14l-.33.92c-.12.31-.27.6-.4.89-.23.59-.55 1.15-.81 1.7a17.872 17.872 0 0 1-3.62 5.83 15.631 15.631 0 0 1-4.06 3 11.67 11.67 0 0 1-3.5 1.17 4.404 4.404 0 0 1-3.26-.46 2.006 2.006 0 0 1-.49-.82c0-.12-.07-.24-.11-.36l-.06-.45v-1.04a17.018 17.018 0 0 1 1.24-5.33 14.725 14.725 0 0 1 2.7-4.54 6.572 6.572 0 0 1 7.87-1.68 11.823 11.823 0 0 1 3.57 2.39 11.186 11.186 0 0 1 3.4 7.12c.146 1.41.072 2.833-.22 4.22a7.86 7.86 0 0 1-.25 1 6.462 6.462 0 0 1-.3 1c-.13.27-.21.55-.35.83-.14.28-.31.52-.45.79s-.48.68-.75 1a4.504 4.504 0 0 1-1 .78c-.8.567-1.642 1.071-2.52 1.51-.33.18-.72.27-1.09.44-.37.17-.81.21-1.22.34a9.172 9.172 0 0 1-2.62.12 8 8 0 0 1-4.46-1.86 14.755 14.755 0 0 1-2.18-2.39 16.478 16.478 0 0 1-3-6.82 19.105 19.105 0 0 1 .08-7.75l.33-1.07c.131-.343.209-.704.23-1.07a7.517 7.517 0 0 1 2.18-4.31 19.25 19.25 0 0 1 5.46-4.29c.52-.28 1-.61 1.55-.9.52-.332 1.058-.636 1.61-.91 1-.52.25-1.23-.18-1.21-1.22 0-.4-.61-.37-1 0-.13 0-.3-.07-.38-.879.037-1.751.174-2.6.41a21.701 21.701 0 0 0-5.55 2.21 20.014 20.014 0 0 0-5 4.17 15.624 15.624 0 0 0-2.19 3.19 21.516 21.516 0 0 0-1.58 4 25.663 25.663 0 0 0 1.8 18.4 21.305 21.305 0 0 0 3.45 4.88c.289.299.593.582.91.85.34.26.68.5 1 .74.705.485 1.455.9 2.24 1.24.369.2.75.377 1.14.53l1.16.46c.44.17 1 .27 1.52.42 2.68.595 5.465.523 8.11-.21a17.986 17.986 0 0 0 7.09-3.81c.405-.329.783-.69 1.13-1.08.33-.35.63-.65.85-.94.44-.58.72-1 .78-1.05.347-.501.658-1.025.93-1.57.304-.536.559-1.098.76-1.68l.33-.87c.1-.29.16-.53.23-.8.14-.53.29-1 .4-1.58.465-2.169.496-4.409.09-6.59-.1-.42-.15-.86-.21-1.3-.06-.44-.15-.88-.23-1.32a19.838 19.838 0 0 0-1.93-5.41 19.254 19.254 0 0 0-3.53-4.62 16.346 16.346 0 0 0-10.81-4.69 14.358 14.358 0 0 0-6.26 1.23 15.214 15.214 0 0 0-5 3.64 12.856 12.856 0 0 0-1.32 1.84l-.69 1.13c-.19.38-.38.76-.6 1.13a25.052 25.052 0 0 0-2.36 6 18.36 18.36 0 0 0-.62 6.85c.069.658.203 1.308.4 1.94.1.33.2.65.33 1s.31.66.48 1a8.705 8.705 0 0 0 3.09 3.26 9.843 9.843 0 0 0 4 1.37 13.67 13.67 0 0 0 3.79-.06c.28-.05.68-.13 1.17-.25.49-.12 1-.33 1.64-.57a20.218 20.218 0 0 0 3.76-2.08 27.802 27.802 0 0 0 5.14-4.88c.29-.378.548-.779.77-1.2.26-.55.56-1.17.8-1.8.52-1.32.83-2.6 1.13-3.08Z"/>
  <path fill="#232020" d="M329.407 240.11s-.2.69-.48 1.68c-.28.99-.6 2.34-.9 3.71-.62 2.74-1 5.7-.63 6.28a.48.48 0 0 0 .6.08c.35-.41 1.31-3.08 2.36-5.64l2.06-5.06c.16-.46-2.85-1.52-3.01-1.05Z"/>
  <path fill="#221F1F" d="M270.477 159.26c.042.114.124.21.23.27.106.075.23.119.36.13a4.924 4.924 0 0 0 1.26-.17c.34-.07 1.1-.62 1.07-.86a6.519 6.519 0 0 0-.32-1.42 3.617 3.617 0 0 0-.57-.67c-.17-.17-.37-.38-.6-.59l-.79-.57-.44-.3-.46-.23-.92-.44-1.51-.48a11.339 11.339 0 0 0-4.13-.14 38.316 38.316 0 0 0-7.33 1.91c-.495.179-.973.4-1.43.66a16.335 16.335 0 0 1-4.78 1.81 1.604 1.604 0 0 1-.84.08c-.912.063-1.817.19-2.71.38-1.24.2-2.52.39-2.81.47a39.55 39.55 0 0 1-4.43 1c-.21 0-.45 0-.64.17-.402.301-.901.44-1.4.39-.672.043-1.339.126-2 .25a4.01 4.01 0 0 0-1 .47c-.29.17-.13.75 0 .81.3.19.06.47 0 .71a1.13 1.13 0 0 0 0 .26c1.409.503 2.862.875 4.34 1.11h3.09c1.54 0 3.18-.08 3.51-.1a3.353 3.353 0 0 0 1-.24c.08 0 1.3-.12 2.52-.29 1.22-.17 2.44-.39 2.53-.42a8.012 8.012 0 0 0 2.76-1.06 1.44 1.44 0 0 1 .54-.23c1.61-.48 3-1.17 4.44-1.74a20.507 20.507 0 0 1 2.21-.68c.13-.055.257-.119.38-.19.148-.085.306-.152.47-.2a12.006 12.006 0 0 1 4.93-.46h1.14l.68.12c.152.027.295.088.42.18.08.07.35 0 .62 0s.56.19.61.3Zm2.88 34.61a20.71 20.71 0 0 0-1.8-4.91.539.539 0 0 0-1 .21 12.988 12.988 0 0 0-.12 1.88v.95l.11.95c0 .1.06.38.16.79.1.41.28.94.46 1.58a24.18 24.18 0 0 0 2.12 4.44 27.05 27.05 0 0 0 3.42 4.37 25.975 25.975 0 0 0 3.31 2.86 21.381 21.381 0 0 0 11.51 4.24 18.58 18.58 0 0 0 12.16-3.64 24.09 24.09 0 0 0 2.43-2.06 27.417 27.417 0 0 0 2.08-2.36 32.24 32.24 0 0 0 3.29-5.22c.39-.84.74-1.7 1.1-2.56.36-.86.52-1.8.77-2.69.668-3.157.651-6.42-.05-9.57a23.307 23.307 0 0 0-3.95-8.62c-.65-.82-1.3-1.68-2-2.46-.13-.17-.42-.52-.85-1s-1-1-1.76-1.61a30.008 30.008 0 0 0-5.57-3.58 24.664 24.664 0 0 0-6.45-2.09 20.315 20.315 0 0 0-4-.31c-2.858.1-5.655.849-8.18 2.19a17.677 17.677 0 0 0-3.45 2.48 19.607 19.607 0 0 0-2.71 3.21 9.134 9.134 0 0 0-1.12 2c-.53 1.59-1.2 3.09-1.63 4.68a29.117 29.117 0 0 0-1.06 6.7v1.66c0 .55.12 1.09.17 1.63.1 1 .56.45.61.11.16-1 .36-.18.54-.09.18.09.14.07.19 0 .05-.07.1-.82.25-2a40.65 40.65 0 0 1 .8-4.31 27.093 27.093 0 0 1 2.55-6.6c.452-.826.964-1.618 1.53-2.37a13.824 13.824 0 0 1 4.47-3.82 14.351 14.351 0 0 1 3-1.17 16.398 16.398 0 0 1 2.94-.45 17.617 17.617 0 0 1 3.67.21c1 .18 2 .31 2.95.56.766.234 1.517.515 2.25.84a26.423 26.423 0 0 1 4.22 2.42 24.748 24.748 0 0 1 5.19 5.1 23.11 23.11 0 0 1 3.7 7.32c.13.531.233 1.068.31 1.61a21 21 0 0 1-3.62 13.64 20.017 20.017 0 0 1-5 5.39c-.319.278-.653.539-1 .78a8.75 8.75 0 0 1-1.41.83 15.145 15.145 0 0 1-8.33 1.3 18.535 18.535 0 0 1-8.09-3.12 29.597 29.597 0 0 1-3.67-2.82 17.863 17.863 0 0 1-3.09-3.66 6.95 6.95 0 0 0-.56-.8l-.75-1.12a8.513 8.513 0 0 1-1.04-1.92Zm-69.26-3.61a21.049 21.049 0 0 0-1.81-4.92.536.536 0 0 0-.576-.252.537.537 0 0 0-.424.462 12.848 12.848 0 0 0-.12 1.88v1l.11 1c0 .1.05.38.15.79.1.41.27 1 .47 1.59a24.023 24.023 0 0 0 2.13 4.45 25.499 25.499 0 0 0 6.83 7.19 21.33 21.33 0 0 0 11.65 4 19.257 19.257 0 0 0 12.1-3.86 23.608 23.608 0 0 0 4.5-4.42c.69-.8 1.21-1.69 1.81-2.53.6-.84 1.06-1.75 1.52-2.69.414-.833.785-1.688 1.11-2.56a22.489 22.489 0 0 0 .83-12.27 23.27 23.27 0 0 0-3.94-8.67c-.32-.42-.62-.86-1-1.26s-.68-.81-1-1.22a24.464 24.464 0 0 0-8.38-6 25.708 25.708 0 0 0-6.55-1.81 22.771 22.771 0 0 0-4-.2 19.987 19.987 0 0 0-8.18 2.15 18.176 18.176 0 0 0-3.47 2.47 19.728 19.728 0 0 0-2.73 3.21 9.687 9.687 0 0 0-1.13 2.06c-.54 1.59-1.21 3.09-1.65 4.69a29.178 29.178 0 0 0-1.06 6.72v1.66c0 .55.11 1.09.17 1.64.1 1 .56.44.61.11.16-1 .35-.18.54-.09.19.09.14.07.19 0 .05-.07.09-.82.25-2 .184-1.454.451-2.896.8-4.32a26.61 26.61 0 0 1 2.57-6.61c.44-.838.956-1.634 1.54-2.38a13.67 13.67 0 0 1 4.49-3.81 13.863 13.863 0 0 1 3-1.14c.986-.224 1.99-.368 3-.43 1.247-.08 2.5-.036 3.74.13 1 .13 2 .26 3 .44.11 0 1 .26 2.29.74a20.16 20.16 0 0 1 4.26 2.28 20.812 20.812 0 0 1 5.24 5 23.08 23.08 0 0 1 3.66 7.34c.162.523.26 1.063.29 1.61a19.36 19.36 0 0 1-.62 7l-.56 1.71c-.22.57-.49 1.11-.74 1.67-.24.566-.521 1.114-.84 1.64a16.205 16.205 0 0 1-.92 1.55 20.384 20.384 0 0 1-5 5.42c-.36.25-.68.56-1 .8-.458.308-.933.592-1.42.85a17.103 17.103 0 0 1-4.06 1.34 18.12 18.12 0 0 1-4.29.16 19.496 19.496 0 0 1-4.25-1 21.827 21.827 0 0 1-3.92-2 29.047 29.047 0 0 1-3.71-2.77 17.96 17.96 0 0 1-3.12-3.65 8.107 8.107 0 0 0-.56-.79c-.24-.33-.48-.73-.75-1.12a7.952 7.952 0 0 1-1.07-1.98Z"/>
  <path fill="#221F1F" d="M224.797 206a1.58 1.58 0 0 0-1.75.08c-.22.11-.47.64-.33.8.267.309.558.596.87.86.221.121.447.232.68.33.459.218.933.402 1.42.55a20.24 20.24 0 0 0 2.95.75c1.216.221 2.455.298 3.69.23a42.06 42.06 0 0 0 7.29-1 11.983 11.983 0 0 0 1.55-.46c1.74-.63 3.48-1.18 5.22-1.73.285-.113.584-.187.89-.22a19.887 19.887 0 0 0 2.83-.94c1.28-.5 2.56-1.07 2.84-1.23 1.38-.8 2.77-1.57 4.13-2.39.208-.091.398-.22.56-.38a3.301 3.301 0 0 1 1.19-.86c.59-.34 1.17-.69 1.73-1.09.264-.221.506-.469.72-.74.21-.24-.12-.48-.22-.46-.32.05-.2-.23-.25-.37a.555.555 0 0 0-.07-.15 19.86 19.86 0 0 0-1.94.6c-1 .33-2 .66-2.16.75l-.86.39-1.84.8c-1.36.57-2.8 1.12-3.1 1.21a5.67 5.67 0 0 0-.89.45c-.13.1-4.33 1.47-4.5 1.49-.876.263-1.729.598-2.55 1a1.888 1.888 0 0 1-.52.18c-1.51.4-3 .87-4.51 1.22-.77.17-1.55.29-2.33.39a3.161 3.161 0 0 0-.42.11 2.385 2.385 0 0 1-.52.11 22.709 22.709 0 0 1-5.52.1 16.638 16.638 0 0 1-2.86-.29c-.26-.09-1.21.03-1.42-.09Zm95.11-13a1.69 1.69 0 0 0 .77 1.52c.16.13.63.07.68-.12a7.12 7.12 0 0 0 .24-1.1 40.89 40.89 0 0 0-.48-4.94 23.418 23.418 0 0 0-.77-3.41 45.178 45.178 0 0 0-2.5-6.68c-.227-.482-.485-.95-.77-1.4-1-1.54-2-3.08-3.11-4.54a7.324 7.324 0 0 1-.55-.75 11.943 11.943 0 0 0-2.17-2.18 12.57 12.57 0 0 0-2.72-1.79 14.089 14.089 0 0 0-4.87-1.18 2.115 2.115 0 0 0-.71 0 6.475 6.475 0 0 1-1.5.17c-.677.049-1.347.166-2 .35-.322.117-.633.26-.93.43-.27.14 0 .4.07.41.31 0 .11.21.11.34a.244.244 0 0 0 0 .12c.199.024.4.024.6 0a11.01 11.01 0 0 1 1.31 0c.448.005.896.039 1.34.1.38 0 .66.08.76.09l.84.1c.595.101 1.18.251 1.75.45.954.314 1.857.765 2.68 1.34.24.18.53.28.78.45.578.438 1.12.923 1.62 1.45.51.537.99 1.101 1.44 1.69.56.65 1 1.39 1.62 2 .116.131.217.275.3.43.76 1.29 1.51 2.61 2.17 4 .33.7.6 1.44.88 2.17.05.13.12.25.18.38.08.159.15.322.21.49a36.008 36.008 0 0 1 1.52 5.36c.09.42.69 2.39.73 2.89.05.29.51 1.14.48 1.36Zm-.481-20.39c-.28-.38-.76-.41-1.29-.15a.807.807 0 0 0-.31.62c.108.223.229.44.36.65 0 .06.47.46.92 1 .45.54.89 1.1 1.12 1.39.4.62.85 1.17 1.25 1.78.4.61.78 1.27 1.18 1.9.4.63.68 1.32 1 2 .119.311.263.612.43.9.283.507.508 1.043.67 1.6.203.542.356 1.101.46 1.67.055.188.075.385.06.58 0 .17.18 1 .28 1.88.1.88.26 1.75.31 2 .24 1 .37 2 .56 3 0 .15 0 .31.08.44.147.294.209.623.18.95 0 .45.05.89.11 1.34.05.229.127.45.23.66.08.21.38.11.41 0 .03-.11.23 0 .36 0 .043.01.088.01.13 0 .263-.966.46-1.948.59-2.94a5.59 5.59 0 0 0 0-.66v-2.89c0-.48-.06-.76-.07-.87a3.195 3.195 0 0 0-.15-.69c0-.05-.07-.86-.18-1.67l-.29-1.69a5.658 5.658 0 0 0-.63-1.86 1.669 1.669 0 0 1-.14-.37l-.24-.81-.33-.79c-.23-.51-.44-1-.71-1.54-.27-.54-.51-1-.77-1.56a2.286 2.286 0 0 0-.19-.25c-.08-.11-.17-.21-.24-.32a12.939 12.939 0 0 0-1.13-1.72c-.39-.57-.85-1.09-1.26-1.65-.19-.27-1.42-1.21-1.69-1.46s-.96-.31-1.07-.47Zm16.671 22.88c-.23-3.46-1.94-6.41-4.28-7.63-.71-.42-1.06.24-.55.92a11.354 11.354 0 0 1 1.91 4.64c.243 1.086.4 2.189.47 3.3a33.273 33.273 0 0 1-.38 6.9c-.21 1.3-.47 2.62-.78 3.95-.31 1.33-.59 2.73-.85 4-.51 2.57-.87 4.86-1.12 6.4a138.08 138.08 0 0 0-1.5 18.06 246.134 246.134 0 0 0 2.23 36.66c.34 2.7.76 5.38 1.22 8 1.626 9.14 3.253 18.267 4.88 27.38.27 1.52.59 3.07.76 4.56.13 1.23 1.44 8 2.8 14.86 1.36 6.86 2.64 13.77 2.91 15.36a184.017 184.017 0 0 1 3.15 23.8c.11 1.13 0 2.35.18 3.39.263 2.438.307 4.894.13 7.34-.06 1.72-.24 3.42-.35 5.13-.11 1.71-.41 3.4-.59 5.1l-.66 5c-.2 1.52.4.82.56.3.46-1.49.4-.21.55 0 .15.21.12.14.18.08.06-.06.11-.34.26-.89.15-.55.36-1.33.6-2.27.289-1.077.523-2.169.7-3.27.21-1.21.52-2.5.68-3.82.16-1.32.34-2.67.5-3.95.16-1.28.2-2.52.29-3.62.18-2.2.19-3.88.18-4.43v-1.45c0-.86 0-2.07-.08-3.51-.09-2.89-.34-6.71-.73-10.6-.79-7.78-2.14-15.81-2.42-17.44-.28-1.63-.66-3.42-1-5.11-.08-.41-1.19-6.33-2.31-12.26s-2.18-11.84-2.26-12.31c-.91-4.72-1.66-9.49-2.74-14.15-.21-.92-.37-1.88-.52-2.83-1.34-8.15-2.67-16.29-3.65-24.46-.49-4.17-.85-8.37-1.12-12.56-.06-.75-.13-1.51-.19-2.26-.07-.95-.16-1.9-.21-2.85a168.286 168.286 0 0 1 1.09-29.71c.15-1.13.52-4.4 1.05-7.69.27-1.67.57-3.26.84-4.75.27-1.49.4-2.67.49-3.35.133-1.346.157-2.7.07-4.05-.09-1.62-.35-3.22-.39-3.91Zm-37.31 208.29a13.795 13.795 0 0 0 1.77 4.46c.382.62.832 1.197 1.34 1.72a7.306 7.306 0 0 0 1.66 1.22c.75.39 1.05-.3.53-.94a14.54 14.54 0 0 1-2.14-4.72 32.63 32.63 0 0 1-.94-3.35 61.353 61.353 0 0 1-1.18-7.05c-.506-4.844-.767-9.71-.78-14.58-.054-6 .006-12 .18-18 .35-12.22 1.18-24.45 2.18-36.67.22-2.71.41-5.44.59-8.15.6-9.31 1.5-18.61 2.53-27.91.17-1.55.32-3.14.58-4.62.42-2.44 3.18-27.68 3.42-31 .31-4.08.64-8.16.9-12.26.12-2.06.24-4.11.25-6.23v-1.62c0-.31 0-.57-.08-.91l-.1-.53a2.77 2.77 0 0 0-.13-.43c-.16-.537-.35-1.065-.57-1.58-.2-.51-.42-1-.64-1.46a30.745 30.745 0 0 0-1.53-3.14 31.573 31.573 0 0 1-2.91-6.76 21.333 21.333 0 0 1-1-9.85c.08-.4.15-.8.22-1.2a9.53 9.53 0 0 1 .32-1.16c.13-.39.22-.79.37-1.17l.53-1.11c.64-1.35-.12-.91-.45-.46-.91 1.3-.45.09-.53-.14-.08-.23-.06-.18-.14-.14a9.45 9.45 0 0 0-.55.81 13.76 13.76 0 0 0-1.1 2.24 17.985 17.985 0 0 0-1 7.54 31.42 31.42 0 0 0 1.62 7.74c.72 2.15 1.38 3.72 1.6 4.23 0 .12.87 1.94 2 4.51.264.654.495 1.322.69 2l.08.25v1.87c-.05 1.73-.19 3.64-.36 5.57-.69 7.75-1.7 15.89-1.89 17.54-.19 1.65-.33 3.48-.48 5.22-.1.82-2.83 24.18-2.94 25.12-.48 4.85-1.09 9.7-1.3 14.55 0 1-.15 1.95-.25 2.91-.86 8.35-1.49 16.71-2.06 25.08l-.89 12.83c0 .77-.05 1.54-.07 2.32 0 1-.05 1.95-.11 2.92-.547 10.14-.75 20.31-.61 30.51 0 1.17.19 4.56.5 8 .31 3.44.78 6.9 1 8.26.211 1.325.499 2.637.86 3.93.22.79.44 1.56.63 2.22.19.66.31 1.23.38 1.57Zm-61.441-162.27a17.134 17.134 0 0 0 2.73-6.46c.13-.67-.54-.94-1-.33-.94 1.2-1.88 2.42-2.77 3.69-.14.2-.73 1.14-1.56 2.55-.41.7-.89 1.52-1.38 2.44-.24.47-.49.95-.73 1.47a7.904 7.904 0 0 0-.37.94c-.09.3-.19.61-.26.9-.58 2.31-.94 4.64-1.3 6.76-.36 2.12-.61 4-.81 5.24-.73 4.87-1.3 9.75-1.86 14.63-1.12 9.92-2.286 19.827-3.5 29.72-.27 2.19-.51 4.4-.73 6.6-.75 7.54-1.76 15.07-3 22.56-.2 1.24-.38 2.52-.68 3.71-.24 1-1.17 6.55-2.2 12.17-1.03 5.62-2.17 11.31-2.42 12.61a180.674 180.674 0 0 1-4.5 19.21c-.26.9-.64 1.82-.8 2.67a25.464 25.464 0 0 1-2 5.65 28.987 28.987 0 0 1-4.16 7 9.213 9.213 0 0 1-2.89 2.45c-1.05.44-.4.71.07.62.64-.1.71-.12.65 0-.06.12-.33.32-.37.43-.04.11 0 .17 0 .19a2.32 2.32 0 0 0 .81-.24c.291-.118.574-.251.85-.4.3-.19.64-.39 1-.64a17.993 17.993 0 0 0 4.13-4.62 52.039 52.039 0 0 0 4.53-8.94c0-.11.62-1.6 1.36-3.86.74-2.26 1.67-5.27 2.52-8.37 1.69-6.19 3.1-12.73 3.4-14.06.3-1.33.53-2.81.76-4.22.05-.33 1.05-5.2 1.94-10.09.89-4.89 1.72-9.81 1.77-10.19.57-3.92 1.26-7.85 1.54-11.79.06-.78.18-1.58.3-2.36 1-6.75 1.73-13.52 2.48-20.29l1.23-10.37c.07-.62.1-1.24.16-1.87.07-.79.12-1.58.21-2.36 1-8.18 1.73-16.38 2.85-24.52.24-1.85 1.06-10.92 1.69-12.8l.12-.47c.049-.204.112-.405.19-.6.18-.5.41-1.09.65-1.67.39-.926.841-1.824 1.35-2.69Zm-31.749-37.87c-.07-2.87 0-5.13.08-7.49 0-.75-.65-1-1.08-.12a15.466 15.466 0 0 0-1.53 5.26 16.925 16.925 0 0 0 .11 3.55 34.297 34.297 0 0 0 1.63 6.79c.81 2.44 1.77 4.92 2.52 7.13a44.092 44.092 0 0 1 1.51 5.46l.29 1.89v1.68a29.969 29.969 0 0 1-.61 3.79c-.57 2.58-1.31 5.18-2.12 7.78-3.33 10.54-7.54 20.93-11.67 31.31-.93 2.3-1.83 4.62-2.7 6.94-3 8-6.22 15.87-9.46 23.77-.54 1.31-1.07 2.67-1.68 3.91-.5 1-2.92 6.9-5.26 12.91s-4.6 12.18-5.07 13.6c-2.35 7.09-4.67 14.22-6.57 21.49a27.401 27.401 0 0 0-.74 3.11c-.28 2.27-.87 4.5-1.31 6.8a43.367 43.367 0 0 0-.87 9.75 11.681 11.681 0 0 0 1.22 4.8c.79 1.32.79.32.63-.11-.24-.68-.12-.79 0-.69.12.1.31.34.44.35.13.01.17 0 .19-.05a1.156 1.156 0 0 0-.07-.2c0-.12-.07-.31-.13-.54a4.68 4.68 0 0 1-.16-.83 8.576 8.576 0 0 1-.12-1.13 28.644 28.644 0 0 1 .45-6.29c.78-4.68 2.27-9.51 2.5-10.47 0-.11.48-1.8 1.22-4.3s1.8-5.8 2.95-9.16c2.3-6.72 5-13.66 5.53-15.07.53-1.41 1.09-3 1.61-4.5.12-.35 2.15-5.5 4.25-10.64 2.1-5.14 4.24-10.28 4.4-10.67 1.63-4.13 3.42-8.2 4.84-12.39.28-.83.64-1.66 1-2.48 2.93-7.05 5.72-14.16 8.48-21.29l4.26-10.93c.25-.65.46-1.33.69-2 .29-.84.56-1.68.87-2.52 1.61-4.35 3.12-8.74 4.44-13.23.65-2.25 1.26-4.51 1.73-6.87.243-1.199.417-2.411.52-3.63.051-.666.051-1.334 0-2v-.52l-.07-.46-.15-.91a25.075 25.075 0 0 0-.72-2.91c-.4-1.29-.93-2.79-1.52-4.26-1.19-2.93-2.39-5.79-2.73-6.93-.21-.64-.77-1.95-1.21-3.27a15.26 15.26 0 0 1-.81-3.21Zm89.65 51.36c-7.42 7-18.74 16.63-33.47 12.9-3.91 9.95 25.62 20.03 33.47-12.9Z"/>
  <path fill="#221F1F" d="M293.027 258.24a5.47 5.47 0 0 0 2.17-3 .49.49 0 0 0-.69-.55c-.68.42-1.35.85-2 1.29-.2.14-1.76 1.46-3.59 2.81a49.608 49.608 0 0 1-5.06 3.35 42.67 42.67 0 0 1-6.57 3.16 25.018 25.018 0 0 1-7.09 1.58c-.606.052-1.213.068-1.82.05-.605.021-1.21-.002-1.81-.07l-1.8-.17-.9-.19c-.62-.11-1.26-.27-1.86-.35l-.78-.07h-.58c-.06 0-.15 0-.15.06l-.44 1.58c-.12.54-.18 1.08-.27 1.61a1.974 1.974 0 0 0 0 .81c0 .3.05.41.08.63a7.99 7.99 0 0 0 1.59 3.37 11.24 11.24 0 0 0 2.56 2.29 16.118 16.118 0 0 0 6 2.41l1.07.18c.336.034.67.088 1 .16.835.109 1.679.133 2.52.07a18.79 18.79 0 0 0 8.64-2.67l.8-.48.64-.45.79-.6a27.79 27.79 0 0 0 6.7-8.57c.271-.431.48-.899.62-1.39a9.902 9.902 0 0 1 .54-1.54c.19-.51.4-1 .6-1.52.286-.698.53-1.413.73-2.14.21-.73.46-1.44.6-2.18.14-.74.21-1.47.29-2.2.08-.73-.38-.4-.48-.19-.29.62-.32.06-.45 0s-.1-.07-.15 0a10.37 10.37 0 0 0-.51 1.28l-.47 1.3-.64 1.48a47.416 47.416 0 0 1-2.17 4.41s-.34.78-1 1.75a25.864 25.864 0 0 1-2.46 3.48 18.188 18.188 0 0 1-1.57 1.69c-.495.492-1.019.953-1.57 1.38-.422.341-.863.658-1.32.95a5.17 5.17 0 0 1-.78.48c-.59.31-1.14.73-1.75 1a16.633 16.633 0 0 1-4.65 1.32c-1.597.21-3.217.166-4.8-.13a16.57 16.57 0 0 1-5.1-1.76 3.88 3.88 0 0 1-.84-.61 7.108 7.108 0 0 1-1.38-1.61 4.724 4.724 0 0 1-.38-.88 3.577 3.577 0 0 1-.13-.44 2.144 2.144 0 0 0 0-.34.855.855 0 0 1 0-.16v-.08h.43c.455.097.916.164 1.38.2 1.897.238 3.812.292 5.72.16.34 0 .68-.1 1-.15.32-.05.86-.12 1.28-.22a35.407 35.407 0 0 0 12.37-4.84 30.894 30.894 0 0 0 2.81-2c1.15-.93 2.29-1.87 2.74-2.24.45-.37 1.87-2.18 2.34-2.5Zm9.11 22.63a11.736 11.736 0 0 0 3.49-5.1c.2-.57-.39-1-.91-.54-1 .85-2.06 1.69-3.06 2.58-.32.25-2.68 2.75-5.63 5.16a46.68 46.68 0 0 1-8.39 5.55 41.812 41.812 0 0 1-11.54 3.84l-2.49.36c-.83.11-1.68.12-2.52.19l-1.26.08h-1.26l-5.11-.06 1.06 6.28.61 3.84 1.19 7.67c.29 1.91.61 3.82 1 5.71 1.18 6.51 2.1 13.07 2.88 19.65.12 1.1.28 2.21.3 3.29 0 .88.58 5.77 1.09 10.74.51 4.97 1 10 1.11 11.16.68 5.72 1.17 11.47 1.43 17.21-.009.812.035 1.624.13 2.43.223 1.748.267 3.514.13 5.27a51.902 51.902 0 0 1-.75 7.22 13.869 13.869 0 0 1-.91 3.26c-.48.83.14.74.44.44.72-.88.42 0 .5.22 0 .06.07.15.15.13.166-.185.313-.386.44-.6a9.898 9.898 0 0 0 .81-1.63 26.316 26.316 0 0 0 1.35-5.15c.474-2.855.758-5.738.85-8.63v-3.56c0-2.07-.07-4.8-.19-7.6-.22-5.59-.66-11.4-.74-12.58-.08-1.18-.26-2.48-.42-3.72 0-.29-.43-4.6-.83-8.92-.4-4.32-.9-8.64-.95-9-.46-3.43-.79-6.89-1.52-10.27-.15-.66-.23-1.36-.32-2.05-.77-5.9-1.74-11.77-2.72-17.63l-1.43-8.93c0-.08-.07-.17-.11-.28l-.06-.16a.806.806 0 0 1 .23 0h1.76l2.78-.18c.93 0 1.85-.22 2.78-.35a21.93 21.93 0 0 0 2.75-.5 42.729 42.729 0 0 0 10.54-3.71 39.714 39.714 0 0 0 4.92-3.15c1-.76 2-1.54 2.79-2.23l1.84-1.62c.4-.37 1.2-1.23 1.95-2.1.75-.87 1.47-1.71 1.82-2.03Z"/>
  <path fill="#221F1F" d="M301.387 303.54c-6.1 11.4-14.12 21-27.94 21.29-2.07 0 1-6.49 3.22-6.53 10.43-.2 16.4-5.81 21.14-14.68.49-.92 2-3.63 3.4-3.31 1.4.32.63 2.39.18 3.23Zm-65.631 78.9a13.3 13.3 0 0 0-1.4 4.71.546.546 0 0 0 .271.613.542.542 0 0 0 .659-.123l.63-.67.53-.69c.372-.459.706-.948 1-1.46a49.733 49.733 0 0 0 2.52-6c1.11-3.06 2.17-6.5 2.72-8.24 1-3.38 1.92-6.8 2.72-10.23a650.713 650.713 0 0 0 4.62-21c.32-1.55.6-3.12.85-4.68.84-5.38 1.85-10.72 2.9-16.06.18-.89.33-1.81.59-2.65.26-.84 1-4.67 1.73-8.71.35-2 .71-4.07 1-5.72.36-2.19.62-3.86.73-4.49l.28-2c-1.13-.09-2.3-.12-3.34-.27l-.68-.12c-.13 0-.25 0-.38-.06l-.75-.15c-.5-.11-1-.25-1.5-.37l-1.48-.46a31.327 31.327 0 0 1-5.73-2.61 15.254 15.254 0 0 0-1.66-1 11.718 11.718 0 0 1-1.79-1.09c-.54-.45-1.06-.93-1.6-1.4-.74-.65-1.39-1.39-2.11-2.08-.72-.69-1.3-1.49-2-2.22-.7-.73-1.28-1.48-2-2.2-.72-.72-.71 0-.57.25.41.83-.19.34-.39.36-.2.02-.16 0-.18.09.075.167.159.331.25.49l.7 1.22c.14.25.3.52.47.8l.6.87c.43.59.86 1.26 1.36 1.88a32.666 32.666 0 0 0 5.06 5.2c.532.437 1.09.841 1.67 1.21a18.99 18.99 0 0 0 1.76 1.13 22.6 22.6 0 0 0 2.2 1.21 31.23 31.23 0 0 0 5 2c.42.13.83.26 1.23.35.2.05.39.11.59.15l.28.07h.17l.2.07c-.22 1.09-.31 1.51-.34 1.68-.2 1-.31 2-.44 3-.05.48-2.74 13.85-2.85 14.38-.48 2.79-1.13 5.55-1.4 8.36a15.83 15.83 0 0 1-.29 1.66c-1 4.76-1.83 9.54-2.75 14.31-.48 2.43-1 4.85-1.56 7.27-.09.44-.15.88-.23 1.32-.08.44-.18 1.11-.31 1.66-1.31 5.72-2.51 11.47-4.14 17.09-.2.64-.61 2.54-1.1 4.44-.49 1.9-1 3.81-1.27 4.54a22.336 22.336 0 0 0-.53 2.21 13.376 13.376 0 0 1-.52 2.16Z"/>
  <path fill="#221F1F" d="M248.046 317.2h-.41a6.388 6.388 0 0 1-.67-.13c-.25-.06-.54-.11-.84-.19l-.91-.36a3.641 3.641 0 0 1-.9-.41l-.79-.41c-.46-.28-.79-.53-.9-.6a16.1 16.1 0 0 1-1.92-1.28l-1.26-.9c-.515-.386-1.009-.8-1.48-1.24a37.477 37.477 0 0 1-2.88-2.91 19.205 19.205 0 0 1-2.64-3.77c-.13-.3-.65-1.17-1.16-2.07-.396-.7-.73-1.432-1-2.19-.07-.22-2.08.27-2 .49.07.46.14.92.25 1.37.116.438.266.866.45 1.28.29.63.9 2 1.53 3.22.63 1.22 1.24 2.25 1.3 2.33l.61 1.25.69 1.22c.211.384.445.754.7 1.11.67 1 1.44 2 2.21 3a22.733 22.733 0 0 0 2.4 2.62c.677.586 1.395 1.12 2.15 1.6.782.482 1.59.919 2.42 1.31l1.48.64c.521.18 1.052.331 1.59.45a8.07 8.07 0 0 0 2 .07c.48 0 .8-1 1-2.17a5.136 5.136 0 0 0-.35-2.19c-.34-.67-.56-1.15-.67-1.14Zm103.711 74.12a4.307 4.307 0 0 0 .39-1.84 5.02 5.02 0 0 0-.45-1.73c-.16-.35-.87-.42-1-.08-.35.66-.64 1.32-1 2 0 .1-.22.59-.47 1.3-.25.71-.62 1.62-1.08 2.57a38.141 38.141 0 0 1-2.71 4.9c-1.26 1.91-2.57 3.8-4 5.63a63.377 63.377 0 0 1-4.63 5.34c-1.65 1.69-3.37 3.39-5.12 4.88-.78.67-1.55 1.31-2.32 1.92a14.56 14.56 0 0 1-2.09 1.39c-.374.2-.744.38-1.11.54l-.57.23-.47.13a9.159 9.159 0 0 1-4.57-.44 7.493 7.493 0 0 1-1.59-.63c-.4-.21-2.81-1.24-5.23-2.52-2.42-1.28-4.89-2.63-5.48-2.91-2.91-1.39-5.8-2.9-8.83-4.22a5.404 5.404 0 0 0-1.32-.51 16.193 16.193 0 0 1-2.93-.95 15.348 15.348 0 0 0-4.31-.93 4.728 4.728 0 0 0-1.12.08l-.56.12-.54.19c-.64.22-.17.59 0 .61.63 0 .16.33.15.52a.25.25 0 0 0 0 .19s.46 0 1.14.1c.856.151 1.694.392 2.5.72a40.741 40.741 0 0 1 4.08 2c.05 0 .72.34 1.71.86s2.28 1.24 3.61 2l6 3.57a20.42 20.42 0 0 0 1.87.94c.15.07 2.26 1.29 4.49 2.41a36.665 36.665 0 0 0 4.89 2.06c1.039.321 2.102.555 3.18.7a8.266 8.266 0 0 0 3.53-.28c.47-.17 1-.29 1.36-.44a25.07 25.07 0 0 0 8.72-6c1.24-1.21 2.49-2.39 3.68-3.64.22-.23.4-.48.6-.72.2-.24.5-.61.76-.91a67.939 67.939 0 0 0 7.39-9.89 29.887 29.887 0 0 0 1.44-2.93c.54-1.3 1-2.63 1.25-3.14.25-.51.53-2.69.76-3.19Z"/>
  <path fill="#221F1F" d="M358.247 405.62a3.71 3.71 0 0 0 .3-3.46c-.14-.38-.93-.63-1.17-.34-.49.56-1 1.13-1.38 1.72-.12.19-.91 1.84-2 3.6l-.77 1.36-.82 1.27c-.54.8-1 1.52-1.33 2-.68.88-1.33 1.77-2 2.68-.67.91-1.37 1.72-2 2.59a36.626 36.626 0 0 1-10.05 8.46c-.82.53-1.71.92-2.54 1.43a25.006 25.006 0 0 1-9.58 2.89 8.573 8.573 0 0 1-1.68 0c-.45 0-3 0-5.48-.2-2.48-.2-5.06-.76-5.65-.83a34.647 34.647 0 0 1-8.54-2.46 4.098 4.098 0 0 0-1.18-.47 6.462 6.462 0 0 1-2.48-1.18 29.993 29.993 0 0 1-3.06-2.24 7.506 7.506 0 0 0-.76-.56l-.75-.56a.361.361 0 0 0-.623.117.356.356 0 0 0 .013.253c.23.57-.26.33-.47.4-.21.07-.17.07-.19.12.035.127.089.249.16.36.154.288.328.565.52.83a17.404 17.404 0 0 0 1.9 2.28 22.377 22.377 0 0 0 3.78 3.11s.72.42 1.74 1c1.02.58 2.43 1.2 3.89 1.79a49.26 49.26 0 0 0 6.79 2.12c.698.123 1.402.207 2.11.25.16 0 2.58.41 5.06.54 1.717.071 3.436.041 5.15-.09 1-.13 2-.28 3-.44.975-.202 1.93-.497 2.85-.88a7 7 0 0 1 1.12-.38 32.77 32.77 0 0 0 9.16-4.43c.7-.51 1.41-1 2.12-1.49.71-.49 1.35-1.07 2-1.62.239-.2.46-.42.66-.66.27-.29.52-.59.8-.85a53.859 53.859 0 0 0 7.63-9.38c.55-.76 2.39-4.76 2.83-5.71.31-.56.67-2.49.92-2.94ZM211.836 403a5.654 5.654 0 0 0 2.84 1.07c.37.06.9-.4.71-.77a6.983 6.983 0 0 0-1.45-1.92 8.545 8.545 0 0 0-1.28-.83 14.766 14.766 0 0 0-2.78-1.15 27.691 27.691 0 0 0-5.75-1 32.988 32.988 0 0 0-7 .3c-2.329.313-4.637.77-6.91 1.37-2.36.62-4.48 1.5-6.53 2.13-.91.28-1.8.58-2.65.8a6.816 6.816 0 0 1-7.63-2.19 5.219 5.219 0 0 1-.89-1.24c-.09-.19-.46-.75-.93-1.57-.47-.82-1-1.89-1.55-3-1-2.27-2.07-4.74-2.37-5.28a33.618 33.618 0 0 0-5.2-8 4.334 4.334 0 0 0-1.05-.93c-.92-.48-1.7-1.12-2.59-1.63a11.46 11.46 0 0 0-4-1.34 7.613 7.613 0 0 0-2 .06c-.59.07-.3.54-.11.61.57.19.08.35 0 .53a.341.341 0 0 0 0 .19s.47.12 1.11.33c.787.221 1.548.526 2.27.91a12.313 12.313 0 0 1 3.08 2.37c.384.368.742.762 1.07 1.18.742.935 1.392 1.94 1.94 3a59.792 59.792 0 0 1 2.51 5.79c.246.603.526 1.19.84 1.76.08.13.89 2.26 2 4.39a27.646 27.646 0 0 0 1.72 2.9 14.016 14.016 0 0 0 3.41 3.52c.46.308.941.582 1.44.82a7.607 7.607 0 0 0 1.6.49c.43.07.85.22 1.29.28 1.768.292 3.578.207 5.31-.25 1.566-.4 3.106-.898 4.61-1.49.747-.28 1.487-.54 2.22-.78.71-.24 1.42-.44 2.15-.64.26-.07.51-.18.78-.26.328-.117.662-.217 1-.3a42.716 42.716 0 0 1 10.7-1.23h2.76c.932.024 1.858.155 2.76.39a9.327 9.327 0 0 1 2.55.61Z"/>
  <path fill="#221F1F" d="M204.826 413.47a2.782 2.782 0 0 0 1.72-2.5c0-.36-.5-1-.81-.91-.608.148-1.206.335-1.79.56-.19 0-1.5.84-3.06 1.56-.76.4-1.62.71-2.36 1l-1.88.69c-1.78.54-3.51 1.15-5.3 1.56-1.803.45-3.644.728-5.5.83-.92.09-1.84 0-2.76 0-.92 0-1.84-.1-2.74-.25-.9-.15-1.62-.22-2.43-.33a17.834 17.834 0 0 1-7.74-3 4.999 4.999 0 0 1-1.12-.87c-.23-.32-1.9-1.6-3.48-3.09-1.58-1.49-3.08-3.17-3.46-3.53-1.87-1.77-3.6-3.75-5.37-5.74a3.617 3.617 0 0 0-.79-.82 7.259 7.259 0 0 1-1.79-1.75 18.204 18.204 0 0 0-2.53-2.52 4.856 4.856 0 0 0-.78-.5c-.3-.13-.61-.24-.9-.35-.53-.2-.53.43-.43.57.32.44-.15.4-.3.56a.418.418 0 0 0-.12.18c.179.26.38.504.6.73l.61.8c.22.3.44.66.67 1 .9 1.4 1.81 3 2 3.25.06.07 1.5 2 3 4.13s3.3 4.21 3.67 4.65a8.32 8.32 0 0 0 1.29 1.22c.11.09 1.49 1.63 3 3 .77.71 1.62 1.37 2.25 1.89.63.52 1.15.82 1.21.87.718.482 1.462.923 2.23 1.32a8.557 8.557 0 0 0 2.42.93c.344.086.679.203 1 .35a26.262 26.262 0 0 0 8.59 1.72c.75 0 1.49.09 2.23.08.744.024 1.488.007 2.23-.05.27 0 .53-.09.79-.12l1-.17a43.373 43.373 0 0 0 10.07-2.62 23.98 23.98 0 0 0 2.41-1.26c1-.6 2-1.22 2.39-1.44a5.9 5.9 0 0 0 1-.88 4.326 4.326 0 0 1 1.06-.75Zm31.701-248.37c-.43-.25-.86 0-1.3.54a1.082 1.082 0 0 0-.1.86c.215.201.446.385.69.55.15.09 2.58.81 3.39 1.08.788.257 1.594.461 2.41.61 1.65.34 3.28.72 4.91 1.11.366.079.737.14 1.11.18a17.5 17.5 0 0 1 3.73.81c.211.038.412.119.59.24.3.22 3.57 1.22 4 1.33a25.33 25.33 0 0 1 3.16.81c.15.05.27.16.45.12a1.32 1.32 0 0 1 .95.26c.4.2.79.41 1.16.62.208.087.422.16.64.22.2.07.43-.23.4-.32-.03-.09.19-.22.33-.3a.662.662 0 0 0 .13-.1 2.525 2.525 0 0 0-.26-.5 7.315 7.315 0 0 0-.73-.88 7.671 7.671 0 0 0-1.4-1.2s-.27-.16-.64-.35c-.37-.19-.87-.45-1.39-.69-1-.48-2.1-.91-2.32-1a2.52 2.52 0 0 0-.72-.17c-.11 0-3.22-1.21-3.36-1.22a6.837 6.837 0 0 0-2-.39 1.091 1.091 0 0 1-.4-.07 33.735 33.735 0 0 0-3.43-.73c-.59-.11-1.16-.27-1.74-.4h-.33a2.67 2.67 0 0 1-.4 0c-1.38-.33-2.78-.49-4.14-.86-.31-.09-1.88-.11-2.24-.21-.24-.13-.98.15-1.15.05Zm30.35 12.08a.23.23 0 0 0 .2 0 .36.36 0 0 0 .14-.12c.155-.199.329-.383.52-.55.17-.15.46-.66.31-.81a1.912 1.912 0 0 0-.5-.39 2.965 2.965 0 0 0-.61-.22 4.031 4.031 0 0 0-.76.06c-.437.103-.86.258-1.26.46-.72.383-1.391.849-2 1.39a9.217 9.217 0 0 0-1.76 2.15 19.589 19.589 0 0 0-2.23 5c-.106.4-.176.808-.21 1.22a31.995 31.995 0 0 0-.09 4.29 2.62 2.62 0 0 1 0 .74 6.34 6.34 0 0 0 .55 2.39 8.404 8.404 0 0 0 1.33 2.24 11.82 11.82 0 0 0 3.19 2.24c.152.099.328.158.51.17.383.019.757.118 1.1.29.474.193.972.324 1.48.39.262.011.524-.013.78-.07.24 0 .22-.42.16-.48s0-.3.09-.44a.53.53 0 0 0 .05-.15 10.838 10.838 0 0 0-1.17-.8l-.78-.57c-.22-.16-.37-.31-.43-.34l-.5-.31a9.535 9.535 0 0 1-1-.79 5.68 5.68 0 0 1-1.19-1.56 5.208 5.208 0 0 0-.35-.46 4.392 4.392 0 0 1-.19-.42c-.08-.25-.18-.57-.26-.91-.14-.67-.16-1.37-.18-1.42 0-.27 0-.55-.05-.83a2.562 2.562 0 0 0-.13-.86.873.873 0 0 1 0-.36c.11-1.011.29-2.014.54-3 .15-.511.34-1.009.57-1.49.033-.094.057-.191.07-.29.029-.12.069-.237.12-.35a11.387 11.387 0 0 1 2.06-3.13c.18-.21.95-1.27 1.22-1.34.27-.07.52-.63.66-.57Z"/>
  <path fill="#221F1F" d="M345.976 186.15a79.56 79.56 0 0 0-5.46 10.8c-.42 1.07.35 1.42 1.23.37.88-1.05 1.73-2 2.53-3.14l1.22-1.63 1.15-1.7a71.928 71.928 0 0 0 6.92-14.32 62.013 62.013 0 0 0 2.87-11.79c.12-1 .22-1.89.33-2.79.11-.9.09-1.76.13-2.57v-2.29c0-.71 0-1.36-.05-1.93a47.24 47.24 0 0 0-2.54-13.16 55.464 55.464 0 0 0-2.44-6.19c-.48-1-.91-2-1.42-3l-1.68-2.91c-.29-.49-.56-1-.86-1.47l-1-1.4c-.67-.93-1.31-1.88-2-2.78a50.714 50.714 0 0 0-4.7-5l-1.27-1.18-.64-.58-.69-.51-2.78-2.07c-1-.64-2-1.19-3-1.79-.5-.28-1-.6-1.51-.85l-1.57-.72-1.58-.71a11.455 11.455 0 0 0-1.6-.64l-3.28-1.08c-1.09-.35-2.23-.53-3.34-.8l-1.68-.37c-.57-.1-1.13-.15-1.7-.23-1.13-.14-2.27-.29-3.4-.41l-3.41-.12c-.57 0-1.14-.05-1.71 0l-1.69.08-3.4.18c-2 .28-4 .47-5.94.86l-2.93.63c-1 .21-2 .43-2.83.66a29.443 29.443 0 0 1-4.52.78 10.84 10.84 0 0 1-4.1-.45 28.72 28.72 0 0 1-4.21-1.88l-4.41-2.32c-5.84-3-11.67-6.42-18.14-8.83a66.013 66.013 0 0 0-6.66-2c-.45-.11-1.41-.28-2.78-.53-.68-.13-1.46-.19-2.33-.31-.87-.12-1.81-.22-2.83-.27a74.447 74.447 0 0 0-14.359.36 64.22 64.22 0 0 0-14.28 3.38c-1 .4-1.951.71-2.791 1.12l-2.3 1.09c-1.36.68-2.31 1.31-2.849 1.61-.663.39-1.301.821-1.911 1.29-.619.46-1.26.89-1.86 1.38l-1.74 1.54c-.29.27-.59.51-.86.79l-.79.87a26.445 26.445 0 0 0-5.17 7.78 37.136 37.136 0 0 0-2.78 17.93c.082 1.709.327 3.407.73 5.07a71.061 71.061 0 0 0 3.51 10.42 34.773 34.773 0 0 0 9.151 12.27 23.987 23.987 0 0 0 6.509 3.78c2.11.81 1.181-.18.521-.55-1.95-1.09-.201-.53.069-.65.09 0 .21-.09.14-.18-.07-.09-.44-.21-1.1-.64l-1.19-.73c-.43-.32-.93-.67-1.47-1.05a30.479 30.479 0 0 1-6.6-7.21 37.605 37.605 0 0 1-4.42-9.3 46.857 46.857 0 0 1-1.47-5.82 39.865 39.865 0 0 1-.739-6.67 33.999 33.999 0 0 1 2.399-13.92 22.757 22.757 0 0 1 4-6.45l1.27-1.34c.21-.22.4-.45.63-.65l.68-.57 1.32-1.12c.42-.37.921-.64 1.35-1a39.054 39.054 0 0 1 7.71-4.11c1.12-.38 2.2-.87 3.34-1.23 1.14-.36 2.25-.8 3.41-1.08.28-.06 2.43-.65 5.6-1.14a74.196 74.196 0 0 1 11.55-.81 64.13 64.13 0 0 1 11.49 1.12c1.847.37 3.665.871 5.44 1.5 6.25 2.11 12.14 5.65 18.41 8.61 1.23.57 2.44 1.24 3.66 1.9 1.22.66 2.66 1.44 4.15 2.09a15.656 15.656 0 0 0 5 1.33c1.671.125 3.352.038 5-.26 1.56-.24 3.1-.64 4.52-.94a63.716 63.716 0 0 1 17.08-1.82c5.81.18 11.526 1.52 16.81 3.94l1.44.62c.46.23.91.49 1.36.74a24.736 24.736 0 0 1 3.35 2 44.984 44.984 0 0 1 13.31 15.53c.82 1.53 1.49 3.14 2.24 4.71.75 1.57 1.21 3.27 1.82 4.9a43.695 43.695 0 0 1 2 10.1c.06.4.09 1 .12 1.7s.1 1.59.11 2.55c.01.96 0 2-.05 3.14-.05 1.14-.19 2.26-.3 3.42-.11 1.16-.33 2.32-.52 3.44s-.48 2.17-.69 3.16c-.55 1.93-1 3.53-1.34 4.39-.18.49-.43 1.27-.71 2.19-.28.92-.69 2-1.05 3a36.615 36.615 0 0 1-2.16 4.84Z"/>
  <path fill="#221F1F" d="M252.146 159.74c2.44-.88 4.87-1.73 7.33-2.47.9-.26 1.81-.45 2.71-.69a184 184 0 0 1 2.37-.62 9.147 9.147 0 0 1 2.17-.3 8.477 8.477 0 0 1 4.22 1.13 8.003 8.003 0 0 1 2.8 2.82c.24.39.46.77.68 1.19.237.447.497.881.78 1.3a11.168 11.168 0 0 0 2 2.17c.95.78 2-2.25.81-3.82-.26-.36-.47-.66-.7-1-.23-.34-.52-.86-.81-1.29l-.45-.63-.53-.68a12.76 12.76 0 0 0-1.22-1.23 10.704 10.704 0 0 0-6.23-2.6 14.172 14.172 0 0 0-4 .25c-1.21.24-2.41.49-3.58.8-2.56.71-5.07 1.54-7.57 2.39l-4.58 1.59c-2.32.8-4.62 1.64-6.94 2.34-1.8.54-3.62.89-5.43 1.29-.4.09-.8.14-1.2.25-1.47.37-1.88.68-2 1.52a5.96 5.96 0 0 0-.07.58c0 .62.75.94 1.89.81a55.715 55.715 0 0 0 10.16-2.48c2.49-.81 5-1.69 7.45-2.51l-.06-.11Zm-13.9 52.45c.1-.81.1-1.63 0-2.44a9.808 9.808 0 0 0-.48-2.16.445.445 0 0 0-.468-.326.45.45 0 0 0-.412.396 27.678 27.678 0 0 0-.65 3 50.079 50.079 0 0 0-.21 6c.057 2.698.254 5.392.59 8.07a68.553 68.553 0 0 0 1.93 9.72 89.346 89.346 0 0 0 7.36 18.76 42.23 42.23 0 0 0 2.35 3.85 56.146 56.146 0 0 0 4.79 6.14 24.824 24.824 0 0 0 6.15 5.13c.406.238.827.448 1.26.63l.65.29.7.25a23.25 23.25 0 0 0 8.66 1 26.91 26.91 0 0 0 8.78-2.11 41.851 41.851 0 0 0 11.25-7.64 11.4 11.4 0 0 0 1.35-1.35c.82-1.1 1.8-2.05 2.73-3.07a52.458 52.458 0 0 0 3.6-4.45 25.468 25.468 0 0 0 1.44-2.38c.39-.64-.12-.6-.35-.38-.6.6-.33-.05-.4-.21-.07-.16-.06-.12-.11-.11-.05.01-.5.53-1.19 1.31s-1.61 1.81-2.59 2.82c-2 2-4.16 4-4.58 4.37-.05.05-.8.75-1.95 1.72a42.829 42.829 0 0 1-4.44 3.28 34.73 34.73 0 0 1-5.06 2.71c-1.52.64-2.72 1-3.12 1.12-.86.21-1.69.51-2.56.71a21.58 21.58 0 0 1-6.29.28l-1.14-.12-1.09-.21a16.21 16.21 0 0 1-1.93-.46l-.41-.11-.19-.05h.09-.13l-.54-.24a3.787 3.787 0 0 1-.55-.27 26.027 26.027 0 0 1-5.66-4.44 13.666 13.666 0 0 1-1-1.11 63.159 63.159 0 0 1-7-11.06c-1-2-1.9-4.1-2.71-6.2l-.48-1.13c-.2-.47-.4-1-.57-1.43a82.019 82.019 0 0 1-4-15.54c-.09-.61-.42-2.36-.66-4.14-.24-1.78-.41-3.6-.43-4.31 0-.4-.12-1.24-.23-2.08a14.492 14.492 0 0 1-.1-2.03Z"/>
  <path fill="#FD9E28" d="M231.427 172.09a5.603 5.603 0 0 0-2.43-1.54 5.933 5.933 0 0 0-2.39-.24 6.427 6.427 0 0 0-3.62 1.67 1.272 1.272 0 0 0-.26 1.124 1.276 1.276 0 0 0 .75.876 9.496 9.496 0 0 1 3.7 1.18 2.49 2.49 0 0 1 1.06.9c.195.388.298.816.3 1.25a7.187 7.187 0 0 1-.34 2.25 15.474 15.474 0 0 1-2.72 5 13.915 13.915 0 0 1-3.23 3 8.771 8.771 0 0 1-2.33 1.11 3.61 3.61 0 0 1-1.79.09 3.375 3.375 0 0 1-1.5-.84 8.181 8.181 0 0 1-1.6-2 15.965 15.965 0 0 1-1.35-2.83 9.925 9.925 0 0 1-.44-1.42l-.18-.69-.07-.68a9.122 9.122 0 0 1-.06-1.28 8.13 8.13 0 0 1 .19-1.16 4.743 4.743 0 0 1 1-2 7.358 7.358 0 0 1 4.19-2.53 11.44 11.44 0 0 1 2.75-.25c.927.038 1.845.199 2.73.48 1.552.492 2.98 1.31 4.19 2.4a12.176 12.176 0 0 1 3.52 8.3 11.403 11.403 0 0 1-2.72 8.53 6.6 6.6 0 0 1-2.35 1.82c-1.02.545-2.088.994-3.19 1.34-.915.246-1.854.393-2.8.44a7.987 7.987 0 0 1-2.78-.44 3.775 3.775 0 0 1-2.63-3 10.602 10.602 0 0 1 0-3.41 17.86 17.86 0 0 1 1.08-4.12 12.59 12.59 0 0 1 2-3.46 7.802 7.802 0 0 1 6.61-2.77c.76.08 1.53.32 2.3.35a7.723 7.723 0 0 1 4.82 2.35 16.829 16.829 0 0 1 4.5 6.36 24.938 24.938 0 0 1 1.41 3.75c.32 1.21 1.16.55 1.23.06.19-1.37.67-.32 1-.19.13 0 .3.09.39 0 .138-1.02.118-2.056-.06-3.07a19.09 19.09 0 0 0-2.11-6.54 20.216 20.216 0 0 0-4.7-5.74 16.347 16.347 0 0 0-3.8-2.39 17.012 17.012 0 0 0-5.06-1.29 14.323 14.323 0 0 0-10.88 3.58 17.544 17.544 0 0 0-3.8 4.8 25.714 25.714 0 0 0-1.22 2.49c-.3.83-.64 1.58-.85 2.37a18.698 18.698 0 0 0-.95 6.81 11.159 11.159 0 0 0 2.13 5.94c.08.1.42.57 1 1.28.3.34.7.71 1.15 1.13.51.422 1.048.809 1.61 1.16a14.443 14.443 0 0 0 4.42 1.7c1.624.309 3.284.383 4.93.22a19.794 19.794 0 0 0 8.48-2.94 17.669 17.669 0 0 0 3.52-2.89 18.823 18.823 0 0 0 4.05-6.79 16.553 16.553 0 0 0 .7-7.6c-.17-.95-.18-1.95-.36-2.91a18.872 18.872 0 0 0-6-11.49 17.764 17.764 0 0 0-12.4-4.3 18.124 18.124 0 0 0-6.65 1.5c-2.222.975-4.16 2.5-5.63 4.43a10.972 10.972 0 0 0-1.29 2.36c-.19.52-.39 1.05-.54 1.59l-.37 1.62a16.133 16.133 0 0 0 .73 8c.39 1.185.878 2.336 1.46 3.44a19.1 19.1 0 0 0 2.09 3.27 13.602 13.602 0 0 0 3.16 2.9 10.464 10.464 0 0 0 4.44 1.58 11.25 11.25 0 0 0 4.56-.47 15.075 15.075 0 0 0 3.76-1.81 14.133 14.133 0 0 0 2.46-2.08 22.284 22.284 0 0 0 2.9-3.73 23.284 23.284 0 0 0 2.1-4.3 24.58 24.58 0 0 0 .93-3.26 9.46 9.46 0 0 0-.33-4.36 9.018 9.018 0 0 0-1.22-2.47 13.648 13.648 0 0 0-1.3-1.52Z"/>
  <path fill="#221F1F" d="M262.877 202.7c.37-.46.26-1-.13-1.66-.12-.21-.67-.43-.81-.31a6.39 6.39 0 0 0-.76.72c-.14.16-1.61 3-2.13 4-.489.934-.93 1.892-1.32 2.87l-1.2 2.91c-.4 1-.81 2-1.19 3a9.631 9.631 0 0 0-.41 1.4c-.36 1.64-.83 3.24-1.14 5a4.483 4.483 0 0 1-.19.88c-.083.367-.12.744-.11 1.12a5.39 5.39 0 0 0 .48 2.35 3.68 3.68 0 0 0 1 1.3c.213.169.444.313.69.43.23.1.45.15.66.22a3.755 3.755 0 0 0 1.63.08 6.78 6.78 0 0 0 2.5-1.09 12.33 12.33 0 0 0 1.83-1.48c.18-.122.328-.287.43-.48.203-.417.492-.785.85-1.08.431-.454.826-.943 1.18-1.46.156-.284.277-.586.36-.9.09-.27-.29-.38-.38-.34-.26.14-.26-.14-.36-.25a.653.653 0 0 0-.13-.11s-.71.53-1.44 1l-1.64 1.12a6.431 6.431 0 0 1-.62.47c-.438.321-.899.609-1.38.86a5.012 5.012 0 0 1-1.35.46 1.402 1.402 0 0 1-.54 0c-.08-.06-.2 0-.25 0l-.06-.1a1.895 1.895 0 0 1-.13-.69 8.21 8.21 0 0 1 .16-1.72c.154-.753.264-1.514.33-2.28a1.85 1.85 0 0 1 .1-.47c.42-1.3.81-2.65 1.27-4 .24-.68.54-1.34.82-2 .044-.127.077-.257.1-.39.05-.17.09-.34.15-.51.69-1.59 1.24-3.23 2-4.79.18-.36.66-2.22.87-2.63.15-.33.11-1.26.26-1.45Zm76.979-36.7c-.38.34-.19.85.32 1.49.16.2.8.49.95.4.282-.157.55-.337.8-.54.322-.457.62-.931.89-1.42.39-.74.85-1.57 1.06-2 .401-.849.703-1.742.9-2.66.46-1.902.678-3.854.65-5.81a8.14 8.14 0 0 0-.17-1.31c-.19-.73-.37-1.46-.53-2.19-.16-.73-.34-1.46-.59-2.16a1.88 1.88 0 0 1-.17-.73 2.883 2.883 0 0 0-.23-.86c-.17-.41-.4-.92-.64-1.43a13.773 13.773 0 0 0-1.35-2.13 38.144 38.144 0 0 0-2.74-2.67c-.14-.11-.24-.27-.44-.3a1.836 1.836 0 0 1-1-.63 7.789 7.789 0 0 0-1.26-1 2.82 2.82 0 0 0-.79-.26c-.24-.06-.44.36-.42.44.08.26-.19.29-.33.41a.603.603 0 0 0-.13.15c.209.474.463.926.76 1.35.41.65.77 1.36.89 1.46l.44.52.85 1.16a16.53 16.53 0 0 1 1.23 2c.111.207.252.396.42.56.263.484.483.989.66 1.51.193.508.36 1.025.5 1.55.28.57.25 1.21.68 1.75a.596.596 0 0 1 .1.36c.14 1.07.34 2.14.38 3.24.005.566-.035 1.131-.12 1.69-.01.103-.01.207 0 .31.01.13.01.26 0 .39a17.355 17.355 0 0 1-1 4c-.11.3-.37 1.84-.54 2.18-.02.23.12 1.04-.03 1.18ZM178.247 88c-11.5 15-16.15 31-16.14 49.84 0 2.26-6.08 4.37-6.08 1.77 0-19.58 5.07-36.31 17-51.92 1.32-1.73 7.44-2.62 5.2.31h.02Zm-29.16 37.25c-9-6.94-19-15.43-31.21-13.7-2.67.38-6-3.37-2.08-3.93 14.39-2.05 26.27 7 37.05 15.26 3.12 2.39-1.62 4-3.76 2.37Zm88.16 83.92s-11.17-.34-13.35-1.87c-2.18-1.53.35 7.7 5 13.38 4.65 5.68 4.63 10.77 5.3 13.91 1.12 5.25 5.27 1.16 5.27 1.16s-4.13-18.26-2.22-26.58Zm128.33 47.76c-1 7-3.11 13.75-4.26 20.71-1.15 6.96-2.24 16.39 3.79 21.53 2.24 1.91-1.21 3.49-2.9 2.05-12.72-10.85-3-32-1-45.46.31-2 4.66-.95 4.35 1.17h.02Zm-105.831-14.37a4.85 4.85 0 0 0 1.21 1.87c.44.406.939.743 1.48 1 .412.254.861.443 1.33.56a4.099 4.099 0 0 0 2.61-.51 3.883 3.883 0 0 0 1.56-1.75c.282-.562.48-1.161.59-1.78.14-.75.17-1.73-.61-2.11-.24-.13-1.13.51-2 1.11-.411.272-.839.519-1.28.74l-.25.12h.16a.636.636 0 0 1 .4 0 .23.23 0 0 1 .12.11c.06.08-.05.09.12-.32.09-.21 0-.09 0-.1a.655.655 0 0 0-.14 0h-.27a1.54 1.54 0 0 1-.29.08.324.324 0 0 1-.18 0h-.07c-.07 0-.07-.14-.07-.12a1.269 1.269 0 0 1-.5.72l-.17.16h-.07c-.08.09.26-.06 1.58-.62l.9-.37c1-.4 1.78-.95 1.82-1.54a2.736 2.736 0 0 0-.32-1.35 3.539 3.539 0 0 0-1.3-1.28 3.623 3.623 0 0 0-1-.42 4.05 4.05 0 0 0-1.16-.13 4.36 4.36 0 0 0-2.23.66 4.806 4.806 0 0 0-2.06 5.39l.09-.12Z"/>
  <path stroke="#000" d="m238 166.5 24.5 7.5 2.5 3-4.5 7.5v6.5l4.5 4.5-6.5 4c-5 2.667-16.3 8-21.5 8-5.2 0-9.5-1.667-11-2.5.167.167 1.4.1 5-1.5 4.5-2 5-3 7-5.5s3-2.5 4-7 3-4.5 1.5-8.5-1-5-2.5-7.5c-1.2-2-2.5-4.5-3-5.5"/>
</svg>
