<svg xmlns="http://www.w3.org/2000/svg" width="520" height="520" fill="none" viewBox="0 0 520 520">
  <path fill="#231F20" d="M272.309 376.496c.759 4.148.546 12.239-.99 15.78-1.639 3.79-8.057-2.654-7.818-12.246 0 0 8.517-5.121 8.808-3.534Zm-13.597-85.692s-8.628 6.341-11.649 12.153c-3.021 5.811 10.633 3.311 12.076-3.525l-.427-8.628Z"/>
  <path fill="#FD9E28" d="M250.297 282.722s-2.834-1.588-2.834-2.603c0-1.016-.853 10.369-.853 10.369l3.661.316.026-8.082Zm-4.754 8.628s-4.83-1.63-5.812-2.919c-.981-1.289-.896 10.796-.896 10.796s4.011 5.573 5.197 3.73c.965-1.485 1.511-11.607 1.511-11.607Zm7.341 51.939.495 7.852s2.56 1.391 4.48.853l-1.135-9.567-3.84.862Zm-8.158-1.706s-11.095-4.011-11.009-5.385c0 0-1.707 11.282.367 13.253 2.074 1.972 9.703 5.787 12.127 4.327l-1.485-12.195Zm11.05 59.91s-6.588-1.493-6.195-2.099l.426 15.071h6.589l-.82-12.972Zm-6.067 12.802s-7.459-.965-7.246-2.091c.214-1.127 2.006 14.696 2.006 14.696l4.643 1.195.597-13.8Zm-6.684 12.912s-5.897-3.123-8.133-5.914l1.297 10.011s5.343 6.119 6.922 5.205c1.579-.913-.086-9.302-.086-9.302Zm9.723 11.939-3.917-.384-2.083 7.306s3.414.973 4.268-1.016a46.948 46.948 0 0 0 1.732-5.906Zm3.03-8.559c1.431.55 3.016.55 4.447 0l-1.511 8.176s-6.11.947-5.633-.99c.478-1.938 2.697-7.186 2.697-7.186Zm-6.871-111.125-4.762-1.221.853 10.762s3.994 1.707 5.121 1.212c1.127-.495-1.212-10.753-1.212-10.753Z"/>
  <path fill="#231F20" d="M301.547 164.77s4.429-2.262 9.806-5.036c12.443-6.409 19.628-22.308 14.935-36.339-6.23-18.579-31.739-17.674-33.788-17.683 0 0-12.11-25.295-35.886-31.739 0 0-39.983-8.918-49.499 18.05-1.963 5.565-6.076 27.259 16.847 38.618 0 0 24.288 12.725 63.222-3.141 0 0 13.765 2.45 14.252 14.859.188 4.864 1.442 10.044 1.135 12.912l-1.024 9.499Z"/>
  <path fill="#231F20" d="M317.983 178.561c.445-.655.855-1.333 1.229-2.031.179-.359.375-.691.537-1.058.163-.367.325-.76.47-1.144.546-1.532.834-3.144.853-4.771v-1.775a10.48 10.48 0 0 0-.307-1.775 9.918 9.918 0 0 0-3.414-5.351 8.086 8.086 0 0 0-1.348-.853l-.708-.367c-.239-.111-.495-.18-.734-.273l-.743-.248-.759-.162-.76-.145-.853-.06a10.31 10.31 0 0 0-5.198 1.775 18.785 18.785 0 0 0-2.68 1.98 17.893 17.893 0 0 0-2.159 2.458c-.392.555 0 .811.785.777a5.776 5.776 0 0 0 2.842-1.007c.854-.589 1.605-1.255 2.433-1.767.764-.51 1.59-.92 2.458-1.22a4.557 4.557 0 0 1 1.16-.248c.179-.021.359-.021.538 0 .212.001.424.023.631.068l.692.111c.222.043.435.128.657.18a7.69 7.69 0 0 1 1.271.486 5.814 5.814 0 0 1 2.381 2.279 8.621 8.621 0 0 1 1.093 3.311 12.201 12.201 0 0 1-1.57 7.775 17.249 17.249 0 0 1-3.115 4.071 16.097 16.097 0 0 1-6.751 3.823 18.396 18.396 0 0 1-5.974.461c-.444 0-.854-.077-1.314-.128a4.82 4.82 0 0 0-1.033 0 3.225 3.225 0 0 0-.725.102 1.834 1.834 0 0 0-.854.615c-.102.128-.23.247-.299.358-.068.111 0 .401.274.657.407.35.888.604 1.408.743a19.54 19.54 0 0 0 12.195-1.485 18.886 18.886 0 0 0 7.416-6.154l-.025-.008ZM217.442 73.504c-.666.367-1.332.683-2.006 1.092a45.82 45.82 0 0 0-1.971 1.29l-1.844 1.467-1.707 1.63a29.199 29.199 0 0 0-5.171 7.68 35.543 35.543 0 0 0-3.15 17.786 33.06 33.06 0 0 0 3.576 12.699 28.55 28.55 0 0 0 3.192 4.899 30.303 30.303 0 0 0 4.037 4.207 38.384 38.384 0 0 0 9.746 6.128 60.596 60.596 0 0 0 22.146 4.762c3.36.155 6.726.058 10.071-.29 3.32-.358 6.605-.853 9.865-1.408 4.182-.726 8.364-1.536 12.486-2.637a68.26 68.26 0 0 0 6.128-1.912 22.866 22.866 0 0 0 5.803-2.953c1.118-.853 1.391-1.51 1.246-1.553-.145-.043-.743.299-1.767.708-2.065.854-5.931 1.775-10.565 2.996a157.17 157.17 0 0 1-12.494 2.739c-4.208.751-8.458 1.4-12.665 1.775a67.341 67.341 0 0 1-25.065-2.799 36.69 36.69 0 0 1-13.288-7.45 28.934 28.934 0 0 1-8.261-12.733 31.971 31.971 0 0 1-.794-16.676 28.057 28.057 0 0 1 7.894-14.568 22.2 22.2 0 0 1 4.097-3.073c.734-.444 1.544-.853 2.312-1.246.769-.392 1.588-.742 2.39-1.11a43.718 43.718 0 0 1 10.105-3.003 46.305 46.305 0 0 1 15.942.102c1.314.205 2.611.546 3.917.854 1.306.307 2.56.725 3.832 1.194 1.271.47 2.492.956 3.729 1.451 1.238.495 2.424 1.101 3.593 1.707a65.49 65.49 0 0 1 18.895 15.49 100.058 100.058 0 0 1 3.354 4.207c2.048 2.671 3.294 4.506 4.267 5.727a8.31 8.31 0 0 0 2.407 2.27c.316.204.647.384.99.537.444.12.418-.477 0-1.706a28.32 28.32 0 0 0-2.714-5.12 73.81 73.81 0 0 0-15.464-17.385 60.148 60.148 0 0 0-21.413-11.206 54.996 54.996 0 0 0-8.978-1.707 49.266 49.266 0 0 0-9.183 0 47.723 47.723 0 0 0-9.029 1.707 51.415 51.415 0 0 0-8.534 3.414l.043.017Z"/>
  <path fill="#231F20" d="M303.015 148.025a53.347 53.347 0 0 0-1.323-6.588c-.205-.794-.401-1.596-.666-2.373a21.595 21.595 0 0 0-4.446-7.553 15.738 15.738 0 0 0-3.021-2.56 8.543 8.543 0 0 0-4.78-1.545c-.529 0-.486.453-.153.982.186.303.419.574.691.802.282.276.612.499.973.657a14.419 14.419 0 0 1 3.627 2.185 17.282 17.282 0 0 1 2.936 3.32 19.1 19.1 0 0 1 2.227 5.231 43.924 43.924 0 0 1 1.434 6.273c.188 1.314.367 2.646.469 3.977.177 2.018.251 4.043.222 6.068 0 1.57-.239 3.106-.392 4.643 0 .341-.06.674-.077 1.024 0 1.271.077 1.707.563 1.997.102.078.21.147.325.205.367.153.734-.342.972-1.281.171-.691.333-1.391.47-2.108.136-.716.196-1.442.256-2.176.14-1.486.202-2.979.188-4.472a61.465 61.465 0 0 0-.444-6.725l-.051.017Zm28.479-15.361a29.879 29.879 0 0 0-3.149-13.476c-.342-.785-.785-1.502-1.195-2.236-.213-.367-.418-.742-.64-1.101l-.743-1.024a29.013 29.013 0 0 0-14.132-10.241 33.178 33.178 0 0 0-7.681-1.477 19 19 0 0 0-9.729 1.912c-.931.461-.572.853.409 1.092a8.565 8.565 0 0 0 1.861.205 9.598 9.598 0 0 0 2.381-.136c.742-.128 1.51-.145 2.261-.231.751-.085 1.511 0 2.262 0 1.512.045 3.017.222 4.498.529a27.662 27.662 0 0 1 8.534 3.363 23.838 23.838 0 0 1 8.005 8.099 27.32 27.32 0 0 1 4.122 11.948 30.567 30.567 0 0 1-.333 7.894 29.404 29.404 0 0 1-4.54 11.095 27.313 27.313 0 0 1-6.401 6.52c-.503.435-1.109.725-1.647 1.118-.998.751-1.707 1.169-2.133 1.587-.364.32-.603.758-.675 1.238-.05.198-.081.401-.094.606 0 .589 1.17.486 2.996-.35a20.846 20.846 0 0 0 1.929-1.11l.956-.597c.307-.213.606-.452.904-.683.598-.478 1.221-.93 1.784-1.442l1.707-1.622a31.523 31.523 0 0 0 8.602-21.335l-.119-.145Z"/>
  <path fill="#231F20" d="M291.416 104.5c1.391-4.053 0-8.534-2.475-11.837-.939-1.246 1.391-1.612 2.065-.716 2.783 3.72 4.447 8.67 2.885 13.219-.384 1.118-2.85.435-2.475-.666Z"/>
  <path fill="#231F20" d="M306.889 99.235c-4.6-1.963-10.505 2.56-11.837 6.827-.187.581-2.645-.119-2.475-.665 2.031-6.504 9.857-9.004 15.746-6.495 1.494.64-.853.614-1.434.358v-.025Zm-75.811 89.294c0-4.267.452-8.534.742-12.938.094-1.604.265-3.209.239-4.847-.119-5.607-.051-11.155 0-16.779 0-2.483.06-4.992 0-7.467 0-1.596 0-3.192-.145-4.788a37.293 37.293 0 0 0-.631-4.754c-.196-.981-.538-.793-.854.077a14.5 14.5 0 0 0-.623 4.225c0 3.183 0 6.375-.059 9.592a281.26 281.26 0 0 0 0 9.721c0 1.945 0 3.943-.069 5.974 0 1.007 0 2.014-.042 3.029-.043 1.016-.052 1.955-.086 2.936-.213 4.267-.751 8.671-.981 13.1a59.828 59.828 0 0 0 .077 8.21 46.064 46.064 0 0 0 2.654 12.153c.597 1.494 1.092 3.013 1.801 4.429l.998 2.177 1.186 2.014c.35.614.649 1.237 1.042 1.826 1.587 2.091 2.236 2.646 3.132 2.646.187.02.376.02.563 0 .478-.069.316-1.263-.615-2.851-.341-.597-.682-1.195-1.032-1.792l-.982-1.818c-.324-.606-.699-1.195-.998-1.818l-.854-1.886a47.868 47.868 0 0 1-2.927-7.868 45.242 45.242 0 0 1-1.434-12.546l-.102.043Zm53.887 24.28a50.763 50.763 0 0 0 3.354-5.121c.359-.648.777-1.263 1.101-1.937 1.203-2.381 1.997-4.83 3.021-7.143a25.096 25.096 0 0 1 1.536-2.979 35.087 35.087 0 0 1 2.433-3.413c.264-.342 0-.564-.513-.547a2.848 2.848 0 0 0-1.911.99 26.449 26.449 0 0 0-4.404 7.963 30.55 30.55 0 0 1-2.415 4.771 53.162 53.162 0 0 1-3.252 4.924 48.161 48.161 0 0 1-2.253 2.867 41.057 41.057 0 0 1-3.789 3.969 31.596 31.596 0 0 1-3.414 2.483 8.913 8.913 0 0 0-.759.504c-.896.717-1.101 1.05-.99 1.707.016.141.041.28.077.418.145.418.751.461 1.596.119a20.79 20.79 0 0 0 6.588-4.83 54.147 54.147 0 0 0 4.054-4.677l-.06-.068Zm40.844 192.235a20.487 20.487 0 0 0 11.163-5.974 22.608 22.608 0 0 0 3.772-5.121 25.827 25.827 0 0 0 2.364-5.803c2.236-7.92 2.159-16.139 1.374-24.058-.597-5.795-1.51-11.522-2.56-17.171a217.4 217.4 0 0 0-7.434-29.657 243.766 243.766 0 0 0-11.384-28.308c-1.955-4.08-4.028-8.116-6.281-12.059a121.635 121.635 0 0 0-7.425-11.368 81.211 81.211 0 0 0-11.761-12.886c-.529-.495-1.1-.956-1.706-1.409l-1.707-1.357a15.019 15.019 0 0 0-1.886-1.288 25.43 25.43 0 0 0-1.98-1.041 35.169 35.169 0 0 0-4.122-1.707 16.602 16.602 0 0 0-4.438-.931 7.224 7.224 0 0 0-1.289.086 3.888 3.888 0 0 0-.93.324c-.452.222-.597.384-.529.478.068.094.358.128.785.154l.76.145c.29.085.614.17.955.298.7.282 1.519.598 2.433 1.042.913.443 1.928.973 3.021 1.596a64.31 64.31 0 0 1 3.413 2.099c.299.188.581.384.854.58.273.197.503.376.853.64.589.495 1.195.99 1.827 1.485a74.85 74.85 0 0 1 11.948 12.23 115.455 115.455 0 0 1 9.524 14.363c2.842 5.035 5.419 10.241 7.809 15.584 2.389 5.342 4.659 10.736 6.682 16.215a185.92 185.92 0 0 1 6.23 20.431 210.963 210.963 0 0 1 2.296 10.574 527.378 527.378 0 0 1 1.903 10.668c1.297 7.783 2.287 15.634 1.835 23.426a44.178 44.178 0 0 1-2.057 11.402 21.856 21.856 0 0 1-2.441 5.121 18.957 18.957 0 0 1-3.661 4.267 18.01 18.01 0 0 1-12.801 4.489 22.003 22.003 0 0 1-6.828-1.425 28.383 28.383 0 0 1-6.204-3.414 45.753 45.753 0 0 1-7.937-7.433 93.037 93.037 0 0 1-6.631-8.791 957.262 957.262 0 0 1-12.162-18.494c-6.161-9.618-11.947-19.185-17.648-28.922l-3.662-6.435-2.867-5.121a81.003 81.003 0 0 0-2.006-3.456 11.198 11.198 0 0 0-3.106-3.328 11.941 11.941 0 0 0-1.161-.811c-.478-.239-.341.546.444 2.091.393.759.93 1.707 1.459 2.782l.854 1.869 1.067 2.262c4.693 9.02 10.036 17.922 15.583 26.9 5.547 8.978 11.351 17.922 17.265 26.84 4.378 6.563 8.833 13.467 14.935 19.091a43.228 43.228 0 0 0 4.899 3.883 32.55 32.55 0 0 0 5.607 2.979 25.776 25.776 0 0 0 6.213 1.587c2.151.272 4.331.223 6.469-.145l.008-.068Z"/>
  <path fill="#231F20" d="m293.977 299.372 4.574 9.183c.555 1.127 1.042 2.279 1.605 3.414 1.988 3.934 4.037 7.851 6.238 11.709.982 1.707 1.955 3.413 3.013 5.12a26.726 26.726 0 0 0 2.236 3.141c.439.516.928.987 1.459 1.408a4.845 4.845 0 0 0 2.014.947c.513.077.751-.111.726-.324a2.734 2.734 0 0 0-.427-.853 14.61 14.61 0 0 0-1.63-2.561 41.155 41.155 0 0 1-4.096-5.974 2483.956 2483.956 0 0 1-3.815-6.545c-1.536-2.646-2.808-5.573-4.173-8.39l-4.532-9.302-2.842-5.709c-1.434-2.885-2.978-5.744-4.515-8.535-.597-1.101-1.194-2.184-1.783-3.277-.589-1.092-1.28-2.125-2.023-3.149-.324-.452-.64-.905-1.007-1.331-1.442-1.554-2.21-1.827-2.825-1.707-.136.018-.271.05-.401.094-.333.204.196.785.999 1.928a50.126 50.126 0 0 1 3.328 5.565 198.67 198.67 0 0 1 3.2 5.974c1.545 3.038 3.115 6.102 4.617 9.2l.06-.026Z"/>
  <path fill="#231F20" d="M266.845 293.961a57.4 57.4 0 0 1-7.869 6.759c-1.024.734-2.125 1.315-3.2 1.946a28.078 28.078 0 0 1-2.902 1.468c-.963.432-1.966.767-2.995.999-2.322.35-3.073.358-2.27-1.946a14.505 14.505 0 0 1 2.79-4.993c1.553-1.963 3.499-3.814 4.745-6.221.384-.751-.085-.854-.853-.581a8.428 8.428 0 0 0-2.885 1.98c-1.749 1.861-3.797 3.781-5.214 6.384l-.504.982-.426 1.024-.35 1.058c-.055.177-.1.356-.137.538l-.171.708c0 .154-.051.307-.076.452.008.151.008.302 0 .453a3.638 3.638 0 0 0 0 .443l.119.427c.084.28.217.543.393.777.185.226.39.434.614.623.246.165.505.308.777.426.273.094.563.18.853.248l.41.051h.333c.21.013.421.013.631 0a13.207 13.207 0 0 0 2.697-.486c.435-.12.853-.248 1.263-.393.41-.145.854-.29 1.212-.444a30.945 30.945 0 0 0 4.574-2.278 53.818 53.818 0 0 0 8.654-6.742 82.471 82.471 0 0 0 4.685-4.78c2.279-2.5 4.379-5.12 6.435-7.783 1.571-2.057 3.243-3.994 4.737-6.085.333-.461.674-.896.998-1.365 1.152-1.784 1.34-2.458.965-3.218a3.64 3.64 0 0 0-.273-.512c-.367-.461-1.221 0-2.177 1.212-2.893 3.499-5.624 7.34-8.619 10.992a92.744 92.744 0 0 1-7.041 7.826l.077.051Z"/>
  <path fill="#231F20" d="M274.458 232.609a21.974 21.974 0 0 0-1.058-4.908 24.01 24.01 0 0 0-.939-2.321c-.341-.785-.674-1.417-1.007-2.142-1.348-2.799-2.671-5.692-4.267-8.483a32.936 32.936 0 0 0-4.148-5.812 26.376 26.376 0 0 0-2.321-2.176c-.427-.324-.853-.666-1.271-.982l-1.281-.853a79.864 79.864 0 0 0-5.223-3.2 38.039 38.039 0 0 0-5.615-2.655 12.6 12.6 0 0 0-1.57-.46 5.223 5.223 0 0 0-2.091-.06 5.254 5.254 0 0 0-.512.205 2.82 2.82 0 0 0-.444.324c-.251.269-.42.603-.487.964a4.144 4.144 0 0 0-.068.555l.051.563c.041.328.116.652.222.965a14.748 14.748 0 0 0 2.987 4.856 54.472 54.472 0 0 0 3.9 3.789 34.484 34.484 0 0 1 4.566 4.822 14.006 14.006 0 0 1 2.467 5.82c.213 1.323.58 1.221.99 0a7.857 7.857 0 0 0 .324-2.731 8.247 8.247 0 0 0-1.289-3.721 25.943 25.943 0 0 0-4.881-5.521 47.71 47.71 0 0 1-4.822-4.694 12.316 12.316 0 0 1-1.707-2.561l-.273-.674-.111-.367a.144.144 0 0 1 0-.179l.094-.043h.315c.495.1.98.24 1.451.419 1.046.394 2.069.847 3.064 1.356a58.56 58.56 0 0 1 7.229 4.268 23.758 23.758 0 0 1 5.974 5.632 47.35 47.35 0 0 1 4.659 7.963l2.057 4.267.538 1.067.486 1.024c.31.688.578 1.395.802 2.116 1.195 3.533 1.127 7.374.734 11.197a165.063 165.063 0 0 0-1.229 17.649c0 2.287 0 4.557.163 6.828a56.9 56.9 0 0 0 .853 6.759c.188.981.393 1.954.649 2.935.256.982.469 1.665.725 2.271.256.606.487 1.092.683 1.485a4.114 4.114 0 0 0 1.195 1.416c.162.12.341.299.452.367.111.068.179-.222.085-.904a6.37 6.37 0 0 0-.247-1.298c-.12-.495-.248-1.075-.435-1.706a54.975 54.975 0 0 1-1.827-11.863 99.81 99.81 0 0 1 .068-12.46c.197-3.115.513-6.213.931-9.345.524-3.235.69-6.518.495-9.789l-.086.026Z"/>
  <path fill="#231F20" d="M240.039 225.747a13.816 13.816 0 0 1 2.142-3.303c.171-.162.359-.29.538-.435.179-.145.393-.248.58-.393a7.978 7.978 0 0 1 4.993-1.263 7.799 7.799 0 0 1 2.33.555c.95.417 1.874.893 2.765 1.425.29.154.418-.068.358-.452a2.24 2.24 0 0 0-.853-1.366 9.28 9.28 0 0 0-6.827-1.758 12.45 12.45 0 0 0-4.268 1.272 7.885 7.885 0 0 0-1.988 1.587c-.511.609-.982 1.25-1.408 1.921a20.132 20.132 0 0 0-1.366 2.56 21.955 21.955 0 0 0-1.203 4.267c-.213 1.101-.478 2.202-.589 3.328a5.419 5.419 0 0 0 0 .743c.051.922.316 1.195.999 1.314.152.031.306.054.46.068a1.107 1.107 0 0 0 1.076-.99c.243-.881.42-1.78.529-2.688.136-.853.29-1.758.503-2.611a18.335 18.335 0 0 1 1.383-3.721l-.154-.06Z"/>
  <path fill="#231F20" d="M241.328 230.151a9.362 9.362 0 0 1 1.844-1.963c.264-.197.546-.367.853-.538a8.826 8.826 0 0 1 3.26-1.528c.266-.065.537-.105.811-.119.27-.021.541-.021.811 0 .699 0 1.374.154 2.048.162.213 0 .324-.324.239-.725a1.357 1.357 0 0 0-.854-1.024 7.925 7.925 0 0 0-4.932.281c-.47.171-.939.367-1.426.512a10.35 10.35 0 0 0-1.399.623 12.037 12.037 0 0 0-2.561 2.108l-.674.751-.589.854-.443.614-.367.649c-.239.444-.53.853-.734 1.305-.342.675-.854 1.264-1.229 1.955-.077.153-.162.299-.222.452-.196.606-.043.854.503 1.169.128.069.248.145.376.205a1.171 1.171 0 0 0 1.263-.239 4.08 4.08 0 0 0 .649-.751c.162-.264.324-.529.503-.785.341-.521.572-1.101.913-1.604.413-.801.896-1.563 1.443-2.279l-.086-.085Z"/>
  <path fill="#231F20" d="M238.939 241.177c.453-.278.889-.583 1.306-.913.205-.171.41-.333.606-.512.196-.18.239-.231.367-.35a9.779 9.779 0 0 0 1.246-1.536l.409-.581.188-.29.103-.188a6.826 6.826 0 0 1 4.514-2.952c.751-.163 1.502-.222 2.279-.393.247-.06.247-.418 0-.802a1.665 1.665 0 0 0-.486-.562 1.676 1.676 0 0 0-.683-.292 7.234 7.234 0 0 0-5.334 1.494c-.452.375-.922.7-1.391 1.101-.24.203-.465.423-.674.657a2.326 2.326 0 0 0-.308.384l-.145.205-.094.153c-.25.422-.536.821-.853 1.195-.29.342-.802.777-.896.854l-.401.349c-.145.103-.282.282-.478.308a.326.326 0 0 1-.299-.222 1.463 1.463 0 0 1-.119-.393 2.973 2.973 0 0 1 0-.853c.115-.777.287-1.544.512-2.296.051-.162.094-.328.128-.495.111-.623 0-.853-.615-1.101a3.357 3.357 0 0 0-.392-.188.94.94 0 0 0-1.195.495 7.553 7.553 0 0 0-.854 2.236 10.775 10.775 0 0 0-.119 3.44 2.904 2.904 0 0 0 1.289 2.236c.349.211.752.315 1.16.298.437-.031.86-.162 1.238-.384l-.009-.102Zm-.325 6.699c.674-1.561.964-2.987 2.21-4.267a10.055 10.055 0 0 1 3.952-2.389c.93-.316 2.901 1.024 1.468 1.519a8.107 8.107 0 0 0-3.414 2.184c-.973 1.067-1.203 2.305-1.758 3.585-.427.99-2.868.264-2.467-.657l.009.025Zm9.141 15.157c.162.854.282 1.707.486 2.518l.282 1.254.35 1.246a17.5 17.5 0 0 0 .512 1.81 21.986 21.986 0 0 0 3.158 5.837c.28.402.585.787.913 1.152.295.39.611.763.947 1.118.444.435.854.913 1.331 1.332.489.389 1.012.735 1.562 1.032.35.179.538-.222.546-.768a2.188 2.188 0 0 0-.665-1.647 26.587 26.587 0 0 1-4.319-5.3 14.96 14.96 0 0 1-1.561-4.019c-.214-.769-.393-1.554-.581-2.339a18.82 18.82 0 0 1-.409-2.398 43.832 43.832 0 0 1-.35-3.004c-.111-1.528-.222-3.072-.205-4.609 0-1.186.239-2.364.264-3.55 0-.256.043-.512 0-.776a1.706 1.706 0 0 0-.23-1.033 1.136 1.136 0 0 0-.649-.452c-.119-.043-.238-.103-.341-.128-.299-.094-.853.315-1.058 1.032a21.193 21.193 0 0 0-.555 6.606c.06 1.707.256 3.413.478 5.12l.094-.034Zm11.452 19.834a62.471 62.471 0 0 1 .631 20.32c-.051.358-1.92 0-1.852-.495a62.091 62.091 0 0 0-.606-20.149c-.085-.402 1.707-.128 1.827.324Zm-87.764 104.69a60.596 60.596 0 0 1-1.169-10.011c-.197-3.414.051-6.827.119-10.198.128-1.707.324-3.414.486-5.121l.256-2.56.402-2.561.802-5.069 1.058-5.035c.461-2.458 1.169-4.873 1.792-7.297.623-2.424 1.357-4.822 2.057-7.229a261.646 261.646 0 0 1 20.269-48.995c1.92-3.413 3.874-6.827 6.11-10.045a142.07 142.07 0 0 1 7.092-9.328 96.71 96.71 0 0 1 4.984-5.572 59.077 59.077 0 0 1 5.437-5.044 27.11 27.11 0 0 1 2.97-2.1 14.592 14.592 0 0 1 3.157-1.493 5.527 5.527 0 0 1 3.184-.205 5.122 5.122 0 0 1 2.56 1.878c.461.554.708 1.041.93 1.314.222.273.35.384.427.333.077-.052.068-.273 0-.64a5.568 5.568 0 0 0-.469-1.545 4.462 4.462 0 0 0-.564-1.041l-.392-.572c-.162-.179-.35-.35-.538-.538a5.372 5.372 0 0 0-1.442-.981l-.913-.316a5.37 5.37 0 0 0-.99-.171 9.656 9.656 0 0 0-4.216.581 19.638 19.638 0 0 0-3.96 2.133 62.926 62.926 0 0 0-11.385 10.984 101.769 101.769 0 0 0-4.847 6.127c-.786 1.033-1.545 2.091-2.305 3.133l-2.21 3.277a199.89 199.89 0 0 0-14.227 27.762c-4.839 11.461-9.575 23.554-12.921 35.844-.853 3.413-1.809 6.776-2.466 10.241-.341 1.707-.777 3.414-1.041 5.163l-.854 5.206a112.086 112.086 0 0 0-1.083 21.063 53.548 53.548 0 0 0 2.125 12.92 27.55 27.55 0 0 0 2.679 6.085 18.516 18.516 0 0 0 4.421 5.121 17.619 17.619 0 0 0 9.49 3.584 76.33 76.33 0 0 0 9.883.052 114.43 114.43 0 0 0 19.321-3.081c9.806-2.322 19.186-5.471 28.624-8.33a138.11 138.11 0 0 1 6.222-1.707 66.036 66.036 0 0 1 8.193-1.655c.427-.051.853-.111 1.178-.171.324-.06.665-.068.964-.128.589-.128 1.041-.137 1.51-.265.47-.128.948 0 1.238-.085.29-.085.239-.171 0-.41a4.484 4.484 0 0 0-1.502-.853 14.046 14.046 0 0 0-7.194-.393 96.214 96.214 0 0 0-13.254 3.329c-4.353 1.348-8.688 2.799-13.075 4.13-8.764 2.697-17.725 5.121-26.849 6.239a84.786 84.786 0 0 1-10.172.64c-.854 0-1.707 0-2.561-.043-.853-.042-1.707-.042-2.492-.136a16.435 16.435 0 0 1-4.531-1.067 14.504 14.504 0 0 1-6.905-5.974 28.614 28.614 0 0 1-3.413-9.166v-.008Z"/>
  <path fill="#231F20" d="M236.652 320.554a663.75 663.75 0 0 1 1.502-12.801l.658-4.677c.699-5.505 1.271-11.043 1.766-16.591.213-2.457.444-4.932.615-7.382a38.713 38.713 0 0 0-.333-9.515c-.188-.982-.453-.786-.674.068a24.761 24.761 0 0 0-.538 4.13c-.051 1.571-.188 3.15-.316 4.728-.128 1.579-.247 3.167-.392 4.745-.325 3.181-.646 6.37-.965 9.567-.392 3.841-1.041 7.809-1.579 11.726-.58 4.31-1.143 8.629-1.664 12.947a314.082 314.082 0 0 0-.853 8.005c-.41 4.037-.709 8.116-.905 12.153a216.287 216.287 0 0 0-.196 4.694c-.026.776 0 1.562 0 2.347 0 .785.068 1.561.102 2.347.034.785.12 1.374.197 2.073.426 2.561.964 3.346 1.536 3.756.126.096.26.182.401.256.409.128.375-.939.307-2.748-.196-2.68-.137-5.445-.128-8.27.009-2.825.179-5.701.376-8.586.298-4.267.699-8.611 1.203-12.921l-.12-.051Zm-.495 110.306c-.273-2.1-.572-4.199-.785-6.307-.094-.768-.077-1.545-.162-2.313-.29-2.705-.64-5.419-.854-8.15-.076-1.212-.153-2.424-.179-3.627a42.418 42.418 0 0 0-.35-4.643c-.119-.964-1.007.256-1.365 2.048a34.696 34.696 0 0 0-.128 9.542c.222 1.911.145 3.908.315 5.863.171 2.15.393 4.267.641 6.435l.495 3.951c.247 1.989.546 3.986.751 5.974.153 1.545.196 3.064.315 4.591 0 .333.051.658.103.999.205 1.237.443 1.613 1.041 1.801.13.053.264.095.401.128.435.059.734-.495.853-1.434.131-1.401.16-2.81.086-4.216 0-1.417-.197-2.842-.35-4.267l-.743-6.367-.085-.008Zm6.776-72.124c-3.542.632-7.066 1.289-10.608 1.844-1.297.213-2.56.333-3.883.529a239.25 239.25 0 0 1-6.828.93c-2.27.273-4.565.504-6.827.632-2.02.094-4.045.051-6.059-.128-.64-.051-1.272-.162-1.904-.239-.631-.077-1.246-.256-1.877-.35a18.064 18.064 0 0 1-3.567-1.092c-.709-.291-.854 0-.427.708a4.13 4.13 0 0 0 1.101 1.169c.269.22.555.419.853.597.345.173.701.322 1.067.444a30.369 30.369 0 0 0 8.236 1.135c2.725.042 5.45-.092 8.158-.401 3.235-.392 6.597-.631 9.875-1.067 3.61-.486 7.194-1.058 10.778-1.638l6.606-1.093c3.328-.537 6.674-1.1 9.985-1.467a66.107 66.107 0 0 1 7.681-.316l1.638.042c2.04 0 2.603 0 3.175-.674a3.45 3.45 0 0 0 .384-.409c.162-.239.06-.495-.316-.777a2.884 2.884 0 0 0-.751-.41 9.228 9.228 0 0 0-1.075-.281 29.924 29.924 0 0 0-7.305-.239c-2.433.162-4.873.461-7.297.793-3.61.495-7.203 1.118-10.779 1.707l-.034.051Zm-37.243-12.844c.119-.949.298-1.889.537-2.816.086-.35.248-.657.35-.99.317-1.2.751-2.367 1.298-3.482.25-.487.553-.945.904-1.365l.708-.76c.25-.255.466-.542.641-.853.111-.197-.197-.504-.623-.692a1.351 1.351 0 0 0-1.366.086 10.16 10.16 0 0 0-2.56 4.002c-.316.854-.794 1.707-1.11 2.637a24.783 24.783 0 0 0-.81 3.03c-.12.623-.239 1.255-.325 1.886-.162.956-.179 1.938-.273 2.893-.111.741-.18 1.488-.205 2.236a5.295 5.295 0 0 0 0 .504c.12.623.299.802.768.853.106.009.211.009.316 0 .342 0 .615-.281.734-.7.179-.623.359-1.237.47-1.843l.23-1.869c.154-.922.205-1.877.393-2.816l-.077.059Zm62.163 44.396a25.629 25.629 0 0 1-2.39-6.648c-.204-.854-.324-1.758-.503-2.637-.683-3.098-1.28-6.265-1.852-9.439a601.387 601.387 0 0 1-.734-4.268 12.867 12.867 0 0 0-1.912-5.299c-.384-.504-.589-.205-.674.384a8.001 8.001 0 0 0 0 2.423c.103.427.162.854.239 1.306.077.453.128.854.213 1.323.163.853.308 1.784.453 2.688.29 1.81.58 3.644.956 5.488.46 2.193.597 4.549 1.083 6.827a38.715 38.715 0 0 0 2.177 7.442 11.99 11.99 0 0 0 2.782 4.148c.256.213.529.409.802.606.303.174.616.328.939.461.387.156.805.217 1.22.179a2.4 2.4 0 0 0 1.152-.495 4.506 4.506 0 0 0 1.178-1.767c.242-.573.45-1.16.623-1.758.47-1.809.854-3.559 1.246-5.291.085-.376.179-.743.248-1.118.281-1.4.281-1.775-.12-2.262-.094-.111-.171-.247-.264-.341-.299-.333-.956.154-1.392 1.246a29.215 29.215 0 0 0-1.365 4.822c-.188.794-.367 1.579-.572 2.33a8.612 8.612 0 0 1-.742 1.937c-.282.401-.197.265-.205.299h-.094a5.408 5.408 0 0 1-.512-.282 6.738 6.738 0 0 1-1.895-2.296l-.085-.008Z"/>
  <path fill="#231F20" d="M262.903 378.237c4.557-1.118 9.387-2.372 13.424-4.907.802-.512 3.038.623 1.929 1.323-4.139 2.62-9.175 3.943-13.886 5.12-.938.231-2.918-1.16-1.467-1.519v-.017Zm-7.358-40.981c.248 1.288.461 2.56.658 3.891.068.478.085.965.162 1.443.247 1.707.589 3.371.853 5.061.137.742.214 1.502.333 2.253.077.991.307 1.964.683 2.884.128.282.392.145.623-.188.268-.395.392-.872.35-1.348-.248-1.878-.376-3.823-.726-5.761-.196-1.169-.196-2.406-.315-3.61-.12-1.203-.299-2.662-.47-3.994-.119-.853-.222-1.63-.358-2.449-.197-1.238-.444-2.475-.675-3.712-.17-.965-.264-1.938-.529-2.928-.059-.213-.102-.435-.179-.648-.333-.811-.666-.999-1.195-.854a1.905 1.905 0 0 0-.375.12.936.936 0 0 0-.418 1.118c.307 1.459.589 3.132.853 4.839.23 1.263.401 2.56.623 3.866l.102.017Zm7.111 94.38c.393-2.466.691-4.949.93-7.433.103-.905.239-1.801.308-2.705.204-3.201.332-6.392.315-9.584 0-1.408.052-2.834.111-4.267.04-1.804-.04-3.609-.239-5.403-.068-.554-.35-.486-.682 0a5.764 5.764 0 0 0-.905 2.356l-.358 2.722c-.086.905-.111 1.818-.163 2.723-.076 1.817-.153 3.635-.119 5.479a55.46 55.46 0 0 1-.555 6.674c-.256 2.449-.555 4.89-.956 7.322l-.367 2.244-.435 2.228c-.222 1.126-.486 2.244-.734 3.371a35.618 35.618 0 0 1-.913 3.311c-.538 1.707-1.203 3.303-1.809 4.942l-.401 1.109c-.453 1.365-.384 1.886-.043 2.347.073.107.153.21.239.307.282.256.794-.179 1.4-1.101a38.896 38.896 0 0 0 2.193-4.42 50.264 50.264 0 0 0 1.57-4.814c.691-2.424 1.221-4.898 1.707-7.382l-.094-.026Zm44.806-4.915-1.093-6.307c-.128-.76-.17-1.536-.307-2.304-.452-2.697-.981-5.386-1.34-8.091a40.017 40.017 0 0 1-.35-3.593c0-1.527-.273-3.072-.162-4.566 0-.461-.145-.461-.444-.094a3.41 3.41 0 0 0-.477.811c-.197.39-.343.803-.436 1.229l-.23 1.221c-.06.401-.06.81-.085 1.22 0 .811-.043 1.613 0 2.415.029 1.607.192 3.208.486 4.788.333 1.903.41 3.891.674 5.829l.922 6.383.555 3.918c.264 1.98.58 3.96.716 5.931a44.31 44.31 0 0 1 0 4.523c0 .324-.051.632-.042.956 0 1.186.085 1.468.64 1.86.128.086.247.205.375.282a.521.521 0 0 0 .692-.119c.296-.312.503-.699.597-1.118.367-1.43.54-2.903.512-4.378 0-1.46-.111-2.919-.247-4.37a82.186 82.186 0 0 0-.359-3.226l-.478-3.2h-.119Zm-107.679 1.322c.29-1.212.529-2.449.854-3.669.111-.444.29-.854.392-1.323.359-1.588.751-3.183 1.024-4.822.111-.725.299-1.434.419-2.159.103-.462.18-.929.23-1.4a5.38 5.38 0 0 0 0-1.434c-.043-.298-.393-.247-.751 0-.419.24-.726.636-.853 1.101-.367 1.707-1.033 3.414-1.366 5.232a24.844 24.844 0 0 1-1.058 3.26 120.752 120.752 0 0 0-1.127 3.644l-.614 2.279a86.1 86.1 0 0 0-.854 3.473c-.247.854-.606 1.707-.853 2.62-.043.196-.111.393-.145.589-.094.751.119 1.041.58 1.272.101.062.207.116.316.162.35.128.742-.111 1.101-.581a18.136 18.136 0 0 0 1.86-4.591c.325-1.186.598-2.407.939-3.61l-.094-.043Z"/>
  <path fill="#231F20" d="m89.648 204.955-.05-.525-.02-.277c-.012-.161-.03-.32-.034-.484-.008-.311-.006-.644.167-.807l.134-.055a4.913 4.913 0 0 0-.026-.063l.229-.094.347-.143 1.934-.011 1.585-.117a84.712 84.712 0 0 0 3.182-.385c1.063-.151 2.022-.379 3.032-.592 3.566-.709 7.125-1.591 10.689-2.438 1.581-.374 3.178-.754 4.776-1.042a18.194 18.194 0 0 1 6.272-.456c.661.106.528.253-.032.373-.56.119-1.52.274-2.664.431-4.103.57-8.171 1.763-12.324 2.705-2.487.57-5.051 1.292-7.63 1.799-1.382.273-2.77.511-4.175.683-.701.113-1.41.138-2.12.208-.347.032-.708.051-1.06.048l-.843.014-.079.033c-.146-.041-.123.106-.122.198.001.092.008.153.034.419l.15 1.305c.11.877.23 1.75.365 2.618a126.34 126.34 0 0 0 1.434 7.863c.438 2.006.98 3.952 1.564 5.89.129.426.253.818.395 1.276.488 1.59.58 2.106.351 2.56a1.47 1.47 0 0 1-.152.302c-.205.242-.653-.331-1.087-1.5a70.975 70.975 0 0 1-2.848-11.055c-.53-2.837-.982-5.687-1.32-8.574l-.054-.107Z" opacity=".35"/>
  <path fill="#231F20" d="M218.986 163.848a18.561 18.561 0 0 1-.939-5.513c0-.333.043-.666.077-.999.034-.333.102-.648.154-.973a6.721 6.721 0 0 1 1.135-3.098c.153-.223.334-.426.537-.606l.299-.281.341-.222c.227-.162.473-.294.734-.393a2.49 2.49 0 0 1 .734-.23 4.442 4.442 0 0 1 2.808.853 7.45 7.45 0 0 1 1.485 1.34c.417.459.754.984.998 1.553.111.299.53.359.854-.145.208-.379.301-.811.269-1.242a2.238 2.238 0 0 0-.448-1.19 8.268 8.268 0 0 0-4.267-3.047 5.61 5.61 0 0 0-1.451-.204 4.211 4.211 0 0 0-1.519.256 6.779 6.779 0 0 0-1.246.571 5.9 5.9 0 0 0-1.11.854 9.603 9.603 0 0 0-2.842 5.581 18.58 18.58 0 0 0 .393 6.469c.282 1.279.67 2.532 1.16 3.747a22.257 22.257 0 0 0 2.876 5.206 9.392 9.392 0 0 0 3.679 3.26c.385.159.79.268 1.203.324.336.057.68.037 1.007-.06.226-.044.441-.134.632-.264a1.097 1.097 0 0 0 .384-.922c.017-.164.017-.33 0-.495-.128-.529-.743-.725-1.315-.853a4.6 4.6 0 0 1-2.295-1.366 12.798 12.798 0 0 1-2.083-2.739 21.682 21.682 0 0 1-2.184-5.121l-.06-.051Zm45.435 9.038a4.27 4.27 0 0 0 1.707 1.331 5.183 5.183 0 0 0 1.869.452 8.26 8.26 0 0 0 1.707-.068c.289-.029.575-.087.853-.171a4.2 4.2 0 0 0 .854-.264 8.174 8.174 0 0 0 2.082-1.144 13.632 13.632 0 0 0 2.637-2.816 25.297 25.297 0 0 0 1.98-3.132c.538-.947 1.041-1.912 1.536-2.859a11.611 11.611 0 0 0 1.306-3.943c.043-.444-.35-.469-.854-.248a3.467 3.467 0 0 0-.785.504 2.515 2.515 0 0 0-.674.811c-.64 1.152-1.203 2.321-1.818 3.482a52.315 52.315 0 0 1-1.98 3.413 10.11 10.11 0 0 1-3.319 3.167 5.876 5.876 0 0 1-1.033.512 5.247 5.247 0 0 1-1.101.23 3.975 3.975 0 0 1-2.142-.264 2.458 2.458 0 0 1-1.144-2.108 12.924 12.924 0 0 1 .674-4.814 28.462 28.462 0 0 1 1.588-3.576c.119-.264.264-.512.367-.793.392-1.016.171-1.519-.299-1.92a2.024 2.024 0 0 0-.307-.256.67.67 0 0 0-.632 0 2.158 2.158 0 0 0-.81.631 13.746 13.746 0 0 0-1.827 3.235 22.253 22.253 0 0 0-1.212 3.772 12.24 12.24 0 0 0-.324 3.174 6.504 6.504 0 0 0 1.118 3.67l-.017-.008Zm-19.662-8.313a7.027 7.027 0 0 0 1.17 3.226 4.493 4.493 0 0 0 3.311 1.886 4.936 4.936 0 0 0 2.56-.503 9.57 9.57 0 0 0 2.902-2.56 16.11 16.11 0 0 0 1.05-1.477c.316-.499.601-1.018.853-1.553.435-.905.939-1.784 1.4-2.697a12.597 12.597 0 0 0 1.288-3.695c.06-.401-.247-.444-.682-.239a3.41 3.41 0 0 0-1.391 1.305c-.308.547-.641 1.067-.973 1.596l-.973 1.605c-.325.538-.683 1.109-.973 1.664-.29.555-.563 1.007-.854 1.511a6.169 6.169 0 0 1-3.157 2.449c-1.11.333-2.185-.282-2.518-1.707a9.216 9.216 0 0 1-.171-2.902c.136-1.603.387-3.194.751-4.762.291-1.229.777-2.406 1.016-3.729.073-.295.124-.594.154-.896a3.712 3.712 0 0 0 0-.76 1.45 1.45 0 0 0-.239-.529 1.056 1.056 0 0 0-.854-.444 2.466 2.466 0 0 0-.486 0 1.073 1.073 0 0 0-.64.359 2.44 2.44 0 0 0-.504.708c-.273.853-.683 1.912-.99 2.996-.307 1.083-.555 2.244-.776 3.413a21.505 21.505 0 0 0-.308 5.769l.034-.034Z"/>
  <path fill="#231F20" d="M249.827 181.898c-.03-1.909.258-3.81.854-5.624.196-.692.546-1.34.785-2.023a52.291 52.291 0 0 1 3.473-7.032c.589-1.016 1.289-1.98 1.955-2.944a22.602 22.602 0 0 0 2.389-3.926c.188-.461-.17-.563-.708-.427a3.802 3.802 0 0 0-1.852 1.135 34.64 34.64 0 0 0-5.3 7.681c-.853 1.707-1.869 3.414-2.611 5.257a21.86 21.86 0 0 0-1.596 6.384v1.032a6.764 6.764 0 0 0 0 1.084c.072.815.368 1.595.853 2.253a4.882 4.882 0 0 0 3.039 1.707c1.037.178 2.092.221 3.14.128a19.603 19.603 0 0 0 4.668-.785c.333-.119.675-.213.999-.367a2.468 2.468 0 0 0 1.169-.853 1.088 1.088 0 0 0 .128-.914 2.583 2.583 0 0 0-.128-.409c-.23-.384-.777-.376-1.579-.239a33.624 33.624 0 0 1-3.61.768 14.007 14.007 0 0 1-3.593.213 3.724 3.724 0 0 1-1.886-.606 1.583 1.583 0 0 1-.451-.657 1.587 1.587 0 0 1-.078-.793l-.06-.043Zm37.04-28.803c-2.56-4.268-6.614-5.65-11.419-5.616-2.193 0-2.193-3.414 0-3.414 6.017 0 11.171 2.04 14.363 7.314 1.144 1.878-1.801 3.593-2.944 1.707v.009Zm-22.59-12.546c-6.828 6.239-11.573-2.441-17.017-5.786-1.869-1.144-.154-4.096 1.706-2.944 3.559 2.184 8.535 10.301 12.879 6.315 1.621-1.485 4.036.93 2.415 2.415h.017Zm-6.093 58.426c-.145.222.086-.393.051-.154a.557.557 0 0 1 0 .163c-.06.227-.152.446-.273.648a2.298 2.298 0 0 1-2.048.982 1.778 1.778 0 0 1-1.647-1.255 4.005 4.005 0 0 1 0-2.219 1.702 1.702 0 0 1 1.195-1.195 2.083 2.083 0 0 1 1.707.137c.152.098.297.207.435.324.29.239-.307-.196-.367-.213a1.696 1.696 0 0 1 1.033.802 1.714 1.714 0 0 1 .162 1.297 1.758 1.758 0 0 1-2.108 1.195 2.287 2.287 0 0 1-.99-.538s-.086-.059-.094-.085c-.213-.196 0-.145.623.145.708.077.853.145.546.231l1.195-1.195-.077.375c0 .077-.068.35 0 0v-.111c0 .094 0 .052-.043-.247.052 0 .103.324.12.367l-1.647-1.246h-.12c-.314.11-.58.328-.751.614 0 .077-.153.478-.094.188.058-.282.168-.552.325-.794a1.722 1.722 0 0 1 1.036-.893 1.702 1.702 0 0 1 1.359.155 1.72 1.72 0 0 1 .809 1.102 1.697 1.697 0 0 1-.26 1.343l-.077.077ZM95.142 91.942c-.11 2.313-.23 4.617-.299 6.93v2.56c-.085 2.97-.187 5.974-.162 8.918 0 1.314.086 2.637.17 3.934.138 1.707.35 3.346.394 5.027 0 .521-.308.495-.666.085a4.356 4.356 0 0 1-.913-2.159 68.063 68.063 0 0 1-.598-10.386c0-2.082-.068-4.267-.068-6.375 0-2.338.06-4.677.12-7.007l.11-4.31c.052-2.176.137-4.36.129-6.52 0-1.706-.137-3.32-.222-4.975 0-.367-.06-.726-.069-1.093 0-1.356.188-1.792.734-2.09a3.5 3.5 0 0 1 .359-.188c.384-.137.768.426.93 1.425a56.16 56.16 0 0 1 .367 9.217c-.077 2.33-.162 4.668-.248 6.998l-.068.009Zm21.591-21.832c2.996.112 5.974.274 8.97.445 1.084.05 2.176.076 3.26.153 3.84.248 7.681.564 11.496.854 1.706.136 3.413.222 5.12.307 2.168.102 4.353.196 6.486.418.666.069.589.35 0 .632a6.648 6.648 0 0 1-2.919.52c-4.437-.11-8.85-.435-13.296-.81-2.663-.24-5.445-.282-8.167-.393a518.663 518.663 0 0 0-8.995-.324c-1.844-.069-3.696-.086-5.539-.12h-4.19c-1.4 0-2.791.085-4.174.145a63.367 63.367 0 0 0-6.324.751l-1.374.214c-1.707.341-2.236.315-2.713-.111a2.804 2.804 0 0 1-.325-.299c-.256-.35.393-.794 1.707-1.135a55.2 55.2 0 0 1 11.948-1.323c3.03-.077 6.059 0 9.08 0l-.051.077Zm38.653 45.582v1.554l-.043 1.843-.068.35c0 .051 0 .12-.06.154l-.017.222a2.268 2.268 0 0 1-.444.546c-.19.153-.393.29-.606.409l-.307.163-.213.102a17.58 17.58 0 0 1-1.605.597c-1.05.342-2.099.615-3.149.854-2.091.495-4.19.904-6.29 1.271-1.903.325-3.806.666-5.718.905a134.164 134.164 0 0 1-20.354 1.007c-3.013-.085-6.042-.282-9.021-.666a54.288 54.288 0 0 1-5.701-.998 32.582 32.582 0 0 1-5.479-1.912c-1.092-.52-.853-.648.171-.512 1.024.137 2.868.384 4.993.751a71.759 71.759 0 0 0 11.419 1.374c3.848.231 7.732.256 11.632.154 4.76-.199 9.503-.695 14.201-1.485 2.603-.41 5.189-.854 7.74-1.451a55.07 55.07 0 0 0 3.798-.964c.615-.18 1.238-.376 1.826-.598.291-.101.576-.217.854-.35a.791.791 0 0 0 .358-.256 1.095 1.095 0 0 0 0-.162v-2.151c0-.776 0-1.553-.059-2.338a224.613 224.613 0 0 0-.222-4.677c-.282-4.924-.572-9.874-.76-14.781a112.92 112.92 0 0 1 0-11.402c0-.853.137-1.707.239-2.56.094-.668.24-1.327.435-1.972a7.55 7.55 0 0 1 .461-1.305 4.204 4.204 0 0 1 1.058-1.238c.126-.116.264-.219.41-.307.179-.085.222.196.213.777-.027.84-.099 1.677-.213 2.509a77.012 77.012 0 0 0-.521 10.104c0 3.414.146 6.981.333 10.514.256 5.258.666 10.54.803 15.917l-.094.008Z"/>
  <path fill="#FD9E28" d="M131.164 86.53h-3.815c-.469 0-.93.06-1.391.06h-4.924c-.726 0-1.46 0-2.185.078-.928.09-1.863.09-2.791 0-.572-.077.128-1.332 1.186-1.434a41.586 41.586 0 0 1 5.659-.171c1.143.06 2.321-.085 3.49-.128l3.849-.11 2.373-.06c1.195 0 2.398 0 3.584-.112.93 0 1.826-.23 2.748-.281.202-.013.404-.013.606 0 .751 0 .999.136 1.152.563a2.3 2.3 0 0 1 .103.29c.076.325-.231.606-.777.743a20.879 20.879 0 0 1-5.027.554l-3.832.077-.008-.068Zm-3.985 10.088c-.854 0-1.707-.06-2.561-.068-.307 0-.614.043-.93 0l-3.303-.11a13.923 13.923 0 0 0-1.459 0 6.575 6.575 0 0 1-1.869 0c-.393-.086.102-1.281.794-1.366a21.152 21.152 0 0 1 3.755-.111 16.36 16.36 0 0 0 2.321-.103l2.56-.076h3.994c.615 0 1.221-.214 1.844-.214.136-.009.273-.009.409 0 .504 0 .666.154.76.572.027.095.047.192.06.29a.685.685 0 0 1-.538.708 7.97 7.97 0 0 1-1.63.444 26.27 26.27 0 0 1-1.707.111h-2.56l.06-.077Zm2.645 10.259-3.354-.128h-1.22l-4.319-.197h-1.92a10.73 10.73 0 0 1-2.449-.076c-.248-.052-.214-.367 0-.692a1.546 1.546 0 0 1 1.067-.708 50.821 50.821 0 0 1 2.474-.154c.832-.008 1.664.026 2.492.103 1.019.031 2.039.011 3.056-.06h8.636c.854 0 1.605-.196 2.407-.188h.529c.666 0 .854.171 1.016.546.039.083.07.169.094.256.059.274-.205.521-.683.675-.71.237-1.438.417-2.176.537a17.74 17.74 0 0 1-2.245.145h-3.414l.009-.059Z"/>
  <path fill="#231F20" d="M157.092 116.503v1.588l-.043 1.852-.068.332c0 .052 0 .12-.051.154l-.043.162c-.107.2-.245.382-.409.538a3.821 3.821 0 0 1-.555.418 3.111 3.111 0 0 1-.282.171l-.196.102c-.488.244-.99.46-1.502.649-.982.375-1.963.682-2.944.973a91.806 91.806 0 0 1-5.915 1.485c-1.817.401-3.627.853-5.453 1.118a125.95 125.95 0 0 1-19.518 1.783c-2.902 0-5.82 0-8.696-.29-1.844-.162-3.696-.384-5.531-.725a33.423 33.423 0 0 1-5.351-1.562c-1.075-.427-.853-.572.145-.521.999.052 2.783.197 4.839.453 3.648.571 7.335.856 11.027.853 3.712.077 7.433-.051 11.18-.299a104.206 104.206 0 0 0 13.603-2.005 126.232 126.232 0 0 0 7.365-1.707c1.212-.333 2.416-.7 3.585-1.11a19.105 19.105 0 0 0 1.707-.665l.401-.188.307-.162c.111-.077.273-.145.273-.299a.249.249 0 0 1 0-.077v-2.116c0-.76 0-1.528-.051-2.287-.051-1.528-.137-3.064-.214-4.592-.273-4.728-.554-9.49-.751-14.21-.153-3.669-.332-7.279-.17-10.949 0-.853.094-1.604.162-2.424.078-.64.195-1.276.35-1.903.073-.435.202-.86.384-1.263a3.88 3.88 0 0 1 .93-1.246c.137-.11.273-.273.376-.333.102-.06.247.18.29.734a15.4 15.4 0 0 1-.043 2.458 149.55 149.55 0 0 0 .085 19.825c.265 5.061.64 10.139.777 15.302v-.017Zm-48.806 68.718-8.14 1.881c-.982.237-1.967.513-2.966.73-3.521.728-7.062 1.409-10.637 1.892l-4.745.668-3.056.334a22.933 22.933 0 0 1-3.08-.017c-.639-.051-.55-.465-.032-.909a4.573 4.573 0 0 1 2.605-1.071c4.036-.35 8.054-.968 12.14-1.578 2.46-.347 4.927-1.103 7.403-1.678l8.162-2.009 5.041-1.205c2.517-.611 5.138-1.126 7.689-1.676 1.992-.385 3.928-.905 5.954-1.23.441-.071.854-.167 1.32-.201 1.659-.138 2.218.01 2.591.558.095.125.18.256.255.394.181.442-.467.884-1.627 1.139-3.439.814-7.053 1.359-10.702 2.158-2.698.574-5.428 1.162-8.149 1.838l-.026-.018Zm-24.302 49.312a22.47 22.47 0 0 0 1.256 3.774c.258.565.563 1.106.915 1.618l.042.102.02.048c.025.03.052.059.08.086.068.063.14.12.218.169.203.122.419.218.645.289 1.24.289 2.52.368 3.787.233 1.37-.1 2.736-.27 4.09-.51 2.003-.335 3.987-.828 5.991-1.273 7.053-1.609 14.079-3.529 21.191-5.106 3.155-.697 6.34-1.389 9.511-1.936a46.594 46.594 0 0 1 12.392-.832c1.293.16 1.081.386-.012.577a83.95 83.95 0 0 1-5.36.765c-8.246.862-16.307 3.161-24.521 5.108-4.921 1.184-9.952 2.727-15.006 3.901a56.374 56.374 0 0 1-8.562 1.416c-1.556.171-3.13.007-4.618-.482a4.189 4.189 0 0 1-1.164-.721 5.659 5.659 0 0 1-.786-1.014 12.85 12.85 0 0 1-1.066-2.008 43.75 43.75 0 0 1-2.49-10.409c-.692-5.252-1.546-10.492-2.73-15.616-.9-3.985-2.01-7.829-3.112-11.722a92.939 92.939 0 0 1-.692-2.557c-.81-3.229-.927-4.298-.57-5.136.06-.192.142-.378.243-.552.317-.417 1.02.798 1.841 3.109a144.11 144.11 0 0 1 5.727 21.895 130.6 130.6 0 0 1 1.351 8.515 71.65 71.65 0 0 0 1.444 8.246l-.055.023Z"/>
  <path fill="#FD9E28" d="m90.85 204.848-.06-.639a9.676 9.676 0 0 1-.04-1.017c.012-.148.046-.292.1-.429a.22.22 0 0 1 .114-.195l.087-.035.079-.033c-.136-.129-.02-.047-.072-.063l.75-.308c1.206-.007 1.43.002 2.006-.013l1.535-.105a76.32 76.32 0 0 0 3.103-.353c1.047-.145 2.014-.376 3.027-.581 3.561-.698 7.121-1.534 10.699-2.369 1.585-.365 3.182-.745 4.784-1.044a17.262 17.262 0 0 1 6.285-.425c.665.114.516.314-.048.49-.87.241-1.754.429-2.647.563-4.06.608-8.134 1.785-12.296 2.703-2.494.555-5.012 1.276-7.641 1.794-1.36.264-2.728.504-4.118.669-.685.107-1.383.135-2.088.194-.35.024-.694.064-1.046.061l-.754.006-.16-.008c-.146-.041-.123.106-.125.19l.016.307.14 1.262c.111.877.23 1.75.366 2.618.39 2.608.851 5.279 1.391 7.871.446 2.004 1.014 3.948 1.614 5.878l.409 1.263c.495 1.586.56 2.104.229 2.6a2.45 2.45 0 0 1-.227.324c-.284.274-.81-.286-1.26-1.448a62.656 62.656 0 0 1-2.926-11.069c-.522-2.84-.966-5.693-1.3-8.591l.074-.068Zm25.544 17.641c2.343-.336 4.681-.688 6.984-1.146.851-.175 1.679-.404 2.517-.611a22.85 22.85 0 0 0 2.128-.616 6.475 6.475 0 0 0 1.828-.872l.151-.126.075-.087c.063-.026.045-.138.043-.211a8.022 8.022 0 0 0-.181-1.023 64.293 64.293 0 0 0-.542-2.214c-.331-1.322-.689-2.642-.993-3.965a12.473 12.473 0 0 1-.317-5.259c.125-.55.227-.435.346.033.118.468.416 1.259.596 2.191.18.932.365 1.695.603 2.52l.65 2.501.688 2.55c.114.433.214.835.328 1.314.085.205.098.44.142.68.043.241.084.205.06.372.031.177.037.358.018.537-.008.229-.085.45-.219.635a1.899 1.899 0 0 1-.377.496 5.016 5.016 0 0 1-.79.593c-.511.29-1.044.54-1.594.747a23.804 23.804 0 0 1-3.222.983c-2.356.554-4.731.949-7.1 1.314l-4.349.644c-2.201.324-4.423.62-6.599 1.007-1.718.309-3.328.704-4.966 1.119l-1.059.297c-1.33.334-1.759.345-2.172.035a1.946 1.946 0 0 1-.283-.216c-.233-.255.23-.722 1.223-1.112a53.415 53.415 0 0 1 9.289-2.094l7.098-1.073-.004.057Z"/>
  <path fill="#FD9E28" d="M118.371 213.122a4.031 4.031 0 0 1-.844.347c-.282.076-.57.127-.861.151-.27.038-.542.051-.814.04-.252-.007-.525.003-.776-.023-.997-.07-1.935-.219-2.919-.368-.691-.131-1.394-.202-2.075-.356-2.419-.519-4.766-1.223-7.117-1.89a130.87 130.87 0 0 0-3.117-.85 26.52 26.52 0 0 1-3.974-1.226c-.397-.179-.26-.429.171-.615a3.41 3.41 0 0 1 1.944-.144c2.733.611 5.428 1.376 8.151 2.185 1.618.479 3.353.771 5.06 1.084.92.175 1.851.328 2.776.446.884.13 1.78.155 2.669.074.959-.071 1.835-.856 2.668-1.614a42.359 42.359 0 0 0 3.501-3.94c.849-1.078 1.605-2.201 2.428-3.296.179-.239.354-.487.543-.721.711-.874 1.058-1.063 1.554-.935.114.02.226.051.334.094.332.158.279.679-.216 1.362-1.353 2.005-2.89 4.012-4.557 6.017a40.327 40.327 0 0 1-1.971 2.185 11.77 11.77 0 0 1-2.471 2.003l-.087-.01Z"/>
  <path fill="#231F20" d="m395.32 180.507 3.354.913 1.221.375 4.284 1.153c.64.17 1.271.375 1.903.563.804.264 1.625.473 2.458.623.512.094 0-.7-.854-1.058a38.63 38.63 0 0 0-4.924-1.528c-1.007-.248-2.014-.632-3.021-.956l-3.345-1.033-2.049-.648c-1.032-.333-2.082-.64-3.098-1.007-.785-.273-1.536-.64-2.304-.947-.171-.069-.333-.146-.503-.205-.649-.205-.905-.137-1.135.085-.056.05-.107.104-.154.162-.128.179.068.453.495.751a21.041 21.041 0 0 0 4.267 1.767c1.101.375 2.236.683 3.354 1.015l.051-.025Zm17.087-10.292-3.721-.854-1.348-.367c-1.588-.392-3.183-.768-4.762-1.203-.7-.188-1.391-.427-2.074-.64a81.342 81.342 0 0 0-2.637-.854c-.273-.077-.307.086-.145.333a2.3 2.3 0 0 0 1.015.854 31.49 31.49 0 0 0 5.445 1.732c1.118.265 2.236.657 3.363.981l3.721 1.016 2.295.614c1.152.316 2.322.606 3.457.948.853.256 1.707.606 2.56.896l.572.196c.725.188.998.103 1.229-.128a.904.904 0 0 0 .153-.162c.128-.179-.111-.452-.606-.742a26.3 26.3 0 0 0-4.804-1.707c-1.229-.35-2.492-.632-3.738-.948l.025.035Z" opacity=".35"/>
  <path fill="#231F20" d="M83.467 236.757a20.982 20.982 0 0 0 1.163 3.434 9.37 9.37 0 0 0 .83 1.504.62.62 0 0 0 .194.225c.066.047.055.134.171.17.178.12.37.218.572.29a9.68 9.68 0 0 0 3.353.412 34.118 34.118 0 0 0 3.737-.291c1.835-.228 3.672-.587 5.498-.969 6.483-1.244 12.935-2.855 19.469-4.268 2.889-.625 5.788-1.272 8.666-1.837a66.57 66.57 0 0 1 11.23-1.481c1.185-.035 1.013.22.066.564-1.58.529-3.197.94-4.837 1.232-7.508 1.242-14.883 3.278-22.43 4.941-4.52.991-9.199 2.315-13.854 3.224a47.6 47.6 0 0 1-7.899.987l-1.024-.022c-.35-.022-.7-.063-1.053-.093-.354-.03-.71-.133-1.06-.201a6.63 6.63 0 0 1-1.085-.393 4.21 4.21 0 0 1-1.736-1.64 13.477 13.477 0 0 1-.965-1.854 41.886 41.886 0 0 1-2.377-9.506c-.704-4.831-1.28-9.623-2.29-14.321a82.405 82.405 0 0 0-3.024-10.586c-.305-.742-.532-1.497-.806-2.252-.997-2.829-1.258-3.755-.966-4.595a2.87 2.87 0 0 1 .17-.55c.247-.433 1.143.536 2.14 2.58 3.069 6.047 4.629 13.074 5.767 20.016.882 5.174 1.225 10.43 2.503 15.266l-.123.014Z"/>
  <path fill="#FD9E28" d="M117.876 213.778a6.826 6.826 0 0 1-2.772.328c-.856-.033-1.71-.11-2.559-.231a36.494 36.494 0 0 1-1.845-.247c-2.136-.368-4.24-.886-6.337-1.408l-2.812-.69a26.3 26.3 0 0 1-3.528-.994c-.361-.138-.252-.321.108-.432a3.502 3.502 0 0 1 1.675-.034c2.423.508 4.821 1.109 7.25 1.698 1.437.331 3.017.605 4.483.805a23.1 23.1 0 0 0 4.919.339c.462-.035.91-.171 1.312-.401a6.802 6.802 0 0 0 1.19-.877 28.093 28.093 0 0 0 3.164-3.414c.758-.939 1.434-1.918 2.156-2.879l.476-.639c.607-.766.889-.956 1.265-.917a.864.864 0 0 1 .257.042c.247.083.141.523-.262 1.113a58.65 58.65 0 0 1-4.073 5.311c-.564.647-1.147 1.293-1.793 1.9a8.533 8.533 0 0 1-2.274 1.627Z"/>
  <path fill="#231F20" d="m405.597 145.508 7.971 2.406c.973.299 1.937.64 2.91.922 3.465.964 6.955 1.878 10.488 2.56l4.703.982 3.021.546a24.33 24.33 0 0 0 3.064.179c.64 0 .589-.426.094-.913a4.623 4.623 0 0 0-2.561-1.212c-4.011-.614-7.971-1.485-12.016-2.364-2.424-.512-4.856-1.399-7.28-2.159l-8.005-2.56-4.95-1.545c-2.509-.785-5.052-1.459-7.57-2.168-1.962-.52-3.857-1.169-5.828-1.613-.436-.094-.854-.222-1.306-.281-1.647-.256-2.202-.162-2.62.384a2.645 2.645 0 0 0-.282.375c-.205.436.41.913 1.545 1.246 3.414 1.033 6.947 1.818 10.54 2.851 2.662.751 5.342 1.519 8.013 2.364h.069Zm21.019 50.796a20.992 20.992 0 0 1-1.511 3.678 9.155 9.155 0 0 1-1.015 1.553l-.069.094v.043s0 .051-.076.077a1.54 1.54 0 0 1-.231.153c-.213.111-.44.194-.674.248a11.213 11.213 0 0 1-3.772 0 38.021 38.021 0 0 1-4.045-.777c-1.98-.469-3.935-1.084-5.898-1.664-6.929-2.065-13.817-4.446-20.815-6.478-3.098-.913-6.23-1.809-9.387-2.56a46.407 46.407 0 0 0-12.324-1.681c-1.297.068-1.101.307 0 .572 1.101.264 3.013.716 5.3 1.118 8.167 1.399 16.07 4.216 24.135 6.699 4.83 1.511 9.754 3.414 14.747 4.89a56.144 56.144 0 0 0 8.449 1.98c1.54.27 3.12.209 4.634-.179a4.282 4.282 0 0 0 1.212-.64c.321-.285.607-.605.853-.956.454-.613.854-1.264 1.195-1.946a43.427 43.427 0 0 0 3.166-10.241c1.042-5.206 2.245-10.361 3.747-15.362 1.161-3.917 2.56-7.681 3.874-11.495.299-.854.581-1.656.854-2.509 1.024-3.167 1.203-4.225.905-5.078a3.195 3.195 0 0 0-.205-.572c-.29-.435-1.076.725-2.048 2.978a144.986 144.986 0 0 0-7.144 21.473 155.138 155.138 0 0 0-1.911 8.406 69.892 69.892 0 0 1-1.98 8.133l.034.043Zm-54.211-29.631a121.94 121.94 0 0 1 1.886-6.41l.854-2.304c.904-2.731 1.869-5.453 2.808-8.193.418-1.212.853-2.415 1.314-3.618a13.861 13.861 0 0 0 1.186-4.916c-.06-.614-.392-.418-.734 0a5.198 5.198 0 0 0-1.143 1.843c-1.016 3.056-2.373 6.128-3.414 9.328-.615 1.921-1.468 3.841-2.168 5.787a137.63 137.63 0 0 0-2.15 6.469 96.43 96.43 0 0 0-1.127 4.053c-.538 2.057-.956 4.165-1.323 6.247a40.908 40.908 0 0 0-.665 4.891 9.042 9.042 0 0 0 0 1.092c-.028.493.045.987.213 1.451a1.002 1.002 0 0 0 .563.58c.113.058.23.106.35.145.376.068.632-.495.7-1.425.289-2.866.73-5.715 1.323-8.534.452-2.159.973-4.327 1.57-6.478l-.043-.008Z"/>
  <path fill="#231F20" d="M426.984 198.557a20.762 20.762 0 0 1-1.391 3.354c-.265.5-.577.975-.931 1.416a.706.706 0 0 1-.204.214c-.069 0-.077.119-.18.153-.185.107-.383.19-.588.248a9.617 9.617 0 0 1-3.414.196 35.544 35.544 0 0 1-3.704-.529c-1.818-.358-3.61-.853-5.419-1.331-6.392-1.707-12.725-3.704-19.126-5.522a277.658 277.658 0 0 0-8.534-2.407 67.06 67.06 0 0 0-11.094-2.21c-1.17-.111-1.042.145-.103.563a32.943 32.943 0 0 0 4.745 1.536c7.408 1.759 14.636 4.268 22.07 6.41 4.438 1.288 8.986 2.901 13.603 4.122a47.225 47.225 0 0 0 7.818 1.502l1.032.051h1.05c.35 0 .717-.085 1.076-.128a9.135 9.135 0 0 0 1.109-.324 4.276 4.276 0 0 0 1.878-1.519 13.5 13.5 0 0 0 1.083-1.784 42.28 42.28 0 0 0 2.996-9.328c1.015-4.779 1.912-9.524 3.217-14.141a83.077 83.077 0 0 1 3.721-10.361c.316-.742.623-1.459.948-2.202 1.177-2.756 1.502-3.661 1.297-4.506a2.942 2.942 0 0 0-.137-.555c-.213-.452-1.16.461-2.304 2.433-3.414 5.829-5.47 12.741-7.058 19.628-1.229 5.121-1.912 10.318-3.507 15.072l.051-.051Z"/>
  <path fill="#FD9E28" d="M411.664 168.158c-1.254-.256-2.5-.521-3.746-.803-.453-.102-.854-.256-1.349-.349-1.604-.359-3.209-.7-4.796-1.101-.7-.171-1.391-.427-2.074-.632-.853-.282-1.707-.589-2.637-.794-.282-.059-.35.18-.222.512.178.445.516.808.947 1.016a22.973 22.973 0 0 0 5.462 1.767c1.127.23 2.245.648 3.363.964 1.246.35 2.492.666 3.729.99l2.305.597c1.152.316 2.329.581 3.464.931.854.273 1.707.665 2.561.981.196.068.375.154.572.213.725.18 1.015 0 1.288-.341.066-.081.126-.167.179-.256.154-.29-.059-.657-.529-1.016a17.641 17.641 0 0 0-4.762-1.817c-1.237-.35-2.5-.606-3.755-.905v.043Z"/>
  <path fill="#FD9E28" d="m420.335 174.575.904-.512c.334-.195.636-.439.897-.725.234-.265.395-.585.469-.93a1.985 1.985 0 0 0-.077-1.05 5.767 5.767 0 0 0-.683-1.4c-.136-.213-.196-.264-.29-.401l-.273-.341-.555-.657c-.367-.436-.734-.854-1.075-1.306a9.375 9.375 0 0 1-.759-1.246 5.282 5.282 0 0 0-1.025-1.553c-.153-.137-.563.068-.93.426-.367.359-.7.854-.597 1.264a7.458 7.458 0 0 0 2.116 3.413c.28.283.521.602.717.948l.307.503.111.188.094.119c.086.111.256.256.239.436a.85.85 0 0 1-.341.392 1.075 1.075 0 0 1-.179.137l-.325.196a6.455 6.455 0 0 1-.691.358c-.72.348-1.468.633-2.236.854-.606.171-1.263.153-1.895.281-.141.02-.28.048-.418.086a1.318 1.318 0 0 0-.307.136.677.677 0 0 0-.162.256 1.451 1.451 0 0 0 0 .649c0 .119 0 .239.051.35a1.27 1.27 0 0 0 .854.802 7.624 7.624 0 0 0 3.482-.503 21.601 21.601 0 0 0 2.637-1.11l-.06-.06Zm-24.28 4.882 3.721.939c.452.111.853.282 1.34.392l4.77 1.161c.709.171 1.4.41 2.108.598.895.29 1.82.482 2.757.571.298 0 .307-.239.119-.546a2.146 2.146 0 0 0-1.032-.853 33.916 33.916 0 0 0-5.42-1.613c-1.118-.239-2.219-.683-3.337-1.033l-3.678-1.109-2.27-.7c-1.135-.359-2.296-.683-3.414-1.093-.853-.315-1.707-.751-2.56-1.109a4.462 4.462 0 0 0-.555-.239c-.717-.222-1.015-.085-1.305.265-.071.078-.137.16-.197.247-.17.282 0 .657.478 1.041a17.433 17.433 0 0 0 4.668 2.066c1.221.409 2.475.725 3.713 1.083l.094-.068Z"/>
  <path fill="#FD9E28" d="m388.698 176.095-.076-.12-.06-.068h-.051a.408.408 0 0 1-.103-.077.202.202 0 0 1-.056-.053.2.2 0 0 1-.003-.22c.051-.06.128 0 .264-.145l1.366-.854 1.459-.853c.435-.265.913-.444 1.365-.674a4.17 4.17 0 0 0 1.639-1.118c.128-.179-.136-.555-.529-.854-.393-.298-.905-.631-1.238-.537a9.229 9.229 0 0 0-3.413 1.707c-.33.235-.685.433-1.059.588l-.554.256-.35.171-.401.205a2.354 2.354 0 0 0-1.315 1.442 2.809 2.809 0 0 0 .538 1.886c.103.162.239.401.307.495l.256.359.512.691c.513.691 1.084 1.306 1.571 1.971.336.532.644 1.082.921 1.648.077.119.128.238.205.349.06.087.132.164.214.231a.528.528 0 0 0 .273.06 1.52 1.52 0 0 0 .631-.154l.367-.265a1.148 1.148 0 0 0 .521-1.058 7.589 7.589 0 0 0-1.707-3.106 17.904 17.904 0 0 1-1.442-1.955l-.052.052Z"/>
  <path fill="#231F20" d="M160.099 132.826c.027.295.105.584.231.853.104.261.251.504.435.717.33.37.738.661 1.195.853.152.087.312.158.478.214.175.079.362.128.554.145a2.488 2.488 0 0 0 1.869-.597c.446-.388.767-.899.922-1.468a2.831 2.831 0 0 0 .06-1.511 1.63 1.63 0 0 0-1.383-1.331c-.205 0-.256.341-.29.725v.546c0 .154-.06.29 0 .316a.733.733 0 0 1 0 .41c-.03.248-.09.492-.179.725a.469.469 0 0 1-.333.273 1.21 1.21 0 0 1-.41-.051h-.128l-.145-.085a.985.985 0 0 1-.281-.162.723.723 0 0 1-.222-.197l-.094-.102-.051-.128a.844.844 0 0 1 0-.7.929.929 0 0 1 .853-.7c.29 0 .521.231.734.487.047.055.098.106.154.153a.488.488 0 0 0 .162.111c.07.013.142.013.213 0 .171-.035.336-.099.487-.188l.247-.119a.854.854 0 0 0 .35-.853c-.086-.31-.231-.6-.427-.854a2.817 2.817 0 0 0-.853-.631 2.788 2.788 0 0 0-2.475.119 3.24 3.24 0 0 0-1.588 3.055l-.085-.025Zm11.683 10.454c.038.217.107.426.205.623l.136.299.188.265.188.264c.07.067.144.13.222.188.135.127.284.238.444.333l.35.222c.135.067.279.119.426.153a2.004 2.004 0 0 0 1.485-.307c.392-.247.692-.616.854-1.05.158-.368.2-.776.119-1.169a1.272 1.272 0 0 0-1.007-1.067c-.162 0-.265.367-.375.751a2.33 2.33 0 0 1-.274.726s.043.145 0 .298c-.042.154-.221.12-.332.069a.899.899 0 0 1-.282-.18 1.043 1.043 0 0 1-.239-.239.588.588 0 0 1-.111-.418.554.554 0 0 1 .487-.469.516.516 0 0 1 .452.299.402.402 0 0 0 .06.102c.102.06.29-.051.631-.333l.239-.188a.795.795 0 0 0 .29-.853 1.816 1.816 0 0 0-1.331-1.033 2.564 2.564 0 0 0-1.801.367 2.337 2.337 0 0 0-1.075 2.339l.051.008Zm-14.353 96.258c.127.265.3.505.512.709.194.206.419.381.666.52a3.3 3.3 0 0 0 1.425.41c.176.014.353.014.529 0 .19.01.381-.013.563-.068a2.512 2.512 0 0 0 1.545-1.221 3.037 3.037 0 0 0 .341-1.707 2.82 2.82 0 0 0-.486-1.433 1.626 1.626 0 0 0-1.767-.76c-.196.051-.119.418 0 .785.06.188.111.376.162.529.052.154.043.282.086.299a.799.799 0 0 1 .145.384c.058.243.087.492.085.743a.466.466 0 0 1-.205.367.973.973 0 0 1-.401.093h-.307a1.097 1.097 0 0 1-.316-.059.61.61 0 0 1-.273-.103l-.128-.068-.094-.094a.916.916 0 0 1-.281-.64.924.924 0 0 1 .52-.947.964.964 0 0 1 .854.196c.066.034.134.062.204.085l.146.077a.776.776 0 0 0 .196-.085 1.72 1.72 0 0 0 .392-.35l.188-.205a.855.855 0 0 0 0-.964 2.344 2.344 0 0 0-.7-.615 2.647 2.647 0 0 0-3.294.709 3.211 3.211 0 0 0-.401 3.413h.094Zm12.722 6.179a2.36 2.36 0 0 0 1.536 1.05l.316.06a1.448 1.448 0 0 0 1.34-.632c.199-.289.306-.631.307-.981 0-.303-.085-.598-.247-.854a.987.987 0 0 0-1.024-.495c-.12 0-.086.333-.06.64.027.201.027.405 0 .606 0 0 .077.103.085.222.009.12-.136.145-.23.145a.936.936 0 0 1-.256-.06.841.841 0 0 1-.239-.102.463.463 0 0 1-.188-.282.426.426 0 0 1 .214-.469.41.41 0 0 1 .409.094l.077.051c.102 0 .205-.119.376-.418l.119-.196a.611.611 0 0 0 0-.7 1.34 1.34 0 0 0-1.229-.376 1.913 1.913 0 0 0-1.203.751 1.805 1.805 0 0 0-.137 1.997l.034-.051Zm185.742-50.233c.052.154 0 .427-.418.641a.423.423 0 0 1-.196.059h-.154a.59.59 0 0 1-.563-.077 1.19 1.19 0 0 1-.486-.674.905.905 0 0 1 .059-.725c.154-.256.35-.316.683-.546.094-.086.085-.444-.111-.777a.85.85 0 0 0-1.092-.469 3.525 3.525 0 0 0-.547.358 4.079 4.079 0 0 0-.443.495 2.821 2.821 0 0 0-.401 1.186 2.704 2.704 0 0 0 .742 2.083c.316.34.685.629 1.092.853.433.206.915.285 1.392.231l.358-.069.316-.119a2.06 2.06 0 0 0 .614-.299c.205-.121.389-.274.546-.452l.239-.273c.069-.111.128-.222.18-.325a2.489 2.489 0 0 0 .204-1.706 2.562 2.562 0 0 0-1.647-1.861 2.913 2.913 0 0 0-1.954-.043c-.132.046-.26.1-.384.163a1.316 1.316 0 0 0-.222.213.45.45 0 0 0-.068.247.91.91 0 0 0 .128.512c.042.086.085.171.128.239.222.25.523.416.853.47.18-.004.358.022.529.077.145 0 .214.076.29.076.077 0 .06.137.111.128a.461.461 0 0 1 .214.35l.008.034Zm-11.12 8.202c.051.042.068.119-.068.273l-.06.051h-.051a.215.215 0 0 1-.222.068.462.462 0 0 1-.273-.239.232.232 0 0 1-.028-.148.234.234 0 0 1 .07-.133c.103-.103.18-.051.316-.222a1.057 1.057 0 0 0-.153-.623c-.137-.239-.444-.538-.726-.35a1.424 1.424 0 0 0-.768 1.289 1.46 1.46 0 0 0 .597 1.237 1.846 1.846 0 0 0 1.545.461 2.043 2.043 0 0 0 1.195-.999c.158-.295.215-.633.162-.964a1.603 1.603 0 0 0-.853-1.092 1.952 1.952 0 0 0-1.135-.299.861.861 0 0 0-.256.06c-.299.128-.282.341-.163.64a1.558 1.558 0 0 0 .555.7c.205.119.222.196.222.239v.059a.053.053 0 0 1 .03-.009c.011 0 .021.003.03.009l.034-.008ZM231.24 398.984c-3.559 1.306-7.134 2.56-10.761 3.619-1.315.401-2.663.717-3.986 1.092a93.354 93.354 0 0 1-14.295 2.731c-2.14.229-4.291.334-6.443.316-2.748 0-5.479-.273-8.227-.359-.854 0-.777.171-.086.512.473.235.96.437 1.46.606a7.394 7.394 0 0 0 2.15.444c2.839.257 5.693.277 8.535.06a66.625 66.625 0 0 0 8.534-1.127c3.362-.657 6.827-1.365 10.241-2.287 3.712-1.007 7.365-2.193 10.984-3.465 2.227-.785 4.446-1.604 6.656-2.415 3.354-1.229 6.691-2.56 10.037-3.67a64.985 64.985 0 0 1 7.826-2.15c.58-.103 1.143-.222 1.706-.299 2.16-.333 2.817-.444 3.278-.853a2.85 2.85 0 0 0 .315-.265c.103-.136-.068-.247-.486-.375a4.874 4.874 0 0 0-.811-.154 7.298 7.298 0 0 0-1.126 0 36.492 36.492 0 0 0-7.442 1.545c-2.458.717-4.899 1.57-7.331 2.449-3.602 1.297-7.16 2.748-10.77 4.02l.042.025Z"/>
  <path fill="#231F20" d="M233.451 399.138s18.417-12.802 27.719-7.681l-27.719 7.681Zm15.225-187.251 1.391 1.221c.478.384.922.776 1.382 1.169.333.29.572.648.854.939.281.29.529.537.793.802.269.265.517.551.743.853.222.299.512.555.725.854.214.298.401.623.606.939.15.293.276.599.376.913a3.7 3.7 0 0 1 .256.947c.043.418.119.853.171 1.246.015.209.044.417.085.623.062.221.151.433.264.632.154.256.53.238.99 0 .274-.144.527-.325.751-.538.211-.22.338-.507.359-.811a9.76 9.76 0 0 0-2.236-5.752c-.41-.469-.777-.956-1.178-1.408a11.567 11.567 0 0 0-1.203-1.357 27.96 27.96 0 0 0-2.953-2.501c-.614-.469-1.237-.938-1.835-1.416a19.429 19.429 0 0 1-2.56-2.339 12.911 12.911 0 0 1-1.374-2.159 3.83 3.83 0 0 1-.248-.486 1.056 1.056 0 0 0-.469-.572 1.14 1.14 0 0 0-.632-.077h-.29c-.222 0-.537.478-.426 1.084l.179.657c.077.205.17.41.264.615.171.417.383.817.632 1.194.256.367.512.751.802 1.093l.896.99c.939.904 1.852 1.835 2.765 2.688l.12-.043Z"/>
  <path fill="#231F20" d="M237.76 321.809c.436-4.114.939-8.219 1.477-12.332l.631-4.489a586.211 586.211 0 0 0 1.869-15.891c.248-2.347.504-4.72.709-7.067.307-3.019.376-6.058.205-9.089-.069-.938-.273-.802-.487 0a26.472 26.472 0 0 0-.597 3.96 140.12 140.12 0 0 1-.427 4.566c-.162 1.528-.299 3.047-.461 4.575-.347 3.049-.694 6.113-1.041 9.191-.427 3.678-1.041 7.493-1.562 11.257a860.425 860.425 0 0 0-1.613 12.426c-.298 2.56-.589 5.12-.853 7.68a232.7 232.7 0 0 0-.854 11.667 75.118 75.118 0 0 0 0 8.978c0 .666.12 1.314.205 1.98.393 2.466.854 3.192 1.297 3.61.091.1.191.192.299.273.316.145.214-.854.068-2.603-.273-2.56-.281-5.257-.298-7.98-.017-2.722.111-5.496.298-8.278.256-4.13.658-8.287 1.127-12.426l.008-.008Zm-.118 109.751c-.247-2.006-.537-4.02-.734-6.043-.085-.734-.085-1.476-.162-2.21-.273-2.603-.597-5.206-.768-7.817a77.758 77.758 0 0 1-.179-3.474c0-1.485-.171-2.97-.307-4.446-.103-.922-.854.247-1.127 1.963a37.172 37.172 0 0 0-.051 9.14c.196 1.826.162 3.738.324 5.607.162 2.057.376 4.113.615 6.162l.46 3.78c.239 1.903.521 3.815.717 5.701.154 1.477.214 2.927.333 4.387 0 .324.06.64.103.956.196 1.194.401 1.553.904 1.707.106.056.217.098.333.128.367.068.606-.461.666-1.349a30.553 30.553 0 0 0 0-4.037c-.043-1.357-.205-2.722-.359-4.087-.23-2.032-.469-4.071-.708-6.102l-.06.034Z" opacity=".35"/>
  <path fill="#231F20" d="M244.939 323.686c-.068-4.207.086-8.44.376-12.673.102-1.545.281-3.09.401-4.626.393-5.428 1.101-10.872 1.579-16.351.17-2.424.444-4.856.58-7.289.171-3.098.196-6.349-.913-9.345-.367-.921-.469-.725-.418.111.051.837.077 2.313.077 4.045a60.575 60.575 0 0 1-.683 9.311c-.401 3.158-.691 6.273-1.024 9.456-.376 3.79-1.05 7.732-1.357 11.641-.359 4.267-.623 8.594-.683 12.921 0 2.654 0 5.317.188 7.971.264 4.011.572 8.014.776 11.948.081 3.08.32 6.153.717 9.208.094.675.162 1.332.29 2.006.133.896.373 1.773.717 2.611.155.432.458.794.854 1.025.128.1.265.188.409.264.384.137.53-.947.316-2.748-.333-2.671-.683-5.419-.93-8.193-.137-1.374-.179-2.808-.265-4.267-.085-1.459-.162-2.867-.247-4.267l-.435-6.418a99.91 99.91 0 0 1-.265-6.358l-.06.017Zm5.957.794c-.256-3.67-.436-7.348-.401-11.026 0-1.34.102-2.68.145-4.02l.409-7.126c.12-2.39.205-4.771.273-7.16.052-2.117.154-4.267.171-6.341.043-2.697.068-5.411-.094-8.099-.059-.854-.273-.726-.503 0a14.38 14.38 0 0 0-.581 3.567c-.281 5.488-.401 10.958-.606 16.488-.093 3.303-.554 6.717-.708 10.147-.171 3.756-.136 7.511.051 11.257.12 2.304.308 4.6.512 6.896.316 3.473.76 6.947 1.187 10.378.298 2.671.597 5.291.853 7.928.077.589.145 1.152.213 1.707.291 2.167.564 2.825 1.076 3.217.106.102.223.19.35.265.367.153.52-.777.401-2.373-.427-4.728-1.11-9.669-1.707-14.628-.427-3.686-.811-7.39-1.05-11.094l.009.017Z"/>
  <path fill="#231F20" d="M241.482 341.506c.597.247 1.203.486 1.818.691.614.205 1.22.418 1.852.589.445.157.898.291 1.357.401 1.625.383 3.289.575 4.958.572h1.109l1.11-.102c.477-.066.95-.157 1.417-.274.46-.141.902-.339 1.314-.588.264-.154.102-.359-.231-.504a1.941 1.941 0 0 0-1.263-.128 21.345 21.345 0 0 1-5.248.196 10.818 10.818 0 0 1-1.63-.256c-.546-.128-1.084-.315-1.63-.452l-1.767-.563c-.58-.222-1.169-.427-1.707-.675-.537-.247-1.408-.605-2.082-.964a22.81 22.81 0 0 1-2.987-1.784 16.106 16.106 0 0 1-1.937-1.783 5.931 5.931 0 0 0-.419-.393c-.52-.469-.776-.537-1.169-.384a2.427 2.427 0 0 0-.273.103c-.264.136-.239.529.06 1.041a10.792 10.792 0 0 0 3.857 3.524 31.402 31.402 0 0 0 3.508 1.784l-.017-.051Zm.129-12.759c1.067.478 2.151.905 3.243 1.297.401.145.785.316 1.195.444 1.431.437 2.895.756 4.378.956l1.963.29 1.263.154a5.83 5.83 0 0 0 1.272-.077c.264-.043.222-.393 0-.751a1.537 1.537 0 0 0-1.042-.768c-1.595-.171-3.149-.512-4.796-.7a14.137 14.137 0 0 1-2.884-.853 39.098 39.098 0 0 1-3.115-1.246c-.623-.291-1.255-.581-1.861-.914a25.31 25.31 0 0 1-2.705-1.595c-.657-.478-1.263-.999-1.869-1.52l-.401-.349c-.512-.402-.76-.436-1.144-.163a2.79 2.79 0 0 0-.264.18c-.257.239-.214.631.11 1.024a13.333 13.333 0 0 0 3.525 2.987 37.26 37.26 0 0 0 3.107 1.664l.025-.06Zm2.978-11.828a20.23 20.23 0 0 1-2.125-.914c-.256-.119-.486-.298-.734-.426-.896-.461-1.792-.93-2.654-1.477a9.024 9.024 0 0 1-1.067-.853 6.73 6.73 0 0 0-1.323-1.092c-.333-.171-.853 1.058-.375 1.57a11.794 11.794 0 0 0 2.953 2.176c.648.341 1.263.802 1.911 1.169.649.367 1.477.76 2.228 1.093.469.196.947.384 1.425.563.717.273 1.476.452 2.21.674.559.191 1.129.348 1.707.469.126.036.254.058.384.069.504 0 .666-.06.785-.359a.916.916 0 0 0 .069-.205c.059-.221-.12-.443-.436-.571-.469-.18-.938-.401-1.399-.598-.461-.196-.947-.341-1.425-.52l-2.125-.854-.009.086Zm-1.537-26.465c.536.271 1.089.507 1.656.708.199.097.404.179.614.248.754.217 1.53.348 2.313.392l1.041.094c.465.074.942-.007 1.357-.23.136-.077 0-.41-.205-.726-.205-.315-.435-.631-.606-.606-.64.043-1.331 0-2.125-.042a4.266 4.266 0 0 1-1.365-.436c-.495-.204-.999-.401-1.494-.64-.299-.153-.606-.298-.853-.478a9.782 9.782 0 0 1-1.289-.853 6.35 6.35 0 0 1-.794-.853 1.696 1.696 0 0 0-.162-.197c-.23-.222-.367-.222-.657-.059l-.196.11a.508.508 0 0 0-.162.641 5.35 5.35 0 0 0 1.45 1.945c.455.398.957.739 1.494 1.016l-.017-.034Zm13.373 137.794c.454-2.61.74-5.247.853-7.894.052-.964.128-1.92.137-2.876.06-3.414-.137-6.751-.324-10.105a157.297 157.297 0 0 1-.18-4.463c-.059-1.895-.076-3.789-.204-5.684-.043-.589-.231-.512-.427 0a7.803 7.803 0 0 0-.452 2.518c-.086 3.891-.001 7.757.11 11.649.077 2.321 0 4.745-.128 7.109a62.163 62.163 0 0 1-.793 7.749 81.966 81.966 0 0 1-.896 4.737 167.47 167.47 0 0 1-1.707 7.134c-.47 1.835-1.024 3.619-1.468 5.454-.112.396-.203.798-.273 1.203-.265 1.536-.197 2.048.17 2.441.077.085.154.196.222.256.239.179.683-.384.973-1.459.529-1.588.913-3.235 1.357-4.908l1.297-5.12c.632-2.56 1.229-5.121 1.707-7.758l.026.017Zm-6.34.495.222-3.823a96.04 96.04 0 0 0 .197-3.875c0-.938.111-1.886.119-2.824 0-3.32-.043-6.632-.119-9.934 0-1.46 0-2.936-.043-4.387 0-1.869 0-3.738-.171-5.607-.051-.58-.247-.495-.461 0a7.68 7.68 0 0 0-.537 2.475c-.231 3.815-.154 7.621-.077 11.453.051 2.287-.111 4.668-.231 6.998-.128 2.56-.358 5.121-.554 7.681l-.316 4.762c-.179 2.398-.341 4.813-.666 7.169a50.101 50.101 0 0 1-1.058 5.359l-.282 1.152c-.324 1.451-.358 1.921 0 2.356.063.103.135.2.214.29.256.239.7-.282 1.135-1.34a26.43 26.43 0 0 0 1.425-4.95 48.12 48.12 0 0 0 .743-5.197c.247-2.56.384-5.197.546-7.775l-.086.017Zm-5.65-1.229-.478-6.332c-.06-.768-.069-1.545-.137-2.313-.205-2.705-.486-5.411-.666-8.116-.085-1.203-.11-2.415-.136-3.61 0-1.536 0-3.072-.12-4.609-.093-.955-1.305.256-1.357 2.04a85.945 85.945 0 0 0 .367 9.465c.18 1.894.214 3.866.333 5.794l.427 6.376c.077 1.305.162 2.611.222 3.925.085 1.972.188 3.96.213 5.932 0 1.527-.094 3.021-.17 4.531l-.052 1.007c-.042 1.238.052 1.639.436 1.912.076.073.162.137.256.188.298.136.563-.367.691-1.28.362-2.807.525-5.636.486-8.466 0-2.142-.162-4.268-.273-6.418l-.042-.026Z"/>
  <path fill="#231F20" d="M242.25 412.921c.725.273 1.459.537 2.193.759.734.222 1.468.461 2.21.674.538.163 1.067.342 1.605.478 1.913.468 3.85.829 5.803 1.084l2.56.384c1.095.202 2.207.294 3.32.273.692 0-.119-1.092-1.331-1.305-2.185-.359-4.327-.854-6.537-1.17a29.962 29.962 0 0 1-3.969-1.007c-.717-.196-1.434-.435-2.15-.648-.717-.214-1.426-.487-2.125-.751-.854-.342-1.707-.674-2.561-1.076a23.654 23.654 0 0 1-3.644-2.031 10.764 10.764 0 0 1-1.22-1.015c-.41-.333-.751-.726-1.127-1.084-.153-.171-.316-.325-.469-.495-.546-.632-.854-.709-1.306-.589a1.814 1.814 0 0 0-.307.085c-.299.128-.273.581.077 1.195.136.222.281.444.435.657l.503.606c.332.414.7.797 1.101 1.144.823.684 1.699 1.3 2.62 1.843a36.006 36.006 0 0 0 4.267 2.023l.052-.034Zm1.067 14.935a63.381 63.381 0 0 0 3.952 1.476c.477.171.938.393 1.442.529 1.741.518 3.522.892 5.325 1.118.802.12 1.613.222 2.424.307a8.951 8.951 0 0 0 1.604 0c.287-.011.573-.045.854-.102.271-.085.536-.187.794-.307.324-.154.085-.581-.308-.965a2.037 2.037 0 0 0-1.323-.716 32.738 32.738 0 0 1-5.641-.504 12.05 12.05 0 0 1-1.766-.427c-.589-.196-1.169-.418-1.758-.606a64.282 64.282 0 0 1-3.824-1.433c-.768-.325-1.553-.649-2.304-1.025a39.343 39.343 0 0 1-1.707-.853 17.81 17.81 0 0 1-1.655-.947c-.854-.504-1.588-1.135-2.364-1.707-.171-.128-.325-.282-.504-.401-.666-.435-.956-.461-1.374-.171-.1.054-.194.117-.282.188-.273.247-.187.691.214 1.169a14.478 14.478 0 0 0 2.031 1.929 14.744 14.744 0 0 0 2.364 1.57c1.237.691 2.56 1.306 3.823 1.886l-.017-.008Zm5.231 9.524a17.808 17.808 0 0 1-3.175-.854c-.392-.119-.734-.341-1.118-.495a22.023 22.023 0 0 1-3.866-2.031 13.937 13.937 0 0 1-1.519-1.212 16.43 16.43 0 0 0-1.852-1.706c-.443-.299-.99 1.126-.315 1.903a16.137 16.137 0 0 0 4.267 3.285c.956.504 1.877 1.152 2.876 1.63.537.282 1.118.487 1.707.717.588.231 1.16.384 1.706.529l1.101.256 1.11.18c.566.08 1.135.132 1.707.153h3.021c.461 0 .853-.077 1.323-.119.196-.013.391-.047.58-.103.7-.222.853-.426.853-.93a2.272 2.272 0 0 0 0-.35c-.068-.367-.443-.589-.93-.589h-2.133c-.359 0-.709 0-1.059.043h-1.066c-.53 0-1.067-.077-1.605-.102a7.295 7.295 0 0 1-1.596-.273l-.017.068Zm-23.495-141.515a9.767 9.767 0 0 0 .853-2.714 6.24 6.24 0 0 0-.401-2.996c-.666-1.707-1.383-3.081-1.989-4.6a32.582 32.582 0 0 1-1.075-3.286 12.512 12.512 0 0 1-.299-5.854 12.105 12.105 0 0 1 2.637-5.3 19.762 19.762 0 0 1 4.122-3.576c1.972-1.288 4.131-2.304 6.231-3.413.648-.359.426-.649-.299-.717a6.758 6.758 0 0 0-3.26.657 29.442 29.442 0 0 0-6.478 4.054c-.495.418-.947.904-1.425 1.357-.478.452-.853.998-1.263 1.536a12.813 12.813 0 0 0-1.767 3.618 14.928 14.928 0 0 0-.665 4.805c.027.811.116 1.618.264 2.415l.231 1.187c.111.384.239.759.358 1.135a41.216 41.216 0 0 0 1.929 4.719c.341.76.691 1.502.939 2.21.251.659.316 1.373.187 2.066a10.695 10.695 0 0 1-1.032 2.654c-.47.853-.982 1.766-1.502 2.646-.794 1.331-1.605 2.671-2.347 4.07a13.137 13.137 0 0 0-1.613 4.592 8.745 8.745 0 0 0 .461 3.849 15.33 15.33 0 0 0 1.706 3.311c.279.456.581.898.905 1.323 1.195 1.604 1.775 1.929 2.424 1.937.147.013.296.013.444 0 .401-.094.179-.947-.589-2.133a27.103 27.103 0 0 1-2.774-5.411 6.51 6.51 0 0 1 .384-5.317c.615-1.391 1.451-2.816 2.27-4.267.82-1.451 1.707-2.919 2.458-4.498l-.025-.059Zm15.943 6.921c.572.239 1.144.452 1.707.64.213.068.409.179.623.23.767.192 1.549.312 2.338.359.342.042.691.077 1.033.145.433.136.898.136 1.331 0 .137-.06.077-.478-.06-.854-.136-.375-.332-.802-.537-.802-.734-.042-1.477-.085-2.296-.068a4.278 4.278 0 0 1-1.425-.376 16.346 16.346 0 0 1-1.545-.571c-.307-.145-.623-.282-.922-.453a7.827 7.827 0 0 1-1.322-.853 6.712 6.712 0 0 1-.777-.922c-.06-.068-.102-.145-.162-.213-.214-.231-.376-.213-.751.085a2.984 2.984 0 0 0-.256.205.705.705 0 0 0-.273.811 4.32 4.32 0 0 0 1.647 1.809c.516.344 1.055.652 1.613.922l.034-.094Z"/>
  <path fill="#231F20" d="M221.784 297.435a13.8 13.8 0 0 0 1.818-4.404 5.22 5.22 0 0 0-.299-2.5c-.264-.76-.58-1.46-.853-2.151a105.663 105.663 0 0 1-1.263-3.055 19.187 19.187 0 0 1-1.425-5.505 11.718 11.718 0 0 1 .853-5.539 13.391 13.391 0 0 1 2.876-4.139 31.57 31.57 0 0 1 5.215-3.951c.571-.367.409-.478-.18-.342a8.55 8.55 0 0 0-2.714 1.255 18.91 18.91 0 0 0-5.001 4.813 11.958 11.958 0 0 0-2.082 6.683 21.332 21.332 0 0 0 1.937 8.252c.572 1.426 1.306 2.817 1.707 4.191.22.665.273 1.374.154 2.065a9.01 9.01 0 0 1-.734 2.057c-.811 1.664-1.801 3.268-2.765 4.89a40.586 40.586 0 0 0-2.066 3.789 9.305 9.305 0 0 0-.99 4.267c.027.576.11 1.148.248 1.707.151.545.342 1.079.572 1.596.111.256.213.512.341.759l.418.726c.261.483.546.953.854 1.408.256.41.537.785.853 1.178 1.093 1.442 1.57 1.792 1.997 1.937a2 2 0 0 0 .29.085c.256 0-.068-.665-.853-1.706a30.436 30.436 0 0 1-2.961-4.984 12.26 12.26 0 0 1-.487-1.323 7.33 7.33 0 0 1-.213-1.349c-.056-.93.09-1.862.426-2.731a24.288 24.288 0 0 1 1.946-3.994l2.322-3.977.059-.008Zm76.289 5.675 4.019 8.253c.495.998.939 2.022 1.442 3.021 1.767 3.516 3.585 7.015 5.573 10.429a69.858 69.858 0 0 0 2.757 4.497 23.815 23.815 0 0 0 2.074 2.723 5.81 5.81 0 0 0 3.021 1.954c.418.068.606-.06.589-.188-.017-.128-.197-.307-.418-.537-.453-.436-.982-1.17-1.801-2.014a33.465 33.465 0 0 1-3.832-5.334 214.468 214.468 0 0 1-3.414-5.855c-1.348-2.364-2.56-4.958-3.746-7.467l-4.011-8.321-2.467-5.121c-1.237-2.56-2.56-5.163-3.815-7.723-.973-1.989-1.911-3.96-2.978-5.88-.239-.427-.452-.854-.708-1.264-.965-1.544-1.392-1.962-1.835-2.133a1.328 1.328 0 0 0-.299-.111c-.265 0 0 .674.555 1.86l2.56 5.386c.853 1.826 1.792 3.669 2.697 5.521 1.323 2.765 2.663 5.547 3.994 8.321l.043-.017Zm-140.431-64.749-.153-.521a2.147 2.147 0 0 1 1.485-2.62 2.175 2.175 0 0 1 2.628 1.485l.154.521a2.152 2.152 0 0 1-1.485 2.62 2.18 2.18 0 0 1-2.629-1.485Zm5.018-103.82c-2.748 0-2.756-4.267 0-4.267 2.757 0 2.748 4.267 0 4.267Zm-54.989-40.952a3.532 3.532 0 0 0-1.766 2.202 3.236 3.236 0 0 0 1.067 3.038 2.132 2.132 0 0 0 2.995-3.013l-.196-.205c.196.273.239.316.128.137.175.333.218.72.119 1.084-.17.341-.213.444-.128.29.086-.154 0-.068-.179.222.162-.154.111-.12-.145.085l.239-.153a2.141 2.141 0 0 0 .988-1.3 2.118 2.118 0 0 0-.22-1.62 2.133 2.133 0 0 0-2.919-.767h.017Zm.81 8.628a3.866 3.866 0 0 0-2.202 2.364 3.474 3.474 0 0 0 .956 3.414 2.14 2.14 0 0 0 3.021 0 2.136 2.136 0 0 0 0-3.021c-.188-.197 0 0 .043.076-.171-.222 0 0 .068.154s0 .512 0 .222v.341c-.154.307-.179.393-.102.239.076-.153-.308.29-.111.137.051 0 .281-.256 0-.052-.282.205 0 0 .085 0l.341-.162a2.138 2.138 0 0 0 .769-2.918 2.205 2.205 0 0 0-2.919-.768l.051-.026Zm-.034-19.1a3.947 3.947 0 0 0-2.885 3.414 3.638 3.638 0 0 0 2.108 3.465 2.186 2.186 0 0 0 2.919-.768 2.148 2.148 0 0 0-.768-2.919c-.051 0-.393-.162-.41-.23l.214.153c-.12-.136-.12-.128 0 0 .119.128.119.154 0 0l.128.29c-.137-.375 0 .504 0 .103v.341c.042-.153.051-.162 0 0-.086.188-.043.154 0 0l-.18.23a1.07 1.07 0 0 1 .137-.136c.119-.102.06-.06-.162.128-.41.12.333-.239 0 0a2.127 2.127 0 0 0 1.527-.92 2.137 2.137 0 0 0 .296-1.758 2.13 2.13 0 0 0-2.03-1.576 2.13 2.13 0 0 0-.894.183Z" opacity=".35"/>
  <path fill="#231F20" d="M138.038 201.142c.37 2.201.79 4.39 1.28 6.569.179.794.424 1.57.603 2.364.671 2.797 1.376 5.589 2.18 8.331.373 1.222.832 2.426 1.293 3.593a44.532 44.532 0 0 1 1.689 4.602c.14.497-.182.546-.663.273a4.274 4.274 0 0 1-1.53-1.724 45.07 45.07 0 0 1-1.918-4.665 39.034 39.034 0 0 1-1.451-4.875c-.452-1.974-1.116-3.971-1.622-5.986a122.6 122.6 0 0 1-1.468-6.668c-.27-1.375-.505-2.754-.772-4.121-.381-2.095-.543-4.261-.758-6.332a41.866 41.866 0 0 0-.782-4.708c-.082-.335-.154-.665-.228-1.004-.256-1.251-.273-1.65.072-2.069.083-.089.149-.199.23-.27.266-.229.744.193 1.141 1.137a18.612 18.612 0 0 1 1.206 4.413c.233 1.51.423 3.028.558 4.522.114 1.107.23 2.176.422 3.269.191 1.093.357 2.215.562 3.321l-.044.028Zm43.349-25.807c2.057-1.647 6.827-4.412 9.26-1.895 2.432 2.518-.581 6.905-2.373 8.885-3.166 3.516-8.219 7.68-5.061 12.699.598.955 3.209 0 2.501-1.152-4.626-7.408 11.768-12.213 8.167-20.44-2.432-5.547-11.095-1.707-14.261.794-1.442 1.152.777 1.911 1.767 1.109Zm7.739 25.603a.961.961 0 0 1 .094-.854c.333-.52-.29-.759-.725-.759a2.317 2.317 0 0 0-1.801.734 1.839 1.839 0 0 0-.281 1.57c.145.546 1.152.393 1.527.29.376-.102 1.34-.469 1.186-1.015v.034Zm151.777 34.658c3.038-.521 10.54-.239 9.729 4.548-.657 3.875-6.196 4.959-9.191 5.974-3.926 1.366-7.989 3.32-7.639 8.074.086 1.135 2.817.503 2.723-.726-.35-4.702 5.376-5.59 8.782-6.767 2.773-.965 5.59-2.313 7.202-4.908 4.336-6.946-6.827-8.85-11.325-8.064-1.425.247-2.133 2.167-.281 1.843v.026Zm-4.745 25.696c.03-.114.07-.226.12-.333.068-.094.085-.119.042-.051-.042.068-.076.06.052 0 .375-.205.802-.751.247-1.024a2.69 2.69 0 0 0-3.175 1.784c-.221.964 2.51.537 2.714-.359v-.017Z"/>
  <path fill="#FD9E28" d="M111.939 86.275a2.11 2.11 0 0 1-.213 1.237c-.16.31-.387.578-.666.786-.167.164-.36.3-.572.4a1.927 1.927 0 0 1-1.348.069 1.992 1.992 0 0 1-.965-.708 4.343 4.343 0 0 1-.494-.803 1.23 1.23 0 0 1-.06-1.195c.077-.119.452 0 .853.154a5.9 5.9 0 0 1 .751.282c.068.23.171.46.231.691.059.23.17.077.332 0a.92.92 0 0 0 .41-.401.283.283 0 0 0 .034-.137.283.283 0 0 0-.034-.136.331.331 0 0 0-.418-.154c-.128.086-.162.273-.179.487a.27.27 0 0 1 0 .12c0 .153-.282.085-.734-.06l-.307-.111a.9.9 0 0 1-.649-.658 1.452 1.452 0 0 1 .572-1.22 2.19 2.19 0 0 1 1.707-.495 2.254 2.254 0 0 1 1.86 1.86l-.111-.008Zm-.266 9.805c.04.38-.01.763-.145 1.119a1.788 1.788 0 0 1-.734.93 1.368 1.368 0 0 1-.35.222.972.972 0 0 1-.478.128 1.862 1.862 0 0 1-1.366-.316 2.156 2.156 0 0 1-.725-.921 3.51 3.51 0 0 1-.29-.922 1.234 1.234 0 0 1 .367-1.23c.119-.093.341.154.555.402.213.247.486.444.495.478.05.295.139.581.264.853.051.188.213.171.333.137a.386.386 0 0 0 .333-.359 1.058 1.058 0 0 0-.077-.503.733.733 0 0 0-.188-.282c-.068-.068-.068 0-.094 0-.069.17-.101.354-.094.538.004.054.004.108 0 .162-.051.196-.196.213-.674.12l-.324-.06c-.359-.069-.615-.265-.649-.53a1.152 1.152 0 0 1 0-.588c.051-.233.153-.452.299-.64a1.7 1.7 0 0 1 .29-.333c.148-.112.305-.212.47-.299.213-.082.437-.134.665-.153.223.008.444.045.657.11.46.172.846.498 1.093.922.188.323.313.68.367 1.05v-.034Zm-.003 9.303c.039.379-.01.762-.145 1.118-.131.385-.39.713-.734.93a1.307 1.307 0 0 1-.35.222.973.973 0 0 1-.401.137 1.859 1.859 0 0 1-1.365-.316 2.177 2.177 0 0 1-.726-.93 3.424 3.424 0 0 1-.29-.922 1.227 1.227 0 0 1 .367-1.22c.12-.094.342.153.555.392.213.239.486.453.495.487.052.294.141.581.264.853.052.188.214.162.333.137a.383.383 0 0 0 .333-.359c.016-.174-.01-.35-.077-.512a.638.638 0 0 0-.187-.273c-.069-.068-.069 0-.094 0-.069.174-.101.36-.094.546a.99.99 0 0 1 0 .154c-.051.205-.196.222-.674.128l-.325-.06c-.358-.077-.614-.264-.648-.529a1.153 1.153 0 0 1 0-.589 1.56 1.56 0 0 1 .298-.64 1.71 1.71 0 0 1 .291-.333 3.32 3.32 0 0 1 .469-.307c.214-.079.438-.128.666-.145.223.004.445.041.657.111.452.174.829.5 1.067.922.188.323.313.679.367 1.049l-.052-.051Z"/>
</svg>
