<svg xmlns="http://www.w3.org/2000/svg" width="327" height="410" fill="none" viewBox="0 0 327 410">
  <g clip-path="url(#a)">
    <g clip-path="url(#b)">
      <path fill="#131729" d="M.664 1h327.2v409H.664z"/>
      <path fill="#04091C" d="M.664 1h327.2v409H.664z"/>
      <g filter="url(#c)" opacity=".6">
        <circle cx="25.102" cy="265.796" r="147.854" fill="#FD9E28"/>
      </g>
      <path fill="#fff" d="M61.991 41.39a.606.606 0 0 1-.136.418c-.089.1-.245.177-.47.23-.221.052-.527.078-.917.078a8.3 8.3 0 0 1-.911-.053 6.94 6.94 0 0 1-.806-.136l.102-.571a8.325 8.325 0 0 0 1.804.203c.273 0 .452-.013.536-.038.084-.026.126-.076.126-.151 0-.068-.02-.112-.06-.133a.537.537 0 0 0-.213-.05l-1.32-.076c-.363-.017-.622-.083-.778-.2-.157-.117-.235-.29-.235-.518 0-.267.124-.458.371-.575.248-.119.65-.178 1.205-.178.22 0 .481.016.785.049.306.03.573.07.802.119l-.116.536a8.43 8.43 0 0 0-1.636-.148c-.315 0-.517.012-.605.035-.09.021-.134.07-.134.144 0 .063.023.105.067.126a.738.738 0 0 0 .242.042l1.303.077c.343.019.594.09.753.214.16.124.241.31.241.557Zm4.756.432c-.313.198-.81.297-1.492.297-.682 0-1.18-.099-1.492-.297-.313-.201-.47-.516-.47-.946 0-.43.157-.744.47-.942.313-.201.81-.301 1.492-.301.681 0 1.179.1 1.492.3.313.2.47.513.47.943 0 .43-.157.745-.47.946Zm-1.492-.312c.471 0 .795-.047.97-.14.177-.094.266-.258.266-.494s-.089-.4-.266-.494c-.175-.093-.499-.14-.97-.14-.474 0-.801.048-.981.144-.18.093-.27.256-.27.49 0 .233.09.398.27.494.18.093.507.14.98.14Zm3.928.56h-.711v-2.388h3.187v.61h-2.476v.437h2.41v.56h-2.41v.781Zm5.176-1.779H72.94v-.61h3.545v.61H75.07v1.78h-.711v-1.78Zm4.374 1.779-1.065-2.388h.802l.739 1.74.855-1.74h.847l.876 1.74.721-1.74h.802l-1.064 2.388h-.911l-.844-1.698-.848 1.698h-.91Zm8.342 0-.287-.462h-1.765l-.29.462h-.855l1.558-2.388h.946l1.555 2.388h-.862Zm-1.744-.956h1.145l-.57-.917-.575.917Zm4.518.956h-.711v-2.388h2.392c.665 0 .998.277.998.833 0 .502-.28.775-.84.82l-.155.003.19.116.784.616h-.893l-.858-.693h-.907v.693Zm0-1.779v.553h1.61c.117 0 .202-.02.253-.063.054-.042.08-.112.08-.21 0-.105-.025-.177-.077-.217-.05-.042-.136-.063-.255-.063h-1.611Zm7.228 1.779h-3.188v-2.388h3.188v.556H94.6v.396h2.41v.46H94.6v.42h2.477v.556Z"/>
      <path fill="#fff" fill-rule="evenodd" d="M86.057 25.326c-.613 0-1.117-.177-1.512-.53a1.801 1.801 0 0 1-.572-1.35c0-.544.19-.994.572-1.348.395-.367.899-.551 1.512-.551.6 0 1.09.183 1.47.551.396.354.593.804.593 1.349 0 .53-.197.98-.592 1.348-.381.354-.872.531-1.471.531Zm1.736 12.585H84.3v-11.4h3.493v11.4ZM36.535 23.57v14.342h-3.494v-5.904h-5.434v5.904h-3.494V23.57h3.494v5.619h5.434V23.57h3.494Zm17.698 19.109v-6.36c.34.517.81.94 1.41 1.267.613.326 1.315.49 2.105.49a4.72 4.72 0 0 0 2.553-.715c.763-.49 1.362-1.178 1.798-2.064.45-.899.674-1.934.674-3.105 0-1.172-.224-2.2-.674-3.085-.436-.885-1.035-1.567-1.798-2.043a4.72 4.72 0 0 0-2.553-.715c-.804 0-1.506.163-2.105.49-.6.327-1.07.756-1.41 1.287v-1.614H50.74v16.167h3.493Zm-11.019 0 6.875-16.167h-3.78l-2.614 7.13-2.636-7.13h-3.902l4.638 11.012-2.324 5.155h3.743Zm15.269-12.53c.49.49.735 1.171.735 2.043 0 .872-.245 1.566-.735 2.084a2.39 2.39 0 0 1-1.777.756 2.39 2.39 0 0 1-1.778-.756c-.477-.504-.715-1.192-.715-2.064 0-.871.238-1.56.715-2.063a2.39 2.39 0 0 1 1.778-.756c.708 0 1.3.252 1.777.756Zm16.46 1.88c0 .326-.02.667-.06 1.02h-7.907c.055.71.28 1.254.674 1.635.409.368.906.552 1.492.552.871 0 1.478-.368 1.818-1.103h3.718a5.036 5.036 0 0 1-1.042 2.022c-.49.6-1.11 1.07-1.859 1.41-.749.34-1.587.51-2.513.51-1.117 0-2.11-.237-2.983-.714a5.087 5.087 0 0 1-2.043-2.043c-.49-.886-.735-1.92-.735-3.106 0-1.185.238-2.22.715-3.105a5.086 5.086 0 0 1 2.043-2.043c.872-.477 1.873-.715 3.003-.715 1.104 0 2.084.231 2.942.694a4.922 4.922 0 0 1 2.002 1.982c.49.858.736 1.86.736 3.003Zm-3.574-.92c0-.6-.205-1.076-.613-1.43-.409-.354-.92-.531-1.533-.531-.585 0-1.082.17-1.491.51-.395.341-.64.825-.736 1.451h4.373Zm9.627-4.168a4.511 4.511 0 0 0-1.533 1.471v-1.9H75.97v11.4h3.493V32.62c0-.94.218-1.594.654-1.961.436-.382 1.09-.572 1.961-.572h.96v-3.698c-.748 0-1.43.184-2.042.551Zm10.678 10.42c.899.477 1.907.715 3.023.715 1.117 0 2.125-.239 3.024-.715a5.255 5.255 0 0 0 2.145-2.043c.531-.9.797-1.934.797-3.106 0-1.171-.259-2.2-.776-3.085a5.25 5.25 0 0 0-2.125-2.063c-.899-.477-1.907-.715-3.024-.715s-2.124.238-3.023.715a5.25 5.25 0 0 0-2.125 2.063c-.518.886-.776 1.914-.776 3.085 0 1.185.251 2.22.755 3.106a5.324 5.324 0 0 0 2.105 2.043Zm4.72-3.044a2.243 2.243 0 0 1-1.697.735 2.18 2.18 0 0 1-1.675-.735c-.436-.49-.654-1.192-.654-2.105 0-.926.225-1.627.675-2.104.449-.49 1.014-.735 1.695-.735a2.18 2.18 0 0 1 1.676.735c.463.49.694 1.192.694 2.104 0 .913-.238 1.614-.715 2.105Z" clip-rule="evenodd"/>
      <path fill="#FD9E28" d="M84.545 24.795c.395.354.899.531 1.512.531.599 0 1.09-.177 1.47-.53.395-.369.593-.818.593-1.35 0-.544-.198-.994-.593-1.348-.38-.367-.871-.551-1.47-.551-.613 0-1.117.183-1.512.551-.382.354-.572.804-.572 1.349 0 .53.19.98.572 1.348Z"/>
      <path fill="#fff" d="M25.645 204.333v-11.288h2.387v4.657h4.845v-4.657h2.381v11.288h-2.38v-4.663h-4.846v4.663h-2.387Zm12.521 3.176a4.63 4.63 0 0 1-.838-.072 3.033 3.033 0 0 1-.639-.171l.53-1.753c.275.085.523.131.743.138a.949.949 0 0 0 .58-.154c.164-.111.299-.298.401-.563l.138-.358-3.037-8.709h2.47l1.752 6.218h.089l1.769-6.218h2.486l-3.29 9.382a3.944 3.944 0 0 1-.646 1.19 2.634 2.634 0 0 1-1.02.788c-.411.188-.907.282-1.488.282Zm7.18 0v-11.642h2.315v1.422h.105c.103-.228.252-.459.446-.695.199-.238.456-.437.772-.595.32-.162.717-.242 1.19-.242a3.18 3.18 0 0 1 1.71.485c.521.319.938.803 1.25 1.449.313.643.47 1.45.47 2.42 0 .945-.153 1.742-.458 2.392-.302.647-.713 1.138-1.235 1.472a3.167 3.167 0 0 1-1.742.496c-.455 0-.843-.075-1.163-.226a2.407 2.407 0 0 1-.777-.567 2.897 2.897 0 0 1-.463-.7h-.072v4.531h-2.348Zm2.299-7.409c0 .504.07.943.209 1.318.14.374.342.667.606.876.265.206.587.309.965.309.382 0 .706-.105.97-.315.265-.213.465-.507.601-.881.14-.379.21-.814.21-1.307 0-.489-.069-.919-.205-1.29-.136-.371-.336-.661-.6-.871-.265-.209-.59-.314-.976-.314-.382 0-.706.101-.97.303-.261.202-.461.489-.601.86-.14.371-.21.809-.21 1.312Zm10.916 4.399c-.87 0-1.62-.177-2.248-.529a3.625 3.625 0 0 1-1.445-1.511c-.338-.654-.507-1.427-.507-2.32 0-.871.17-1.636.507-2.293a3.744 3.744 0 0 1 1.428-1.538c.617-.368 1.341-.551 2.172-.551.558 0 1.078.09 1.56.27.485.176.907.442 1.268.799.363.356.646.805.848 1.345.203.536.304 1.165.304 1.885v.645h-7.15v-1.455h4.94c0-.338-.074-.638-.221-.899a1.58 1.58 0 0 0-.612-.612 1.751 1.751 0 0 0-.899-.226 1.81 1.81 0 0 0-.948.248 1.746 1.746 0 0 0-.64.656 1.855 1.855 0 0 0-.236.91v1.383c0 .419.077.781.231 1.086.158.305.38.541.667.706.287.165.627.248 1.02.248.261 0 .5-.037.717-.11a1.433 1.433 0 0 0 .909-.871l2.172.143c-.11.522-.336.978-.678 1.367-.338.386-.775.687-1.312.904-.533.213-1.148.32-1.846.32Zm4.953-.166v-8.466h2.277v1.477h.088c.154-.525.413-.922.777-1.191a2.042 2.042 0 0 1 1.257-.407 3.476 3.476 0 0 1 .739.082v2.084a2.993 2.993 0 0 0-.458-.088 4.068 4.068 0 0 0-.535-.039c-.345 0-.654.075-.926.226a1.668 1.668 0 0 0-.639.617c-.154.265-.231.57-.231.915v4.79h-2.349Zm5.886 0v-8.466h2.348v8.466H69.4Zm1.18-9.558c-.35 0-.649-.115-.899-.347a1.125 1.125 0 0 1-.37-.843c0-.324.124-.601.37-.833.25-.235.55-.352.899-.352s.646.117.893.352c.25.232.374.509.374.833 0 .327-.124.608-.374.843a1.254 1.254 0 0 1-.893.347Zm6.41 9.724c-.857 0-1.598-.182-2.222-.546a3.73 3.73 0 0 1-1.439-1.532c-.338-.658-.507-1.421-.507-2.288 0-.874.169-1.639.507-2.293a3.689 3.689 0 0 1 1.439-1.532c.624-.368 1.365-.551 2.221-.551.856 0 1.595.183 2.216.551a3.678 3.678 0 0 1 1.444 1.532c.338.654.507 1.419.507 2.293 0 .867-.169 1.63-.507 2.288a3.72 3.72 0 0 1-1.444 1.532c-.621.364-1.36.546-2.216.546Zm.01-1.819c.39 0 .715-.11.976-.331.26-.224.457-.529.59-.915a3.95 3.95 0 0 0 .203-1.317c0-.493-.068-.932-.204-1.318-.132-.386-.328-.691-.59-.915-.26-.224-.585-.336-.975-.336-.393 0-.724.112-.992.336-.265.224-.465.529-.6.915a4.053 4.053 0 0 0-.2 1.318c0 .492.067.931.2 1.317.135.386.335.691.6.915.268.221.599.331.992.331Zm15.874-5.986a2.457 2.457 0 0 0-.325-.711 2.193 2.193 0 0 0-1.196-.866 2.894 2.894 0 0 0-.844-.116c-.577 0-1.084.144-1.521.43-.434.287-.772.704-1.014 1.252-.243.543-.364 1.209-.364 1.995s.12 1.455.358 2.006c.239.552.577.972 1.014 1.263.438.286.954.43 1.55.43.54 0 1-.096 1.383-.287.386-.195.68-.468.882-.821.206-.353.309-.77.309-1.252l.485.072h-2.91v-1.797h4.723v1.422c0 .992-.21 1.845-.628 2.558a4.286 4.286 0 0 1-1.731 1.643c-.735.382-1.577.573-2.525.573-1.058 0-1.988-.234-2.789-.7a4.864 4.864 0 0 1-1.874-2.001c-.445-.867-.667-1.896-.667-3.087 0-.915.132-1.731.397-2.447a5.216 5.216 0 0 1 1.124-1.83 4.843 4.843 0 0 1 1.682-1.141 5.446 5.446 0 0 1 2.078-.392c.64 0 1.234.094 1.786.281.55.184 1.04.445 1.466.783.43.338.78.741 1.053 1.207.272.463.446.974.523 1.533h-2.425Zm3.813 7.639v-8.466h2.277v1.477h.088c.154-.525.413-.922.777-1.191a2.042 2.042 0 0 1 1.257-.407 3.478 3.478 0 0 1 .739.082v2.084a3.011 3.011 0 0 0-.458-.088 4.07 4.07 0 0 0-.535-.039c-.345 0-.654.075-.926.226a1.667 1.667 0 0 0-.64.617c-.154.265-.23.57-.23.915v4.79h-2.349Zm9.317.166c-.856 0-1.596-.182-2.221-.546a3.732 3.732 0 0 1-1.439-1.532c-.338-.658-.507-1.421-.507-2.288 0-.874.169-1.639.507-2.293a3.69 3.69 0 0 1 1.439-1.532c.625-.368 1.365-.551 2.221-.551.856 0 1.595.183 2.216.551a3.676 3.676 0 0 1 1.444 1.532c.338.654.507 1.419.507 2.293 0 .867-.169 1.63-.507 2.288a3.718 3.718 0 0 1-1.444 1.532c-.621.364-1.36.546-2.216.546Zm.011-1.819c.39 0 .715-.11.976-.331.261-.224.457-.529.59-.915a3.95 3.95 0 0 0 .204-1.317c0-.493-.068-.932-.204-1.318-.133-.386-.329-.691-.59-.915-.261-.224-.586-.336-.976-.336-.393 0-.724.112-.992.336-.265.224-.465.529-.601.915a4.062 4.062 0 0 0-.198 1.318c0 .492.066.931.198 1.317.136.386.336.691.601.915.268.221.599.331.992.331Zm6.676 1.653-2.304-8.466h2.375l1.312 5.688h.077l1.367-5.688h2.332l1.389 5.655h.072l1.29-5.655h2.37l-2.299 8.466h-2.486l-1.455-5.324h-.105l-1.455 5.324h-2.48Zm15.57-8.466v1.764h-5.099v-1.764h5.099Zm-3.941-2.029h2.348v7.894c0 .217.033.386.099.507.067.117.158.2.276.248.121.048.261.072.419.072.11 0 .22-.01.331-.028l.253-.05.37 1.748a6.562 6.562 0 0 1-.497.127 4.012 4.012 0 0 1-.777.093c-.566.022-1.062-.053-1.488-.226a2.07 2.07 0 0 1-.987-.805c-.235-.363-.351-.823-.347-1.378v-8.202Zm7.535 5.601v4.894h-2.348v-11.288h2.282v4.316h.099c.191-.5.5-.892.926-1.175.427-.286.961-.429 1.604-.429.588 0 1.101.128 1.538.385.441.254.783.62 1.026 1.097.246.474.367 1.042.363 1.704v5.39h-2.348v-4.971c.004-.522-.128-.928-.397-1.219-.264-.29-.635-.435-1.113-.435-.32 0-.603.068-.849.204a1.437 1.437 0 0 0-.573.595c-.136.257-.206.568-.21.932Zm12.43-6.394v11.288h-2.386v-11.288h2.386Zm3.803 6.394v4.894h-2.349v-8.466h2.238v1.494h.1c.187-.493.501-.882.942-1.169.441-.29.976-.435 1.604-.435.588 0 1.101.128 1.538.385.437.258.777.625 1.02 1.103.242.474.364 1.04.364 1.698v5.39h-2.349v-4.971c.004-.519-.128-.923-.396-1.213-.269-.294-.638-.441-1.108-.441-.316 0-.596.068-.838.204a1.42 1.42 0 0 0-.562.595c-.133.257-.201.568-.204.932Zm13.886-1.158-2.149.132a1.111 1.111 0 0 0-.238-.496 1.262 1.262 0 0 0-.479-.358 1.628 1.628 0 0 0-.7-.138c-.364 0-.671.077-.921.232-.25.15-.374.353-.374.606 0 .202.08.373.242.513.162.139.439.251.832.336l1.533.309c.823.169 1.437.441 1.841.815.404.375.606.868.606 1.478 0 .555-.163 1.042-.49 1.46-.324.419-.768.746-1.334.982-.563.231-1.211.347-1.946.347-1.121 0-2.014-.233-2.679-.7a2.728 2.728 0 0 1-1.163-1.918l2.309-.122c.07.342.239.603.508.783.268.176.611.265 1.03.265.412 0 .743-.079.993-.237.253-.162.382-.37.385-.623a.645.645 0 0 0-.27-.524c-.176-.14-.448-.246-.815-.32l-1.467-.292c-.827-.165-1.442-.452-1.846-.86-.401-.408-.601-.928-.601-1.56 0-.543.147-1.012.441-1.405.298-.393.715-.697 1.251-.91.54-.213 1.172-.319 1.896-.319 1.07 0 1.911.226 2.525.678.617.452.977 1.067 1.08 1.846Zm1.206 6.052v-8.466h2.348v8.466h-2.348Zm1.18-9.558c-.349 0-.649-.115-.899-.347a1.125 1.125 0 0 1-.369-.843c0-.324.123-.601.369-.833.25-.235.55-.352.899-.352s.647.117.893.352c.25.232.375.509.375.833 0 .327-.125.608-.375.843a1.254 1.254 0 0 1-.893.347Zm6.398 12.91c-.761 0-1.413-.105-1.957-.314-.54-.206-.97-.487-1.29-.844a2.592 2.592 0 0 1-.622-1.201l2.171-.292c.067.169.171.327.315.474.143.147.332.264.567.352.239.092.53.138.871.138.511 0 .932-.125 1.263-.375.334-.246.501-.659.501-1.24v-1.549h-.099a2.226 2.226 0 0 1-.463.667c-.206.21-.47.38-.794.513-.323.132-.709.198-1.157.198a3.478 3.478 0 0 1-1.737-.441c-.518-.297-.931-.751-1.24-1.361-.305-.614-.457-1.389-.457-2.326 0-.96.156-1.761.468-2.404.312-.643.728-1.124 1.246-1.444a3.216 3.216 0 0 1 1.714-.479c.474 0 .871.08 1.191.242.319.158.577.357.771.595.199.236.351.467.458.695h.088v-1.422h2.332v8.549c0 .72-.177 1.323-.529 1.808-.353.485-.842.849-1.467 1.092-.621.246-1.335.369-2.144.369Zm.05-5.237c.378 0 .698-.093.959-.281.264-.191.467-.463.606-.816.144-.356.215-.782.215-1.278 0-.497-.07-.926-.209-1.29-.14-.368-.342-.653-.607-.855-.264-.202-.586-.303-.964-.303-.386 0-.711.105-.976.314-.264.206-.465.493-.601.86a3.662 3.662 0 0 0-.204 1.274c0 .488.068.911.204 1.267.14.353.34.627.601.822.265.191.59.286.976.286Zm7.841-3.009v4.894h-2.348v-11.288h2.282v4.316h.099c.191-.5.5-.892.926-1.175.426-.286.961-.429 1.604-.429.588 0 1.101.128 1.538.385.441.254.783.62 1.025 1.097.246.474.368 1.042.364 1.704v5.39h-2.348v-4.971c.004-.522-.129-.928-.397-1.219-.265-.29-.636-.435-1.113-.435-.32 0-.603.068-.849.204a1.446 1.446 0 0 0-.574.595c-.136.257-.205.568-.209.932Zm11.376-3.572v1.764h-5.099v-1.764h5.099Zm-3.941-2.029h2.348v7.894c0 .217.033.386.099.507a.55.55 0 0 0 .276.248c.121.048.261.072.419.072.11 0 .22-.01.33-.028l.254-.05.369 1.748a6.514 6.514 0 0 1-.496.127 4.012 4.012 0 0 1-.777.093c-.566.022-1.062-.053-1.488-.226a2.07 2.07 0 0 1-.987-.805c-.235-.363-.351-.823-.347-1.378v-8.202Zm11.943 4.443-2.15.132a1.1 1.1 0 0 0-.237-.496 1.262 1.262 0 0 0-.479-.358 1.628 1.628 0 0 0-.7-.138c-.364 0-.671.077-.921.232-.25.15-.375.353-.375.606 0 .202.081.373.243.513.162.139.439.251.832.336l1.533.309c.823.169 1.437.441 1.841.815.404.375.606.868.606 1.478 0 .555-.163 1.042-.49 1.46-.324.419-.768.746-1.334.982-.563.231-1.211.347-1.946.347-1.121 0-2.014-.233-2.679-.7a2.728 2.728 0 0 1-1.163-1.918l2.309-.122c.07.342.239.603.508.783.268.176.611.265 1.03.265.412 0 .743-.079.992-.237.254-.162.383-.37.386-.623a.645.645 0 0 0-.27-.524c-.176-.14-.448-.246-.816-.32l-1.466-.292c-.827-.165-1.442-.452-1.846-.86-.401-.408-.601-.928-.601-1.56 0-.543.147-1.012.441-1.405.297-.393.715-.697 1.251-.91.54-.213 1.172-.319 1.896-.319 1.07 0 1.911.226 2.525.678.617.452.977 1.067 1.08 1.846Zm8.737 6.301c-.948-.004-1.764-.237-2.447-.701-.68-.463-1.204-1.133-1.571-2.011-.364-.879-.544-1.935-.54-3.17 0-1.231.182-2.28.545-3.147.368-.868.891-1.527 1.571-1.979.684-.456 1.498-.684 2.442-.684.945 0 1.757.228 2.437.684.683.455 1.209 1.117 1.576 1.984.368.864.549 1.911.546 3.142 0 1.238-.184 2.297-.551 3.175-.364.878-.886 1.549-1.566 2.012-.68.463-1.494.695-2.442.695Zm0-1.979c.647 0 1.163-.326 1.549-.976.386-.65.577-1.626.573-2.927 0-.856-.088-1.569-.264-2.139-.173-.569-.419-.997-.739-1.284a1.61 1.61 0 0 0-1.119-.43c-.643 0-1.157.322-1.543.965-.386.643-.581 1.606-.584 2.888 0 .867.086 1.591.259 2.172.176.577.424 1.01.744 1.301.319.286.694.43 1.124.43Zm10.221 1.979c-.948-.004-1.764-.237-2.447-.701-.68-.463-1.204-1.133-1.571-2.011-.364-.879-.544-1.935-.54-3.17 0-1.231.182-2.28.545-3.147.368-.868.892-1.527 1.571-1.979.684-.456 1.498-.684 2.442-.684.945 0 1.757.228 2.437.684.683.455 1.209 1.117 1.576 1.984.368.864.55 1.911.546 3.142 0 1.238-.184 2.297-.551 3.175-.364.878-.886 1.549-1.566 2.012-.68.463-1.494.695-2.442.695Zm0-1.979c.647 0 1.163-.326 1.549-.976.386-.65.577-1.626.573-2.927 0-.856-.088-1.569-.264-2.139-.173-.569-.419-.997-.739-1.284a1.61 1.61 0 0 0-1.119-.43c-.643 0-1.157.322-1.543.965-.386.643-.581 1.606-.584 2.888 0 .867.086 1.591.259 2.172.176.577.424 1.01.744 1.301.32.286.694.43 1.124.43Zm10.128 1.885a5.12 5.12 0 0 1-1.682-.292 3.836 3.836 0 0 1-1.444-.932c-.426-.43-.764-.999-1.014-1.709-.246-.709-.369-1.58-.369-2.612.003-.949.112-1.796.325-2.542.217-.749.525-1.385.926-1.907a4.042 4.042 0 0 1 1.45-1.19c.562-.276 1.192-.414 1.89-.414.754 0 1.419.147 1.996.441.577.29 1.04.686 1.389 1.185.353.5.566 1.06.639 1.682h-2.353a1.575 1.575 0 0 0-.579-.927c-.294-.224-.658-.336-1.092-.336-.735 0-1.293.32-1.675.959-.379.64-.572 1.509-.579 2.608h.077c.169-.335.397-.62.684-.855.29-.239.619-.421.986-.545a3.552 3.552 0 0 1 1.174-.193c.669 0 1.264.158 1.786.474.522.312.934.742 1.235 1.289.301.548.452 1.175.452 1.88 0 .764-.178 1.444-.535 2.04a3.706 3.706 0 0 1-1.482 1.4c-.633.334-1.368.5-2.205.496Zm-.011-1.874c.367 0 .696-.088.986-.265.291-.176.518-.415.684-.716.165-.302.248-.64.248-1.015a2.04 2.04 0 0 0-.248-1.008 1.833 1.833 0 0 0-1.654-.976c-.275 0-.531.051-.766.154a1.923 1.923 0 0 0-.612.43 2.058 2.058 0 0 0-.557 1.406 1.984 1.984 0 0 0 .932 1.72c.29.18.619.27.987.27Z"/>
      <path fill="#55A69E" d="M59.678 242.486h-7.4c-.21-1.213-.6-2.288-1.166-3.224a8.66 8.66 0 0 0-2.117-2.414 8.817 8.817 0 0 0-2.889-1.484c-1.068-.343-2.222-.514-3.462-.514-2.203 0-4.155.554-5.856 1.662-1.702 1.094-3.034 2.703-3.997 4.827-.962 2.11-1.444 4.689-1.444 7.735 0 3.1.481 5.712 1.444 7.835.976 2.11 2.309 3.706 3.997 4.788 1.701 1.068 3.647 1.602 5.836 1.602 1.214 0 2.348-.158 3.403-.475a9.302 9.302 0 0 0 2.869-1.444 8.486 8.486 0 0 0 2.156-2.334c.594-.924 1.003-1.979 1.227-3.166l7.4.04a15.943 15.943 0 0 1-1.801 5.421 15.989 15.989 0 0 1-3.581 4.471c-1.477 1.279-3.205 2.282-5.184 3.007-1.978.712-4.174 1.068-6.588 1.068-3.561 0-6.74-.824-9.536-2.473-2.796-1.648-4.999-4.029-6.608-7.142-1.609-3.112-2.413-6.845-2.413-11.198 0-4.365.81-8.098 2.433-11.197 1.622-3.113 3.832-5.494 6.628-7.142 2.796-1.649 5.961-2.473 9.496-2.473 2.256 0 4.353.316 6.292.949 1.938.633 3.666 1.563 5.183 2.79 1.517 1.213 2.763 2.704 3.74 4.471.988 1.754 1.635 3.759 1.938 6.014Zm15.76 27.441c-2.967 0-5.539-.653-7.715-1.959-2.176-1.305-3.865-3.132-5.065-5.48-1.187-2.348-1.78-5.091-1.78-8.23 0-3.139.593-5.889 1.78-8.25 1.2-2.361 2.889-4.194 5.065-5.5 2.176-1.306 4.748-1.959 7.716-1.959 2.967 0 5.54.653 7.716 1.959s3.858 3.139 5.045 5.5c1.2 2.361 1.8 5.111 1.8 8.25 0 3.139-.6 5.882-1.8 8.23-1.188 2.348-2.87 4.175-5.045 5.48-2.177 1.306-4.749 1.959-7.716 1.959Zm.04-5.737c1.61 0 2.955-.442 4.036-1.326 1.082-.897 1.886-2.097 2.414-3.601.54-1.503.811-3.178.811-5.025 0-1.86-.27-3.541-.811-5.045-.528-1.517-1.332-2.723-2.414-3.62-1.081-.897-2.426-1.346-4.036-1.346-1.648 0-3.02.449-4.115 1.346-1.081.897-1.892 2.103-2.433 3.62-.528 1.504-.792 3.185-.792 5.045 0 1.847.264 3.522.792 5.025.54 1.504 1.352 2.704 2.433 3.601 1.095.884 2.467 1.326 4.115 1.326Zm16.7 5.143v-30.388h6.846v5.164h.356c.633-1.741 1.682-3.1 3.146-4.076 1.464-.989 3.212-1.484 5.243-1.484 2.057 0 3.792.501 5.203 1.504 1.424.989 2.427 2.341 3.007 4.056h.317c.672-1.689 1.807-3.034 3.403-4.036 1.609-1.016 3.515-1.524 5.717-1.524 2.796 0 5.078.884 6.846 2.651 1.767 1.768 2.651 4.346 2.651 7.736v20.397h-7.182v-19.289c0-1.886-.501-3.264-1.504-4.135-1.002-.884-2.229-1.326-3.679-1.326-1.728 0-3.08.541-4.056 1.623-.963 1.068-1.445 2.46-1.445 4.174v18.953h-7.023v-19.586c0-1.569-.475-2.822-1.424-3.759-.937-.936-2.163-1.405-3.68-1.405a5.195 5.195 0 0 0-2.81.792c-.844.514-1.516 1.246-2.018 2.196-.5.936-.751 2.031-.751 3.284v18.478h-7.162Zm46.101 0v-30.388h7.161v30.388h-7.161Zm3.6-34.701c-1.134 0-2.11-.376-2.928-1.128-.818-.765-1.226-1.681-1.226-2.75 0-1.081.408-1.998 1.226-2.75.818-.765 1.794-1.147 2.928-1.147 1.148 0 2.124.382 2.928 1.147.818.752 1.227 1.669 1.227 2.75 0 1.069-.409 1.985-1.227 2.75-.804.752-1.78 1.128-2.928 1.128Zm14.188 16.896v17.805h-7.162v-30.388h6.846v5.164h.356a8.68 8.68 0 0 1 3.343-4.056c1.543-1.003 3.449-1.504 5.718-1.504 2.097 0 3.924.449 5.48 1.346 1.57.897 2.783 2.196 3.64 3.897.871 1.702 1.299 3.766 1.286 6.193v19.348h-7.162v-18.241c0-2.031-.527-3.62-1.582-4.768-1.042-1.147-2.487-1.721-4.333-1.721-1.253 0-2.368.277-3.344.831-.962.541-1.721 1.326-2.275 2.355-.541 1.028-.811 2.275-.811 3.739Zm36.104 29.834c-2.572 0-4.781-.349-6.628-1.048-1.846-.686-3.33-1.609-4.451-2.77-1.121-1.161-1.9-2.447-2.335-3.858l6.45-1.563c.29.594.712 1.181 1.266 1.761.554.593 1.299 1.081 2.236 1.464.949.396 2.143.593 3.581.593 2.031 0 3.712-.494 5.045-1.483 1.332-.976 1.998-2.586 1.998-4.828v-5.757h-.356c-.37.739-.91 1.497-1.623 2.275-.699.778-1.629 1.431-2.789 1.959-1.148.527-2.592.791-4.333.791-2.335 0-4.451-.547-6.351-1.642-1.886-1.108-3.389-2.756-4.511-4.946-1.107-2.203-1.661-4.959-1.661-8.27 0-3.337.554-6.153 1.661-8.448 1.122-2.308 2.632-4.055 4.531-5.242 1.899-1.201 4.016-1.801 6.351-1.801 1.78 0 3.244.304 4.392.91 1.161.594 2.084 1.313 2.77 2.157.685.831 1.206 1.616 1.563 2.354h.395v-5.025h7.063v30.883c0 2.598-.62 4.748-1.859 6.45-1.24 1.701-2.935 2.974-5.085 3.818-2.15.844-4.59 1.266-7.32 1.266Zm.059-18.082c1.517 0 2.81-.37 3.878-1.108 1.068-.739 1.879-1.801 2.433-3.186.554-1.385.831-3.046.831-4.985 0-1.913-.277-3.588-.831-5.025-.54-1.438-1.345-2.553-2.413-3.344-1.055-.805-2.355-1.207-3.898-1.207-1.596 0-2.928.416-3.996 1.247-1.069.831-1.873 1.971-2.414 3.422-.541 1.438-.811 3.073-.811 4.907 0 1.859.27 3.488.811 4.886.554 1.385 1.365 2.467 2.434 3.245 1.081.765 2.407 1.148 3.976 1.148ZM48.698 299.977l-6.529.713a5.241 5.241 0 0 0-.97-1.86c-.448-.58-1.054-1.049-1.82-1.405-.764-.356-1.7-.534-2.809-.534-1.49 0-2.743.323-3.759.969-1.002.647-1.497 1.484-1.484 2.513-.013.884.31 1.603.97 2.157.672.553 1.78 1.009 3.324 1.365l5.183 1.108c2.875.619 5.012 1.602 6.41 2.947 1.411 1.346 2.124 3.107 2.137 5.283-.013 1.912-.574 3.6-1.682 5.065-1.095 1.45-2.618 2.585-4.57 3.402-1.952.818-4.194 1.227-6.727 1.227-3.72 0-6.713-.778-8.982-2.335-2.268-1.569-3.62-3.752-4.056-6.548l6.984-.673c.317 1.372.99 2.407 2.018 3.106 1.03.699 2.368 1.049 4.017 1.049 1.701 0 3.066-.35 4.095-1.049 1.042-.699 1.563-1.563 1.563-2.591 0-.871-.337-1.59-1.01-2.157-.659-.567-1.687-1.002-3.085-1.306l-5.184-1.088c-2.915-.606-5.071-1.629-6.47-3.066-1.398-1.451-2.09-3.284-2.077-5.5-.013-1.873.495-3.495 1.524-4.867 1.042-1.385 2.486-2.453 4.332-3.205 1.86-.765 4.003-1.148 6.43-1.148 3.561 0 6.364.759 8.409 2.275 2.057 1.517 3.33 3.568 3.818 6.153Zm15.914 22.95c-2.968 0-5.54-.653-7.716-1.959-2.176-1.305-3.864-3.132-5.065-5.48-1.187-2.348-1.78-5.091-1.78-8.23 0-3.139.593-5.889 1.78-8.25 1.2-2.361 2.889-4.194 5.065-5.5 2.176-1.306 4.748-1.959 7.716-1.959s5.54.653 7.716 1.959 3.858 3.139 5.045 5.5c1.2 2.361 1.8 5.111 1.8 8.25 0 3.139-.6 5.882-1.8 8.23-1.187 2.348-2.869 4.175-5.045 5.48-2.177 1.306-4.749 1.959-7.716 1.959Zm.04-5.737c1.609 0 2.954-.442 4.035-1.326 1.082-.897 1.886-2.097 2.414-3.601.54-1.503.811-3.178.811-5.025 0-1.86-.27-3.541-.81-5.045-.529-1.517-1.333-2.723-2.415-3.62-1.081-.897-2.426-1.346-4.036-1.346-1.648 0-3.02.449-4.115 1.346-1.081.897-1.892 2.103-2.433 3.62-.528 1.504-.791 3.185-.791 5.045 0 1.847.263 3.522.79 5.025.542 1.504 1.353 2.704 2.434 3.601 1.095.884 2.467 1.326 4.115 1.326Zm29.955 5.737c-2.967 0-5.54-.653-7.716-1.959-2.176-1.305-3.864-3.132-5.064-5.48-1.187-2.348-1.78-5.091-1.78-8.23 0-3.139.593-5.889 1.78-8.25 1.2-2.361 2.888-4.194 5.064-5.5 2.177-1.306 4.749-1.959 7.716-1.959 2.968 0 5.54.653 7.716 1.959s3.858 3.139 5.045 5.5c1.2 2.361 1.8 5.111 1.8 8.25 0 3.139-.6 5.882-1.8 8.23-1.187 2.348-2.869 4.175-5.045 5.48-2.176 1.306-4.748 1.959-7.716 1.959Zm.04-5.737c1.609 0 2.954-.442 4.036-1.326 1.081-.897 1.886-2.097 2.413-3.601.541-1.503.812-3.178.812-5.025 0-1.86-.271-3.541-.812-5.045-.527-1.517-1.332-2.723-2.413-3.62-1.082-.897-2.427-1.346-4.036-1.346-1.649 0-3.02.449-4.115 1.346-1.082.897-1.893 2.103-2.434 3.62-.527 1.504-.791 3.185-.791 5.045 0 1.847.264 3.522.791 5.025.541 1.504 1.352 2.704 2.434 3.601 1.094.884 2.466 1.326 4.115 1.326Zm23.862-12.662v17.805h-7.162v-30.388h6.846v5.164h.356a8.68 8.68 0 0 1 3.343-4.056c1.543-1.003 3.449-1.504 5.718-1.504 2.097 0 3.924.449 5.48 1.346 1.57.897 2.783 2.196 3.64 3.897.871 1.702 1.3 3.766 1.286 6.193v19.348h-7.162v-18.241c0-2.031-.527-3.62-1.582-4.768-1.042-1.147-2.486-1.721-4.333-1.721-1.253 0-2.367.277-3.344.831-.962.541-1.721 1.326-2.275 2.355-.54 1.028-.811 2.275-.811 3.739Zm27.3 18.241c-1.2 0-2.229-.422-3.086-1.266-.858-.845-1.28-1.873-1.267-3.087-.013-1.187.409-2.202 1.267-3.047.857-.844 1.886-1.266 3.086-1.266 1.161 0 2.17.422 3.027 1.266.87.845 1.312 1.86 1.325 3.047a4.215 4.215 0 0 1-.633 2.196 4.542 4.542 0 0 1-1.582 1.583 4.116 4.116 0 0 1-2.137.574Zm12.259 0c-1.2 0-2.229-.422-3.086-1.266-.858-.845-1.28-1.873-1.267-3.087-.013-1.187.409-2.202 1.267-3.047.857-.844 1.886-1.266 3.086-1.266 1.161 0 2.17.422 3.027 1.266.87.845 1.312 1.86 1.325 3.047a4.215 4.215 0 0 1-.633 2.196 4.542 4.542 0 0 1-1.582 1.583 4.116 4.116 0 0 1-2.137.574Z"/>
      <path fill="#fff" d="M622.799 412.319a100.519 100.519 0 0 1-6.256 23.033c-.24.582-.497 1.147-.754 1.712a116.959 116.959 0 0 1 7.181 41.1 137.214 137.214 0 0 1-9.101 48.55 131.469 131.469 0 0 1-25.881 42.162c-1.406 1.541-2.828 3.065-4.354 4.487-1.525 1.421-2.982 2.911-4.593 4.247-3.085 2.86-6.513 5.137-9.787 7.672a112.319 112.319 0 0 1-10.284 6.85 111.384 111.384 0 0 1-10.883 5.891 162.698 162.698 0 0 1-47.015 14.47 201.706 201.706 0 0 1-85.853-6.147 100.803 100.803 0 0 1-34.279 15.001 103.265 103.265 0 0 1-27.818 2.552 113.811 113.811 0 0 1-27.424-4.761 113.625 113.625 0 0 1-6.701-2.209 70.738 70.738 0 0 1-13.712.89 66.889 66.889 0 0 1-29.943-7.98 57.632 57.632 0 0 1-12.341-8.956l-2.76-2.672c-.942-.873-1.714-1.918-2.553-2.877l-2.486-2.946-2.194-3.185a77.268 77.268 0 0 1-11.723-28.051 263.474 263.474 0 0 0-.72-4.401l-.36-2.26c0-.702-.103-1.422-.171-2.141a180.806 180.806 0 0 1-22.899-48.549 152.775 152.775 0 0 1-6.119-54.355 140.591 140.591 0 0 1 14.552-52.865 131.673 131.673 0 0 1 14.791-23.273 122.228 122.228 0 0 1 19.403-19.745 117.375 117.375 0 0 1 5.964-4.47 96.079 96.079 0 0 1 12.821-33.394 100.352 100.352 0 0 1 25.829-27.708 114.133 114.133 0 0 1 33.663-17.125 115.64 115.64 0 0 1 37.382-5.514 102.357 102.357 0 0 1 37.193 7.483 94.296 94.296 0 0 1 31.486 21.321 106.65 106.65 0 0 1 12.237 14.864 151.177 151.177 0 0 1 34.4 11.646 108.005 108.005 0 0 1 6.136-3.134 93.987 93.987 0 0 1 23.19-6.559 101.86 101.86 0 0 1 23.996-.257 104.417 104.417 0 0 1 23.241 5.634 98.707 98.707 0 0 1 21.134 11.286 89.204 89.204 0 0 1 17.379 16.714 89.893 89.893 0 0 1 11.775 21.012 98.268 98.268 0 0 1 5.622 23.238c.765 7.896.627 15.854-.411 23.719Zm-72.501 171.49 8.57-5.275c2.776-1.866 5.381-3.955 8.089-5.908a103.17 103.17 0 0 0 14.466-13.563 122.21 122.21 0 0 0 20.842-33.873 127.595 127.595 0 0 0 9.084-38.189c.418-6.274.366-12.571-.154-18.837a110.252 110.252 0 0 0-3.016-17.262 139.282 139.282 0 0 1-3.754 5.137 81.404 81.404 0 0 1-39.301 26.818 75.193 75.193 0 0 1-23.996 3.528l-2.297-.086c.36.942.703 1.884 1.08 2.809.548 1.524.925 3.099 1.388 4.64a43.568 43.568 0 0 1 1.217 4.676 95.508 95.508 0 0 1 .617 38.308l-.925 4.727-1.234 4.641c-.755 3.117-1.971 6.096-2.983 9.127a104.983 104.983 0 0 1-8.57 17.125 102.72 102.72 0 0 1-11.552 15.413l-3.428 3.425-1.714 1.712-1.834 1.576-3.668 3.151c-1.131.89-2.313 1.712-3.428 2.551a180.352 180.352 0 0 0 9.067-1.935 148.99 148.99 0 0 0 37.434-14.368v-.068ZM491.32 333.595a68.834 68.834 0 0 0-14.123 12.279l-2.794 3.219c-.24.291-.463.617-.703.925.823 3.905 1.491 7.843 1.92 11.799a112.949 112.949 0 0 1-2.314 37.898 100.598 100.598 0 0 1-6.273 18.101l-.994 2.175-.806 1.541c-.192.412-.41.813-.651 1.199l-.343.582-.154.274h.291l1.337.188.651.12 1.611.377c1.543.394 3.137.702 4.68 1.147l4.576 1.49c.754.257 1.525.463 2.279.754l2.16.89c-.08-2.435.012-4.873.274-7.295.137-1.045.223-2.089.394-3.134l.72-3.082a37.624 37.624 0 0 1 1.92-6.045 40.375 40.375 0 0 1 2.759-5.755c.258-.462.48-.942.755-1.404l.874-1.318a30.094 30.094 0 0 1 1.834-2.569 48.279 48.279 0 0 1 19.796-15.259 63.018 63.018 0 0 1 23.996-4.778h2.999a98.082 98.082 0 0 0-1.714-2.911 118.455 118.455 0 0 0-40.398-38.993 127.562 127.562 0 0 1-4.559-2.346v-.069Zm-40.861-14.385a140.143 140.143 0 0 0-64.823 2.997 128.774 128.774 0 0 0-24.15 10.001c1.097.291 2.177.616 3.274.942a98.249 98.249 0 0 1 25.332 11.764l2.965 1.884c.943.685 1.852 1.422 2.794 2.141 1.834 1.473 3.754 2.774 5.502 4.418a80.028 80.028 0 0 1 9.701 10.275 87.98 87.98 0 0 1 13.712 24.575 80.586 80.586 0 0 1 4.953 27.811 63.206 63.206 0 0 1-6.427 27.931 57.328 57.328 0 0 1-19.008 21.766c-.497.342-1.011.633-1.508.959l.634.479c1.508 1.148 2.828 2.483 4.233 3.733 1.406 1.25 2.674 2.672 3.857 4.128a60.416 60.416 0 0 1 5.759 7.894c.467.248.919.522 1.354.822l2.691 1.867a63.459 63.459 0 0 1 17.482 19.043 76.102 76.102 0 0 1 9.976 49.337c0 .48-.137.942-.206 1.404a20.084 20.084 0 0 1 4.851 0 14.481 14.481 0 0 1 7.353 2.963c1.371 1.267 1.868 2.226 1.713 2.706-.154.479-1.216.274-2.913-.274a18.738 18.738 0 0 0-7.576-.377c-1.635.269-3.23.741-4.748 1.404a69.763 69.763 0 0 1-6.427 16.594 77.122 77.122 0 0 1-4.576 7.33 25.085 25.085 0 0 0 3.907 6.953 30.616 30.616 0 0 0 12.41 9.316c7.27.758 14.577 1.123 21.887 1.095a60.184 60.184 0 0 0 13.815-5.137 86.07 86.07 0 0 0 35.77-36.853 91.122 91.122 0 0 0 9.907-50.57 80.64 80.64 0 0 0-7.113-25.876 61.965 61.965 0 0 1-9.53-3.117 53.821 53.821 0 0 1-10.129-5.634h-4.799a49.611 49.611 0 0 1-6.393-.976c-1.046-.24-2.109-.446-3.137-.737l-3.051-.993a29.538 29.538 0 0 1-2.965-1.164c-.96-.428-1.971-.805-2.897-1.284-1.851-.994-3.753-1.936-5.484-3.1a65.623 65.623 0 0 1-9.821-7.621 75.533 75.533 0 0 1-14.741-19.488 60.233 60.233 0 0 1-3.753-8.391h-.446l-1.714-.24h-.411c-.137 0-.343 0-.189-.171l.429-.72 1.148-1.952-.857-2.5c-.343-.959-.514-1.969-.771-2.946-.446-1.969-.977-3.921-1.354-5.908a96.706 96.706 0 0 1-1.08-23.975 104.755 104.755 0 0 1 5.142-23.393 103.792 103.792 0 0 1 10.661-21.44c.463-.702.994-1.387 1.491-2.072a104.488 104.488 0 0 0-3.068-9.539 100.855 100.855 0 0 0-8.638-18.016v-.068Zm-175.666 46.683a105.872 105.872 0 0 0 11.827 50.467l.514.959a156.56 156.56 0 0 1 9.204-27.913 144.04 144.04 0 0 1 35.719-49.663 105.528 105.528 0 0 0-46.157 10.532 96.446 96.446 0 0 0-10.421 5.994 90.003 90.003 0 0 0-.686 9.692v-.068Zm61.943-15.824a133.952 133.952 0 0 0-18.442 21.629 142.083 142.083 0 0 0-13.541 25.071 143.778 143.778 0 0 0-9.392 33.668 93.344 93.344 0 0 0 23.996 22.759c1.302-.325 2.605-.633 3.89-.907a129.452 129.452 0 0 1 18.46-2.398 102.798 102.798 0 0 1 42.335 6.131 79.26 79.26 0 0 1 7.953 3.647c.805-.411 1.611-.822 2.382-1.267a46.253 46.253 0 0 0 17.294-16.919 49.83 49.83 0 0 0 6.548-23.547 68.536 68.536 0 0 0-3.943-24.951 76.058 76.058 0 0 0-10.643-20.208 72.454 72.454 0 0 0-7.799-8.939 94.013 94.013 0 0 0-9.461-7.724 94.32 94.32 0 0 0-38.65-15.138 126.21 126.21 0 0 0-10.987 9.162v-.069Zm-42.952 102.356c0 3.254.188 6.508.463 9.745a127.25 127.25 0 0 1 9.032-4.007c.823-.326 1.714-.6 2.486-.908-2.023-1.593-3.994-3.237-5.862-5.018a145.423 145.423 0 0 1-6.016-6.079c-.069 2.123-.12 4.247-.103 6.336v-.069Zm119.018 141.042a81.894 81.894 0 0 0 6.171-5.531c1.028-1.113 2.194-2.106 3.119-3.305l2.897-3.425c.48-.702.977-1.387 1.474-2.09.09-3.115.776-6.184 2.022-9.041a27.413 27.413 0 0 1 5.605-7.706l1.046-.891a33.893 33.893 0 0 0 1.131-4.538l.48-2.21c.171-.736.188-1.489.291-2.243.154-1.49.411-2.997.497-4.504l.103-4.538c0-1.524-.154-3.031-.206-4.555a63.695 63.695 0 0 0-3.822-17.759 30.684 30.684 0 0 0-1.714-4.195 35.527 35.527 0 0 0-1.988-4.059l-2.262-3.905-2.194-3.014c.451 3.476.508 6.992.171 10.481a50.062 50.062 0 0 1-.771 5.48c-.446 1.815-1.029 3.596-1.56 5.377a47.52 47.52 0 0 1-11.741 18.067 58.783 58.783 0 0 1-16.865 11.371 63.462 63.462 0 0 1-38.17 4.59 82.341 82.341 0 0 0 9.238 8.562 111.41 111.41 0 0 0 15.888 10.515c2.811 1.541 5.657 3.014 8.57 4.367 2.914 1.353 5.965 2.534 8.947 3.819 4.422 1.832 9.016 3.459 13.695 4.949l-.052-.069Zm13.404 3.836c2.331.583 4.662 1.114 7.027 1.713a35.707 35.707 0 0 1-3.428-5.36 91.738 91.738 0 0 1-3.599 3.716v-.069Zm-83.865-64.818c.096 1.454.313 2.898.651 4.316.249 1.436.61 2.85 1.08 4.229a45.7 45.7 0 0 0 2.725 6.662 56.74 56.74 0 0 0 11.004 3.631 47.815 47.815 0 0 0 13.369 1.044 56.23 56.23 0 0 0 13.335-2.397 58.11 58.11 0 0 0 12.272-5.617 48.953 48.953 0 0 0 10.129-8.563 39.981 39.981 0 0 0 6.668-11.148 38.759 38.759 0 0 0 0-25.688 45.978 45.978 0 0 0-2.417-5.874 50.476 50.476 0 0 0-7.062-3.425 41.946 41.946 0 0 0-8.381-1.986 46.974 46.974 0 0 0-17.568 1.216 51.968 51.968 0 0 0-29.138 19.505 37.02 37.02 0 0 0-6.496 15.738 29.849 29.849 0 0 0-.171 8.426v-.069Zm-11.827-6.524a45.157 45.157 0 0 1 2.88-13.135 54.068 54.068 0 0 1 15.152-21.39 65.804 65.804 0 0 1 22.435-12.792 59.201 59.201 0 0 1 25.864-2.774l1.2.188a56.429 56.429 0 0 0-5.519-4.127 69.71 69.71 0 0 1-14.809 4.299 87.98 87.98 0 0 1-28.109.273 89.625 89.625 0 0 1-26.755-8.391c-2.211-1.044-4.353-2.243-6.445-3.425a108.219 108.219 0 0 0-20.79 8.374 118.845 118.845 0 0 0 11.226 34.25 101.683 101.683 0 0 0 16.026 23.085c1.543 1.712 3.291 3.288 4.954 4.932l3.428 2.911c-.36-1.798-.515-3.63-.72-5.463a23.894 23.894 0 0 1-.155-3.425v-1.712l.137-1.678Zm47.066-61.257c-.977-.325-1.937-.65-2.913-.942a95.259 95.259 0 0 0-27.818-3.647c-4.08.074-8.153.354-12.204.839a80.823 80.823 0 0 0 10.284 3.185 79.72 79.72 0 0 0 25.538 1.713 57.681 57.681 0 0 0 7.113-1.079v-.069Zm87.636-101.157-1.851 3.75c-.549 1.319-1.046 2.655-1.56 3.973-.514 1.319-1.114 2.637-1.474 4.024a85.142 85.142 0 0 0-3.908 33.668c.223 1.713.48 3.425.754 5.138.103-.223.206-.428.292-.651a90.69 90.69 0 0 0 7.284-24.9 104.01 104.01 0 0 0 .463-24.934v-.068Zm18.134 77.251a85.972 85.972 0 0 0-13.369-5.138c-1.029-.36-2.091-.514-3.137-.805l-3.205-.753a71.03 71.03 0 0 0 3.754 6.422 57.233 57.233 0 0 0 19.47 18.495 40.118 40.118 0 0 0 6.291 2.911 62.817 62.817 0 0 1-8.33-16.115c-.566-1.558-1.046-3.254-1.474-4.949v-.068Zm26.001 22.776.497.428c.72 0 1.422-.154 2.125-.274l1.097-.24a91.808 91.808 0 0 0-14.312-13.34 51.848 51.848 0 0 0 10.593 13.546v-.12Zm16.985-73.792a48.922 48.922 0 0 0-7.901 1.952c-1.286.394-2.503.96-3.754 1.439-1.251.48-2.417 1.113-3.548 1.815a36.716 36.716 0 0 0-11.689 10.378 35.586 35.586 0 0 0-6.153 14.317 42.985 42.985 0 0 0-.103 14.367l1.508.874 4.131 2.466a106.092 106.092 0 0 1 24.681 22.262c.206-.12.412-.205.6-.325a45.585 45.585 0 0 0 10.387-8.22 56.772 56.772 0 0 0 7.867-10.874 54.573 54.573 0 0 0 4.85-12.519c.223-1.096.549-2.175.703-3.271l.463-3.305a62.967 62.967 0 0 0-1.457-20.43 78.956 78.956 0 0 0-3.428-11.131 61.863 61.863 0 0 0-17.157.274v-.069Zm32.857 37.247a63.775 63.775 0 0 1-21.219 36.665 50.385 50.385 0 0 1-7.661 5.446l.325.496 1.2 2.089 1.714 3.032c1.843.32 3.703.537 5.57.651a67.286 67.286 0 0 0 32.566-6.85 69.73 69.73 0 0 0 25.71-21.424 78.764 78.764 0 0 0 6.17-10.035 91.032 91.032 0 0 0-12.272-20.67l-2.982-3.562-3.206-3.425a58.07 58.07 0 0 0-6.855-5.977 70.903 70.903 0 0 0-15.958-8.973c-1.816-.737-3.667-1.37-5.519-1.97a74.465 74.465 0 0 1 2.417 34.575v-.068ZM388.035 607.133a78.69 78.69 0 0 0 12.461-5.548l-1.971-.685c-1.92-.719-3.771-1.559-5.673-2.346l-5.639-2.364c-1.886-.804-3.737-1.712-5.588-2.637a132.319 132.319 0 0 1-21.167-13.015 92.364 92.364 0 0 1-18.014-17.725 64.026 64.026 0 0 1-5.554-8.75 85.277 85.277 0 0 1-18.853-14.18c-16.763-16.697-27.252-38.463-31.897-61.222a94.822 94.822 0 0 0-15.666 13.221 79.011 79.011 0 0 0-12.992 18.546 74.592 74.592 0 0 0-6.856 21.424 79.732 79.732 0 0 0-.994 14.419c3.119 4.709 6.153 8.836 8.861 12.142 15.426 19.043 35 35.311 57.693 45.056a117.268 117.268 0 0 0 8.57 3.305 62.712 62.712 0 0 0 5.724-1.713c.686-.274 2.177-.839 2.914-1.164a72.465 72.465 0 0 0 9.084-4.812 30.35 30.35 0 0 1 3.668-2.022c1.423-.65 1.714.001 4.182-1.917 5.639-4.47 8.176-7.895 9.187-7.98.48 0 .48.582 0 2.037a17.536 17.536 0 0 1-1.286 2.74 26.66 26.66 0 0 1-1.028 1.713l-1.354 1.986a47.786 47.786 0 0 1-9.29 9.505 54.736 54.736 0 0 1-8.141 5.223 98.108 98.108 0 0 0 13.403 1.712 91.704 91.704 0 0 0 36.216-4.88v-.069Zm-131.564-31.51a60.521 60.521 0 0 0 12.7 17.742 49.718 49.718 0 0 0 18.22 11.439 61.589 61.589 0 0 0 11.603 3.048 156.86 156.86 0 0 1-21.733-14.59 182.203 182.203 0 0 1-22.504-21.56 52.519 52.519 0 0 0 1.714 3.989v-.068Zm-10.284-191.098a120.598 120.598 0 0 0-12.735 22.16 125.524 125.524 0 0 0-7.901 23.187 129.043 129.043 0 0 0-3.308 22.845c-.37 7.152-.163 14.322.617 21.44a148.43 148.43 0 0 0 8.312 35.774 168.47 168.47 0 0 0 9.307 20.91c.206-1.267.412-2.534.6-3.819.429-1.712.857-3.511 1.269-5.292a86.394 86.394 0 0 1 8.672-20.841 92.817 92.817 0 0 1 14.278-18.272 101.06 101.06 0 0 1 18.031-14.402c.308-.206.634-.377.96-.582a144.447 144.447 0 0 1 0-33.548A118.007 118.007 0 0 1 270.148 406a120.39 120.39 0 0 1-5.862-27.024c-.402-4.6-.54-9.22-.411-13.837a119.012 119.012 0 0 0-17.671 19.454l-.017-.068Zm183.035-89.718a86.949 86.949 0 0 0-47.631-18.529 106.474 106.474 0 0 0-51.162 8.767 96.23 96.23 0 0 0-40.159 32.213 83.862 83.862 0 0 0-11.38 23.067c-.086.257-.155.531-.24.788 1.491-.788 2.982-1.575 4.507-2.295a111.305 111.305 0 0 1 26.481-8.46 114.694 114.694 0 0 1 35.994-1.233l1.491-1.027c22.607-15.019 49.705-22.263 76.529-22.468 5.903-.032 11.803.271 17.671.907a85.849 85.849 0 0 0-12.083-11.662l-.018-.068Zm34.965 27.674a116.972 116.972 0 0 1 5.862 14.231c2.04-2.175 4.148-4.299 6.376-6.285a51.387 51.387 0 0 1 3.12-2.483 138.63 138.63 0 0 0-15.272-5.394l-.086-.069Zm146.648 59.647a77.772 77.772 0 0 0-13.797-30.689 75.065 75.065 0 0 0-26.121-21.183 84.055 84.055 0 0 0-32.857-8.683 78.781 78.781 0 0 0-8.57-.085c-1.422.021-2.842.13-4.251.325l-4.25.445a78.922 78.922 0 0 0-16.369 4.401l-1.508.634a135.808 135.808 0 0 1 29.223 23.872 115.788 115.788 0 0 1 19.351 28.616 86.035 86.035 0 0 1 28.743 11.594 78.402 78.402 0 0 1 10.181 7.826 95.71 95.71 0 0 1 8.69 9.23 96.11 96.11 0 0 1 9.856 14.454 123.057 123.057 0 0 0 1.714-6.662 87.757 87.757 0 0 0-.018-34.027l-.017-.068Z" opacity=".2"/>
      <path fill="#fff" d="M21.978 389.28v-7.139h2.496c.497 0 .907.086 1.23.258.323.17.564.399.722.687.158.286.237.603.237.951 0 .307-.055.56-.164.76-.107.2-.249.358-.425.474a1.896 1.896 0 0 1-.569.258v.07c.219.014.438.091.66.23.22.14.405.339.553.6.15.26.224.578.224.955 0 .358-.082.679-.244.965-.163.286-.42.513-.77.68-.352.167-.808.251-1.37.251h-2.58Zm.864-.767h1.715c.565 0 .966-.109 1.203-.328.24-.22.359-.488.359-.801 0-.242-.062-.465-.185-.67a1.339 1.339 0 0 0-.526-.494 1.645 1.645 0 0 0-.809-.189h-1.757v2.482Zm0-3.235h1.604c.26 0 .495-.051.704-.153a1.23 1.23 0 0 0 .502-.432 1.15 1.15 0 0 0 .188-.656c0-.313-.11-.579-.328-.798-.218-.221-.564-.331-1.038-.331h-1.632v2.37Zm5.016 4.002v-5.354h.795v.809h.055c.098-.265.275-.48.53-.645a1.56 1.56 0 0 1 .865-.248 6.867 6.867 0 0 1 .432.014v.837a2.347 2.347 0 0 0-.192-.032 1.918 1.918 0 0 0-.31-.024c-.26 0-.493.055-.697.164a1.202 1.202 0 0 0-.655 1.091v3.388h-.823Zm5.272.112c-.484 0-.908-.115-1.273-.346a2.34 2.34 0 0 1-.85-.965c-.202-.414-.304-.897-.304-1.45 0-.558.102-1.045.304-1.461.204-.416.488-.739.85-.969.365-.23.79-.345 1.273-.345.483 0 .906.115 1.268.345.365.23.649.553.85.969.205.416.308.903.308 1.461 0 .553-.103 1.036-.307 1.45a2.307 2.307 0 0 1-.85.965c-.363.231-.786.346-1.27.346Zm0-.739c.367 0 .669-.095.906-.283a1.66 1.66 0 0 0 .526-.742c.114-.307.171-.639.171-.997s-.057-.692-.17-1.001a1.687 1.687 0 0 0-.527-.749c-.237-.191-.54-.286-.906-.286-.368 0-.67.095-.907.286-.237.191-.412.44-.526.749a2.87 2.87 0 0 0-.17 1.001c0 .358.056.69.17.997.114.307.29.554.526.742.237.188.54.283.907.283Zm6.663-1.562v-3.165h.823v5.354h-.823v-.906h-.056a1.75 1.75 0 0 1-.585.693c-.265.189-.6.283-1.004.283-.335 0-.632-.073-.893-.22a1.54 1.54 0 0 1-.613-.669c-.149-.3-.223-.678-.223-1.133v-3.402h.823v3.346c0 .391.109.702.327.934.22.233.502.349.844.349.204 0 .412-.052.624-.157.213-.104.392-.265.537-.481.146-.216.22-.491.22-.826Zm4.098 4.308a3.06 3.06 0 0 1-1.025-.153 2.174 2.174 0 0 1-.714-.397 2.181 2.181 0 0 1-.45-.523l.655-.46c.075.097.169.209.283.334.114.128.27.238.467.331.2.096.461.143.784.143.432 0 .789-.104 1.07-.313.281-.21.422-.537.422-.983v-1.088h-.07a4.15 4.15 0 0 1-.258.363 1.48 1.48 0 0 1-.474.38c-.204.109-.48.163-.83.163-.432 0-.82-.102-1.164-.306a2.154 2.154 0 0 1-.812-.893c-.197-.39-.296-.864-.296-1.422 0-.548.096-1.026.29-1.433.192-.409.46-.725.804-.948a2.128 2.128 0 0 1 1.193-.338c.348 0 .625.058.83.174.206.114.364.244.473.391.112.144.198.262.258.355h.084v-.85h.795v5.507c0 .461-.105.835-.314 1.123a1.79 1.79 0 0 1-.837.638 3.159 3.159 0 0 1-1.164.205Zm-.028-2.942c.33 0 .609-.075.837-.226.227-.151.4-.369.52-.652.118-.284.177-.623.177-1.018 0-.386-.058-.726-.174-1.021a1.533 1.533 0 0 0-.516-.694c-.228-.167-.51-.251-.844-.251-.349 0-.639.088-.871.265-.23.177-.403.414-.52.711a2.75 2.75 0 0 0-.17.99c0 .372.058.701.174.987.118.283.293.506.523.669.232.16.52.24.864.24Zm4.278-2.398v3.221h-.822v-7.139h.822v2.621h.07a1.51 1.51 0 0 1 .565-.658c.253-.165.59-.248 1.01-.248.366 0 .685.073.96.22.273.144.486.366.637.666.154.297.23.676.23 1.136v3.402h-.822v-3.346c0-.426-.11-.754-.331-.987-.219-.235-.522-.352-.91-.352-.27 0-.511.057-.725.171a1.25 1.25 0 0 0-.502.498 1.622 1.622 0 0 0-.182.795Zm6.913-2.133v.697H52.28v-.697h2.775Zm-1.966-1.283h.823v5.103c0 .233.033.407.1.523a.52.52 0 0 0 .266.23c.109.037.224.056.345.056a1.5 1.5 0 0 0 .223-.014l.14-.028.167.739a1.733 1.733 0 0 1-.614.098c-.232 0-.46-.05-.683-.15-.22-.1-.404-.252-.55-.457-.145-.204-.217-.462-.217-.774v-5.326Zm7.508 1.283v.697H57.82v-.697h2.775Zm-1.966-1.283h.822v5.103c0 .233.034.407.101.523.07.114.158.191.265.23.11.037.224.056.345.056.091 0 .165-.005.223-.014l.14-.028.167.739a1.732 1.732 0 0 1-.613.098c-.233 0-.46-.05-.683-.15a1.351 1.351 0 0 1-.551-.457c-.144-.204-.216-.462-.216-.774v-5.326Zm4.928 6.749c-.483 0-.907-.115-1.272-.346a2.34 2.34 0 0 1-.85-.965c-.203-.414-.304-.897-.304-1.45 0-.558.101-1.045.303-1.461a2.34 2.34 0 0 1 .85-.969 2.34 2.34 0 0 1 1.273-.345c.483 0 .906.115 1.269.345.365.23.648.553.85.969.205.416.307.903.307 1.461 0 .553-.102 1.036-.307 1.45a2.309 2.309 0 0 1-.85.965c-.363.231-.786.346-1.269.346Zm0-.739c.367 0 .67-.095.906-.283a1.66 1.66 0 0 0 .527-.742c.114-.307.17-.639.17-.997s-.056-.692-.17-1.001a1.687 1.687 0 0 0-.527-.749c-.237-.191-.539-.286-.906-.286s-.67.095-.906.286a1.69 1.69 0 0 0-.527.749 2.87 2.87 0 0 0-.17 1.001c0 .358.056.69.17.997.114.307.29.554.527.742.237.188.539.283.906.283Zm6.187 2.635a1.819 1.819 0 0 1-.6-.098l.21-.725c.2.051.376.07.53.056a.637.637 0 0 0 .407-.206c.121-.121.232-.317.332-.589l.153-.418-1.98-5.382h.892l1.478 4.266h.056l1.478-4.266h.893l-2.273 6.135a2.339 2.339 0 0 1-.38.687 1.424 1.424 0 0 1-.526.407 1.616 1.616 0 0 1-.67.133Zm6.525-1.896c-.483 0-.907-.115-1.272-.346a2.34 2.34 0 0 1-.85-.965c-.203-.414-.304-.897-.304-1.45 0-.558.101-1.045.303-1.461a2.34 2.34 0 0 1 .85-.969 2.34 2.34 0 0 1 1.273-.345c.484 0 .906.115 1.269.345.365.23.648.553.85.969.205.416.307.903.307 1.461 0 .553-.102 1.036-.306 1.45a2.309 2.309 0 0 1-.851.965c-.363.231-.785.346-1.269.346Zm0-.739c.367 0 .67-.095.906-.283a1.66 1.66 0 0 0 .527-.742c.114-.307.17-.639.17-.997s-.056-.692-.17-1.001a1.687 1.687 0 0 0-.527-.749c-.237-.191-.539-.286-.906-.286s-.67.095-.906.286a1.68 1.68 0 0 0-.526.749 2.871 2.871 0 0 0-.171 1.001c0 .358.057.69.17.997.114.307.29.554.527.742.237.188.539.283.906.283Zm6.664-1.562v-3.165h.822v5.354h-.822v-.906h-.056c-.126.272-.32.503-.586.693-.265.189-.6.283-1.004.283-.334 0-.632-.073-.892-.22a1.54 1.54 0 0 1-.614-.669c-.148-.3-.223-.678-.223-1.133v-3.402h.823v3.346c0 .391.11.702.328.934.22.233.502.349.843.349.205 0 .413-.052.624-.157.214-.104.393-.265.537-.481.146-.216.22-.491.22-.826Zm4.416 2.189v-7.139h.823v2.635h.07a7.29 7.29 0 0 1 .25-.355 1.47 1.47 0 0 1 .468-.391c.204-.116.48-.174.83-.174.45 0 .847.113 1.191.338.344.226.613.545.805.959.193.413.29.902.29 1.464 0 .567-.097 1.058-.29 1.474-.192.414-.46.735-.801.962a2.092 2.092 0 0 1-1.182.339c-.344 0-.62-.057-.826-.171a1.535 1.535 0 0 1-.478-.394 5.243 5.243 0 0 1-.258-.37h-.097v.823h-.795Zm.809-2.677c0 .404.059.761.177 1.07.119.307.292.547.52.722.228.172.507.258.837.258.343 0 .63-.091.86-.272a1.66 1.66 0 0 0 .523-.739c.119-.312.178-.658.178-1.039a2.82 2.82 0 0 0-.174-1.018 1.57 1.57 0 0 0-.52-.721c-.23-.179-.519-.269-.868-.269-.334 0-.615.085-.843.255-.228.167-.4.402-.516.704a2.889 2.889 0 0 0-.174 1.049Zm5.122 4.685a1.819 1.819 0 0 1-.6-.098l.21-.725c.2.051.376.07.529.056a.637.637 0 0 0 .408-.206c.12-.121.231-.317.331-.589l.153-.418-1.98-5.382h.893l1.478 4.266h.056l1.478-4.266h.892l-2.273 6.135a2.339 2.339 0 0 1-.38.687 1.424 1.424 0 0 1-.526.407c-.198.089-.42.133-.67.133Zm8.234-5.103v3.095h-1.485v-7.139h1.443v2.729h.063c.121-.316.316-.563.585-.742.27-.181.608-.272 1.015-.272.372 0 .696.081.972.244.279.16.495.392.649.694.155.3.232.659.23 1.077v3.409h-1.485v-3.144c.002-.33-.082-.587-.251-.771-.168-.183-.402-.275-.704-.275-.203 0-.381.043-.537.129a.917.917 0 0 0-.363.377c-.086.162-.13.359-.132.589Zm4.973 5.103c-.189 0-.365-.015-.53-.045a1.858 1.858 0 0 1-.404-.109l.334-1.108c.174.053.331.082.471.087a.603.603 0 0 0 .366-.097c.104-.07.189-.189.254-.356l.087-.227-1.92-5.507h1.561l1.109 3.932h.056l1.118-3.932h1.573l-2.081 5.933c-.1.288-.236.539-.408.753-.17.216-.385.382-.645.498-.26.119-.574.178-.941.178Zm4.442 0v-7.362h1.464v.899h.066c.065-.144.159-.29.282-.439a1.49 1.49 0 0 1 .488-.376c.203-.103.454-.154.753-.154.391 0 .751.102 1.081.307.33.202.594.508.791.917.198.406.297.916.297 1.53 0 .597-.097 1.101-.29 1.513-.19.409-.451.719-.781.93-.327.21-.694.314-1.101.314a1.71 1.71 0 0 1-.736-.143 1.527 1.527 0 0 1-.491-.359 1.84 1.84 0 0 1-.293-.442h-.045v2.865h-1.485Zm1.453-4.685c0 .318.045.596.133.833.088.237.216.422.383.554.168.13.371.195.61.195a.96.96 0 0 0 .614-.198c.167-.135.294-.321.38-.558.088-.239.132-.515.132-.826 0-.309-.043-.581-.129-.816a1.209 1.209 0 0 0-.38-.55.96.96 0 0 0-.617-.199.98.98 0 0 0-.613.192 1.197 1.197 0 0 0-.38.543 2.365 2.365 0 0 0-.133.83Zm6.806 2.782c-.551 0-1.025-.112-1.422-.335a2.294 2.294 0 0 1-.914-.955c-.213-.414-.32-.903-.32-1.468 0-.55.107-1.034.32-1.45.214-.416.515-.74.903-.972.391-.233.849-.349 1.374-.349.353 0 .682.057.986.171.307.111.574.28.802.505.23.226.409.509.537.851.128.339.191.737.191 1.192v.408h-4.521v-.92h3.124a1.14 1.14 0 0 0-.14-.569.99.99 0 0 0-.387-.386 1.095 1.095 0 0 0-.568-.143 1.112 1.112 0 0 0-1.004.571 1.186 1.186 0 0 0-.15.575v.875c0 .265.049.494.147.687.1.193.24.342.421.446.182.105.397.157.645.157a1.4 1.4 0 0 0 .454-.07.937.937 0 0 0 .352-.209.92.92 0 0 0 .223-.341l1.373.09c-.07.33-.213.618-.429.865-.213.244-.49.434-.829.571a3.127 3.127 0 0 1-1.168.203Zm3.034-.105v-5.354h1.439v.934h.056c.098-.332.262-.583.492-.753.23-.172.495-.258.795-.258a2.323 2.323 0 0 1 .467.052v1.318a2.641 2.641 0 0 0-.628-.08 1.19 1.19 0 0 0-.585.143c-.17.093-.305.223-.405.39-.097.168-.146.36-.146.579v3.029h-1.485Zm3.624 0v-5.354h1.485v5.354h-1.485Zm.746-6.044a.808.808 0 0 1-.568-.22.71.71 0 0 1-.234-.533c0-.205.078-.38.234-.527a.802.802 0 0 1 .568-.223.79.79 0 0 1 .564.223.694.694 0 0 1 .237.527.707.707 0 0 1-.237.533.795.795 0 0 1-.564.22Zm3.955 6.149c-.542 0-1.01-.115-1.405-.345a2.366 2.366 0 0 1-.91-.97c-.214-.416-.321-.898-.321-1.446 0-.553.107-1.037.321-1.45.214-.416.517-.739.91-.969.395-.233.863-.349 1.405-.349.541 0 1.008.116 1.401.349.395.23.699.553.913.969.214.413.321.897.321 1.45 0 .548-.107 1.03-.321 1.446a2.36 2.36 0 0 1-.913.97c-.393.23-.86.345-1.401.345Zm.007-1.151a.92.92 0 0 0 .617-.209 1.3 1.3 0 0 0 .373-.578c.086-.245.129-.522.129-.834a2.5 2.5 0 0 0-.129-.833 1.294 1.294 0 0 0-.373-.578.913.913 0 0 0-.617-.213.946.946 0 0 0-.628.213 1.304 1.304 0 0 0-.38.578 2.581 2.581 0 0 0-.125.833c0 .312.042.589.125.834.086.244.213.436.38.578.17.14.379.209.628.209Zm4.069 1.137a.818.818 0 0 1-.593-.244.818.818 0 0 1-.244-.593c0-.228.082-.423.244-.586a.818.818 0 0 1 .593-.244c.223 0 .418.082.585.244a.786.786 0 0 1 .251.586.788.788 0 0 1-.118.422.914.914 0 0 1-.303.303.805.805 0 0 1-.415.112Zm4.082.014c-.548 0-1.02-.117-1.415-.349a2.352 2.352 0 0 1-.906-.976c-.21-.416-.314-.895-.314-1.436 0-.549.106-1.03.317-1.443.214-.416.517-.74.91-.973.393-.235.86-.352 1.401-.352.467 0 .876.085 1.227.255.351.169.629.407.833.714.205.307.317.667.338 1.081h-1.401a1.08 1.08 0 0 0-.314-.645c-.167-.165-.387-.248-.658-.248a.994.994 0 0 0-.604.189 1.198 1.198 0 0 0-.397.54 2.315 2.315 0 0 0-.143.861c0 .342.047.632.14.871.095.24.229.422.4.548a1 1 0 0 0 .604.188.976.976 0 0 0 .456-.105.87.87 0 0 0 .338-.303c.091-.135.15-.296.178-.484h1.401a2.186 2.186 0 0 1-.334 1.08 2.026 2.026 0 0 1-.819.725c-.349.174-.762.262-1.238.262Zm4.434-3.2v3.095h-1.485v-7.139h1.444v2.729h.062c.121-.316.316-.563.586-.742.27-.181.608-.272 1.014-.272.372 0 .696.081.973.244.279.16.495.392.648.694.156.3.233.659.23 1.077v3.409h-1.485v-3.144c.003-.33-.081-.587-.251-.771-.167-.183-.402-.275-.704-.275-.202 0-.381.043-.537.129a.915.915 0 0 0-.362.377 1.28 1.28 0 0 0-.133.589Z"/>
    </g>
  </g>
  <defs>
    <clipPath id="a">
      <path fill="#fff" d="M.332.951h326.667v409H.332z"/>
    </clipPath>
    <clipPath id="b">
      <path fill="#fff" d="M.664 1h327.2v409H.664z"/>
    </clipPath>
    <filter id="c" width="1415.81" height="1415.81" x="-682.803" y="-442.108" color-interpolation-filters="sRGB" filterUnits="userSpaceOnUse">
      <feFlood flood-opacity="0" result="BackgroundImageFix"/>
      <feBlend in="SourceGraphic" in2="BackgroundImageFix" result="shape"/>
      <feGaussianBlur result="effect1_foregroundBlur_1691_709" stdDeviation="280.026"/>
    </filter>
  </defs>
</svg>
