<svg xmlns="http://www.w3.org/2000/svg" width="328" height="410" fill="none" viewBox="0 0 328 410">
  <g clip-path="url(#a)">
    <g clip-path="url(#b)">
      <path fill="#131729" d="M1 1h327.2v409H1z"/>
      <g filter="url(#c)" opacity=".6">
        <circle cx="25.438" cy="265.796" r="147.854" fill="#FD9E28"/>
      </g>
      <path fill="#fff" d="M44.116 33.665a.363.363 0 0 1-.082.25c-.053.06-.146.105-.28.138a2.61 2.61 0 0 1-.55.046 4.74 4.74 0 0 1-.545-.032 4.165 4.165 0 0 1-.482-.081l.061-.342c.366.08.726.122 1.08.122.163 0 .27-.008.32-.024.05-.015.076-.045.076-.09 0-.04-.012-.067-.036-.08a.321.321 0 0 0-.128-.029l-.79-.046c-.217-.01-.372-.05-.465-.12-.094-.07-.14-.173-.14-.31 0-.159.073-.273.221-.343.149-.071.389-.107.721-.107.132 0 .288.01.47.03.183.017.343.041.48.07l-.07.321A5.045 5.045 0 0 0 43 32.95c-.189 0-.31.007-.363.021-.053.013-.08.041-.08.086 0 .038.014.063.04.075a.45.45 0 0 0 .145.026l.78.046c.205.01.355.053.45.128.097.074.145.185.145.333Zm2.846.258c-.187.118-.485.178-.893.178-.408 0-.706-.06-.893-.178-.187-.12-.28-.31-.28-.566 0-.257.093-.445.28-.564.187-.12.485-.18.893-.18.408 0 .706.06.893.18.187.119.28.307.28.564 0 .257-.093.446-.28.566Zm-.893-.187c.282 0 .476-.028.58-.084.107-.056.16-.154.16-.295s-.053-.24-.16-.296c-.104-.056-.298-.084-.58-.084-.284 0-.48.029-.587.086-.108.056-.161.154-.161.294 0 .14.053.238.161.295.108.056.303.084.587.084Zm2.351.336h-.426v-1.43h1.907v.365H48.42v.262h1.443v.335H48.42v.468Zm3.097-1.065h-.849v-.365h2.121v.365h-.847v1.065h-.425v-1.065Zm2.617 1.065-.637-1.43h.48l.442 1.042.512-1.042h.507l.524 1.042.432-1.042h.48l-.638 1.43h-.544l-.506-1.017-.507 1.017h-.545Zm4.993 0-.172-.277h-1.057l-.174.276h-.51l.932-1.429h.566l.93 1.43h-.515Zm-1.044-.573h.685l-.341-.549-.344.55Zm2.703.573h-.425v-1.43h1.431c.398 0 .597.166.597.499 0 .3-.167.464-.503.49l-.092.002.114.07.469.368h-.535l-.513-.414h-.543v.415Zm0-1.065v.33h.964c.07 0 .12-.012.151-.037.032-.025.048-.067.048-.126 0-.063-.015-.106-.046-.13-.03-.025-.081-.037-.153-.037h-.964Zm4.325 1.065h-1.907v-1.43h1.907v.333H63.63v.237h1.442v.275H63.63v.251h1.481v.334Z"/>
      <path fill="#fff" fill-rule="evenodd" d="M58.518 24.052c-.367 0-.669-.106-.905-.318a1.078 1.078 0 0 1-.342-.807c0-.326.114-.595.342-.807.236-.22.538-.33.905-.33.358 0 .652.11.88.33.236.212.355.481.355.807 0 .318-.119.587-.355.807-.228.212-.522.318-.88.318Zm1.039.709v6.822h-2.09V24.76h2.09ZM28.883 23v8.582h-2.09V28.05H23.54v3.533h-2.09V23h2.09v3.363h3.252V23h2.09Zm10.591 11.434V30.63c.204.31.485.563.844.758a2.63 2.63 0 0 0 1.26.294c.561 0 1.07-.143 1.527-.428a3.008 3.008 0 0 0 1.076-1.235c.27-.538.404-1.157.404-1.858 0-.701-.135-1.317-.404-1.846-.26-.53-.62-.938-1.076-1.223a2.825 2.825 0 0 0-1.528-.428c-.48 0-.9.098-1.26.293a2.27 2.27 0 0 0-.843.77v-.965h-2.09v9.674h2.09Zm-6.594 0 4.114-9.674h-2.261l-1.565 4.267-1.577-4.267h-2.335l2.775 6.59-1.39 3.084h2.24Zm9.137-7.498c.294.293.44.701.44 1.223 0 .521-.146.937-.44 1.247a1.43 1.43 0 0 1-1.063.452c-.416 0-.77-.15-1.064-.452-.285-.302-.428-.713-.428-1.235 0-.522.143-.933.428-1.235a1.43 1.43 0 0 1 1.064-.452c.423 0 .778.15 1.063.452Zm9.85 1.125c0 .195-.012.4-.036.611H47.1c.032.424.167.75.403.978.245.22.542.33.893.33.521 0 .884-.22 1.088-.66h2.225a3.013 3.013 0 0 1-.624 1.21c-.293.359-.664.64-1.112.844-.449.204-.95.306-1.504.306-.668 0-1.263-.143-1.785-.428a3.043 3.043 0 0 1-1.223-1.223c-.293-.53-.44-1.15-.44-1.858 0-.71.143-1.329.428-1.858.294-.53.701-.938 1.223-1.223.521-.285 1.12-.428 1.797-.428.66 0 1.247.139 1.76.416.514.277.913.672 1.199 1.186.293.513.44 1.112.44 1.797Zm-2.139-.55c0-.359-.122-.644-.367-.856-.244-.212-.55-.318-.916-.318-.351 0-.648.102-.893.306-.236.203-.383.493-.44.868h2.616Zm5.761-2.494a2.7 2.7 0 0 0-.917.88V24.76h-2.09v6.822h2.09v-3.167c0-.562.13-.953.391-1.173.261-.228.652-.343 1.174-.343h.575v-2.212c-.449 0-.856.11-1.223.33Zm6.39 6.235a3.8 3.8 0 0 0 1.81.428c.668 0 1.27-.143 1.809-.428a3.144 3.144 0 0 0 1.283-1.223c.318-.538.477-1.157.477-1.858 0-.701-.155-1.316-.464-1.846a3.14 3.14 0 0 0-1.272-1.235 3.8 3.8 0 0 0-1.81-.428c-.668 0-1.27.143-1.809.428a3.14 3.14 0 0 0-1.271 1.235c-.31.53-.465 1.145-.465 1.846 0 .709.151 1.328.453 1.858.31.53.73.938 1.259 1.223Zm2.824-1.822c-.277.293-.615.44-1.015.44a1.3 1.3 0 0 1-1.002-.44c-.261-.293-.391-.713-.391-1.26 0-.553.134-.973.403-1.258.269-.294.607-.44 1.015-.44.4 0 .733.146 1.002.44.277.293.416.713.416 1.259 0 .546-.143.966-.428 1.26Z" clip-rule="evenodd"/>
      <path fill="#FD9E28" d="M57.613 23.734c.236.212.538.318.904.318.36 0 .653-.106.88-.318a1.06 1.06 0 0 0 .355-.807c0-.326-.118-.595-.354-.807-.228-.22-.522-.33-.88-.33-.367 0-.669.11-.905.33-.228.212-.343.48-.343.807 0 .318.115.587.343.807ZM22.315 389.28v-7.139h2.495c.498 0 .908.086 1.231.258.323.17.564.399.721.687.159.286.238.603.238.951 0 .307-.055.56-.164.76a1.27 1.27 0 0 1-.425.474 1.896 1.896 0 0 1-.569.258v.07c.219.014.438.091.66.23.22.14.405.339.553.6.15.26.223.578.223.955 0 .358-.08.679-.244.965-.162.286-.419.513-.77.68-.35.167-.808.251-1.37.251h-2.58Zm.864-.767h1.715c.565 0 .966-.109 1.203-.328.24-.22.359-.488.359-.801 0-.242-.062-.465-.185-.67a1.34 1.34 0 0 0-.526-.494 1.645 1.645 0 0 0-.809-.189h-1.757v2.482Zm0-3.235h1.604c.26 0 .495-.051.704-.153a1.23 1.23 0 0 0 .502-.432 1.15 1.15 0 0 0 .188-.656c0-.313-.11-.579-.328-.798-.218-.221-.564-.331-1.038-.331h-1.632v2.37Zm5.016 4.002v-5.354h.794v.809h.056c.098-.265.274-.48.53-.645a1.56 1.56 0 0 1 .865-.248 6.877 6.877 0 0 1 .432.014v.837a2.347 2.347 0 0 0-.192-.032 1.917 1.917 0 0 0-.31-.024c-.26 0-.493.055-.697.164a1.201 1.201 0 0 0-.655 1.091v3.388h-.823Zm5.272.112c-.484 0-.908-.115-1.273-.346a2.34 2.34 0 0 1-.85-.965c-.203-.414-.304-.897-.304-1.45 0-.558.102-1.045.304-1.461a2.34 2.34 0 0 1 .85-.969c.365-.23.79-.345 1.273-.345.483 0 .906.115 1.268.345.365.23.649.553.85.969.205.416.308.903.308 1.461 0 .553-.103 1.036-.307 1.45a2.308 2.308 0 0 1-.85.965c-.363.231-.786.346-1.27.346Zm0-.739c.367 0 .669-.095.906-.283.237-.188.412-.435.526-.742.114-.307.171-.639.171-.997s-.057-.692-.17-1.001a1.688 1.688 0 0 0-.527-.749c-.237-.191-.54-.286-.906-.286-.368 0-.67.095-.907.286-.237.191-.412.44-.526.749a2.871 2.871 0 0 0-.171 1.001c0 .358.057.69.17.997.115.307.29.554.527.742.237.188.54.283.907.283Zm6.663-1.562v-3.165h.823v5.354h-.823v-.906h-.056a1.75 1.75 0 0 1-.585.693c-.265.189-.6.283-1.004.283-.335 0-.632-.073-.893-.22a1.54 1.54 0 0 1-.613-.669c-.149-.3-.223-.678-.223-1.133v-3.402h.822v3.346c0 .391.11.702.328.934.22.233.502.349.844.349.204 0 .412-.052.624-.157a1.36 1.36 0 0 0 .536-.481c.147-.216.22-.491.22-.826Zm4.098 4.308c-.398 0-.74-.051-1.025-.153a2.176 2.176 0 0 1-.715-.397 2.181 2.181 0 0 1-.45-.523l.656-.46c.075.097.169.209.282.334.114.128.27.238.468.331.2.096.46.143.784.143.432 0 .789-.104 1.07-.313.281-.21.422-.537.422-.983v-1.088h-.07a4.15 4.15 0 0 1-.258.363 1.48 1.48 0 0 1-.474.38c-.204.109-.48.163-.83.163-.432 0-.82-.102-1.164-.306a2.154 2.154 0 0 1-.812-.893c-.198-.39-.296-.864-.296-1.422 0-.548.096-1.026.29-1.433.192-.409.46-.725.804-.948a2.128 2.128 0 0 1 1.192-.338c.349 0 .626.058.83.174.207.114.365.244.474.391.112.144.198.262.258.355h.084v-.85h.794v5.507c0 .461-.104.835-.313 1.123-.207.29-.486.503-.837.638a3.159 3.159 0 0 1-1.164.205Zm-.028-2.942c.33 0 .609-.075.837-.226.227-.151.4-.369.519-.652.119-.284.178-.623.178-1.018 0-.386-.058-.726-.175-1.021a1.533 1.533 0 0 0-.515-.694c-.228-.167-.51-.251-.844-.251-.349 0-.639.088-.871.265-.23.177-.404.414-.52.711a2.75 2.75 0 0 0-.17.99c0 .372.057.701.174.987.118.283.292.506.523.669.232.16.52.24.864.24Zm4.278-2.398v3.221h-.822v-7.139h.822v2.621h.07a1.51 1.51 0 0 1 .565-.658c.253-.165.59-.248 1.01-.248.366 0 .685.073.96.22.273.144.486.366.637.666.154.297.23.676.23 1.136v3.402h-.822v-3.346c0-.426-.11-.754-.332-.987-.218-.235-.521-.352-.91-.352-.269 0-.51.057-.724.171a1.25 1.25 0 0 0-.502.498 1.622 1.622 0 0 0-.182.795Zm6.913-2.133v.697h-2.775v-.697h2.775Zm-1.966-1.283h.823v5.103c0 .233.033.407.1.523a.52.52 0 0 0 .266.23c.109.037.224.056.345.056a1.5 1.5 0 0 0 .223-.014l.14-.028.167.739a1.732 1.732 0 0 1-.614.098c-.232 0-.46-.05-.683-.15-.22-.1-.404-.252-.55-.457-.145-.204-.217-.462-.217-.774v-5.326Zm7.508 1.283v.697h-2.775v-.697h2.774Zm-1.966-1.283h.822v5.103c0 .233.034.407.101.523a.52.52 0 0 0 .265.23c.11.037.224.056.345.056a1.5 1.5 0 0 0 .223-.014l.14-.028.167.739a1.734 1.734 0 0 1-.613.098c-.233 0-.46-.05-.684-.15-.22-.1-.404-.252-.55-.457-.144-.204-.216-.462-.216-.774v-5.326Zm4.928 6.749c-.483 0-.908-.115-1.272-.346a2.34 2.34 0 0 1-.85-.965c-.203-.414-.304-.897-.304-1.45 0-.558.1-1.045.303-1.461a2.34 2.34 0 0 1 .85-.969c.365-.23.79-.345 1.273-.345.483 0 .906.115 1.269.345.365.23.648.553.85.969.205.416.307.903.307 1.461 0 .553-.102 1.036-.307 1.45a2.309 2.309 0 0 1-.85.965c-.363.231-.786.346-1.27.346Zm0-.739c.367 0 .67-.095.906-.283a1.66 1.66 0 0 0 .527-.742c.114-.307.17-.639.17-.997s-.056-.692-.17-1.001a1.688 1.688 0 0 0-.527-.749c-.237-.191-.539-.286-.906-.286s-.67.095-.906.286a1.69 1.69 0 0 0-.527.749 2.87 2.87 0 0 0-.17 1.001c0 .358.056.69.17.997.114.307.29.554.527.742.237.188.539.283.906.283Zm6.187 2.635a1.817 1.817 0 0 1-.6-.098l.21-.725c.2.051.376.07.53.056a.637.637 0 0 0 .407-.206c.121-.121.232-.317.332-.589l.153-.418-1.98-5.382h.892l1.478 4.266h.056l1.478-4.266h.892l-2.272 6.135a2.339 2.339 0 0 1-.38.687 1.425 1.425 0 0 1-.527.407c-.197.089-.42.133-.669.133Zm6.525-1.896c-.483 0-.907-.115-1.272-.346a2.34 2.34 0 0 1-.85-.965c-.203-.414-.304-.897-.304-1.45 0-.558.101-1.045.303-1.461a2.34 2.34 0 0 1 .85-.969 2.34 2.34 0 0 1 1.273-.345c.483 0 .906.115 1.269.345.365.23.648.553.85.969.205.416.307.903.307 1.461 0 .553-.102 1.036-.307 1.45a2.309 2.309 0 0 1-.85.965c-.363.231-.786.346-1.269.346Zm0-.739c.367 0 .67-.095.906-.283a1.66 1.66 0 0 0 .527-.742c.114-.307.17-.639.17-.997s-.056-.692-.17-1.001a1.688 1.688 0 0 0-.527-.749c-.237-.191-.539-.286-.906-.286s-.67.095-.906.286a1.69 1.69 0 0 0-.527.749 2.87 2.87 0 0 0-.17 1.001c0 .358.056.69.17.997.114.307.29.554.527.742.237.188.539.283.906.283Zm6.663-1.562v-3.165h.823v5.354h-.823v-.906h-.055a1.75 1.75 0 0 1-.586.693c-.265.189-.6.283-1.004.283-.334 0-.632-.073-.892-.22a1.54 1.54 0 0 1-.614-.669c-.148-.3-.223-.678-.223-1.133v-3.402h.823v3.346c0 .391.11.702.328.934.22.233.502.349.843.349.205 0 .413-.052.624-.157.214-.104.393-.265.537-.481.146-.216.22-.491.22-.826Zm4.417 2.189v-7.139h.823v2.635h.07a7.29 7.29 0 0 1 .25-.355c.11-.147.265-.277.467-.391.205-.116.481-.174.83-.174.45 0 .848.113 1.192.338.344.226.612.545.805.959.193.413.29.902.29 1.464 0 .567-.097 1.058-.29 1.474-.192.414-.46.735-.801.962a2.092 2.092 0 0 1-1.182.339c-.344 0-.62-.057-.826-.171a1.535 1.535 0 0 1-.478-.394 5.243 5.243 0 0 1-.258-.37h-.097v.823h-.795Zm.809-2.677c0 .404.059.761.177 1.07.119.307.292.547.52.722.228.172.506.258.836.258.344 0 .631-.091.861-.272a1.66 1.66 0 0 0 .523-.739c.119-.312.178-.658.178-1.039a2.82 2.82 0 0 0-.174-1.018 1.57 1.57 0 0 0-.52-.721c-.23-.179-.519-.269-.868-.269-.334 0-.615.085-.843.255-.228.167-.4.402-.516.704a2.889 2.889 0 0 0-.174 1.049Zm5.122 4.685a1.819 1.819 0 0 1-.6-.098l.21-.725c.199.051.376.07.529.056a.637.637 0 0 0 .408-.206c.12-.121.231-.317.33-.589l.154-.418-1.98-5.382h.893l1.478 4.266h.055l1.478-4.266h.893l-2.273 6.135a2.339 2.339 0 0 1-.38.687 1.425 1.425 0 0 1-.526.407c-.198.089-.42.133-.67.133Zm8.234-5.103v3.095h-1.485v-7.139h1.443v2.729h.063c.12-.316.316-.563.585-.742.27-.181.608-.272 1.015-.272.371 0 .696.081.972.244.279.16.495.392.649.694.155.3.232.659.23 1.077v3.409h-1.485v-3.144c.002-.33-.082-.587-.251-.771-.168-.183-.402-.275-.704-.275-.203 0-.382.043-.537.129a.917.917 0 0 0-.363.377c-.086.162-.13.359-.132.589Zm4.973 5.103c-.189 0-.365-.015-.53-.045a1.884 1.884 0 0 1-.405-.109l.335-1.108c.174.053.331.082.471.087a.603.603 0 0 0 .366-.097c.104-.07.189-.189.254-.356l.087-.227-1.92-5.507h1.561l1.109 3.932h.055l1.119-3.932h1.573l-2.082 5.933a2.474 2.474 0 0 1-.407.753c-.17.216-.385.382-.645.498-.26.119-.574.178-.941.178Zm4.442 0v-7.362h1.464v.899h.066c.065-.144.159-.29.282-.439a1.49 1.49 0 0 1 .488-.376c.203-.103.454-.154.753-.154.391 0 .751.102 1.081.307.33.202.594.508.791.917.198.406.296.916.296 1.53 0 .597-.096 1.101-.289 1.513-.19.409-.451.719-.781.93-.327.21-.694.314-1.101.314a1.71 1.71 0 0 1-.736-.143 1.516 1.516 0 0 1-.491-.359 1.81 1.81 0 0 1-.293-.442h-.045v2.865h-1.485Zm1.453-4.685c0 .318.045.596.133.833.088.237.216.422.383.554.168.13.371.195.61.195a.962.962 0 0 0 .614-.198c.167-.135.294-.321.38-.558.088-.239.132-.515.132-.826 0-.309-.043-.581-.129-.816a1.209 1.209 0 0 0-.38-.55.96.96 0 0 0-.617-.199.98.98 0 0 0-.613.192 1.197 1.197 0 0 0-.38.543 2.365 2.365 0 0 0-.133.83Zm6.806 2.782c-.551 0-1.025-.112-1.422-.335a2.294 2.294 0 0 1-.914-.955c-.213-.414-.32-.903-.32-1.468 0-.55.107-1.034.32-1.45.214-.416.515-.74.903-.972.391-.233.848-.349 1.374-.349.353 0 .682.057.986.171.307.111.574.28.802.505.23.226.409.509.537.851.127.339.191.737.191 1.192v.408h-4.521v-.92h3.124a1.14 1.14 0 0 0-.14-.569.99.99 0 0 0-.387-.386 1.095 1.095 0 0 0-.568-.143 1.11 1.11 0 0 0-1.004.571 1.186 1.186 0 0 0-.15.575v.875c0 .265.049.494.147.687.1.193.24.342.421.446.182.105.397.157.645.157.165 0 .316-.023.453-.07a.922.922 0 0 0 .352-.209.921.921 0 0 0 .224-.341l1.373.09c-.07.33-.213.618-.429.865-.214.244-.49.434-.829.571a3.127 3.127 0 0 1-1.168.203Zm3.034-.105v-5.354h1.439v.934h.056c.098-.332.262-.583.492-.753.23-.172.495-.258.794-.258a2.326 2.326 0 0 1 .468.052v1.318a2.641 2.641 0 0 0-.628-.08c-.218 0-.414.048-.586.143a1.058 1.058 0 0 0-.404.39c-.097.168-.146.36-.146.579v3.029h-1.485Zm3.624 0v-5.354h1.485v5.354h-1.485Zm.746-6.044a.81.81 0 0 1-.569-.22.713.713 0 0 1-.233-.533.7.7 0 0 1 .233-.527.804.804 0 0 1 .569-.223.79.79 0 0 1 .564.223.694.694 0 0 1 .237.527.707.707 0 0 1-.237.533.795.795 0 0 1-.564.22Zm3.955 6.149c-.542 0-1.01-.115-1.405-.345a2.366 2.366 0 0 1-.91-.97c-.214-.416-.321-.898-.321-1.446 0-.553.107-1.037.321-1.45.214-.416.517-.739.91-.969.395-.233.863-.349 1.405-.349.541 0 1.008.116 1.401.349.395.23.699.553.913.969.214.413.321.897.321 1.45 0 .548-.107 1.03-.321 1.446a2.36 2.36 0 0 1-.913.97c-.393.23-.86.345-1.401.345Zm.007-1.151a.92.92 0 0 0 .617-.209 1.3 1.3 0 0 0 .373-.578c.086-.245.129-.522.129-.834a2.5 2.5 0 0 0-.129-.833 1.294 1.294 0 0 0-.373-.578.913.913 0 0 0-.617-.213.946.946 0 0 0-.628.213 1.304 1.304 0 0 0-.38.578 2.581 2.581 0 0 0-.125.833c0 .312.042.589.125.834.086.244.213.436.38.578.17.14.379.209.628.209Zm4.069 1.137a.818.818 0 0 1-.593-.244.818.818 0 0 1-.244-.593c0-.228.082-.423.244-.586a.818.818 0 0 1 .593-.244c.223 0 .418.082.585.244a.786.786 0 0 1 .251.586.788.788 0 0 1-.118.422.914.914 0 0 1-.303.303.805.805 0 0 1-.415.112Zm4.082.014c-.548 0-1.02-.117-1.415-.349a2.361 2.361 0 0 1-.907-.976c-.209-.416-.313-.895-.313-1.436 0-.549.105-1.03.317-1.443.214-.416.517-.74.91-.973.392-.235.86-.352 1.401-.352.467 0 .876.085 1.227.255.351.169.629.407.833.714.205.307.317.667.338 1.081h-1.401a1.085 1.085 0 0 0-.314-.645c-.167-.165-.387-.248-.659-.248a.993.993 0 0 0-.603.189 1.198 1.198 0 0 0-.397.54 2.315 2.315 0 0 0-.143.861c0 .342.047.632.14.871.095.24.228.422.4.548a.999.999 0 0 0 .603.188c.17 0 .322-.035.457-.105a.87.87 0 0 0 .338-.303c.091-.135.15-.296.178-.484h1.401a2.197 2.197 0 0 1-.334 1.08 2.022 2.022 0 0 1-.82.725c-.348.174-.761.262-1.237.262Zm4.434-3.2v3.095h-1.485v-7.139h1.444v2.729h.062c.121-.316.316-.563.586-.742.269-.181.608-.272 1.014-.272.372 0 .696.081.973.244.279.16.495.392.648.694.156.3.233.659.23 1.077v3.409h-1.485v-3.144c.003-.33-.081-.587-.251-.771-.167-.183-.402-.275-.704-.275-.202 0-.381.043-.537.129a.915.915 0 0 0-.362.377 1.28 1.28 0 0 0-.133.589ZM296.48 24.478c-.45-.002-.837-.113-1.161-.332-.322-.22-.571-.538-.745-.955-.173-.416-.258-.917-.256-1.503 0-.584.086-1.081.259-1.493.174-.411.422-.724.745-.938.324-.216.71-.324 1.158-.324.448 0 .833.108 1.155.324.324.216.574.53.748.94.174.41.261.907.259 1.491 0 .588-.087 1.09-.262 1.506-.172.416-.42.735-.742.954-.323.22-.709.33-1.158.33Zm0-.939c.307 0 .551-.154.734-.463.183-.308.274-.77.272-1.388 0-.406-.042-.744-.125-1.014-.082-.27-.199-.473-.351-.61a.76.76 0 0 0-.53-.203c-.305 0-.549.152-.732.457-.183.305-.276.762-.277 1.37 0 .411.041.755.123 1.03.083.274.201.48.352.617.152.136.33.204.534.204Zm4.774.939c-.45-.002-.837-.113-1.161-.332-.322-.22-.571-.538-.745-.955-.173-.416-.258-.917-.256-1.503 0-.584.086-1.081.259-1.493.174-.411.422-.724.745-.938.324-.216.71-.324 1.158-.324.448 0 .833.108 1.155.324.325.216.574.53.748.94.174.41.261.907.259 1.491 0 .588-.087 1.09-.262 1.506-.172.416-.42.735-.742.954-.322.22-.708.33-1.158.33Zm0-.939c.307 0 .551-.154.734-.463.183-.308.274-.77.272-1.388 0-.406-.041-.744-.125-1.014-.082-.27-.199-.473-.35-.61a.765.765 0 0 0-.531-.203c-.305 0-.549.152-.732.457-.183.305-.276.762-.277 1.37 0 .411.041.755.123 1.03.083.274.201.48.353.617a.772.772 0 0 0 .533.204Zm2.675.821v-.816l1.905-1.764c.163-.157.299-.298.408-.424.112-.125.196-.248.254-.369a.921.921 0 0 0 .086-.394.748.748 0 0 0-.107-.405.7.7 0 0 0-.293-.265.919.919 0 0 0-.421-.094.88.88 0 0 0-.428.1.685.685 0 0 0-.283.285.927.927 0 0 0-.099.442h-1.075c0-.35.08-.655.238-.913a1.59 1.59 0 0 1 .667-.599 2.22 2.22 0 0 1 .988-.211c.384 0 .717.068 1.001.204.286.134.508.32.667.559.159.239.238.512.238.82 0 .203-.04.403-.12.6a2.524 2.524 0 0 1-.421.656 9.65 9.65 0 0 1-.855.86l-.782.766v.037h2.249v.925h-3.817Z"/>
      <path fill="#fff" d="M226.246 32.95v-5.353h1.132v2.209h2.298v-2.21h1.129v5.355h-1.129v-2.212h-2.298v2.212h-1.132Zm5.939 1.507c-.142 0-.274-.011-.398-.034a1.441 1.441 0 0 1-.303-.081l.251-.832c.131.04.248.062.353.066a.447.447 0 0 0 .274-.073.543.543 0 0 0 .191-.267l.066-.17-1.441-4.13h1.171l.832 2.948h.041l.84-2.949h1.179l-1.561 4.45a1.87 1.87 0 0 1-.306.565 1.248 1.248 0 0 1-.484.373c-.195.09-.43.134-.705.134Zm3.405 0v-5.522h1.098v.675h.05c.048-.108.119-.218.211-.33.094-.113.216-.207.366-.282.152-.077.34-.115.565-.115.293 0 .563.077.81.23.248.152.446.38.594.688.148.305.222.687.222 1.147 0 .448-.072.826-.217 1.135-.143.307-.338.54-.586.698a1.5 1.5 0 0 1-.826.235c-.216 0-.4-.035-.551-.107a1.143 1.143 0 0 1-.369-.27 1.345 1.345 0 0 1-.219-.331h-.034v2.149h-1.114Zm1.09-3.514c0 .239.033.447.099.625a.93.93 0 0 0 .288.416.721.721 0 0 0 .457.146.72.72 0 0 0 .461-.149.936.936 0 0 0 .285-.418 1.79 1.79 0 0 0 .099-.62c0-.232-.032-.436-.097-.612a.903.903 0 0 0-.285-.413.722.722 0 0 0-.463-.149.737.737 0 0 0-.46.144.913.913 0 0 0-.285.408 1.77 1.77 0 0 0-.099.622Zm5.178 2.086c-.413 0-.769-.083-1.067-.25a1.719 1.719 0 0 1-.685-.717c-.16-.31-.24-.677-.24-1.1 0-.414.08-.776.24-1.088.16-.312.386-.555.677-.73a1.976 1.976 0 0 1 1.03-.261c.265 0 .512.043.74.128.23.084.431.21.601.38a1.7 1.7 0 0 1 .403.637c.096.255.144.553.144.894v.306h-3.391v-.69h2.343a.85.85 0 0 0-.105-.426.749.749 0 0 0-.29-.29.827.827 0 0 0-.426-.108.86.86 0 0 0-.45.118.823.823 0 0 0-.303.311.873.873 0 0 0-.113.431v.657c0 .198.037.37.11.515.075.144.18.256.316.334a.954.954 0 0 0 .484.118c.124 0 .237-.017.34-.052a.68.68 0 0 0 .431-.413l1.03.068a1.404 1.404 0 0 1-.321.648 1.622 1.622 0 0 1-.622.429 2.348 2.348 0 0 1-.876.151Zm2.349-.078v-4.016h1.08v.7h.041c.074-.248.196-.437.369-.564a.97.97 0 0 1 .596-.193 1.685 1.685 0 0 1 .35.039v.988a1.945 1.945 0 0 0-.47-.06.89.89 0 0 0-.439.107.786.786 0 0 0-.413.727v2.272h-1.114Zm2.791 0v-4.016h1.114v4.016h-1.114Zm.56-4.533a.603.603 0 0 1-.426-.165.534.534 0 0 1 0-.795.598.598 0 0 1 .426-.167.59.59 0 0 1 .423.167.52.52 0 0 1 .178.395.529.529 0 0 1-.178.4.594.594 0 0 1-.423.165Zm3.04 4.611c-.406 0-.758-.086-1.054-.259a1.771 1.771 0 0 1-.682-.726 2.333 2.333 0 0 1-.241-1.085c0-.415.08-.777.241-1.088a1.75 1.75 0 0 1 .682-.727c.296-.174.648-.261 1.054-.261s.756.087 1.051.261c.296.173.524.415.685.727.16.31.24.673.24 1.088 0 .411-.08.773-.24 1.085-.161.31-.389.552-.685.727-.295.172-.645.258-1.051.258Zm.005-.862a.693.693 0 0 0 .463-.157.972.972 0 0 0 .279-.434 1.86 1.86 0 0 0 .097-.625 1.86 1.86 0 0 0-.097-.625.972.972 0 0 0-.279-.434.686.686 0 0 0-.463-.16.71.71 0 0 0-.471.16.99.99 0 0 0-.285.434 1.942 1.942 0 0 0-.094.625c0 .233.032.442.094.625a.99.99 0 0 0 .285.434.719.719 0 0 0 .471.157Zm7.529-2.84a1.165 1.165 0 0 0-.155-.337 1.04 1.04 0 0 0-.567-.41 1.366 1.366 0 0 0-.4-.055c-.274 0-.514.068-.721.204a1.334 1.334 0 0 0-.481.593c-.116.258-.173.574-.173.947s.057.69.17.951c.113.262.274.461.481.599.207.136.452.204.735.204.256 0 .475-.046.656-.136a.975.975 0 0 0 .418-.39c.098-.167.146-.365.146-.593l.231.034h-1.381v-.852h2.241v.674c0 .47-.1.875-.298 1.213a2.037 2.037 0 0 1-.821.78 2.56 2.56 0 0 1-1.198.271c-.502 0-.943-.11-1.323-.332a2.304 2.304 0 0 1-.888-.949c-.211-.411-.317-.9-.317-1.464 0-.434.063-.82.189-1.16.127-.342.305-.632.533-.869a2.29 2.29 0 0 1 .797-.54c.303-.125.632-.187.986-.187.303 0 .585.045.847.134.261.087.493.21.695.371a2 2 0 0 1 .5.573c.129.22.211.462.248.726h-1.15Zm1.808 3.624v-4.016h1.08v.7h.042a1.04 1.04 0 0 1 .368-.564.972.972 0 0 1 .596-.193 1.718 1.718 0 0 1 .351.039v.988a1.96 1.96 0 0 0-.471-.06.89.89 0 0 0-.439.107.79.79 0 0 0-.413.727v2.272h-1.114Zm4.419.078c-.406 0-.757-.086-1.053-.259a1.774 1.774 0 0 1-.683-.726 2.345 2.345 0 0 1-.24-1.085c0-.415.08-.777.24-1.088.161-.312.388-.554.683-.727.296-.174.647-.261 1.053-.261.406 0 .757.087 1.051.261.296.173.525.415.685.727.16.31.241.673.241 1.088 0 .411-.081.773-.241 1.085-.16.31-.389.552-.685.727-.294.172-.645.258-1.051.258Zm.005-.862a.693.693 0 0 0 .463-.157.974.974 0 0 0 .28-.434 1.89 1.89 0 0 0 .097-.625c0-.234-.033-.442-.097-.625a.974.974 0 0 0-.28-.434.686.686 0 0 0-.463-.16.708.708 0 0 0-.47.16.973.973 0 0 0-.285.434 1.915 1.915 0 0 0-.094.625c0 .233.031.442.094.625a.973.973 0 0 0 .285.434.716.716 0 0 0 .47.157Zm3.166.784-1.092-4.016h1.126l.623 2.698h.036l.649-2.698h1.105l.659 2.683h.034l.612-2.683h1.124l-1.09 4.016h-1.179l-.69-2.526h-.05l-.69 2.526h-1.177Zm7.385-4.016v.837h-2.418v-.837h2.418Zm-1.869-.962h1.114v3.744a.5.5 0 0 0 .047.24.258.258 0 0 0 .131.118.533.533 0 0 0 .198.034.936.936 0 0 0 .157-.013l.12-.023.176.828a3.25 3.25 0 0 1-.236.06 1.82 1.82 0 0 1-.368.045 1.689 1.689 0 0 1-.706-.107.98.98 0 0 1-.468-.382c-.112-.173-.167-.39-.165-.654v-3.89Zm3.574 2.656v2.322h-1.114v-5.354h1.083v2.047h.047c.09-.237.237-.423.439-.557.202-.136.456-.204.761-.204.278 0 .522.061.729.183.209.12.371.294.486.52.117.225.175.494.173.808v2.557h-1.114v-2.358c.002-.248-.061-.44-.188-.578-.126-.138-.302-.207-.528-.207a.82.82 0 0 0-.403.097.69.69 0 0 0-.272.283.965.965 0 0 0-.099.441Zm5.895-3.032v5.354h-1.132v-5.354h1.132Zm1.804 3.032v2.322h-1.114v-4.016h1.061v.709h.047c.089-.234.238-.418.448-.554a1.35 1.35 0 0 1 .76-.207c.279 0 .522.061.73.183.207.122.368.296.483.523.115.225.173.493.173.805v2.557h-1.114v-2.358c.002-.246-.061-.438-.188-.575-.127-.14-.302-.21-.526-.21a.8.8 0 0 0-.397.097.68.68 0 0 0-.267.283.978.978 0 0 0-.096.441Zm6.586-.549-1.02.063a.527.527 0 0 0-.112-.235.596.596 0 0 0-.228-.17.77.77 0 0 0-.332-.066.814.814 0 0 0-.436.11c-.119.072-.178.168-.178.288 0 .096.038.177.115.243.077.066.208.12.395.16l.727.146c.39.08.681.21.873.387.192.178.287.411.287.7 0 .264-.077.495-.232.693a1.518 1.518 0 0 1-.633.466 2.41 2.41 0 0 1-.923.164c-.531 0-.955-.11-1.27-.332a1.293 1.293 0 0 1-.552-.91l1.095-.057a.568.568 0 0 0 .241.371.87.87 0 0 0 .489.126.867.867 0 0 0 .47-.113c.121-.076.182-.175.183-.295a.304.304 0 0 0-.128-.248c-.083-.067-.212-.117-.387-.152l-.695-.139c-.392-.078-.684-.214-.876-.408a1.012 1.012 0 0 1-.285-.74c0-.257.07-.48.209-.666.142-.187.339-.33.594-.431a2.44 2.44 0 0 1 .899-.152c.507 0 .906.107 1.198.322.292.214.463.506.512.875Zm.572 2.87v-4.015h1.114v4.016h-1.114Zm.559-4.532a.607.607 0 0 1-.426-.165.533.533 0 0 1-.175-.4c0-.153.058-.285.175-.395a.601.601 0 0 1 .426-.167c.166 0 .307.056.424.167a.532.532 0 0 1 0 .795.597.597 0 0 1-.424.165Zm3.035 6.123c-.361 0-.67-.05-.928-.15a1.544 1.544 0 0 1-.612-.4 1.232 1.232 0 0 1-.295-.57l1.03-.138c.031.08.081.155.149.225.068.07.158.125.269.167.113.044.251.066.413.066a.97.97 0 0 0 .599-.178c.158-.117.238-.313.238-.589v-.734h-.047a1.056 1.056 0 0 1-.22.316c-.098.1-.223.18-.376.243a1.452 1.452 0 0 1-.549.094 1.65 1.65 0 0 1-.824-.209 1.495 1.495 0 0 1-.588-.645c-.145-.292-.217-.66-.217-1.104 0-.455.074-.835.222-1.14.148-.305.345-.533.591-.685a1.53 1.53 0 0 1 .813-.227c.225 0 .413.038.565.115.151.075.273.17.366.282.094.112.166.222.217.33h.042v-.675h1.105v4.055c0 .342-.083.628-.251.858-.167.23-.399.402-.695.517a2.748 2.748 0 0 1-1.017.175Zm.024-2.484a.756.756 0 0 0 .454-.134.842.842 0 0 0 .288-.386c.068-.17.102-.372.102-.607s-.033-.44-.099-.612a.896.896 0 0 0-.288-.405.73.73 0 0 0-.457-.144.722.722 0 0 0-.463.15.887.887 0 0 0-.285.407 1.723 1.723 0 0 0-.097.604c0 .232.032.432.097.601a.868.868 0 0 0 .285.39.77.77 0 0 0 .463.136Zm3.718-1.428v2.322H297.7v-5.354h1.082v2.047h.047a1.14 1.14 0 0 1 .439-.557c.203-.136.456-.204.761-.204.279 0 .522.061.73.183.209.12.371.294.486.52.117.225.174.494.172.808v2.557h-1.113v-2.358c.001-.248-.061-.44-.189-.578-.125-.138-.301-.207-.528-.207a.819.819 0 0 0-.402.097.685.685 0 0 0-.272.283.952.952 0 0 0-.1.441Zm5.396-1.694v.837h-2.418v-.837h2.418Zm-1.869-.962h1.113v3.744c0 .103.016.183.047.24a.262.262 0 0 0 .131.118.542.542 0 0 0 .199.034.954.954 0 0 0 .157-.013l.12-.023.175.828a3.199 3.199 0 0 1-.235.06c-.101.025-.224.04-.369.045a1.691 1.691 0 0 1-.706-.107.989.989 0 0 1-.468-.382c-.111-.173-.166-.39-.164-.654v-3.89Zm5.664 2.107-1.019.063a.53.53 0 0 0-.113-.235.592.592 0 0 0-.227-.17.774.774 0 0 0-.332-.066.817.817 0 0 0-.437.11c-.118.072-.178.168-.178.288a.31.31 0 0 0 .116.243c.076.066.208.12.394.16l.727.146c.39.08.682.21.873.387a.91.91 0 0 1 .288.7c0 .264-.078.495-.233.693a1.505 1.505 0 0 1-.633.466 2.4 2.4 0 0 1-.922.164c-.532 0-.955-.11-1.271-.332a1.293 1.293 0 0 1-.552-.91l1.096-.057a.563.563 0 0 0 .24.371.878.878 0 0 0 .489.126.873.873 0 0 0 .471-.113c.12-.076.181-.175.183-.295a.31.31 0 0 0-.128-.248.924.924 0 0 0-.387-.152l-.696-.139c-.392-.078-.684-.214-.875-.408a1.012 1.012 0 0 1-.285-.74c0-.257.069-.48.209-.666a1.34 1.34 0 0 1 .593-.431c.256-.102.556-.152.9-.152.507 0 .906.107 1.197.322.293.214.464.506.512.875ZM22.945 116.115v-13.609h4.851c1.06 0 1.936.193 2.632.578a3.758 3.758 0 0 1 1.561 1.581c.346.665.519 1.414.519 2.247 0 .837-.175 1.59-.525 2.259-.346.664-.869 1.192-1.569 1.581-.695.386-1.57.579-2.624.579h-3.336v-1.742h3.15c.669 0 1.211-.115 1.628-.345.416-.235.722-.554.917-.957a3.12 3.12 0 0 0 .292-1.375c0-.514-.097-.971-.292-1.369a2.096 2.096 0 0 0-.924-.937c-.417-.226-.966-.339-1.648-.339h-2.578v11.848h-2.054Zm11.062 0v-10.207h1.92v1.622h.107c.186-.55.514-.982.983-1.296a2.814 2.814 0 0 1 1.608-.479 8.421 8.421 0 0 1 .844.047v1.9a3.69 3.69 0 0 0-.425-.073 4.057 4.057 0 0 0-.611-.046c-.47 0-.889.099-1.256.299a2.221 2.221 0 0 0-1.183 2v6.233h-1.987Zm10.367.206c-.957 0-1.792-.219-2.505-.658-.713-.438-1.267-1.052-1.661-1.841-.395-.788-.592-1.71-.592-2.764 0-1.059.197-1.985.592-2.778.394-.793.948-1.408 1.66-1.847.714-.439 1.55-.658 2.506-.658.957 0 1.792.219 2.505.658.713.439 1.267 1.054 1.661 1.847.395.793.592 1.719.592 2.778 0 1.054-.197 1.976-.592 2.764a4.434 4.434 0 0 1-1.66 1.841c-.714.439-1.55.658-2.506.658Zm.007-1.668c.62 0 1.134-.164 1.541-.492.408-.327.71-.764.904-1.309.2-.545.299-1.145.299-1.801 0-.651-.1-1.249-.299-1.794-.195-.549-.496-.99-.904-1.322-.407-.332-.921-.499-1.541-.499-.625 0-1.143.167-1.555.499-.408.332-.711.773-.91 1.322a5.291 5.291 0 0 0-.293 1.794c0 .656.097 1.256.292 1.801.2.545.503.982.91 1.309.413.328.931.492 1.556.492Zm10.985-8.745v1.595H49.79v-1.595h5.576Zm-4.08-2.445h1.986v9.655c0 .385.058.676.173.871.115.19.264.321.446.392.186.066.387.099.604.099.16 0 .3-.011.419-.033l.279-.053.359 1.641c-.115.045-.28.089-.492.133a3.91 3.91 0 0 1-.797.08 3.495 3.495 0 0 1-1.462-.279 2.506 2.506 0 0 1-1.097-.904c-.279-.408-.418-.919-.418-1.535v-10.067Zm9.719 12.858c-.957 0-1.792-.219-2.505-.658-.714-.438-1.267-1.052-1.662-1.841-.394-.788-.591-1.71-.591-2.764 0-1.059.197-1.985.591-2.778.395-.793.948-1.408 1.662-1.847.713-.439 1.548-.658 2.505-.658.957 0 1.792.219 2.505.658.713.439 1.267 1.054 1.661 1.847.395.793.592 1.719.592 2.778 0 1.054-.197 1.976-.592 2.764-.394.789-.948 1.403-1.661 1.841-.713.439-1.548.658-2.505.658Zm.006-1.668c.62 0 1.134-.164 1.542-.492.408-.327.709-.764.904-1.309.2-.545.299-1.145.299-1.801 0-.651-.1-1.249-.3-1.794-.194-.549-.495-.99-.903-1.322-.407-.332-.921-.499-1.542-.499-.624 0-1.143.167-1.555.499-.407.332-.71.773-.91 1.322a5.294 5.294 0 0 0-.292 1.794c0 .656.097 1.256.292 1.801.2.545.503.982.91 1.309.412.328.93.492 1.555.492Zm10.985-8.745v1.595h-5.575v-1.595h5.575Zm-4.08-2.445h1.987v9.655c0 .385.058.676.173.871.115.19.264.321.445.392.186.066.388.099.605.099.16 0 .299-.011.419-.033l.279-.053.359 1.641c-.116.045-.28.089-.492.133a3.912 3.912 0 0 1-.798.08 3.495 3.495 0 0 1-1.462-.279 2.506 2.506 0 0 1-1.096-.904c-.279-.408-.419-.919-.419-1.535v-10.067Zm6.786 16.48c-.297 0-.567-.025-.81-.074a2.545 2.545 0 0 1-.546-.146l.479-1.628c.363.098.686.14.97.126a1.16 1.16 0 0 0 .75-.318c.222-.2.417-.525.585-.977l.246-.678-3.734-10.34h2.126l2.585 7.921h.107l2.585-7.921h2.133l-4.207 11.569a4.615 4.615 0 0 1-.744 1.349 2.89 2.89 0 0 1-1.077.837c-.416.187-.899.28-1.448.28Zm8.594 0v-14.035h1.94v1.655h.167c.115-.213.281-.459.498-.738.217-.279.519-.523.904-.731.385-.212.895-.319 1.528-.319.824 0 1.56.208 2.207.625.646.416 1.153 1.017 1.521 1.801.372.784.558 1.727.558 2.83 0 1.104-.183 2.049-.551 2.838-.368.784-.873 1.389-1.515 1.814-.643.421-1.376.631-2.2.631-.62 0-1.127-.104-1.521-.312-.39-.208-.696-.452-.917-.731a5.53 5.53 0 0 1-.512-.744h-.12v5.416h-1.987Zm1.947-8.931c0 .717.105 1.346.313 1.887.208.54.51.963.903 1.269.395.301.878.452 1.449.452.594 0 1.09-.157 1.489-.472.398-.319.7-.751.903-1.296.209-.545.313-1.158.313-1.84 0-.674-.102-1.279-.306-1.815-.2-.536-.5-.959-.904-1.269-.399-.31-.897-.465-1.495-.465-.576 0-1.063.148-1.462.445-.394.297-.693.711-.897 1.243-.204.532-.306 1.152-.306 1.861Zm13.253 5.309c-1.005 0-1.872-.215-2.598-.645a4.37 4.37 0 0 1-1.675-1.827c-.39-.789-.585-1.712-.585-2.771 0-1.045.195-1.967.585-2.764.395-.798.944-1.42 1.648-1.868.71-.447 1.538-.671 2.486-.671.575 0 1.134.095 1.674.286.541.19 1.026.489 1.455.897.43.408.769.937 1.017 1.588.248.647.372 1.433.372 2.359v.705h-8.114v-1.489h6.167c0-.523-.106-.986-.319-1.389a2.407 2.407 0 0 0-.897-.963c-.38-.235-.828-.352-1.342-.352-.558 0-1.046.137-1.462.412a2.76 2.76 0 0 0-.957 1.063 3.068 3.068 0 0 0-.332 1.415v1.163c0 .682.12 1.263.359 1.741.243.479.582.844 1.016 1.097.434.248.942.372 1.522.372.377 0 .72-.054 1.03-.16a2.126 2.126 0 0 0 1.322-1.296l1.881.339a3.413 3.413 0 0 1-.811 1.456c-.385.412-.87.733-1.455.963-.58.226-1.243.339-1.987.339Zm-75.551 26.163v-13.609h4.851c1.06 0 1.936.193 2.632.578a3.758 3.758 0 0 1 1.561 1.581c.346.665.519 1.414.519 2.247 0 .837-.175 1.59-.525 2.259-.346.664-.869 1.192-1.569 1.581-.695.386-1.57.579-2.624.579h-3.336v-1.741h3.15c.669 0 1.211-.116 1.628-.346.416-.235.722-.554.917-.957a3.12 3.12 0 0 0 .292-1.375c0-.514-.097-.971-.292-1.369a2.096 2.096 0 0 0-.924-.937c-.417-.226-.966-.339-1.648-.339h-2.578v11.848h-2.054Zm11.062 0v-10.207h1.92v1.622h.107c.186-.55.514-.982.983-1.296a2.814 2.814 0 0 1 1.608-.479 8.421 8.421 0 0 1 .844.047v1.9a3.69 3.69 0 0 0-.425-.073 4.057 4.057 0 0 0-.611-.046c-.47 0-.889.099-1.256.299a2.221 2.221 0 0 0-1.183 2v6.233h-1.987Zm10.367.206c-.957 0-1.792-.219-2.505-.658-.713-.438-1.267-1.052-1.661-1.841-.395-.788-.592-1.71-.592-2.764 0-1.059.197-1.985.592-2.778.394-.793.948-1.408 1.66-1.847.714-.438 1.55-.658 2.506-.658.957 0 1.792.22 2.505.658.713.439 1.267 1.054 1.661 1.847.395.793.592 1.719.592 2.778 0 1.054-.197 1.976-.592 2.764a4.434 4.434 0 0 1-1.66 1.841c-.714.439-1.55.658-2.506.658Zm.007-1.668c.62 0 1.134-.164 1.541-.492.408-.327.71-.764.904-1.309.2-.545.299-1.145.299-1.801 0-.651-.1-1.249-.299-1.794-.195-.549-.496-.99-.904-1.322-.407-.332-.921-.499-1.541-.499-.625 0-1.143.167-1.555.499-.408.332-.711.773-.91 1.322a5.291 5.291 0 0 0-.293 1.794c0 .656.097 1.256.292 1.801.2.545.503.982.91 1.309.413.328.931.492 1.556.492Zm10.52 1.668c-.957 0-1.792-.219-2.506-.658-.713-.438-1.267-1.052-1.661-1.841-.394-.788-.591-1.71-.591-2.764 0-1.059.197-1.985.591-2.778.394-.793.948-1.408 1.661-1.847.714-.438 1.549-.658 2.505-.658.957 0 1.793.22 2.506.658.713.439 1.267 1.054 1.661 1.847.394.793.591 1.719.591 2.778 0 1.054-.197 1.976-.591 2.764-.394.789-.948 1.403-1.661 1.841-.713.439-1.549.658-2.505.658Zm.006-1.668c.62 0 1.134-.164 1.542-.492.407-.327.709-.764.904-1.309a5.215 5.215 0 0 0 .299-1.801c0-.651-.1-1.249-.3-1.794-.194-.549-.496-.99-.903-1.322-.408-.332-.922-.499-1.542-.499-.624 0-1.143.167-1.555.499-.407.332-.71.773-.91 1.322a5.294 5.294 0 0 0-.292 1.794c0 .656.097 1.256.292 1.801.2.545.503.982.91 1.309.412.328.93.492 1.555.492Zm11.078-8.745v1.595h-5.768v-1.595h5.768ZM61.8 142.484v-11.39c0-.638.14-1.167.419-1.588a2.56 2.56 0 0 1 1.11-.95c.46-.213.96-.319 1.501-.319.399 0 .74.033 1.023.1.284.062.494.119.632.172l-.465 1.608a12.336 12.336 0 0 0-.36-.093 2.086 2.086 0 0 0-.53-.059c-.484 0-.83.119-1.038.358-.203.24-.305.585-.305 1.037v11.124H61.8Zm13.991.206c-.957 0-1.792-.219-2.505-.658-.713-.438-1.267-1.052-1.661-1.841-.395-.788-.592-1.71-.592-2.764 0-1.059.197-1.985.592-2.778.394-.793.948-1.408 1.66-1.847.714-.438 1.55-.658 2.506-.658.957 0 1.792.22 2.505.658.713.439 1.267 1.054 1.661 1.847.395.793.592 1.719.592 2.778 0 1.054-.197 1.976-.592 2.764a4.434 4.434 0 0 1-1.66 1.841c-.714.439-1.55.658-2.506.658Zm.007-1.668c.62 0 1.134-.164 1.541-.492.408-.327.71-.764.904-1.309.2-.545.299-1.145.299-1.801 0-.651-.1-1.249-.299-1.794-.195-.549-.496-.99-.904-1.322-.407-.332-.921-.499-1.541-.499-.625 0-1.143.167-1.555.499-.408.332-.711.773-.91 1.322a5.291 5.291 0 0 0-.293 1.794c0 .656.097 1.256.292 1.801.2.545.503.982.91 1.309.413.328.931.492 1.556.492Zm11.078-8.745v1.595h-5.768v-1.595h5.768Zm-4.187 10.207v-11.39c0-.638.14-1.167.419-1.588a2.566 2.566 0 0 1 1.11-.95c.46-.213.961-.319 1.502-.319.398 0 .74.033 1.023.1.283.062.494.119.631.172l-.465 1.608a12.336 12.336 0 0 0-.359-.093 2.086 2.086 0 0 0-.532-.059c-.482 0-.828.119-1.036.358-.204.24-.306.585-.306 1.037v11.124h-1.987Zm21.155-9.184h-2.073a3.176 3.176 0 0 0-1.243-2.026 3.446 3.446 0 0 0-1.057-.532 4.112 4.112 0 0 0-1.229-.179c-.784 0-1.486.197-2.106.591-.616.394-1.104.973-1.462 1.734-.355.762-.532 1.693-.532 2.791 0 1.108.177 2.043.532 2.805.358.762.848 1.338 1.468 1.727a3.85 3.85 0 0 0 2.093.585c.43 0 .838-.057 1.223-.173a3.5 3.5 0 0 0 1.057-.525 3.183 3.183 0 0 0 1.256-2l2.073.007a5.55 5.55 0 0 1-.645 1.847 5.102 5.102 0 0 1-1.216 1.449 5.51 5.51 0 0 1-1.688.937 6.252 6.252 0 0 1-2.073.332c-1.178 0-2.228-.279-3.15-.837-.921-.563-1.648-1.367-2.18-2.412-.526-1.046-.79-2.293-.79-3.742 0-1.453.266-2.7.797-3.741.532-1.045 1.258-1.847 2.18-2.405.921-.563 1.97-.844 3.143-.844.722 0 1.395.104 2.02.312a5.339 5.339 0 0 1 1.695.904c.5.394.914.877 1.242 1.448a5.6 5.6 0 0 1 .665 1.947Zm5.848 9.39c-.957 0-1.792-.219-2.505-.658-.713-.438-1.267-1.052-1.661-1.841-.395-.788-.592-1.71-.592-2.764 0-1.059.197-1.985.592-2.778.394-.793.948-1.408 1.661-1.847.713-.438 1.548-.658 2.505-.658.957 0 1.792.22 2.505.658.714.439 1.267 1.054 1.662 1.847.394.793.591 1.719.591 2.778 0 1.054-.197 1.976-.591 2.764-.395.789-.948 1.403-1.662 1.841-.713.439-1.548.658-2.505.658Zm.007-1.668c.62 0 1.134-.164 1.542-.492.407-.327.708-.764.903-1.309.2-.545.299-1.145.299-1.801 0-.651-.099-1.249-.299-1.794-.195-.549-.496-.99-.903-1.322-.408-.332-.922-.499-1.542-.499-.625 0-1.143.167-1.555.499-.408.332-.711.773-.91 1.322a5.291 5.291 0 0 0-.293 1.794c0 .656.098 1.256.293 1.801.199.545.502.982.91 1.309.412.328.93.492 1.555.492Zm8.207-4.598v6.06h-1.987v-10.207h1.908v1.661h.126c.235-.54.602-.974 1.103-1.302.505-.328 1.141-.492 1.907-.492.696 0 1.305.146 1.827.439.523.288.929.717 1.217 1.289.287.571.431 1.278.431 2.12v6.492h-1.986v-6.253c0-.74-.193-1.318-.579-1.734-.385-.421-.914-.632-1.588-.632-.46 0-.87.1-1.229.299-.354.2-.636.492-.844.877-.204.381-.306.842-.306 1.383Zm12.748 6.266c-.988 0-1.838-.224-2.552-.671a4.44 4.44 0 0 1-1.634-1.867c-.381-.793-.572-1.702-.572-2.725 0-1.037.195-1.951.585-2.744.39-.798.939-1.42 1.648-1.868.709-.447 1.544-.671 2.505-.671.775 0 1.466.144 2.073.432a3.721 3.721 0 0 1 1.469 1.196c.376.514.6 1.114.671 1.801h-1.934a2.318 2.318 0 0 0-.731-1.236c-.376-.345-.881-.518-1.515-.518-.553 0-1.039.146-1.455.438-.412.288-.733.7-.964 1.236-.23.532-.345 1.161-.345 1.888 0 .744.113 1.386.339 1.927.226.54.545.959.957 1.256.416.296.906.445 1.468.445.377 0 .718-.069 1.024-.206.31-.142.569-.344.777-.605.213-.261.361-.576.445-.944h1.934a3.763 3.763 0 0 1-.644 1.768c-.359.518-.84.926-1.442 1.223-.599.297-1.301.445-2.107.445Zm9.968 0c-1.005 0-1.871-.215-2.598-.645a4.369 4.369 0 0 1-1.674-1.827c-.39-.789-.585-1.712-.585-2.771 0-1.045.195-1.967.585-2.764.394-.798.943-1.42 1.648-1.868.708-.447 1.537-.671 2.485-.671.576 0 1.134.095 1.674.286.541.19 1.026.489 1.456.897.429.408.768.937 1.016 1.588.248.647.373 1.433.373 2.359v.705h-8.114v-1.489h6.167c0-.523-.107-.986-.319-1.389a2.416 2.416 0 0 0-.898-.963c-.381-.235-.828-.352-1.342-.352-.558 0-1.045.137-1.462.412a2.76 2.76 0 0 0-.957 1.063 3.075 3.075 0 0 0-.332 1.415v1.163c0 .682.12 1.263.359 1.741.244.479.582.844 1.017 1.097.434.248.941.372 1.521.372.377 0 .72-.053 1.03-.16.31-.111.578-.274.804-.492a2.14 2.14 0 0 0 .519-.804l1.88.339a3.41 3.41 0 0 1-.81 1.456 3.93 3.93 0 0 1-1.456.963c-.58.226-1.242.339-1.987.339Zm5.836 3.622v-14.035h1.94v1.655h.166c.115-.213.281-.459.498-.738.217-.279.519-.523.904-.731.386-.212.895-.319 1.529-.319.824 0 1.559.208 2.206.625.646.416 1.154 1.017 1.521 1.801.373.784.559 1.727.559 2.831 0 1.103-.184 2.048-.552 2.837-.368.784-.873 1.389-1.515 1.814-.642.421-1.376.631-2.2.631-.62 0-1.127-.104-1.521-.312-.39-.208-.696-.452-.917-.731a5.527 5.527 0 0 1-.512-.744h-.12v5.416h-1.986Zm1.947-8.931c0 .717.104 1.346.312 1.887.208.54.509.963.904 1.269.394.301.877.452 1.448.452.594 0 1.09-.157 1.489-.472.398-.319.7-.751.903-1.296.209-.545.313-1.158.313-1.84 0-.674-.102-1.279-.306-1.815-.199-.536-.5-.959-.904-1.269-.398-.31-.897-.465-1.495-.465-.576 0-1.063.148-1.462.445-.394.297-.693.711-.897 1.243-.204.532-.305 1.152-.305 1.861Zm13.618-5.104v1.595h-5.575v-1.595h5.575Zm-4.08-2.445h1.987v9.655c0 .385.057.676.172.871.116.19.264.321.446.392.186.066.387.099.604.099.16 0 .299-.011.419-.033l.279-.053.359 1.641a3.205 3.205 0 0 1-.492.133 3.909 3.909 0 0 1-.797.08 3.495 3.495 0 0 1-1.462-.279 2.506 2.506 0 0 1-1.097-.904c-.279-.407-.418-.919-.418-1.535v-10.067ZM22.945 155.244h2.492l4.333 10.579h.16l4.332-10.579h2.492v13.609H34.8v-9.848h-.126l-4.014 9.828h-1.62l-4.014-9.835H24.9v9.855h-1.954v-13.609Zm15.886 13.609v-10.207h1.987v10.207h-1.987Zm1.004-11.782a1.26 1.26 0 0 1-.89-.345 1.124 1.124 0 0 1-.366-.837c0-.328.121-.607.365-.838a1.25 1.25 0 0 1 .89-.352c.346 0 .64.117.884.352.248.231.372.51.372.838 0 .323-.123.602-.372.837a1.24 1.24 0 0 1-.883.345Zm4.895 5.722v6.06h-1.987v-10.207h1.907v1.662h.126a2.917 2.917 0 0 1 1.103-1.303c.505-.328 1.14-.492 1.907-.492.696 0 1.305.147 1.828.439a2.94 2.94 0 0 1 1.216 1.289c.288.572.432 1.278.432 2.12v6.492h-1.987V162.6c0-.74-.193-1.318-.578-1.734-.386-.421-.915-.632-1.589-.632-.46 0-.87.1-1.229.299-.354.2-.636.492-.844.878-.204.381-.305.841-.305 1.382Zm8.448 6.06v-10.207h1.987v10.207h-1.987Zm1.003-11.782c-.345 0-.642-.115-.89-.345a1.124 1.124 0 0 1-.366-.837c0-.328.122-.607.366-.838.248-.235.545-.352.89-.352.346 0 .64.117.884.352.248.231.372.51.372.838 0 .323-.124.602-.372.837-.244.23-.538.345-.884.345Zm2.908 11.782v-10.207h1.907v1.662h.127a2.634 2.634 0 0 1 1.043-1.316c.483-.319 1.06-.479 1.734-.479.683 0 1.254.16 1.715.479.465.319.808.757 1.03 1.316h.106a2.87 2.87 0 0 1 1.163-1.303c.531-.328 1.165-.492 1.9-.492.926 0 1.682.291 2.266.871.59.58.884 1.455.884 2.625v6.844h-1.987v-6.658c0-.691-.188-1.192-.565-1.502-.376-.31-.826-.465-1.349-.465-.646 0-1.15.199-1.508.598-.359.394-.538.901-.538 1.522v6.505h-1.98v-6.785c0-.553-.173-.998-.519-1.335-.345-.337-.795-.505-1.349-.505-.376 0-.724.099-1.043.299-.315.195-.57.467-.764.817-.19.35-.286.756-.286 1.216v6.293H57.09Zm22.255-4.233v-5.974h1.994v10.207h-1.954v-1.767h-.106a3.188 3.188 0 0 1-1.13 1.362c-.514.359-1.154.538-1.92.538-.656 0-1.236-.144-1.741-.432-.5-.292-.895-.724-1.183-1.296-.284-.571-.425-1.278-.425-2.119v-6.493h1.987v6.253c0 .696.192 1.25.578 1.662.385.412.886.618 1.501.618.373 0 .743-.093 1.11-.28a2.34 2.34 0 0 0 .924-.843c.248-.377.37-.855.365-1.436Zm3.915 4.233v-10.207h1.907v1.662h.127a2.634 2.634 0 0 1 1.043-1.316c.483-.319 1.06-.479 1.734-.479.682 0 1.254.16 1.715.479.465.319.808.757 1.03 1.316h.106a2.87 2.87 0 0 1 1.163-1.303c.531-.328 1.165-.492 1.9-.492.926 0 1.681.291 2.266.871.59.58.884 1.455.884 2.625v6.844h-1.987v-6.658c0-.691-.188-1.192-.565-1.502-.376-.31-.826-.465-1.349-.465-.646 0-1.15.199-1.508.598-.359.394-.538.901-.538 1.522v6.505h-1.98v-6.785c0-.553-.173-.998-.519-1.335-.345-.337-.795-.505-1.349-.505-.376 0-.724.099-1.043.299-.315.195-.57.467-.764.817-.19.35-.286.756-.286 1.216v6.293h-1.987Zm21.342-13.609 3.788 11.084h.153l3.788-11.084h2.219l-4.897 13.609h-2.373l-4.897-13.609h2.219Zm11.005 13.609v-10.207h1.987v10.207h-1.987Zm1.004-11.782c-.346 0-.643-.115-.891-.345a1.126 1.126 0 0 1-.365-.837c0-.328.122-.607.365-.838a1.25 1.25 0 0 1 .891-.352c.345 0 .64.117.884.352.248.231.372.51.372.838 0 .323-.124.602-.372.837-.244.23-.539.345-.884.345Zm5.878 12.008c-.647 0-1.232-.12-1.754-.359a2.956 2.956 0 0 1-1.243-1.056c-.301-.461-.452-1.026-.452-1.695 0-.576.111-1.05.332-1.422.222-.372.521-.667.898-.884a4.653 4.653 0 0 1 1.262-.491c.465-.111.939-.195 1.422-.253l1.489-.173c.381-.048.658-.126.83-.232.173-.107.26-.279.26-.519v-.046c0-.58-.164-1.03-.492-1.349-.324-.319-.807-.479-1.449-.479-.669 0-1.196.149-1.581.446-.381.292-.645.618-.791.977l-1.867-.426c.221-.62.544-1.121.97-1.502a3.932 3.932 0 0 1 1.482-.837 5.79 5.79 0 0 1 1.761-.266c.407 0 .839.049 1.295.147.461.093.891.265 1.289.518.404.252.734.613.991 1.083.257.465.385 1.07.385 1.814v6.778h-1.94v-1.395h-.08a2.832 2.832 0 0 1-.578.757 3.076 3.076 0 0 1-.99.618c-.403.164-.886.246-1.449.246Zm.432-1.595c.549 0 1.019-.108 1.409-.325.394-.217.693-.501.897-.851.208-.354.312-.733.312-1.136v-1.316c-.071.071-.208.137-.412.199a6.205 6.205 0 0 1-.684.153c-.257.04-.508.078-.751.113l-.612.08a4.954 4.954 0 0 0-1.056.246 1.814 1.814 0 0 0-.758.498c-.186.213-.279.496-.279.851 0 .491.182.864.545 1.116.363.248.826.372 1.389.372Zm6.662 1.369v-13.609h1.987v5.057h.12c.115-.213.281-.459.498-.738.217-.279.519-.522.904-.731.385-.212.895-.319 1.528-.319.824 0 1.56.209 2.207.625.646.416 1.154 1.017 1.521 1.801.372.784.559 1.728.559 2.831s-.184 2.049-.552 2.837c-.368.784-.873 1.389-1.515 1.814-.642.421-1.376.632-2.2.632-.62 0-1.127-.105-1.521-.313-.39-.208-.696-.452-.917-.731a5.527 5.527 0 0 1-.512-.744h-.166v1.588h-1.941Zm1.947-5.103c0 .717.105 1.346.313 1.887.208.54.509.963.904 1.269.394.301.877.452 1.448.452.594 0 1.09-.157 1.489-.472.398-.319.7-.751.903-1.296.209-.544.313-1.158.313-1.84 0-.674-.102-1.278-.306-1.814-.199-.536-.501-.96-.904-1.27-.398-.31-.897-.465-1.495-.465-.576 0-1.063.149-1.462.445-.394.297-.693.711-.897 1.243-.204.532-.306 1.152-.306 1.861Zm10.846-8.506v13.609h-1.987v-13.609h1.987Zm6.324 13.815c-1.006 0-1.872-.215-2.599-.644a4.377 4.377 0 0 1-1.674-1.828c-.39-.788-.585-1.712-.585-2.771 0-1.045.195-1.967.585-2.764.394-.798.943-1.42 1.648-1.867.709-.448 1.537-.672 2.485-.672.576 0 1.134.096 1.675.286.54.191 1.025.49 1.455.897.43.408.768.937 1.017 1.588.248.647.372 1.434.372 2.359v.705h-8.114v-1.489h6.167c0-.522-.107-.985-.319-1.389a2.42 2.42 0 0 0-.897-.963c-.381-.235-.829-.352-1.343-.352-.558 0-1.045.137-1.462.412a2.76 2.76 0 0 0-.957 1.063 3.075 3.075 0 0 0-.332 1.415v1.163c0 .682.12 1.263.359 1.741a2.6 2.6 0 0 0 1.017 1.097c.434.248.941.372 1.521.372.377 0 .72-.053 1.03-.16a2.21 2.21 0 0 0 .805-.491c.225-.217.398-.486.518-.804l1.88.338a3.4 3.4 0 0 1-.81 1.456 3.93 3.93 0 0 1-1.456.963c-.58.226-1.242.339-1.986.339Zm10.198-.206v-13.609h4.851c1.059 0 1.936.193 2.631.578.696.386 1.216.913 1.562 1.582.345.664.518 1.413.518 2.246 0 .837-.175 1.59-.525 2.259-.345.665-.868 1.192-1.568 1.582-.696.385-1.57.578-2.625.578h-3.336v-1.741h3.15c.669 0 1.212-.116 1.628-.346.417-.235.722-.554.917-.957.195-.403.293-.861.293-1.375s-.098-.971-.293-1.369a2.1 2.1 0 0 0-.923-.937c-.417-.226-.966-.339-1.648-.339h-2.579v11.848h-2.053Zm11.061 0v-10.207h1.921v1.622h.106c.186-.55.514-.982.984-1.296a2.814 2.814 0 0 1 1.608-.479 8.387 8.387 0 0 1 .844.047v1.9a3.714 3.714 0 0 0-.426-.073 4.044 4.044 0 0 0-.611-.046c-.47 0-.888.1-1.256.299a2.226 2.226 0 0 0-1.183 2v6.233h-1.987Zm10.368.206c-.957 0-1.792-.219-2.506-.658a4.433 4.433 0 0 1-1.661-1.84c-.394-.789-.591-1.71-.591-2.765 0-1.059.197-1.984.591-2.777.394-.793.948-1.409 1.661-1.848.714-.438 1.549-.658 2.506-.658.956 0 1.791.22 2.505.658.713.439 1.267 1.055 1.661 1.848.394.793.591 1.718.591 2.777 0 1.055-.197 1.976-.591 2.765a4.433 4.433 0 0 1-1.661 1.84c-.714.439-1.549.658-2.505.658Zm.006-1.668c.62 0 1.134-.164 1.542-.492.407-.327.709-.764.904-1.309a5.209 5.209 0 0 0 .299-1.8c0-.652-.1-1.25-.299-1.795-.195-.549-.497-.99-.904-1.322-.408-.332-.922-.498-1.542-.498-.624 0-1.143.166-1.555.498-.407.332-.711.773-.91 1.322a5.293 5.293 0 0 0-.293 1.795c0 .655.098 1.256.293 1.8.199.545.503.982.91 1.309.412.328.931.492 1.555.492Zm10.042 1.662c-.824 0-1.56-.211-2.207-.632-.642-.425-1.147-1.03-1.515-1.814-.363-.788-.544-1.734-.544-2.837 0-1.103.183-2.047.551-2.831.372-.784.882-1.385 1.528-1.801.647-.416 1.38-.625 2.2-.625.633 0 1.143.107 1.528.319.39.209.691.452.904.731.217.279.385.525.505.738h.12v-5.057h1.987v13.609h-1.941v-1.588h-.166c-.12.217-.292.465-.518.744-.222.279-.527.523-.917.731-.39.208-.895.313-1.515.313Zm.438-1.695c.572 0 1.055-.151 1.449-.452.399-.306.7-.729.904-1.269.208-.541.312-1.17.312-1.887 0-.709-.102-1.329-.306-1.861-.204-.532-.503-.946-.897-1.243-.394-.296-.881-.445-1.462-.445-.598 0-1.096.155-1.495.465-.399.31-.7.734-.904 1.27-.199.536-.299 1.14-.299 1.814 0 .682.102 1.296.306 1.84.204.545.505.977.904 1.296.403.315.899.472 1.488.472Zm13.172-2.738v-5.974h1.993v10.207h-1.954v-1.767h-.106a3.186 3.186 0 0 1-1.13 1.362c-.513.359-1.154.538-1.92.538-.656 0-1.236-.144-1.741-.432-.501-.292-.895-.724-1.183-1.296-.283-.571-.425-1.278-.425-2.119v-6.493h1.987v6.253c0 .696.192 1.25.578 1.662.385.412.886.618 1.502.618.372 0 .742-.093 1.109-.28.373-.186.68-.467.924-.843.248-.377.37-.855.366-1.436Zm8.214 4.439c-.988 0-1.839-.224-2.552-.671a4.443 4.443 0 0 1-1.635-1.867c-.381-.793-.571-1.701-.571-2.725 0-1.036.195-1.951.585-2.744.389-.798.939-1.42 1.648-1.867.708-.448 1.543-.672 2.505-.672.775 0 1.466.144 2.073.432a3.737 3.737 0 0 1 1.469 1.196c.376.514.6 1.115.671 1.801h-1.934a2.318 2.318 0 0 0-.731-1.236c-.377-.345-.882-.518-1.515-.518-.554 0-1.039.146-1.455.439-.412.287-.734.699-.964 1.235-.23.532-.345 1.161-.345 1.888 0 .744.113 1.386.338 1.927.226.54.545.959.957 1.256.417.297.906.445 1.469.445.376 0 .718-.069 1.023-.206.31-.142.57-.343.778-.605a2.28 2.28 0 0 0 .445-.943h1.934a3.754 3.754 0 0 1-.645 1.767 3.703 3.703 0 0 1-1.442 1.223c-.598.297-1.3.445-2.106.445Zm10.334-10.413v1.595h-5.576v-1.595h5.576Zm-4.081-2.445h1.987v9.655c0 .386.058.676.173.871.115.19.264.321.445.392.186.066.388.099.605.099.159 0 .299-.011.419-.033l.279-.053.359 1.641c-.116.045-.28.089-.492.133a3.85 3.85 0 0 1-.798.08 3.49 3.49 0 0 1-1.461-.279 2.506 2.506 0 0 1-1.097-.904c-.279-.407-.419-.919-.419-1.535v-10.067Z"/>
      <path fill="#FD9E28" d="m31.726 234.23-9.383-33.245h6.477l5.99 24.43h.308l6.396-24.43h5.893l6.412 24.447h.292l5.99-24.447h6.477l-9.383 33.245h-5.94l-6.657-23.327h-.26l-6.671 23.327h-5.941Zm41.445-14.61v14.61h-5.877v-33.245h5.747v12.548h.292c.585-1.407 1.488-2.516 2.711-3.328 1.234-.822 2.803-1.234 4.708-1.234 1.731 0 3.24.363 4.529 1.088 1.287.725 2.283 1.786 2.987 3.182.714 1.396 1.07 3.1 1.07 5.113v15.876h-5.875v-14.967c0-1.677-.433-2.981-1.3-3.912-.854-.942-2.055-1.412-3.603-1.412-1.039 0-1.97.227-2.792.681a4.776 4.776 0 0 0-1.915 1.932c-.455.844-.682 1.867-.682 3.068Zm18.958 14.61v-24.934h5.876v24.934H92.13Zm2.954-28.473c-.93 0-1.731-.308-2.402-.925-.671-.628-1.007-1.38-1.007-2.256 0-.888.336-1.64 1.007-2.257.671-.628 1.472-.941 2.403-.941.941 0 1.742.313 2.402.941.67.617 1.006 1.369 1.006 2.257 0 .876-.335 1.628-1.006 2.256-.66.617-1.461.925-2.403.925Zm16.641 28.96c-2.489 0-4.626-.547-6.412-1.64-1.774-1.093-3.143-2.602-4.107-4.529-.952-1.937-1.428-4.166-1.428-6.688 0-2.532.487-4.767 1.461-6.704.974-1.948 2.348-3.463 4.123-4.545 1.786-1.093 3.896-1.64 6.331-1.64 2.024 0 3.815.374 5.373 1.12 1.569.736 2.819 1.781 3.75 3.133.931 1.342 1.461 2.912 1.591 4.708h-5.617c-.227-1.201-.768-2.202-1.623-3.003-.844-.812-1.975-1.218-3.393-1.218-1.201 0-2.256.325-3.165.974-.909.639-1.618 1.559-2.127 2.76-.498 1.201-.747 2.641-.747 4.318 0 1.699.249 3.16.747 4.383.498 1.212 1.196 2.148 2.094 2.808.909.65 1.975.974 3.198.974.866 0 1.64-.162 2.322-.487a4.66 4.66 0 0 0 1.736-1.445c.466-.627.785-1.39.958-2.288h5.617c-.141 1.764-.66 3.327-1.559 4.691-.898 1.353-2.121 2.413-3.668 3.182-1.548.757-3.366 1.136-5.455 1.136Zm18.184-15.097v14.61h-5.877v-33.245h5.747v12.548h.292c.584-1.407 1.488-2.516 2.711-3.328 1.234-.822 2.803-1.234 4.707-1.234 1.732 0 3.242.363 4.529 1.088 1.288.725 2.284 1.786 2.987 3.182.715 1.396 1.072 3.1 1.072 5.113v15.876h-5.877v-14.967c0-1.677-.433-2.981-1.298-3.912-.855-.942-2.056-1.412-3.604-1.412-1.039 0-1.97.227-2.792.681a4.778 4.778 0 0 0-1.916 1.932c-.454.844-.681 1.867-.681 3.068Zm37.973 15.097c-2.435 0-4.545-.536-6.331-1.607-1.786-1.071-3.171-2.57-4.156-4.497-.974-1.926-1.461-4.177-1.461-6.753 0-2.575.487-4.832 1.461-6.769.985-1.937 2.37-3.441 4.156-4.513 1.786-1.071 3.896-1.607 6.331-1.607 2.435 0 4.545.536 6.331 1.607 1.785 1.072 3.165 2.576 4.139 4.513.985 1.937 1.477 4.194 1.477 6.769 0 2.576-.492 4.827-1.477 6.753-.974 1.927-2.354 3.426-4.139 4.497-1.786 1.071-3.896 1.607-6.331 1.607Zm.032-4.708c1.321 0 2.425-.362 3.312-1.087.887-.736 1.547-1.721 1.98-2.955.444-1.233.666-2.608.666-4.123 0-1.526-.222-2.906-.666-4.139-.433-1.245-1.093-2.235-1.98-2.971-.887-.736-1.991-1.104-3.312-1.104-1.352 0-2.478.368-3.376 1.104-.887.736-1.553 1.726-1.997 2.971-.433 1.233-.649 2.613-.649 4.139 0 1.515.216 2.89.649 4.123.444 1.234 1.11 2.219 1.997 2.955.898.725 2.024 1.087 3.376 1.087Zm19.58-10.389v14.61h-5.877v-24.934h5.617v4.237h.292a7.133 7.133 0 0 1 2.743-3.328c1.267-.822 2.83-1.234 4.692-1.234 1.72 0 3.219.368 4.496 1.104 1.288.736 2.284 1.802 2.987 3.198.714 1.396 1.066 3.09 1.055 5.081v15.876h-5.876v-14.967c0-1.666-.433-2.971-1.299-3.912-.855-.942-2.04-1.412-3.555-1.412-1.028 0-1.942.227-2.743.681-.79.444-1.412 1.088-1.867 1.932-.444.844-.665 1.867-.665 3.068Zm29.818 15.097c-2.5 0-4.659-.519-6.477-1.558-1.808-1.05-3.198-2.533-4.172-4.448-.974-1.927-1.461-4.194-1.461-6.802 0-2.565.487-4.816 1.461-6.753.985-1.948 2.359-3.463 4.123-4.545 1.764-1.093 3.836-1.64 6.217-1.64 1.537 0 2.987.249 4.351.747a9.84 9.84 0 0 1 3.636 2.273c1.061 1.028 1.894 2.337 2.5 3.928.606 1.58.909 3.463.909 5.649v1.802h-20.437v-3.961h14.804c-.011-1.125-.254-2.126-.73-3.003a5.323 5.323 0 0 0-1.997-2.094c-.844-.509-1.829-.763-2.955-.763-1.201 0-2.256.292-3.165.877a6.032 6.032 0 0 0-2.126 2.272 6.53 6.53 0 0 0-.763 3.068v3.458c0 1.45.265 2.695.795 3.734.53 1.028 1.272 1.818 2.224 2.37.952.541 2.067.811 3.344.811.855 0 1.629-.119 2.321-.357a5.154 5.154 0 0 0 1.802-1.087 4.534 4.534 0 0 0 1.153-1.77l5.486.617a8.547 8.547 0 0 1-1.98 3.798c-.963 1.072-2.197 1.905-3.701 2.5-1.504.585-3.225.877-5.162.877ZM29.615 284.23l-7.045-24.934h5.99l4.383 17.532h.227l4.48-17.532h5.926l4.48 17.434h.244l4.318-17.434h6.006l-7.062 24.934h-6.12l-4.675-16.85h-.34l-4.675 16.85h-6.137Zm40.074.487c-2.435 0-4.545-.536-6.331-1.607-1.786-1.071-3.17-2.57-4.156-4.497-.974-1.926-1.46-4.177-1.46-6.753 0-2.575.486-4.832 1.46-6.769.985-1.937 2.37-3.441 4.156-4.513 1.786-1.071 3.896-1.607 6.33-1.607 2.436 0 4.546.536 6.332 1.607 1.785 1.072 3.165 2.576 4.14 4.513.984 1.937 1.476 4.194 1.476 6.769 0 2.576-.492 4.827-1.477 6.753-.974 1.927-2.354 3.426-4.14 4.497-1.785 1.071-3.895 1.607-6.33 1.607Zm.032-4.708c1.32 0 2.424-.362 3.312-1.087.887-.736 1.547-1.721 1.98-2.955.444-1.233.666-2.608.666-4.123 0-1.526-.222-2.906-.666-4.139-.433-1.245-1.093-2.235-1.98-2.971-.888-.736-1.991-1.104-3.312-1.104-1.353 0-2.478.368-3.376 1.104-.888.736-1.553 1.726-1.997 2.971-.433 1.233-.65 2.613-.65 4.139 0 1.515.217 2.89.65 4.123.444 1.234 1.11 2.219 1.997 2.955.898.725 2.023 1.087 3.376 1.087Zm13.703 4.221v-24.934h5.698v4.156h.26c.454-1.44 1.233-2.549 2.337-3.328 1.115-.79 2.386-1.185 3.815-1.185.325 0 .687.016 1.088.049.41.021.752.059 1.022.113v5.406c-.249-.087-.644-.163-1.185-.227a10.868 10.868 0 0 0-1.542-.114c-1.071 0-2.034.233-2.89.698a5.108 5.108 0 0 0-1.996 1.899c-.487.812-.73 1.748-.73 2.809v14.658h-5.877Zm20.281-7.824-.016-7.094h.942l8.96-10.016h6.867l-11.022 12.272h-1.218l-4.513 4.838Zm-5.357 7.824v-33.245h5.877v33.245h-5.877Zm15.649 0-8.116-11.347 3.96-4.139 11.185 15.486h-7.029Zm26.884-18.343-5.357.584a4.291 4.291 0 0 0-.795-1.526c-.368-.476-.866-.86-1.494-1.152-.627-.293-1.396-.439-2.305-.439-1.223 0-2.251.265-3.084.796-.822.53-1.228 1.217-1.217 2.061-.011.725.254 1.315.795 1.77.552.454 1.461.828 2.727 1.12l4.253.909c2.359.508 4.113 1.315 5.26 2.419 1.158 1.103 1.742 2.548 1.753 4.334-.011 1.569-.471 2.954-1.38 4.155-.898 1.191-2.148 2.122-3.75 2.793-1.601.67-3.441 1.006-5.519 1.006-3.052 0-5.508-.639-7.37-1.916-1.861-1.287-2.97-3.078-3.328-5.373l5.731-.552c.259 1.126.811 1.975 1.655 2.549.845.574 1.943.86 3.296.86 1.396 0 2.516-.286 3.36-.86.855-.574 1.282-1.282 1.282-2.127 0-.714-.276-1.304-.828-1.769-.541-.465-1.385-.822-2.532-1.071l-4.253-.893c-2.392-.498-4.161-1.337-5.308-2.516-1.147-1.191-1.715-2.695-1.705-4.513-.01-1.537.406-2.868 1.25-3.993.855-1.137 2.04-2.013 3.555-2.63 1.526-.628 3.285-.942 5.276-.942 2.922 0 5.222.623 6.899 1.867 1.688 1.245 2.733 2.928 3.133 5.049Zm10.58 18.343v-33.245h5.877v12.434h.243c.303-.606.731-1.25 1.282-1.932.552-.692 1.299-1.282 2.241-1.769.941-.498 2.142-.747 3.603-.747 1.927 0 3.664.493 5.211 1.478 1.559.974 2.792 2.418 3.701 4.334.92 1.904 1.38 4.242 1.38 7.012 0 2.738-.449 5.065-1.347 6.981-.898 1.915-2.121 3.376-3.669 4.383-1.547 1.006-3.301 1.509-5.259 1.509-1.429 0-2.614-.238-3.555-.714-.942-.476-1.699-1.05-2.273-1.721-.563-.681-1.001-1.325-1.315-1.931h-.341v3.928h-5.779Zm5.763-12.467c0 1.612.227 3.025.682 4.237.465 1.212 1.131 2.159 1.996 2.841.877.671 1.938 1.006 3.182 1.006 1.299 0 2.386-.346 3.263-1.039.877-.703 1.537-1.661 1.98-2.873.455-1.223.682-2.614.682-4.172 0-1.548-.222-2.922-.665-4.123-.444-1.201-1.104-2.143-1.981-2.825-.876-.682-1.969-1.022-3.279-1.022-1.255 0-2.321.33-3.198.99-.876.66-1.542 1.585-1.996 2.776-.444 1.19-.666 2.592-.666 4.204Zm30.609 12.954c-2.499 0-4.658-.519-6.477-1.558-1.807-1.05-3.197-2.533-4.171-4.448-.974-1.927-1.461-4.194-1.461-6.802 0-2.565.487-4.816 1.461-6.753.984-1.948 2.359-3.463 4.123-4.545 1.764-1.093 3.836-1.64 6.217-1.64 1.537 0 2.987.249 4.351.747a9.84 9.84 0 0 1 3.636 2.273c1.06 1.028 1.894 2.337 2.5 3.928.606 1.58.909 3.463.909 5.649v1.802h-20.438v-3.961h14.805c-.011-1.125-.255-2.126-.731-3.003a5.313 5.313 0 0 0-1.996-2.094c-.844-.509-1.829-.763-2.955-.763-1.201 0-2.256.292-3.165.877a6.042 6.042 0 0 0-2.127 2.272c-.498.931-.752 1.954-.763 3.068v3.458c0 1.45.265 2.695.796 3.734.53 1.028 1.271 1.818 2.224 2.37.952.541 2.067.811 3.344.811.855 0 1.628-.119 2.321-.357a5.154 5.154 0 0 0 1.802-1.087 4.532 4.532 0 0 0 1.152-1.77l5.487.617a8.547 8.547 0 0 1-1.98 3.798c-.963 1.072-2.197 1.905-3.701 2.5-1.505.585-3.225.877-5.163.877Zm32.566-18.83-5.357.584a4.291 4.291 0 0 0-.795-1.526c-.368-.476-.866-.86-1.494-1.152-.627-.293-1.396-.439-2.305-.439-1.223 0-2.251.265-3.084.796-.823.53-1.228 1.217-1.218 2.061-.01.725.255 1.315.796 1.77.552.454 1.461.828 2.727 1.12l4.253.909c2.359.508 4.112 1.315 5.26 2.419 1.158 1.103 1.742 2.548 1.753 4.334-.011 1.569-.471 2.954-1.38 4.155-.898 1.191-2.148 2.122-3.75 2.793-1.602.67-3.441 1.006-5.519 1.006-3.052 0-5.509-.639-7.37-1.916-1.861-1.287-2.971-3.078-3.328-5.373l5.731-.552c.259 1.126.811 1.975 1.655 2.549.844.574 1.943.86 3.296.86 1.396 0 2.516-.286 3.36-.86.855-.574 1.282-1.282 1.282-2.127 0-.714-.276-1.304-.828-1.769-.541-.465-1.385-.822-2.532-1.071l-4.253-.893c-2.392-.498-4.161-1.337-5.308-2.516-1.147-1.191-1.715-2.695-1.705-4.513-.01-1.537.406-2.868 1.25-3.993.855-1.137 2.04-2.013 3.555-2.63 1.526-.628 3.285-.942 5.276-.942 2.922 0 5.222.623 6.899 1.867 1.688 1.245 2.733 2.928 3.133 5.049Zm14.632-6.591v4.545h-14.334v-4.545h14.334Zm-10.795-5.974h5.877v23.408c0 .79.119 1.396.357 1.818.249.412.573.693.974.845.4.151.844.227 1.331.227a5.75 5.75 0 0 0 1.006-.081c.314-.054.552-.103.715-.146l.99 4.593a12.9 12.9 0 0 1-1.348.358c-.573.129-1.277.205-2.11.227-1.472.043-2.797-.179-3.977-.666a6.175 6.175 0 0 1-2.808-2.305c-.682-1.039-1.018-2.337-1.007-3.896v-24.382ZM37.099 308.296v4.545h-14.74v-4.545H37.1ZM26.044 333.23v-27.288c0-1.677.346-3.073 1.04-4.188a6.571 6.571 0 0 1 2.824-2.5c1.18-.552 2.489-.828 3.928-.828 1.017 0 1.92.081 2.71.244.79.162 1.375.308 1.754.438l-1.169 4.545a10.511 10.511 0 0 0-.941-.227 5.73 5.73 0 0 0-1.266-.13c-1.093 0-1.867.265-2.322.796-.443.519-.665 1.266-.665 2.24v26.898h-5.893Zm22.396.487c-2.435 0-4.545-.536-6.331-1.607-1.786-1.071-3.171-2.57-4.156-4.497-.974-1.926-1.46-4.177-1.46-6.753 0-2.575.486-4.832 1.46-6.769.985-1.937 2.37-3.441 4.156-4.513 1.785-1.071 3.896-1.607 6.33-1.607 2.436 0 4.546.536 6.332 1.607 1.785 1.072 3.165 2.576 4.14 4.513.984 1.937 1.476 4.194 1.476 6.769 0 2.576-.492 4.827-1.477 6.753-.974 1.927-2.354 3.426-4.14 4.497-1.785 1.071-3.895 1.607-6.33 1.607Zm.032-4.708c1.32 0 2.424-.362 3.312-1.087.887-.736 1.547-1.721 1.98-2.955.444-1.233.666-2.608.666-4.123 0-1.526-.222-2.906-.666-4.139-.433-1.245-1.093-2.235-1.98-2.971-.888-.736-1.992-1.104-3.312-1.104-1.352 0-2.478.368-3.376 1.104-.888.736-1.553 1.726-1.997 2.971-.433 1.233-.65 2.613-.65 4.139 0 1.515.217 2.89.65 4.123.444 1.234 1.11 2.219 1.997 2.955.898.725 2.024 1.087 3.376 1.087Zm13.703 4.221v-24.934h5.698v4.156h.26c.454-1.44 1.233-2.549 2.337-3.328 1.115-.79 2.386-1.185 3.815-1.185.325 0 .687.016 1.088.049.41.021.752.059 1.022.113v5.406c-.249-.087-.644-.163-1.185-.227a10.87 10.87 0 0 0-1.542-.114c-1.071 0-2.035.233-2.89.698a5.108 5.108 0 0 0-1.996 1.899c-.487.812-.73 1.748-.73 2.809v14.658h-5.877Zm26.716 9.35c-.801 0-1.542-.065-2.224-.195-.671-.119-1.207-.259-1.607-.422l1.363-4.577c.855.249 1.618.368 2.29.357a2.81 2.81 0 0 0 1.769-.633c.519-.401.957-1.072 1.314-2.013l.504-1.348-9.042-25.453h6.233l5.747 18.83h.26l5.762-18.83h6.25l-9.983 27.953c-.466 1.321-1.082 2.452-1.85 3.393a7.526 7.526 0 0 1-2.825 2.175c-1.104.509-2.425.763-3.961.763Zm29.514-8.863c-2.435 0-4.546-.536-6.331-1.607-1.786-1.071-3.171-2.57-4.156-4.497-.974-1.926-1.461-4.177-1.461-6.753 0-2.575.487-4.832 1.461-6.769.985-1.937 2.37-3.441 4.156-4.513 1.785-1.071 3.896-1.607 6.331-1.607 2.435 0 4.545.536 6.33 1.607 1.786 1.072 3.166 2.576 4.14 4.513.985 1.937 1.477 4.194 1.477 6.769 0 2.576-.492 4.827-1.477 6.753-.974 1.927-2.354 3.426-4.14 4.497-1.785 1.071-3.895 1.607-6.33 1.607Zm.032-4.708c1.32 0 2.424-.362 3.312-1.087.887-.736 1.547-1.721 1.98-2.955.444-1.233.666-2.608.666-4.123 0-1.526-.222-2.906-.666-4.139-.433-1.245-1.093-2.235-1.98-2.971-.888-.736-1.992-1.104-3.312-1.104-1.353 0-2.478.368-3.376 1.104-.888.736-1.553 1.726-1.997 2.971-.433 1.233-.649 2.613-.649 4.139 0 1.515.216 2.89.649 4.123.444 1.234 1.109 2.219 1.997 2.955.898.725 2.023 1.087 3.376 1.087Zm29.595-6.266v-14.447h5.876v24.934h-5.697v-4.432h-.26c-.563 1.396-1.488 2.538-2.776 3.426-1.277.887-2.852 1.331-4.724 1.331-1.634 0-3.079-.363-4.334-1.088-1.245-.736-2.219-1.802-2.922-3.198-.703-1.407-1.055-3.106-1.055-5.097v-15.876h5.876v14.967c0 1.58.433 2.835 1.299 3.766.866.931 2.002 1.396 3.409 1.396a5.39 5.39 0 0 0 2.516-.633c.812-.422 1.477-1.05 1.997-1.883.53-.844.795-1.899.795-3.166Zm14.336.715v-.422c.011-1.959.195-3.518.552-4.675.368-1.158.887-2.089 1.558-2.793.671-.714 1.488-1.369 2.451-1.964.661-.411 1.25-.86 1.77-1.347.53-.498.947-1.05 1.25-1.656.303-.617.454-1.304.454-2.061 0-.855-.2-1.597-.6-2.224a4.075 4.075 0 0 0-1.624-1.461c-.671-.347-1.423-.52-2.256-.52-.768 0-1.499.168-2.192.503-.681.325-1.249.823-1.704 1.494-.444.66-.693 1.499-.747 2.516h-5.779c.054-2.056.552-3.777 1.494-5.162a8.83 8.83 0 0 1 3.766-3.117c1.569-.693 3.301-1.039 5.194-1.039 2.067 0 3.885.363 5.455 1.088 1.58.725 2.808 1.758 3.685 3.1.887 1.331 1.331 2.911 1.331 4.74 0 1.234-.201 2.338-.601 3.312a8.042 8.042 0 0 1-1.672 2.597 12.2 12.2 0 0 1-2.581 2.029c-.877.541-1.596 1.104-2.159 1.689a5.61 5.61 0 0 0-1.234 2.061c-.259.779-.395 1.742-.406 2.89v.422h-5.405Zm2.824 10.129c-.974 0-1.812-.346-2.516-1.039-.703-.692-1.055-1.537-1.055-2.532 0-.974.352-1.807 1.055-2.5.704-.693 1.542-1.039 2.516-1.039.964 0 1.797.346 2.5 1.039.715.693 1.072 1.526 1.072 2.5 0 .66-.168 1.261-.504 1.802a3.718 3.718 0 0 1-1.298 1.298c-.53.314-1.12.471-1.77.471Z"/>
      <path fill="#fff" d="M456.548 359.145a54.459 54.459 0 0 1-3.388 12.476c-.13.315-.269.622-.409.928a63.343 63.343 0 0 1 3.89 22.262 74.339 74.339 0 0 1-4.929 26.297 71.21 71.21 0 0 1-14.019 22.838c-.761.834-1.532 1.66-2.358 2.43-.827.77-1.616 1.577-2.488 2.3-1.672 1.55-3.528 2.783-5.302 4.156a60.597 60.597 0 0 1-5.57 3.71 59.929 59.929 0 0 1-5.895 3.191 88.133 88.133 0 0 1-25.466 7.838 109.25 109.25 0 0 1-46.503-3.33 54.58 54.58 0 0 1-18.568 8.126 55.935 55.935 0 0 1-15.068 1.382 61.619 61.619 0 0 1-14.854-2.578 61.623 61.623 0 0 1-3.63-1.197 38.32 38.32 0 0 1-7.427.482 36.228 36.228 0 0 1-16.219-4.322 31.226 31.226 0 0 1-6.685-4.851l-1.494-1.448c-.511-.473-.929-1.038-1.384-1.558l-1.346-1.596-1.188-1.725a41.85 41.85 0 0 1-6.35-15.194c-.121-.779-.251-1.577-.39-2.384l-.195-1.224c0-.38-.056-.77-.093-1.16a97.919 97.919 0 0 1-12.403-26.297 82.74 82.74 0 0 1-3.315-29.442 76.179 76.179 0 0 1 7.882-28.635 71.357 71.357 0 0 1 8.012-12.606 66.249 66.249 0 0 1 10.51-10.695 63.916 63.916 0 0 1 3.23-2.421 52.044 52.044 0 0 1 6.945-18.088 54.324 54.324 0 0 1 13.991-15.008 61.814 61.814 0 0 1 18.233-9.276 62.595 62.595 0 0 1 20.249-2.987 55.46 55.46 0 0 1 20.146 4.053 51.068 51.068 0 0 1 17.054 11.549 57.773 57.773 0 0 1 6.629 8.051 81.96 81.96 0 0 1 18.633 6.308 58.367 58.367 0 0 1 3.323-1.697 50.863 50.863 0 0 1 12.562-3.553 55.182 55.182 0 0 1 12.997-.139c4.3.532 8.524 1.556 12.589 3.052a53.473 53.473 0 0 1 11.447 6.112 48.34 48.34 0 0 1 9.414 9.054 48.719 48.719 0 0 1 6.378 11.381 53.226 53.226 0 0 1 3.045 12.588c.414 4.277.34 8.587-.223 12.847Zm-39.271 92.889 4.642-2.857c1.504-1.011 2.916-2.142 4.382-3.2a55.887 55.887 0 0 0 7.836-7.347 66.188 66.188 0 0 0 11.289-18.347 69.121 69.121 0 0 0 4.921-20.686 68.406 68.406 0 0 0-.084-10.203 59.614 59.614 0 0 0-1.634-9.35 75.414 75.414 0 0 1-2.033 2.782 44.091 44.091 0 0 1-21.288 14.527 40.715 40.715 0 0 1-12.997 1.91l-1.245-.046c.195.51.381 1.02.585 1.521.297.826.502 1.679.752 2.514.267.831.487 1.677.66 2.532a51.758 51.758 0 0 1 .334 20.751l-.502 2.56-.668 2.514c-.409 1.688-1.068 3.302-1.615 4.944a57.034 57.034 0 0 1-4.642 9.276 55.687 55.687 0 0 1-6.258 8.348l-1.857 1.855-.928.928-.993.853-1.987 1.707c-.613.482-1.253.928-1.857 1.382a97.622 97.622 0 0 0 4.911-1.048 80.686 80.686 0 0 0 20.276-7.783v-.037Zm-31.946-135.531a37.314 37.314 0 0 0-7.649 6.651l-1.514 1.744c-.13.158-.25.334-.38.501a65.12 65.12 0 0 1 1.039 6.391 61.173 61.173 0 0 1-1.253 20.528 54.483 54.483 0 0 1-3.398 9.805l-.538 1.178-.437.834a6.076 6.076 0 0 1-.352.65l-.186.315-.084.149h.158l.724.102.353.065.873.204c.835.213 1.699.38 2.534.621l2.479.807c.409.139.826.25 1.235.408l1.17.483c-.044-1.319.006-2.64.148-3.952.074-.566.121-1.132.214-1.698l.39-1.669a20.333 20.333 0 0 1 1.039-3.275 21.799 21.799 0 0 1 1.495-3.116c.139-.251.26-.511.409-.761l.473-.714c.307-.481.638-.945.993-1.391a26.15 26.15 0 0 1 10.723-8.265 34.123 34.123 0 0 1 12.998-2.588h1.625a54.25 54.25 0 0 0-.929-1.577 64.162 64.162 0 0 0-21.882-21.122 69.462 69.462 0 0 1-2.47-1.27v-.038Zm-22.132-7.791a75.897 75.897 0 0 0-35.112 1.623 69.827 69.827 0 0 0-13.081 5.417c.594.158 1.179.334 1.773.51a53.219 53.219 0 0 1 13.722 6.373l1.606 1.02c.51.371 1.002.77 1.513 1.16.993.797 2.033 1.502 2.98 2.393a43.362 43.362 0 0 1 5.255 5.566 47.648 47.648 0 0 1 7.427 13.31 43.656 43.656 0 0 1 2.683 15.064 34.243 34.243 0 0 1-3.481 15.13 31.047 31.047 0 0 1-10.296 11.789c-.27.186-.548.344-.817.52l.343.26c.817.621 1.532 1.345 2.293 2.022.762.677 1.449 1.447 2.089 2.235a32.751 32.751 0 0 1 3.12 4.276c.253.134.497.283.733.446l1.458 1.011a34.383 34.383 0 0 1 9.469 10.315 41.213 41.213 0 0 1 5.403 26.724c0 .259-.074.51-.111.76a10.89 10.89 0 0 1 2.627 0 7.839 7.839 0 0 1 3.983 1.605c.743.686 1.012 1.206.929 1.466-.084.259-.66.148-1.579-.149a10.156 10.156 0 0 0-4.103-.204c-.886.146-1.75.401-2.572.761a37.821 37.821 0 0 1-3.481 8.988 41.808 41.808 0 0 1-2.479 3.97c.5 1.36 1.215 2.632 2.117 3.766a16.576 16.576 0 0 0 6.721 5.046c3.939.411 7.896.609 11.856.594a32.609 32.609 0 0 0 7.483-2.783 46.623 46.623 0 0 0 19.375-19.962 49.358 49.358 0 0 0 5.366-27.391 43.649 43.649 0 0 0-3.853-14.016 33.658 33.658 0 0 1-5.161-1.689 29.061 29.061 0 0 1-5.487-3.052h-2.6a26.835 26.835 0 0 1-3.463-.528c-.566-.13-1.142-.241-1.699-.399l-1.652-.538a15.918 15.918 0 0 1-1.606-.631c-.52-.232-1.068-.436-1.569-.695-1.003-.538-2.033-1.049-2.971-1.679a35.604 35.604 0 0 1-5.32-4.128 40.937 40.937 0 0 1-7.984-10.556 32.719 32.719 0 0 1-2.033-4.545h-.241l-.929-.13h-.223c-.074 0-.185 0-.102-.093l.232-.39.622-1.057-.464-1.354c-.186-.52-.278-1.067-.418-1.596-.241-1.067-.529-2.124-.733-3.2a52.359 52.359 0 0 1-.585-12.987 56.726 56.726 0 0 1 2.785-12.67 56.243 56.243 0 0 1 5.775-11.614c.25-.38.538-.751.808-1.122a56.987 56.987 0 0 0-1.662-5.167 54.648 54.648 0 0 0-4.679-9.758v-.037Zm-95.151 25.286a57.34 57.34 0 0 0 6.406 27.336l.278.519a84.782 84.782 0 0 1 4.986-15.119 78.004 78.004 0 0 1 19.347-26.9 57.153 57.153 0 0 0-25.001 5.704 52.282 52.282 0 0 0-5.645 3.247 48.756 48.756 0 0 0-.371 5.25v-.037Zm33.552-8.571a72.581 72.581 0 0 0-9.99 11.715 76.953 76.953 0 0 0-7.334 13.58 77.91 77.91 0 0 0-5.088 18.237 50.595 50.595 0 0 0 12.998 12.328 64.364 64.364 0 0 1 2.107-.492 70.255 70.255 0 0 1 9.999-1.299 55.693 55.693 0 0 1 22.931 3.321 42.73 42.73 0 0 1 4.308 1.976c.436-.223.873-.445 1.291-.687a25.047 25.047 0 0 0 9.367-9.164 27.002 27.002 0 0 0 3.547-12.754 37.147 37.147 0 0 0-2.136-13.516 41.21 41.21 0 0 0-5.765-10.945 39.214 39.214 0 0 0-4.224-4.842 50.992 50.992 0 0 0-5.125-4.184 51.1 51.1 0 0 0-20.935-8.2 68.498 68.498 0 0 0-5.951 4.963v-.037Zm-23.266 55.442c0 1.763.102 3.525.251 5.278a69.364 69.364 0 0 1 4.893-2.17c.445-.177.928-.325 1.346-.492-1.096-.863-2.163-1.753-3.175-2.718a77.85 77.85 0 0 1-3.259-3.293 85.973 85.973 0 0 0-.056 3.432v-.037Zm64.468 76.397a44.553 44.553 0 0 0 3.342-2.996c.557-.603 1.188-1.141 1.69-1.79l1.569-1.856c.26-.38.529-.751.798-1.131.049-1.688.421-3.35 1.096-4.898a14.839 14.839 0 0 1 3.035-4.174l.567-.482c.261-.805.465-1.626.613-2.459l.259-1.196c.093-.399.103-.807.158-1.215.084-.807.223-1.624.27-2.44l.055-2.458c0-.826-.083-1.642-.111-2.468a34.555 34.555 0 0 0-2.071-9.619 16.657 16.657 0 0 0-.928-2.272 19.363 19.363 0 0 0-1.077-2.199l-1.225-2.115-1.189-1.632c.245 1.883.276 3.787.093 5.677a26.995 26.995 0 0 1-.418 2.968c-.241.983-.557 1.948-.844 2.913a25.75 25.75 0 0 1-6.36 9.786 31.836 31.836 0 0 1-9.135 6.159 34.38 34.38 0 0 1-20.676 2.486 44.725 44.725 0 0 0 5.004 4.638 60.267 60.267 0 0 0 8.607 5.695 77.52 77.52 0 0 0 4.642 2.366c1.578.733 3.23 1.373 4.846 2.068 2.395.993 4.883 1.874 7.418 2.681l-.028-.037Zm7.26 2.078c1.262.315 2.525.603 3.806.927a19.377 19.377 0 0 1-1.857-2.903 50.5 50.5 0 0 1-1.949 2.013v-.037Zm-45.426-35.11c.051.788.169 1.57.352 2.338.135.778.331 1.544.585 2.291.397 1.24.89 2.446 1.476 3.608a30.733 30.733 0 0 0 5.961 1.967c2.375.528 4.813.718 7.241.566a30.468 30.468 0 0 0 7.223-1.299 31.453 31.453 0 0 0 6.647-3.042 26.57 26.57 0 0 0 5.487-4.638 21.68 21.68 0 0 0 3.612-6.039 21.002 21.002 0 0 0 0-13.914 25.03 25.03 0 0 0-1.309-3.182 27.306 27.306 0 0 0-3.825-1.855 22.775 22.775 0 0 0-4.54-1.076 25.44 25.44 0 0 0-9.516.659 28.148 28.148 0 0 0-15.783 10.565 20.066 20.066 0 0 0-3.519 8.525 16.187 16.187 0 0 0-.092 4.563v-.037Zm-6.406-3.534a24.471 24.471 0 0 1 1.559-7.115A29.296 29.296 0 0 1 307.996 402a35.63 35.63 0 0 1 12.153-6.929 32.053 32.053 0 0 1 14.009-1.503l.65.102a30.535 30.535 0 0 0-2.989-2.235 37.774 37.774 0 0 1-8.021 2.328 47.66 47.66 0 0 1-15.226.148 48.556 48.556 0 0 1-14.492-4.545c-1.198-.566-2.358-1.215-3.491-1.855a58.56 58.56 0 0 0-11.261 4.536 64.378 64.378 0 0 0 6.081 18.552 55.06 55.06 0 0 0 8.68 12.504c.836.927 1.783 1.781 2.683 2.671l1.857 1.577c-.195-.974-.279-1.966-.39-2.959a13.07 13.07 0 0 1-.084-1.855v-.928l.075-.909Zm25.493-33.18c-.529-.176-1.049-.352-1.578-.51a51.574 51.574 0 0 0-15.068-1.976c-2.209.04-4.416.192-6.61.455a43.854 43.854 0 0 0 5.57 1.725 43.19 43.19 0 0 0 13.834.928 31.277 31.277 0 0 0 3.852-.585v-.037Zm47.469-54.793-1.003 2.031c-.297.715-.566 1.438-.844 2.153-.279.714-.604 1.428-.799 2.179a46.11 46.11 0 0 0-2.117 18.237c.121.928.26 1.855.409 2.783.056-.121.111-.232.158-.353a49.123 49.123 0 0 0 3.945-13.487c.625-4.476.71-9.01.251-13.506v-.037Zm9.822 41.844a46.638 46.638 0 0 0-7.241-2.783c-.557-.195-1.133-.278-1.699-.436l-1.736-.408a38.588 38.588 0 0 0 2.033 3.478 31.002 31.002 0 0 0 10.547 10.018 21.691 21.691 0 0 0 3.407 1.577 34.02 34.02 0 0 1-4.512-8.728 28.65 28.65 0 0 1-.799-2.681v-.037Zm14.084 12.337.269.232c.39 0 .771-.084 1.152-.149l.594-.13a49.772 49.772 0 0 0-7.752-7.225 28.084 28.084 0 0 0 5.737 7.337v-.065Zm9.201-39.97a26.441 26.441 0 0 0-4.28 1.057c-.697.214-1.356.52-2.034.78-.677.259-1.309.602-1.921.983a19.889 19.889 0 0 0-6.332 5.621 19.277 19.277 0 0 0-3.333 7.755 23.287 23.287 0 0 0-.056 7.782l.817.473 2.238 1.336a57.469 57.469 0 0 1 13.369 12.059c.111-.065.222-.112.325-.177a24.697 24.697 0 0 0 5.626-4.452 30.74 30.74 0 0 0 4.261-5.89 29.527 29.527 0 0 0 2.627-6.781c.121-.594.297-1.178.381-1.772l.251-1.79a34.14 34.14 0 0 0-.789-11.066 42.91 42.91 0 0 0-1.857-6.03 33.522 33.522 0 0 0-9.293.149v-.037Zm17.797 20.175a34.548 34.548 0 0 1-11.494 19.86 27.204 27.204 0 0 1-4.15 2.949l.177.27.65 1.131.928 1.642c.998.173 2.006.291 3.017.353a36.435 36.435 0 0 0 17.64-3.711 37.771 37.771 0 0 0 13.926-11.604 42.699 42.699 0 0 0 3.342-5.436 49.316 49.316 0 0 0-6.647-11.196l-1.616-1.929-1.736-1.855a31.493 31.493 0 0 0-3.713-3.238 38.428 38.428 0 0 0-8.644-4.86 44.341 44.341 0 0 0-2.989-1.067 40.336 40.336 0 0 1 1.309 18.728v-.037Zm-92.709 97.555a42.722 42.722 0 0 0 6.749-3.005l-1.068-.371c-1.039-.39-2.042-.844-3.073-1.271l-3.054-1.28a56.207 56.207 0 0 1-3.027-1.429 71.697 71.697 0 0 1-11.465-7.049 50.031 50.031 0 0 1-9.758-9.601 34.672 34.672 0 0 1-3.008-4.74 46.214 46.214 0 0 1-10.212-7.681c-9.08-9.044-14.761-20.833-17.277-33.161a51.407 51.407 0 0 0-8.486 7.161 42.803 42.803 0 0 0-7.037 10.046 40.381 40.381 0 0 0-3.714 11.604 43.18 43.18 0 0 0-.538 7.81c1.69 2.551 3.333 4.787 4.8 6.577 8.355 10.315 18.957 19.127 31.249 24.405a63.073 63.073 0 0 0 4.642 1.79c1.04-.259 2.08-.565 3.101-.927.371-.149 1.179-.455 1.578-.631a39.085 39.085 0 0 0 4.921-2.607c.636-.41 1.3-.776 1.987-1.094.77-.353.928 0 2.265-1.039 3.054-2.421 4.428-4.276 4.976-4.323.26 0 .26.316 0 1.104a9.55 9.55 0 0 1-.696 1.484c-.167.297-.353.622-.557.928l-.734 1.076a25.84 25.84 0 0 1-5.032 5.148 29.66 29.66 0 0 1-4.409 2.829c2.395.476 4.821.786 7.26.928a49.657 49.657 0 0 0 19.617-2.644v-.037ZM258.123 447.6a32.767 32.767 0 0 0 6.88 9.61 26.922 26.922 0 0 0 9.868 6.197 33.46 33.46 0 0 0 6.286 1.651 84.955 84.955 0 0 1-11.772-7.903 98.656 98.656 0 0 1-12.19-11.679c.288.752.594 1.466.928 2.161v-.037Zm-5.57-103.51a65.307 65.307 0 0 0-6.898 12.003 67.996 67.996 0 0 0-4.28 12.56 69.925 69.925 0 0 0-1.792 12.374c-.2 3.874-.088 7.758.334 11.614a80.424 80.424 0 0 0 4.503 19.377 91.214 91.214 0 0 0 5.041 11.326c.112-.687.223-1.373.325-2.069.232-.927.464-1.901.687-2.866a46.831 46.831 0 0 1 4.698-11.289 50.305 50.305 0 0 1 7.733-9.897 54.725 54.725 0 0 1 9.767-7.801c.167-.112.344-.204.52-.316a78.212 78.212 0 0 1 0-18.171 63.936 63.936 0 0 1-7.659-15.213 65.128 65.128 0 0 1-3.175-14.637 64.88 64.88 0 0 1-.223-7.495 64.41 64.41 0 0 0-9.572 10.537l-.009-.037Zm99.143-48.597a47.107 47.107 0 0 0-25.8-10.036 57.679 57.679 0 0 0-27.713 4.749 52.13 52.13 0 0 0-21.752 17.448 45.44 45.44 0 0 0-6.164 12.495c-.047.139-.084.287-.13.427a58.881 58.881 0 0 1 2.441-1.243 60.287 60.287 0 0 1 14.344-4.583 62.135 62.135 0 0 1 19.496-.668l.808-.556c12.245-8.135 26.923-12.059 41.453-12.17a84.524 84.524 0 0 1 9.571.491 46.485 46.485 0 0 0-6.545-6.317l-.009-.037Zm18.939 14.99a63.533 63.533 0 0 1 3.175 7.709c1.105-1.178 2.247-2.329 3.454-3.405a28.334 28.334 0 0 1 1.689-1.345 75.163 75.163 0 0 0-8.272-2.921l-.046-.038Zm79.433 32.309a42.13 42.13 0 0 0-7.473-16.623 40.661 40.661 0 0 0-14.149-11.474 45.518 45.518 0 0 0-17.797-4.703 42.79 42.79 0 0 0-4.642-.047c-.771.012-1.539.071-2.303.177l-2.302.241a42.706 42.706 0 0 0-8.866 2.384l-.817.343a73.53 73.53 0 0 1 15.829 12.931 62.686 62.686 0 0 1 10.481 15.5 46.58 46.58 0 0 1 15.57 6.28 42.412 42.412 0 0 1 5.514 4.239 51.956 51.956 0 0 1 4.707 4.999 52.012 52.012 0 0 1 5.338 7.829c.344-1.187.65-2.393.929-3.608a47.553 47.553 0 0 0-.009-18.431l-.01-.037Z"/>
    </g>
  </g>
  <defs>
    <clipPath id="a">
      <rect width="326.667" height="409" x=".667" y=".951" fill="#fff" rx="20"/>
    </clipPath>
    <clipPath id="b">
      <path fill="#fff" d="M1 1h327.2v409H1z"/>
    </clipPath>
    <filter id="c" width="1415.81" height="1415.81" x="-682.467" y="-442.108" color-interpolation-filters="sRGB" filterUnits="userSpaceOnUse">
      <feFlood flood-opacity="0" result="BackgroundImageFix"/>
      <feBlend in="SourceGraphic" in2="BackgroundImageFix" result="shape"/>
      <feGaussianBlur result="effect1_foregroundBlur_1645_2082" stdDeviation="280.026"/>
    </filter>
  </defs>
</svg>
