<svg xmlns="http://www.w3.org/2000/svg" width="327" height="410" fill="none" viewBox="0 0 327 410">
  <g clip-path="url(#a)">
    <g clip-path="url(#b)">
      <path fill="#131729" d="M0 1h327v408.75H0z"/>
      <path fill="#FD9E28" d="M-169.661 89.26c-4.483 42.591-6.724 77.336-6.724 104.235 0 36.987 1.681 72.292 5.043 105.917 4.483 86.302 35.306 153.551 92.467 201.745 56.04 48.195 131.695 72.293 226.964 72.293 89.665 0 161.957-22.416 216.877-67.249 54.919-44.832 87.983-111.52 99.191-200.064l5.044-47.074c0-13.45-6.725-20.175-20.174-20.175H252.324c-13.449 0-20.735 6.725-21.855 20.175 0 6.724-1.121 15.691-3.363 26.899-10.087 56.04-36.426 84.061-79.017 84.061-22.416 0-40.349-7.286-53.799-21.856-14.57-15.691-24.097-36.987-28.58-63.886-3.363-29.141-5.044-59.964-5.044-92.467 0-23.537 2.242-52.118 6.725-85.742 4.483-25.779 14.01-45.393 28.58-58.843 13.45-13.45 30.823-20.174 52.118-20.174 42.591 0 70.051 19.614 82.38 58.842 3.362 12.33 10.647 18.494 21.855 18.494h198.384c5.604 0 10.647-1.681 15.131-5.044 3.362-4.483 5.043-9.527 5.043-15.13v-680.893c0-5.604-1.681-10.087-5.043-13.45-4.484-4.483-9.527-6.724-15.131-6.724h-593.469c-5.604 0-10.087 2.241-13.45 6.724-4.483 3.363-6.725 7.846-6.725 13.45v163.078c0 5.604 2.242 10.648 6.725 15.131 3.363 3.362 7.846 5.044 13.45 5.044h368.186c5.604 0 8.406 2.802 8.406 8.406v282.444c0 3.362-1.121 5.604-3.362 6.725-2.242 1.12-4.484 0-6.725-3.363-19.054-19.054-41.47-33.624-67.249-43.711-25.778-10.088-53.238-15.131-82.38-15.131-71.731 0-128.892 23.537-171.483 70.611C-141.08-60.368-165.177 5.199-169.661 89.26Z"/>
      <path fill="#131729" d="M295.127 24.477c-.449-.001-.836-.112-1.16-.332-.323-.22-.571-.537-.745-.954-.173-.416-.258-.917-.257-1.503 0-.584.087-1.081.259-1.493.175-.411.423-.724.745-.938.325-.216.711-.325 1.158-.325.448 0 .834.109 1.156.325.324.216.573.53.748.94.174.41.26.907.259 1.491 0 .587-.088 1.09-.262 1.506-.172.416-.42.735-.742.954-.323.22-.709.33-1.159.33Zm0-.938c.307 0 .552-.154.735-.463.183-.308.274-.771.272-1.388 0-.406-.042-.744-.125-1.014-.082-.27-.199-.474-.351-.61a.764.764 0 0 0-.531-.203c-.305 0-.549.152-.732.457-.183.305-.275.762-.277 1.37 0 .411.041.755.123 1.03.084.274.202.48.353.617.152.136.33.204.533.204Zm4.775.938c-.45-.001-.837-.112-1.161-.332-.323-.22-.571-.537-.745-.954-.173-.416-.258-.917-.256-1.503 0-.584.086-1.081.258-1.493.175-.411.423-.724.745-.938.325-.216.711-.325 1.159-.325.447 0 .833.109 1.155.325.324.216.574.53.748.94.174.41.26.907.259 1.491 0 .587-.088 1.09-.262 1.506-.172.416-.42.735-.742.954-.323.22-.709.33-1.158.33Zm0-.938c.306 0 .551-.154.734-.463.183-.308.274-.771.272-1.388 0-.406-.042-.744-.125-1.014-.082-.27-.199-.474-.351-.61a.764.764 0 0 0-.53-.203c-.305 0-.549.152-.732.457-.183.305-.276.762-.278 1.37 0 .411.041.755.123 1.03.084.274.202.48.353.617.152.136.33.204.534.204Zm2.593-.12v-.892l2.236-3.521h.768v1.234h-.455l-1.409 2.23v.042h3.177v.907h-4.317Zm2.57.94v-1.212l.021-.395v-3.746h1.062v5.354h-1.083Z"/>
      <path fill="#fff" d="M225.246 32.95v-5.353h1.132v2.209h2.298v-2.21h1.129v5.355h-1.129v-2.212h-2.298v2.212h-1.132Zm5.939 1.507c-.142 0-.274-.011-.398-.034a1.441 1.441 0 0 1-.303-.081l.251-.832c.131.04.248.062.353.066a.447.447 0 0 0 .274-.073.543.543 0 0 0 .191-.267l.066-.17-1.441-4.13h1.171l.832 2.948h.041l.84-2.949h1.179l-1.561 4.45a1.87 1.87 0 0 1-.306.565 1.248 1.248 0 0 1-.484.373c-.195.09-.43.134-.705.134Zm3.405 0v-5.522h1.098v.675h.05c.048-.108.119-.218.211-.33.094-.113.216-.207.366-.282.152-.077.34-.115.565-.115.293 0 .563.077.81.23.248.152.446.38.594.688.148.305.222.687.222 1.147 0 .448-.072.826-.217 1.135-.143.307-.338.54-.586.698a1.5 1.5 0 0 1-.826.235c-.216 0-.4-.035-.551-.107a1.143 1.143 0 0 1-.369-.27 1.345 1.345 0 0 1-.219-.331h-.034v2.149h-1.114Zm1.09-3.514c0 .239.033.447.099.625a.93.93 0 0 0 .288.416.721.721 0 0 0 .457.146.72.72 0 0 0 .461-.149.936.936 0 0 0 .285-.418 1.79 1.79 0 0 0 .099-.62c0-.232-.032-.436-.097-.612a.903.903 0 0 0-.285-.413.722.722 0 0 0-.463-.149.737.737 0 0 0-.46.144.913.913 0 0 0-.285.408 1.77 1.77 0 0 0-.099.622Zm5.178 2.086c-.413 0-.769-.083-1.067-.25a1.719 1.719 0 0 1-.685-.717c-.16-.31-.24-.677-.24-1.1 0-.414.08-.776.24-1.088.16-.312.386-.555.677-.73a1.976 1.976 0 0 1 1.03-.261c.265 0 .512.043.74.128.23.084.431.21.601.38a1.7 1.7 0 0 1 .403.637c.096.255.144.553.144.894v.306h-3.391v-.69h2.343a.85.85 0 0 0-.105-.426.749.749 0 0 0-.29-.29.827.827 0 0 0-.426-.108.86.86 0 0 0-.45.118.823.823 0 0 0-.303.311.873.873 0 0 0-.113.431v.657c0 .198.037.37.11.515.075.144.18.256.316.334a.954.954 0 0 0 .484.118c.124 0 .237-.017.34-.052a.68.68 0 0 0 .431-.413l1.03.068a1.404 1.404 0 0 1-.321.648 1.622 1.622 0 0 1-.622.429 2.348 2.348 0 0 1-.876.151Zm2.349-.078v-4.016h1.08v.7h.041c.074-.248.196-.437.369-.564a.97.97 0 0 1 .596-.193 1.685 1.685 0 0 1 .35.039v.988a1.945 1.945 0 0 0-.47-.06.89.89 0 0 0-.439.107.786.786 0 0 0-.413.727v2.272h-1.114Zm2.791 0v-4.016h1.114v4.016h-1.114Zm.56-4.533a.603.603 0 0 1-.426-.165.534.534 0 0 1 0-.795.598.598 0 0 1 .426-.167.59.59 0 0 1 .423.167.52.52 0 0 1 .178.395.529.529 0 0 1-.178.4.594.594 0 0 1-.423.165Zm3.04 4.611c-.406 0-.758-.086-1.054-.259a1.771 1.771 0 0 1-.682-.726 2.333 2.333 0 0 1-.241-1.085c0-.415.08-.777.241-1.088a1.75 1.75 0 0 1 .682-.727c.296-.174.648-.261 1.054-.261s.756.087 1.051.261c.296.173.524.415.685.727.16.31.24.673.24 1.088 0 .411-.08.773-.24 1.085-.161.31-.389.552-.685.727-.295.172-.645.258-1.051.258Zm.005-.862a.693.693 0 0 0 .463-.157.972.972 0 0 0 .279-.434 1.86 1.86 0 0 0 .097-.625 1.86 1.86 0 0 0-.097-.625.972.972 0 0 0-.279-.434.686.686 0 0 0-.463-.16.71.71 0 0 0-.471.16.99.99 0 0 0-.285.434 1.942 1.942 0 0 0-.094.625c0 .233.032.442.094.625a.99.99 0 0 0 .285.434.719.719 0 0 0 .471.157Zm7.529-2.84a1.165 1.165 0 0 0-.155-.337 1.04 1.04 0 0 0-.567-.41 1.366 1.366 0 0 0-.4-.055c-.274 0-.514.068-.721.204a1.334 1.334 0 0 0-.481.593c-.116.258-.173.574-.173.947s.057.69.17.951c.113.262.274.461.481.599.207.136.452.204.735.204.256 0 .475-.046.656-.136a.975.975 0 0 0 .418-.39c.098-.167.146-.365.146-.593l.231.034h-1.381v-.852h2.241v.674c0 .47-.1.875-.298 1.213a2.037 2.037 0 0 1-.821.78 2.56 2.56 0 0 1-1.198.271c-.502 0-.943-.11-1.323-.332a2.304 2.304 0 0 1-.888-.949c-.211-.411-.317-.9-.317-1.464 0-.434.063-.82.189-1.16.127-.342.305-.632.533-.869a2.29 2.29 0 0 1 .797-.54c.303-.125.632-.187.986-.187.303 0 .585.045.847.134.261.087.493.21.695.371a2 2 0 0 1 .5.573c.129.22.211.462.248.726h-1.15Zm1.808 3.624v-4.016h1.08v.7h.042a1.04 1.04 0 0 1 .368-.564.972.972 0 0 1 .596-.193 1.718 1.718 0 0 1 .351.039v.988a1.96 1.96 0 0 0-.471-.06.89.89 0 0 0-.439.107.79.79 0 0 0-.413.727v2.272h-1.114Zm4.419.078c-.406 0-.757-.086-1.053-.259a1.774 1.774 0 0 1-.683-.726 2.345 2.345 0 0 1-.24-1.085c0-.415.08-.777.24-1.088.161-.312.388-.554.683-.727.296-.174.647-.261 1.053-.261.406 0 .757.087 1.051.261.296.173.525.415.685.727.16.31.241.673.241 1.088 0 .411-.081.773-.241 1.085-.16.31-.389.552-.685.727-.294.172-.645.258-1.051.258Zm.005-.862a.693.693 0 0 0 .463-.157.974.974 0 0 0 .28-.434 1.89 1.89 0 0 0 .097-.625c0-.234-.033-.442-.097-.625a.974.974 0 0 0-.28-.434.686.686 0 0 0-.463-.16.708.708 0 0 0-.47.16.973.973 0 0 0-.285.434 1.915 1.915 0 0 0-.094.625c0 .233.031.442.094.625a.973.973 0 0 0 .285.434.716.716 0 0 0 .47.157Zm3.166.784-1.092-4.016h1.126l.623 2.698h.036l.649-2.698h1.105l.659 2.683h.034l.612-2.683h1.124l-1.09 4.016h-1.179l-.69-2.526h-.05l-.69 2.526h-1.177Zm7.385-4.016v.837h-2.418v-.837h2.418Zm-1.869-.962h1.114v3.744a.5.5 0 0 0 .047.24.258.258 0 0 0 .131.118.533.533 0 0 0 .198.034.936.936 0 0 0 .157-.013l.12-.023.176.828a3.25 3.25 0 0 1-.236.06 1.82 1.82 0 0 1-.368.045 1.689 1.689 0 0 1-.706-.107.98.98 0 0 1-.468-.382c-.112-.173-.167-.39-.165-.654v-3.89Zm3.574 2.656v2.322h-1.114v-5.354h1.083v2.047h.047c.09-.237.237-.423.439-.557.202-.136.456-.204.761-.204.278 0 .522.061.729.183.209.12.371.294.486.52.117.225.175.494.173.808v2.557h-1.114v-2.358c.002-.248-.061-.44-.188-.578-.126-.138-.302-.207-.528-.207a.82.82 0 0 0-.403.097.69.69 0 0 0-.272.283.965.965 0 0 0-.099.441Zm5.895-3.032v5.354h-1.132v-5.354h1.132Zm1.804 3.032v2.322h-1.114v-4.016h1.061v.709h.047c.089-.234.238-.418.448-.554a1.35 1.35 0 0 1 .76-.207c.279 0 .522.061.73.183.207.122.368.296.483.523.115.225.173.493.173.805v2.557h-1.114v-2.358c.002-.246-.061-.438-.188-.575-.127-.14-.302-.21-.526-.21a.8.8 0 0 0-.397.097.68.68 0 0 0-.267.283.978.978 0 0 0-.096.441Zm6.586-.549-1.02.063a.527.527 0 0 0-.112-.235.596.596 0 0 0-.228-.17.77.77 0 0 0-.332-.066.814.814 0 0 0-.436.11c-.119.072-.178.168-.178.288 0 .096.038.177.115.243.077.066.208.12.395.16l.727.146c.39.08.681.21.873.387.192.178.287.411.287.7 0 .264-.077.495-.232.693a1.518 1.518 0 0 1-.633.466 2.41 2.41 0 0 1-.923.164c-.531 0-.955-.11-1.27-.332a1.293 1.293 0 0 1-.552-.91l1.095-.057a.568.568 0 0 0 .241.371.87.87 0 0 0 .489.126.867.867 0 0 0 .47-.113c.121-.076.182-.175.183-.295a.304.304 0 0 0-.128-.248c-.083-.067-.212-.117-.387-.152l-.695-.139c-.392-.078-.684-.214-.876-.408a1.012 1.012 0 0 1-.285-.74c0-.257.07-.48.209-.666.142-.187.339-.33.594-.431a2.44 2.44 0 0 1 .899-.152c.507 0 .906.107 1.198.322.292.214.463.506.512.875Zm.572 2.87v-4.015h1.114v4.016h-1.114Zm.559-4.532a.607.607 0 0 1-.426-.165.533.533 0 0 1-.175-.4c0-.153.058-.285.175-.395a.601.601 0 0 1 .426-.167c.166 0 .307.056.424.167a.532.532 0 0 1 0 .795.597.597 0 0 1-.424.165Zm3.035 6.123c-.361 0-.67-.05-.928-.15a1.544 1.544 0 0 1-.612-.4 1.232 1.232 0 0 1-.295-.57l1.03-.138c.031.08.081.155.149.225.068.07.158.125.269.167.113.044.251.066.413.066a.97.97 0 0 0 .599-.178c.158-.117.238-.313.238-.589v-.734h-.047a1.056 1.056 0 0 1-.22.316c-.098.1-.223.18-.376.243a1.452 1.452 0 0 1-.549.094 1.65 1.65 0 0 1-.824-.209 1.495 1.495 0 0 1-.588-.645c-.145-.292-.217-.66-.217-1.104 0-.455.074-.835.222-1.14.148-.305.345-.533.591-.685a1.53 1.53 0 0 1 .813-.227c.225 0 .413.038.565.115.151.075.273.17.366.282.094.112.166.222.217.33h.042v-.675h1.105v4.055c0 .342-.083.628-.251.858-.167.23-.399.402-.695.517a2.748 2.748 0 0 1-1.017.175Zm.024-2.484a.756.756 0 0 0 .454-.134.842.842 0 0 0 .288-.386c.068-.17.102-.372.102-.607s-.033-.44-.099-.612a.896.896 0 0 0-.288-.405.73.73 0 0 0-.457-.144.722.722 0 0 0-.463.15.887.887 0 0 0-.285.407 1.723 1.723 0 0 0-.097.604c0 .232.032.432.097.601a.868.868 0 0 0 .285.39.77.77 0 0 0 .463.136Zm3.718-1.428v2.322H296.7v-5.354h1.082v2.047h.047a1.14 1.14 0 0 1 .439-.557c.203-.136.456-.204.761-.204.279 0 .522.061.73.183.209.12.371.294.486.52.117.225.174.494.172.808v2.557h-1.113v-2.358c.001-.248-.061-.44-.189-.578-.125-.138-.301-.207-.528-.207a.819.819 0 0 0-.402.097.685.685 0 0 0-.272.283.952.952 0 0 0-.1.441Zm5.396-1.694v.837h-2.418v-.837h2.418Zm-1.869-.962h1.113v3.744c0 .103.016.183.047.24a.262.262 0 0 0 .131.118.542.542 0 0 0 .199.034.954.954 0 0 0 .157-.013l.12-.023.175.828a3.199 3.199 0 0 1-.235.06c-.101.025-.224.04-.369.045a1.691 1.691 0 0 1-.706-.107.989.989 0 0 1-.468-.382c-.111-.173-.166-.39-.164-.654v-3.89Zm5.664 2.107-1.019.063a.53.53 0 0 0-.113-.235.592.592 0 0 0-.227-.17.774.774 0 0 0-.332-.066.817.817 0 0 0-.437.11c-.118.072-.178.168-.178.288a.31.31 0 0 0 .116.243c.076.066.208.12.394.16l.727.146c.39.08.682.21.873.387a.91.91 0 0 1 .288.7c0 .264-.078.495-.233.693a1.505 1.505 0 0 1-.633.466 2.4 2.4 0 0 1-.922.164c-.532 0-.955-.11-1.271-.332a1.293 1.293 0 0 1-.552-.91l1.096-.057a.563.563 0 0 0 .24.371.878.878 0 0 0 .489.126.873.873 0 0 0 .471-.113c.12-.076.181-.175.183-.295a.31.31 0 0 0-.128-.248.924.924 0 0 0-.387-.152l-.696-.139c-.392-.078-.684-.214-.875-.408a1.012 1.012 0 0 1-.285-.74c0-.257.069-.48.209-.666a1.34 1.34 0 0 1 .593-.431c.256-.102.556-.152.9-.152.507 0 .906.107 1.197.322.293.214.464.506.512.875ZM48.931 91.981c.2 0 .36.08.48.24.16.12.24.28.24.48v5.823c0 .2-.08.38-.24.54-.12.12-.28.18-.48.18h-7.503c-.2 0-.3.1-.3.3v33.736c0 .2-.08.38-.24.54-.12.12-.28.18-.48.18h-7.023c-.2 0-.38-.06-.54-.18a.877.877 0 0 1-.18-.54V99.545c0-.2-.1-.3-.3-.3H25.16c-.2 0-.38-.06-.54-.18a.878.878 0 0 1-.18-.54v-5.823c0-.2.06-.36.18-.48.16-.16.34-.24.54-.24h23.77Zm17.455.72c0-.2.06-.36.18-.48.16-.16.34-.24.54-.24h7.023c.2 0 .36.08.48.24.16.12.24.28.24.48v40.579c0 .2-.08.38-.24.54-.12.12-.28.18-.48.18h-7.023c-.2 0-.38-.06-.54-.18a.877.877 0 0 1-.18-.54v-16.388c0-.2-.1-.3-.3-.3h-6.003c-.2 0-.3.1-.3.3v16.388c0 .2-.08.38-.24.54a.65.65 0 0 1-.48.18h-7.024c-.2 0-.38-.06-.54-.18a.878.878 0 0 1-.18-.54V92.702c0-.2.06-.36.18-.48.16-.16.34-.24.54-.24h7.023c.2 0 .36.08.48.24.16.12.24.28.24.48v16.327c0 .2.1.3.3.3h6.003c.2 0 .3-.1.3-.3V92.702Zm33.227 5.823c0 .2-.08.38-.24.54-.12.12-.28.18-.48.18H86.346c-.2 0-.3.1-.3.3v9.485c0 .2.1.3.3.3h7.203c.2 0 .36.08.48.24.16.12.24.28.24.48v5.823c0 .2-.08.38-.24.54a.65.65 0 0 1-.48.18h-7.203c-.2 0-.3.1-.3.3v9.545c0 .2.1.3.3.3h12.545c.2 0 .36.08.48.24.16.12.24.28.24.48v5.823c0 .2-.08.38-.24.54-.12.12-.28.18-.48.18H78.303c-.2 0-.38-.06-.54-.18a.877.877 0 0 1-.18-.54V92.702c0-.2.06-.36.18-.48.16-.16.34-.24.54-.24h20.59c.2 0 .36.08.48.24.16.12.24.28.24.48v5.822Zm14.867-6.362c.32-.12.62-.18.9-.18h7.263c.2 0 .36.08.48.24.16.12.24.28.24.48v40.578c0 .2-.08.38-.24.54-.12.12-.28.18-.48.18h-7.023c-.2 0-.38-.06-.54-.18a.878.878 0 0 1-.18-.54v-32.775c0-.16-.1-.24-.3-.24l-4.622.54h-.121c-.44 0-.66-.22-.66-.66l-.18-5.162c0-.4.18-.68.54-.84l4.923-1.981Zm20.714 34.215c-.08.08-.1.16-.06.24.04.08.12.12.24.12h12.545a.57.57 0 0 1 .481.24c.16.12.24.28.24.48v5.823c0 .2-.08.38-.24.54a.65.65 0 0 1-.481.18H125.71a.88.88 0 0 1-.541-.18.878.878 0 0 1-.18-.54v-6.063c0-.36.1-.66.3-.9 1.601-2.121 2.722-3.562 3.362-4.322 3.522-4.522 6.023-7.944 7.503-10.265 2.161-3.441 3.242-6.343 3.242-8.704 0-1.36-.28-2.401-.841-3.121-.52-.76-1.24-1.14-2.161-1.14-.92 0-1.66.38-2.221 1.14-.56.72-.82 1.661-.78 2.821v2.461c0 .2-.08.38-.24.54a.645.645 0 0 1-.48.181h-7.143a.873.873 0 0 1-.541-.181.878.878 0 0 1-.18-.54v-2.821c.16-3.281 1.341-5.903 3.542-7.864 2.201-2 5.002-3 8.404-3 3.361 0 6.062 1.06 8.103 3.18 2.081 2.121 3.122 4.923 3.122 8.404 0 2.081-.341 4.062-1.021 5.943-.64 1.881-1.701 3.902-3.181 6.063-1.121 1.64-3.042 4.201-5.763 7.683l-2.821 3.602Zm-87.523 21.147c0 .2-.08.38-.24.541-.12.12-.28.18-.48.18H34.405c-.2 0-.3.1-.3.3v9.484c0 .2.1.3.3.3h7.203c.2 0 .36.08.48.24.16.12.24.28.24.48v5.823c0 .2-.08.38-.24.54-.12.12-.28.18-.48.18h-7.203c-.2 0-.3.1-.3.3v9.545c0 .2.1.3.3.3h12.546c.2 0 .36.08.48.24.16.12.24.28.24.48v5.823c0 .2-.08.38-.24.54-.12.12-.28.18-.48.18H26.36c-.2 0-.38-.06-.54-.18a.878.878 0 0 1-.18-.54v-40.578c0-.2.06-.36.18-.48a.744.744 0 0 1 .54-.241h20.59c.2 0 .36.08.48.241.16.12.24.28.24.48v5.822Zm12.694 35.956c-2.32 0-4.362-.46-6.123-1.38-1.76-.921-3.121-2.201-4.081-3.842-.96-1.681-1.441-3.602-1.441-5.763v-1.74a.65.65 0 0 1 .18-.481c.16-.16.34-.24.54-.24h6.903c.2 0 .36.08.48.24.16.12.24.28.24.481v1.32c0 1.241.32 2.241.961 3.001.64.761 1.44 1.141 2.401 1.141.96 0 1.76-.36 2.401-1.08.64-.721.96-1.661.96-2.822 0-1.2-.4-2.221-1.2-3.061-.8-.88-2.36-2.161-4.682-3.842-2-1.44-3.622-2.721-4.862-3.841-1.24-1.121-2.301-2.502-3.181-4.142-.88-1.641-1.321-3.542-1.321-5.703 0-3.401 1.06-6.123 3.181-8.163 2.121-2.041 4.923-3.062 8.404-3.062 3.522 0 6.343 1.061 8.464 3.182 2.16 2.121 3.241 4.902 3.241 8.343v1.441c0 .2-.08.38-.24.54a.65.65 0 0 1-.48.18h-6.903c-.2 0-.38-.06-.54-.18a.877.877 0 0 1-.18-.54v-1.621c0-1.24-.32-2.221-.96-2.941-.601-.76-1.401-1.141-2.402-1.141-.96 0-1.74.361-2.341 1.081-.6.68-.9 1.641-.9 2.881 0 1.201.38 2.261 1.14 3.182.76.92 2.261 2.201 4.502 3.841 2.481 1.841 4.342 3.342 5.583 4.502 1.28 1.121 2.26 2.381 2.94 3.782.721 1.361 1.081 3.001 1.081 4.922 0 3.522-1.08 6.323-3.241 8.404-2.161 2.081-5.002 3.121-8.524 3.121Zm24.271 0c-2.321 0-4.362-.46-6.123-1.38-1.76-.921-3.121-2.201-4.082-3.842-.96-1.681-1.44-3.602-1.44-5.763v-1.74a.65.65 0 0 1 .18-.481c.16-.16.34-.24.54-.24h6.903c.2 0 .36.08.48.24.16.12.24.28.24.481v1.32c0 1.241.32 2.241.961 3.001.64.761 1.44 1.141 2.401 1.141.96 0 1.76-.36 2.401-1.08.64-.721.96-1.661.96-2.822 0-1.2-.4-2.221-1.2-3.061-.8-.88-2.361-2.161-4.682-3.842-2-1.44-3.622-2.721-4.862-3.841-1.24-1.121-2.301-2.502-3.182-4.142-.88-1.641-1.32-3.542-1.32-5.703 0-3.401 1.06-6.123 3.181-8.163 2.121-2.041 4.922-3.062 8.404-3.062 3.522 0 6.343 1.061 8.464 3.182 2.16 2.121 3.241 4.902 3.241 8.343v1.441c0 .2-.08.38-.24.54a.65.65 0 0 1-.48.18h-6.903c-.2 0-.38-.06-.54-.18a.877.877 0 0 1-.18-.54v-1.621c0-1.24-.32-2.221-.961-2.941-.6-.76-1.4-1.141-2.401-1.141-.96 0-1.74.361-2.341 1.081-.6.68-.9 1.641-.9 2.881 0 1.201.38 2.261 1.14 3.182.76.92 2.261 2.201 4.502 3.841 2.481 1.841 4.342 3.342 5.582 4.502 1.281 1.121 2.261 2.381 2.942 3.782.72 1.361 1.08 3.001 1.08 4.922 0 3.522-1.08 6.323-3.241 8.404-2.161 2.081-5.002 3.121-8.524 3.121Zm35.32-35.956c0 .2-.08.38-.24.541-.12.12-.28.18-.48.18H106.69c-.2 0-.3.1-.3.3v9.484c0 .2.1.3.3.3h7.203c.2 0 .361.08.481.24.16.12.24.28.24.48v5.823c0 .2-.08.38-.24.54a.651.651 0 0 1-.481.18h-7.203c-.2 0-.3.1-.3.3v9.545c0 .2.1.3.3.3h12.546c.2 0 .36.08.48.24.16.12.24.28.24.48v5.823c0 .2-.08.38-.24.54-.12.12-.28.18-.48.18h-20.59c-.2 0-.38-.06-.54-.18a.877.877 0 0 1-.18-.54v-40.578c0-.2.06-.36.18-.48a.744.744 0 0 1 .54-.241h20.59c.2 0 .36.08.48.241.16.12.24.28.24.48v5.822Zm19.057-5.822c0-.2.06-.36.18-.48a.743.743 0 0 1 .54-.241h6.963a.57.57 0 0 1 .481.241c.16.12.24.28.24.48v40.578c0 .2-.08.38-.24.54a.65.65 0 0 1-.481.18h-7.923c-.4 0-.66-.2-.78-.6l-7.444-23.231c-.04-.12-.12-.16-.24-.12-.08 0-.12.06-.12.18l.06 23.051c0 .2-.08.38-.24.54-.12.12-.28.18-.48.18h-6.963c-.2 0-.38-.06-.54-.18a.872.872 0 0 1-.181-.54v-40.578c0-.2.06-.36.181-.48a.743.743 0 0 1 .54-.241h7.863c.4 0 .661.2.781.601l7.503 23.23c.04.12.1.18.18.18.12-.04.18-.12.18-.24l-.06-23.05Zm34.556-.721c.2 0 .36.08.48.241.16.12.24.28.24.48v5.822c0 .2-.08.38-.24.541-.12.12-.28.18-.48.18h-7.504c-.2 0-.3.1-.3.3v33.735c0 .2-.08.38-.24.54-.12.12-.28.18-.48.18h-7.023c-.2 0-.38-.06-.54-.18a.872.872 0 0 1-.181-.54v-33.735c0-.2-.1-.3-.3-.3h-7.203c-.2 0-.38-.06-.54-.18a.882.882 0 0 1-.18-.541v-5.822c0-.2.06-.36.18-.48a.743.743 0 0 1 .54-.241h23.771ZM176.676 183c-.2 0-.38-.06-.54-.18a.878.878 0 0 1-.18-.54v-40.578c0-.2.06-.36.18-.48a.743.743 0 0 1 .54-.241h7.024c.2 0 .36.08.48.241.16.12.24.28.24.48v40.578c0 .2-.08.38-.24.54-.12.12-.28.18-.48.18h-7.024Zm28.361 0c-.48 0-.74-.22-.78-.66l-.961-5.763c0-.2-.12-.3-.36-.3h-7.623c-.24 0-.36.1-.36.3l-.961 5.763c-.04.44-.3.66-.78.66h-7.023c-.52 0-.721-.26-.6-.78l8.823-40.578c.08-.44.341-.661.781-.661h8.103c.441 0 .701.221.781.661l8.764 40.578.06.24c0 .36-.221.54-.661.54h-7.203Zm-8.884-13.566c0 .2.08.3.24.3h5.403c.2 0 .28-.1.24-.3l-2.821-16.387c-.04-.12-.101-.18-.181-.18-.08 0-.14.06-.18.18l-2.701 16.387ZM214.667 183c-.2 0-.38-.06-.541-.18a.878.878 0 0 1-.18-.54v-40.578c0-.2.06-.36.18-.48a.747.747 0 0 1 .541-.241h7.023c.2 0 .36.08.48.241.16.12.24.28.24.48v33.735c0 .2.1.3.3.3h12.606c.2 0 .36.08.48.24.16.12.24.28.24.48v5.823c0 .2-.08.38-.24.54-.12.12-.28.18-.48.18h-20.649ZM26.362 232c-.2 0-.38-.06-.54-.18a.878.878 0 0 1-.18-.54v-40.578c0-.2.06-.36.18-.48a.744.744 0 0 1 .54-.241h7.023c.2 0 .36.08.48.241.16.12.24.28.24.48v15.126c0 .16.04.261.12.301.12 0 .2-.08.24-.241l7.743-15.366c.2-.361.48-.541.84-.541h7.444c.28 0 .46.08.54.241.12.12.12.32 0 .6l-8.883 17.287c-.04.16-.06.281-.06.361l9.424 22.69c.04.08.06.2.06.36 0 .32-.2.48-.6.48h-7.504c-.44 0-.72-.18-.84-.54l-6.243-15.727c-.04-.12-.1-.16-.18-.12-.08 0-.16.04-.24.12l-1.741 3.121c-.08.16-.12.28-.12.36v12.066c0 .2-.08.38-.24.54-.12.12-.28.18-.48.18h-7.023Zm48.394-35.476c0 .2-.08.38-.24.541a.65.65 0 0 1-.48.18H61.49c-.2 0-.3.1-.3.3v9.484c0 .2.1.3.3.3h7.203c.2 0 .36.08.48.24.16.12.24.28.24.48v5.823c0 .2-.08.38-.24.54a.65.65 0 0 1-.48.18H61.49c-.2 0-.3.1-.3.3v9.545c0 .2.1.3.3.3h12.545c.2 0 .36.08.48.24.16.12.24.28.24.48v5.823c0 .2-.08.38-.24.54a.65.65 0 0 1-.48.18H53.446c-.2 0-.38-.06-.54-.18a.877.877 0 0 1-.18-.54v-40.578c0-.2.06-.36.18-.48a.744.744 0 0 1 .54-.241h20.59c.2 0 .36.08.48.241.16.12.24.28.24.48v5.822Zm9.933 35.416c-.2 0-.38-.06-.54-.18a.878.878 0 0 1-.18-.54v-15.607l-.06-.36-8.405-24.431a.668.668 0 0 1-.06-.3c0-.361.22-.541.66-.541h7.384c.44 0 .72.2.84.601l3.722 14.346c.04.12.1.18.18.18.08 0 .14-.06.18-.18l3.722-14.346c.12-.401.4-.601.84-.601h7.383c.241 0 .421.08.541.241.12.12.14.32.06.6l-8.464 24.431-.06.36v15.607c0 .2-.08.38-.24.54a.65.65 0 0 1-.48.18h-7.023Zm27.149.54c-2.321 0-4.362-.46-6.123-1.38-1.761-.921-3.121-2.201-4.082-3.842-.96-1.681-1.44-3.602-1.44-5.763v-1.74a.65.65 0 0 1 .18-.481c.16-.16.34-.24.54-.24h6.903c.2 0 .36.08.48.24.16.12.24.28.24.481v1.32c0 1.241.321 2.241.961 3.001.64.761 1.441 1.141 2.401 1.141.96 0 1.761-.36 2.401-1.08.64-.721.96-1.661.96-2.822 0-1.2-.4-2.221-1.2-3.061-.8-.88-2.361-2.161-4.682-3.842-2.001-1.44-3.622-2.721-4.862-3.841-1.241-1.121-2.301-2.502-3.182-4.142-.88-1.641-1.32-3.542-1.32-5.703 0-3.401 1.06-6.123 3.181-8.163 2.121-2.041 4.922-3.062 8.404-3.062 3.521 0 6.343 1.061 8.464 3.182 2.16 2.121 3.241 4.902 3.241 8.343v1.441c0 .2-.08.38-.24.54-.12.12-.28.18-.48.18h-6.903a.88.88 0 0 1-.541-.18.878.878 0 0 1-.18-.54v-1.621c0-1.24-.32-2.221-.96-2.941-.6-.76-1.401-1.141-2.401-1.141-.961 0-1.741.361-2.341 1.081-.601.68-.901 1.641-.901 2.881 0 1.201.381 2.261 1.141 3.182.76.92 2.261 2.201 4.502 3.841 2.481 1.841 4.342 3.342 5.582 4.502 1.281 1.121 2.261 2.381 2.942 3.782.72 1.361 1.08 3.001 1.08 4.922 0 3.522-1.08 6.323-3.241 8.404-2.161 2.081-5.003 3.121-8.524 3.121Zm46.372-42.499c.2 0 .36.08.481.241.16.12.24.28.24.48v5.822c0 .2-.08.38-.24.541a.653.653 0 0 1-.481.18h-7.503c-.2 0-.3.1-.3.3v33.735c0 .2-.08.38-.24.54-.12.12-.28.18-.48.18h-7.024c-.2 0-.38-.06-.54-.18a.878.878 0 0 1-.18-.54v-33.735c0-.2-.1-.3-.3-.3h-7.203c-.2 0-.38-.06-.54-.18a.877.877 0 0 1-.181-.541v-5.822c0-.2.06-.36.181-.48a.743.743 0 0 1 .54-.241h23.77Zm12.799 42.499c-3.682 0-6.623-1.08-8.824-3.241-2.201-2.161-3.301-5.042-3.301-8.644v-19.209c0-3.601 1.1-6.482 3.301-8.643 2.201-2.161 5.142-3.242 8.824-3.242 3.682 0 6.623 1.081 8.824 3.242 2.241 2.161 3.361 5.042 3.361 8.643v19.209c0 3.602-1.12 6.483-3.361 8.644-2.201 2.161-5.142 3.241-8.824 3.241Zm0-7.263c1.121 0 2.021-.38 2.701-1.141.681-.8 1.021-1.84 1.021-3.121v-19.929c0-1.28-.34-2.301-1.021-3.061-.68-.8-1.58-1.201-2.701-1.201-1.12 0-2.021.401-2.701 1.201-.64.76-.961 1.781-.961 3.061v19.929c0 1.281.321 2.321.961 3.121.68.761 1.581 1.141 2.701 1.141Zm39.128-34.515c0-.2.061-.36.181-.48a.743.743 0 0 1 .54-.241h7.023c.2 0 .36.08.48.241.16.12.24.28.24.48v40.578c0 .2-.08.38-.24.54-.12.12-.28.18-.48.18h-7.023c-.2 0-.38-.06-.54-.18a.878.878 0 0 1-.181-.54v-16.388c0-.2-.1-.3-.3-.3h-6.002c-.2 0-.3.1-.3.3v16.388c0 .2-.08.38-.241.54-.12.12-.28.18-.48.18h-7.023c-.2 0-.38-.06-.54-.18a.878.878 0 0 1-.18-.54v-40.578c0-.2.06-.36.18-.48a.743.743 0 0 1 .54-.241h7.023c.2 0 .36.08.48.241.161.12.241.28.241.48v16.327c0 .2.1.3.3.3h6.002c.2 0 .3-.1.3-.3v-16.327ZM239.158 232c-.48 0-.74-.22-.78-.66l-.96-5.763c0-.2-.12-.3-.36-.3h-7.624c-.24 0-.36.1-.36.3l-.96 5.763c-.04.44-.301.66-.781.66h-7.023c-.52 0-.72-.26-.6-.78l8.824-40.578c.08-.44.34-.661.78-.661h8.104c.44 0 .7.221.78.661l8.764 40.578.06.24c0 .36-.22.54-.66.54h-7.204Zm-8.883-13.566c0 .2.08.3.24.3h5.402c.2 0 .28-.1.24-.3l-2.821-16.387c-.04-.12-.1-.18-.18-.18-.08 0-.14.06-.18.18l-2.701 16.387ZM251.599 232c-.44 0-.7-.22-.78-.66l-8.584-40.578-.06-.24c0-.361.22-.541.66-.541h7.744c.48 0 .74.221.78.661l4.142 26.411c.04.16.1.24.18.24.08 0 .14-.08.18-.24l4.022-26.411c.04-.44.3-.661.78-.661h7.503c.521 0 .721.261.601.781l-8.644 40.578c-.08.44-.34.66-.781.66h-7.743Zm40.835-35.476c0 .2-.08.38-.24.541-.12.12-.28.18-.48.18h-12.546c-.2 0-.3.1-.3.3v9.484c0 .2.1.3.3.3h7.203c.2 0 .36.08.48.24.161.12.241.28.241.48v5.823c0 .2-.08.38-.241.54-.12.12-.28.18-.48.18h-7.203c-.2 0-.3.1-.3.3v9.545c0 .2.1.3.3.3h12.546c.2 0 .36.08.48.24.16.12.24.28.24.48v5.823c0 .2-.08.38-.24.54-.12.12-.28.18-.48.18h-20.59c-.2 0-.38-.06-.54-.18a.878.878 0 0 1-.18-.54v-40.578c0-.2.06-.36.18-.48a.743.743 0 0 1 .54-.241h20.59c.2 0 .36.08.48.241.16.12.24.28.24.48v5.822ZM26.361 281c-.2 0-.38-.06-.54-.18a.878.878 0 0 1-.18-.54v-40.578c0-.2.06-.36.18-.48a.744.744 0 0 1 .54-.241h7.024c.2 0 .36.08.48.241.16.12.24.28.24.48v40.578c0 .2-.08.38-.24.54-.12.12-.28.18-.48.18h-7.023Zm27.88-41.298c0-.2.061-.36.181-.48a.744.744 0 0 1 .54-.241h6.963c.2 0 .36.08.48.241.16.12.24.28.24.48v40.578c0 .2-.08.38-.24.54a.65.65 0 0 1-.48.18h-7.923c-.4 0-.66-.2-.78-.6l-7.444-23.231c-.04-.12-.12-.16-.24-.12-.08 0-.12.06-.12.18l.06 23.051c0 .2-.08.38-.24.54a.65.65 0 0 1-.48.18h-6.963c-.2 0-.38-.06-.54-.18a.878.878 0 0 1-.18-.54v-40.578c0-.2.06-.36.18-.48a.744.744 0 0 1 .54-.241h7.863c.4 0 .66.2.78.601l7.504 23.23c.04.12.1.18.18.18.12-.04.18-.12.18-.24l-.06-23.05Zm32.227 41.778c-3.601 0-6.503-1.02-8.704-3.061-2.16-2.081-3.241-4.842-3.241-8.284v-20.289c0-3.441 1.08-6.183 3.241-8.223 2.201-2.081 5.103-3.122 8.704-3.122 3.602 0 6.503 1.041 8.704 3.122 2.201 2.08 3.302 4.842 3.302 8.283v2.281c0 .2-.08.38-.24.54a.646.646 0 0 1-.48.181H90.73c-.2 0-.38-.06-.54-.181a.877.877 0 0 1-.18-.54v-2.401c0-1.2-.32-2.161-.96-2.881-.64-.76-1.501-1.141-2.582-1.141-1.04 0-1.88.381-2.52 1.141-.641.72-.961 1.681-.961 2.881v20.409c0 1.201.32 2.181.96 2.942.64.72 1.48 1.08 2.521 1.08 1.08 0 1.941-.36 2.581-1.08.64-.761.96-1.741.96-2.942v-4.802c0-.2-.1-.3-.3-.3h-2.64c-.2 0-.38-.06-.54-.18a.877.877 0 0 1-.18-.54v-5.343c0-.2.06-.36.18-.48.16-.16.34-.24.54-.24h10.684c.2 0 .36.08.48.24.16.12.24.28.24.48v11.105c0 3.442-1.1 6.203-3.3 8.284-2.202 2.041-5.103 3.061-8.705 3.061Zm30.842-.48c-.44 0-.721-.2-.841-.6l-4.622-16.568c-.08-.16-.18-.24-.3-.24h-2.041c-.2 0-.3.1-.3.3v16.388c0 .2-.08.38-.24.54-.12.12-.28.18-.48.18h-7.023c-.2 0-.38-.06-.541-.18a.878.878 0 0 1-.18-.54v-40.578c0-.2.06-.36.18-.48a.747.747 0 0 1 .541-.241h12.125c2.201 0 4.162.541 5.883 1.621 1.72 1.041 3.041 2.521 3.961 4.442.961 1.921 1.441 4.122 1.441 6.603 0 2.361-.46 4.442-1.381 6.243-.88 1.801-2.12 3.201-3.721 4.202-.08.04-.14.1-.18.18-.04.04-.04.1 0 .18l5.522 17.708.06.24c0 .4-.22.6-.66.6h-7.203Zm-7.804-34.755c-.2 0-.3.1-.3.3v10.264c0 .2.1.3.3.3h2.701c1.241 0 2.241-.48 3.002-1.44.8-1.001 1.2-2.321 1.2-3.962 0-1.681-.4-3.001-1.2-3.962-.761-1-1.761-1.5-3.002-1.5h-2.701Zm39.12-.721c0 .2-.08.38-.24.541a.65.65 0 0 1-.481.18H135.36c-.2 0-.3.1-.3.3v9.484c0 .2.1.3.3.3h7.203c.2 0 .36.08.48.24.16.12.24.28.24.48v5.823c0 .2-.08.38-.24.54-.12.12-.28.18-.48.18h-7.203c-.2 0-.3.1-.3.3v9.545c0 .2.1.3.3.3h12.545a.57.57 0 0 1 .481.24c.16.12.24.28.24.48v5.823c0 .2-.08.38-.24.54a.65.65 0 0 1-.481.18h-20.589c-.2 0-.38-.06-.54-.18a.878.878 0 0 1-.18-.54v-40.578c0-.2.06-.36.18-.48a.743.743 0 0 1 .54-.241h20.589a.57.57 0 0 1 .481.241c.16.12.24.28.24.48v5.822ZM169.101 281c-.48 0-.74-.22-.78-.66l-.961-5.763c0-.2-.12-.3-.36-.3h-7.623c-.241 0-.361.1-.361.3l-.96 5.763c-.04.44-.3.66-.78.66h-7.023c-.521 0-.721-.26-.601-.78l8.824-40.578c.08-.44.34-.661.781-.661h8.103c.44 0 .7.221.78.661l8.764 40.578.06.24c0 .36-.22.54-.66.54h-7.203Zm-8.884-13.566c0 .2.08.3.24.3h5.402c.201 0 .281-.1.241-.3l-2.822-16.387c-.04-.12-.1-.18-.18-.18-.08 0-.14.06-.18.18l-2.701 16.387Zm37.566-28.453c.2 0 .36.08.48.241.161.12.241.28.241.48v5.822c0 .2-.08.38-.241.541-.12.12-.28.18-.48.18h-7.503c-.2 0-.3.1-.3.3v33.735c0 .2-.08.38-.24.54-.12.12-.28.18-.48.18h-7.024c-.2 0-.38-.06-.54-.18a.878.878 0 0 1-.18-.54v-33.735c0-.2-.1-.3-.3-.3h-7.203c-.2 0-.38-.06-.54-.18a.877.877 0 0 1-.181-.541v-5.822c0-.2.06-.36.181-.48a.743.743 0 0 1 .54-.241h23.77Zm23.769 42.499c-3.602 0-6.503-1.12-8.704-3.361-2.161-2.281-3.241-5.303-3.241-9.064v-29.353c0-.2.06-.36.18-.48a.743.743 0 0 1 .54-.241h7.023c.2 0 .36.08.48.241.16.12.24.28.24.48v30.193c0 1.281.321 2.321.961 3.121.64.801 1.48 1.201 2.521 1.201 1.04 0 1.861-.4 2.461-1.201.64-.8.96-1.84.96-3.121v-30.193c0-.2.06-.36.181-.48a.743.743 0 0 1 .54-.241h7.023c.2 0 .36.08.48.241.16.12.24.28.24.48v29.353c0 3.761-1.1 6.783-3.301 9.064-2.161 2.241-5.022 3.361-8.584 3.361Zm15.278-.48a.88.88 0 0 1-.541-.18.878.878 0 0 1-.18-.54v-40.578c0-.2.06-.36.18-.48a.746.746 0 0 1 .541-.241h7.023c.2 0 .36.08.48.241.16.12.24.28.24.48v40.578c0 .2-.08.38-.24.54-.12.12-.28.18-.48.18h-7.023Zm10.172 0c-.28 0-.46-.08-.54-.24-.08-.16-.08-.36 0-.6l8.164-19.989c.04-.12.04-.24 0-.36l-8.164-19.989a.836.836 0 0 1-.06-.36c0-.321.2-.481.6-.481h7.203c.401 0 .661.2.781.601l4.022 11.525c.04.12.1.18.18.18.08 0 .14-.06.18-.18l4.022-11.525c.12-.401.38-.601.78-.601h7.143c.28 0 .46.08.54.241.08.16.08.36 0 .6l-8.163 19.989c-.04.12-.04.24 0 .36l8.163 19.989c.04.08.06.2.06.36 0 .32-.2.48-.6.48h-7.143c-.4 0-.66-.2-.78-.6l-4.022-11.465c-.04-.12-.1-.18-.18-.18-.08 0-.14.06-.18.18l-4.082 11.465c-.12.4-.38.6-.781.6h-7.143Zm-220.64 49c-.2 0-.38-.06-.54-.18a.878.878 0 0 1-.18-.54v-40.578c0-.2.06-.36.18-.48a.744.744 0 0 1 .54-.241h10.864c3.642 0 6.563 1.061 8.764 3.182 2.201 2.121 3.302 4.942 3.302 8.464v18.728c0 3.521-1.1 6.343-3.302 8.464-2.2 2.121-5.122 3.181-8.764 3.181H26.362Zm7.743-7.563c0 .2.1.3.3.3l2.701-.06c1.08-.04 1.961-.5 2.641-1.381.68-.88 1.04-2.041 1.08-3.481v-17.648c0-1.521-.34-2.721-1.02-3.602-.68-.88-1.6-1.32-2.76-1.32h-2.642c-.2 0-.3.1-.3.3v26.892Zm39.537-27.913c0 .2-.08.38-.24.541a.65.65 0 0 1-.48.18H60.375c-.2 0-.3.1-.3.3v9.484c0 .2.1.3.3.3h7.203c.2 0 .36.08.48.24.16.12.24.28.24.48v5.823c0 .2-.08.38-.24.54-.12.12-.28.18-.48.18h-7.203c-.2 0-.3.1-.3.3v9.545c0 .2.1.3.3.3H72.92c.2 0 .36.08.48.24.16.12.24.28.24.48v5.823c0 .2-.08.38-.24.54a.65.65 0 0 1-.48.18H52.332c-.2 0-.38-.06-.54-.18a.878.878 0 0 1-.18-.54v-40.578c0-.2.06-.36.18-.48a.744.744 0 0 1 .54-.241h20.59c.2 0 .36.08.48.241.16.12.24.28.24.48v5.822Zm12.694 35.956c-2.321 0-4.362-.46-6.123-1.38-1.76-.921-3.121-2.201-4.081-3.842-.96-1.681-1.441-3.602-1.441-5.763v-1.74a.65.65 0 0 1 .18-.481c.16-.16.34-.24.54-.24h6.903c.2 0 .36.08.48.24.16.12.24.28.24.481v1.32c0 1.241.32 2.241.961 3.001.64.761 1.44 1.141 2.401 1.141.96 0 1.76-.36 2.401-1.08.64-.721.96-1.661.96-2.822 0-1.2-.4-2.221-1.2-3.061-.8-.88-2.361-2.161-4.682-3.842-2.001-1.44-3.622-2.721-4.862-3.841-1.24-1.121-2.301-2.502-3.182-4.142-.88-1.641-1.32-3.542-1.32-5.703 0-3.401 1.06-6.123 3.181-8.163 2.121-2.041 4.922-3.062 8.404-3.062 3.521 0 6.343 1.061 8.464 3.182 2.16 2.121 3.241 4.902 3.241 8.343v1.441c0 .2-.08.38-.24.54a.65.65 0 0 1-.48.18h-6.903c-.2 0-.38-.06-.54-.18a.877.877 0 0 1-.18-.54v-1.621c0-1.24-.32-2.221-.961-2.941-.6-.76-1.4-1.141-2.401-1.141-.96 0-1.74.361-2.341 1.081-.6.68-.9 1.641-.9 2.881 0 1.201.38 2.261 1.14 3.182.76.92 2.261 2.201 4.502 3.841 2.481 1.841 4.342 3.342 5.582 4.502 1.281 1.121 2.261 2.381 2.942 3.782.72 1.361 1.08 3.001 1.08 4.922 0 3.522-1.08 6.323-3.241 8.404-2.161 2.081-5.002 3.121-8.524 3.121Zm14.186-.48c-.2 0-.38-.06-.54-.18a.877.877 0 0 1-.18-.54v-40.578c0-.2.06-.36.18-.48a.743.743 0 0 1 .54-.241h7.024c.2 0 .36.08.48.241.16.12.24.28.24.48v40.578c0 .2-.08.38-.24.54-.12.12-.28.18-.48.18h-7.024Zm22.058.48c-3.601 0-6.503-1.02-8.704-3.061-2.16-2.081-3.241-4.842-3.241-8.284v-20.289c0-3.441 1.081-6.183 3.241-8.223 2.201-2.081 5.103-3.122 8.704-3.122 3.602 0 6.503 1.041 8.704 3.122 2.201 2.08 3.302 4.842 3.302 8.283v2.281c0 .2-.08.38-.24.54a.65.65 0 0 1-.481.181h-7.023c-.2 0-.38-.06-.54-.181a.878.878 0 0 1-.18-.54v-2.401c0-1.2-.32-2.161-.961-2.881-.64-.76-1.5-1.141-2.581-1.141-1.04 0-1.881.381-2.521 1.141-.64.72-.96 1.681-.96 2.881v20.409c0 1.201.32 2.181.96 2.942.64.72 1.481 1.08 2.521 1.08 1.081 0 1.941-.36 2.581-1.08.641-.761.961-1.741.961-2.942v-4.802c0-.2-.1-.3-.3-.3h-2.641a.878.878 0 0 1-.541-.18.878.878 0 0 1-.18-.54v-5.343c0-.2.06-.36.18-.48.16-.16.34-.24.541-.24h10.684c.2 0 .36.08.481.24.16.12.24.28.24.48v11.105c0 3.442-1.101 6.203-3.302 8.284-2.201 2.041-5.102 3.061-8.704 3.061Zm31.442-41.778c0-.2.06-.36.18-.48a.743.743 0 0 1 .54-.241h6.963a.57.57 0 0 1 .481.241c.16.12.24.28.24.48v40.578c0 .2-.08.38-.24.54a.65.65 0 0 1-.481.18h-7.923c-.4 0-.66-.2-.78-.6l-7.444-23.231c-.04-.12-.12-.16-.24-.12-.08 0-.12.06-.12.18l.06 23.051c0 .2-.08.38-.24.54-.12.12-.28.18-.48.18h-6.963c-.2 0-.38-.06-.54-.18a.872.872 0 0 1-.181-.54v-40.578c0-.2.06-.36.181-.48a.743.743 0 0 1 .54-.241h7.863c.4 0 .661.2.781.601l7.503 23.23c.04.12.1.18.18.18.12-.04.18-.12.18-.24l-.06-23.05ZM44.317 34.462a.363.363 0 0 1-.082.25c-.053.06-.146.106-.28.138a2.61 2.61 0 0 1-.55.046c-.172 0-.354-.01-.544-.031a4.163 4.163 0 0 1-.481-.082l.06-.342c.366.081.726.122 1.079.122.163 0 .27-.008.32-.023.05-.015.076-.045.076-.09 0-.04-.012-.067-.036-.08a.32.32 0 0 0-.127-.03l-.79-.045c-.217-.01-.372-.05-.465-.12-.094-.07-.14-.173-.14-.31 0-.159.074-.273.221-.343.148-.071.389-.107.721-.107.131 0 .288.01.47.03.182.018.342.041.479.07l-.07.321a5.047 5.047 0 0 0-.977-.088c-.189 0-.31.007-.363.021-.053.013-.08.041-.08.086 0 .038.014.063.04.075a.45.45 0 0 0 .145.026l.78.046c.205.01.355.053.45.127.096.074.144.185.144.333Zm2.844.258c-.187.119-.485.178-.892.178-.408 0-.706-.06-.893-.178-.187-.12-.28-.309-.28-.566 0-.256.093-.444.28-.563.188-.12.485-.18.893-.18.407 0 .705.06.892.18.187.119.28.307.28.563 0 .257-.093.446-.28.566Zm-.892-.186c.282 0 .475-.028.58-.084.106-.056.16-.155.16-.296 0-.14-.054-.239-.16-.295-.105-.056-.298-.084-.58-.084-.284 0-.48.029-.587.086-.107.056-.161.154-.161.294 0 .14.054.238.161.295.108.056.303.084.587.084Zm2.349.335h-.425V33.44h1.906v.365h-1.481v.261h1.441v.336h-1.441v.467Zm3.095-1.064h-.848v-.365h2.12v.365h-.846v1.064h-.426v-1.064Zm2.616 1.064-.637-1.429h.48l.442 1.041.511-1.04h.507l.524 1.04.431-1.04h.48l-.637 1.428h-.545l-.505-1.016-.506 1.016h-.545Zm4.989 0-.171-.277H58.09l-.174.277h-.511l.932-1.429h.566l.93 1.429h-.516Zm-1.043-.572h.685l-.341-.549-.344.549Zm2.702.572h-.425V33.44h1.43c.398 0 .597.166.597.499 0 .3-.167.463-.502.49l-.093.002.113.07.47.368h-.534l-.514-.415h-.542v.415Zm0-1.064v.33h.963c.07 0 .12-.012.151-.037.032-.025.048-.067.048-.126 0-.063-.015-.106-.046-.13-.03-.025-.081-.037-.153-.037h-.963Zm4.323 1.064h-1.907V33.44H65.3v.333h-1.481v.237h1.44v.274h-1.44v.252h1.48v.333Z"/>
      <path fill="#fff" fill-rule="evenodd" d="M58.709 24.855c-.367 0-.668-.106-.904-.318a1.077 1.077 0 0 1-.342-.806c0-.326.114-.595.342-.806.236-.22.537-.33.904-.33.358 0 .652.11.88.33.236.211.354.48.354.806 0 .318-.118.586-.354.806-.228.212-.522.318-.88.318Zm1.038 7.527h-2.089v-6.818h2.09v6.818Zm-30.654-8.578v8.578h-2.09V28.85h-3.25v3.53h-2.089v-8.577h2.09v3.36h3.25v-3.36h2.089Zm10.584 11.429v-3.804c.204.309.485.562.843.757.367.196.786.293 1.259.293.562 0 1.07-.142 1.527-.427a3.007 3.007 0 0 0 1.075-1.234c.269-.538.403-1.157.403-1.858 0-.7-.134-1.315-.403-1.845a2.917 2.917 0 0 0-1.075-1.221 2.824 2.824 0 0 0-1.527-.428c-.48 0-.9.098-1.259.293-.358.196-.64.452-.843.77v-.965h-2.09v9.669h2.09Zm-6.59 0 4.112-9.67h-2.26l-1.564 4.265-1.577-4.264h-2.333l2.773 6.585-1.39 3.084h2.239Zm9.132-7.494c.293.293.44.7.44 1.221 0 .522-.147.937-.44 1.247a1.429 1.429 0 0 1-1.063.452c-.416 0-.77-.15-1.063-.452-.286-.302-.428-.713-.428-1.234 0-.522.142-.933.428-1.234a1.429 1.429 0 0 1 1.063-.453c.423 0 .778.151 1.063.453Zm9.844 1.124c0 .195-.012.399-.037.61h-4.728c.032.424.167.75.403.978.244.22.542.33.892.33.521 0 .884-.22 1.087-.66h2.224a3.012 3.012 0 0 1-.623 1.21c-.293.358-.664.64-1.112.843a3.59 3.59 0 0 1-1.503.305c-.668 0-1.262-.142-1.784-.427a3.041 3.041 0 0 1-1.221-1.222c-.294-.53-.44-1.149-.44-1.857 0-.709.142-1.328.427-1.857.294-.53.7-.937 1.222-1.222.522-.285 1.12-.428 1.796-.428.66 0 1.247.139 1.76.415a2.94 2.94 0 0 1 1.197 1.186c.293.513.44 1.111.44 1.796Zm-2.138-.55c0-.358-.122-.644-.367-.855-.244-.212-.55-.318-.916-.318-.35 0-.648.102-.892.305-.236.204-.383.493-.44.868h2.615Zm5.757-2.493a2.7 2.7 0 0 0-.916.88v-1.136h-2.09v6.818h2.09v-3.165c0-.562.13-.953.39-1.173.261-.228.652-.342 1.174-.342h.574V25.49c-.448 0-.855.11-1.222.33Zm6.386 6.232a3.8 3.8 0 0 0 1.808.427c.668 0 1.271-.142 1.809-.427a3.141 3.141 0 0 0 1.282-1.222c.318-.538.477-1.157.477-1.857s-.155-1.316-.464-1.845a3.14 3.14 0 0 0-1.27-1.234 3.8 3.8 0 0 0-1.81-.428 3.8 3.8 0 0 0-1.807.428 3.14 3.14 0 0 0-1.271 1.234c-.31.53-.465 1.144-.465 1.845 0 .708.151 1.327.453 1.857.31.53.729.937 1.258 1.222Zm2.822-1.82c-.276.292-.615.439-1.014.439s-.733-.147-1.002-.44c-.26-.293-.39-.713-.39-1.258 0-.554.134-.974.403-1.259.269-.293.606-.44 1.014-.44.399 0 .733.147 1.002.44.277.293.415.713.415 1.259 0 .545-.142.965-.428 1.258Z" clip-rule="evenodd"/>
      <path fill="#FD9E28" d="M57.805 24.537c.236.212.538.318.904.318.358 0 .652-.106.88-.318a1.06 1.06 0 0 0 .354-.806c0-.326-.118-.595-.354-.806-.228-.22-.521-.33-.88-.33-.366 0-.668.11-.904.33a1.05 1.05 0 0 0-.342.806c0 .318.114.586.342.806Z"/>
      <path fill="#fff" d="M17.214 386.189v-7.135h2.494c.497 0 .907.086 1.23.258.322.17.563.398.72.686.159.286.238.603.238.951 0 .307-.055.56-.164.76a1.287 1.287 0 0 1-.425.474 1.917 1.917 0 0 1-.568.257v.07a1.4 1.4 0 0 1 .658.23c.221.139.406.339.554.599.149.26.223.578.223.955 0 .357-.081.679-.244.965-.162.285-.419.512-.77.679-.35.167-.806.251-1.369.251h-2.577Zm.864-.767h1.713c.565 0 .965-.109 1.202-.327.24-.221.36-.488.36-.801 0-.242-.062-.465-.186-.669a1.334 1.334 0 0 0-.526-.495 1.654 1.654 0 0 0-.808-.188h-1.755v2.48Zm0-3.233h1.602c.26 0 .495-.051.704-.153.211-.102.378-.246.501-.432.126-.186.188-.404.188-.655 0-.313-.109-.579-.327-.797-.218-.221-.564-.331-1.038-.331h-1.63v2.368Zm5.012 4v-5.351h.794v.808h.056a1.28 1.28 0 0 1 .53-.644c.255-.165.543-.248.864-.248a6.857 6.857 0 0 1 .431.014v.836a2.533 2.533 0 0 0-.191-.031 1.913 1.913 0 0 0-.31-.025c-.26 0-.492.055-.697.164a1.202 1.202 0 0 0-.655 1.091v3.386h-.822Zm5.269.111c-.484 0-.907-.115-1.272-.345a2.34 2.34 0 0 1-.85-.965c-.202-.413-.303-.896-.303-1.449 0-.557.101-1.044.303-1.46.204-.415.488-.738.85-.968.365-.23.788-.345 1.272-.345.483 0 .905.115 1.268.345.364.23.648.553.85.968.204.416.306.903.306 1.46 0 .553-.102 1.036-.306 1.449a2.308 2.308 0 0 1-.85.965c-.363.23-.785.345-1.268.345Zm0-.738c.366 0 .668-.094.905-.283a1.66 1.66 0 0 0 .526-.742 2.83 2.83 0 0 0 .171-.996 2.87 2.87 0 0 0-.17-1 1.688 1.688 0 0 0-.527-.749c-.237-.19-.538-.285-.905-.285s-.67.095-.906.285c-.237.191-.412.44-.526.749a2.87 2.87 0 0 0-.17 1c0 .358.056.69.17.996.114.307.289.554.526.742.237.189.539.283.906.283Zm6.659-1.561v-3.163h.822v5.351h-.822v-.906h-.056a1.75 1.75 0 0 1-.585.693c-.265.188-.6.282-1.003.282a1.79 1.79 0 0 1-.892-.219 1.54 1.54 0 0 1-.613-.669c-.149-.3-.223-.677-.223-1.132v-3.4h.822v3.344c0 .39.11.702.327.934.221.232.502.348.843.348.205 0 .413-.052.624-.157a1.35 1.35 0 0 0 .536-.48c.147-.216.22-.492.22-.826Zm4.095 4.306c-.397 0-.738-.051-1.024-.153a2.174 2.174 0 0 1-1.163-.92l.655-.46c.074.098.168.209.282.334.114.128.27.238.467.331.2.096.46.143.783.143.432 0 .789-.104 1.07-.313.28-.209.421-.537.421-.983v-1.087h-.07a4.34 4.34 0 0 1-.257.363 1.47 1.47 0 0 1-.474.379c-.204.11-.48.164-.829.164-.432 0-.82-.102-1.163-.306a2.157 2.157 0 0 1-.812-.892c-.198-.39-.296-.864-.296-1.422 0-.548.096-1.025.289-1.431.193-.409.46-.725.805-.948.343-.225.74-.338 1.191-.338.348 0 .625.058.83.174.206.114.364.244.473.39.111.144.197.263.258.356h.083v-.85h.795v5.504c0 .46-.105.834-.314 1.122-.207.29-.485.503-.836.637a3.155 3.155 0 0 1-1.164.206Zm-.027-2.94c.33 0 .608-.076.836-.227.227-.151.4-.368.519-.651.118-.284.177-.623.177-1.018 0-.385-.058-.725-.174-1.02a1.538 1.538 0 0 0-.515-.694c-.228-.167-.509-.25-.843-.25-.349 0-.64.088-.871.264-.23.177-.403.414-.52.711-.113.297-.17.627-.17.989 0 .372.058.701.174.986.119.284.293.507.523.669.232.16.52.241.864.241Zm4.275-2.397v3.219h-.822v-7.135h.822v2.62h.07a1.52 1.52 0 0 1 .564-.659c.253-.164.59-.247 1.01-.247.365 0 .684.073.959.22.274.144.486.365.637.665.153.297.23.676.23 1.136v3.4h-.822v-3.345c0-.425-.11-.753-.331-.985-.218-.235-.521-.352-.91-.352-.269 0-.51.057-.724.17-.211.114-.378.28-.502.499-.12.218-.18.483-.18.794Zm6.909-2.132v.697h-2.773v-.697h2.773Zm-1.965-1.282h.822v5.1c0 .232.034.406.101.522a.52.52 0 0 0 .265.23c.109.038.224.056.345.056a1.5 1.5 0 0 0 .223-.014l.14-.028.166.739a1.739 1.739 0 0 1-.613.097c-.232 0-.46-.05-.683-.149-.22-.1-.404-.252-.55-.457-.144-.204-.216-.462-.216-.773v-5.323Zm7.503 1.282v.697h-2.773v-.697h2.773Zm-1.965-1.282h.822v5.1c0 .232.034.406.101.522a.52.52 0 0 0 .265.23c.11.038.224.056.345.056a1.5 1.5 0 0 0 .223-.014l.14-.028.166.739a1.738 1.738 0 0 1-.613.097c-.232 0-.46-.05-.683-.149-.22-.1-.404-.252-.55-.457-.144-.204-.216-.462-.216-.773v-5.323Zm4.925 6.744c-.483 0-.907-.115-1.271-.345a2.34 2.34 0 0 1-.85-.965c-.202-.413-.303-.896-.303-1.449 0-.557.1-1.044.303-1.46.204-.415.488-.738.85-.968.364-.23.788-.345 1.271-.345.483 0 .906.115 1.268.345.365.23.648.553.85.968.205.416.307.903.307 1.46 0 .553-.102 1.036-.306 1.449a2.308 2.308 0 0 1-.85.965c-.363.23-.785.345-1.269.345Zm0-.738c.367 0 .67-.094.906-.283a1.66 1.66 0 0 0 .526-.742 2.83 2.83 0 0 0 .17-.996 2.87 2.87 0 0 0-.17-1 1.687 1.687 0 0 0-.526-.749c-.237-.19-.539-.285-.906-.285s-.668.095-.905.285a1.68 1.68 0 0 0-.526.749 2.87 2.87 0 0 0-.171 1c0 .358.057.69.17.996.114.307.29.554.527.742.237.189.538.283.905.283Zm6.184 2.633c-.14 0-.264-.011-.373-.035a.942.942 0 0 1-.226-.062l.209-.725c.2.051.376.07.53.056a.636.636 0 0 0 .407-.206c.12-.12.23-.317.33-.588l.154-.418-1.979-5.379h.892l1.477 4.264h.056l1.477-4.264h.892l-2.272 6.131a2.32 2.32 0 0 1-.38.686c-.15.184-.326.32-.525.408-.198.088-.42.132-.67.132Zm6.52-1.895c-.482 0-.906-.115-1.27-.345a2.34 2.34 0 0 1-.85-.965c-.203-.413-.304-.896-.304-1.449 0-.557.101-1.044.303-1.46.205-.415.488-.738.85-.968.365-.23.789-.345 1.272-.345s.906.115 1.268.345c.364.23.648.553.85.968.204.416.306.903.306 1.46 0 .553-.102 1.036-.306 1.449a2.308 2.308 0 0 1-.85.965c-.362.23-.785.345-1.268.345Zm0-.738c.368 0 .67-.094.907-.283a1.66 1.66 0 0 0 .525-.742 2.83 2.83 0 0 0 .171-.996 2.87 2.87 0 0 0-.17-1 1.687 1.687 0 0 0-.526-.749c-.237-.19-.54-.285-.906-.285-.367 0-.67.095-.906.285-.237.191-.412.44-.526.749a2.87 2.87 0 0 0-.17 1c0 .358.056.69.17.996.114.307.29.554.526.742.237.189.539.283.906.283Zm6.66-1.561v-3.163h.822v5.351h-.822v-.906h-.056a1.75 1.75 0 0 1-.585.693c-.265.188-.599.282-1.003.282a1.79 1.79 0 0 1-.892-.219 1.54 1.54 0 0 1-.613-.669c-.149-.3-.223-.677-.223-1.132v-3.4h.822v3.344c0 .39.11.702.328.934.22.232.501.348.843.348.204 0 .412-.052.623-.157.214-.104.393-.264.537-.48.146-.216.22-.492.22-.826Zm4.414 2.188v-7.135h.822v2.634h.07c.06-.093.144-.212.25-.356.11-.146.265-.276.467-.39.205-.116.481-.174.83-.174.45 0 .847.113 1.19.338.345.225.613.545.806.958.192.413.289.901.289 1.463 0 .567-.097 1.058-.29 1.474a2.28 2.28 0 0 1-.8.961 2.09 2.09 0 0 1-1.182.338c-.343 0-.619-.057-.825-.171a1.53 1.53 0 0 1-.478-.393 5.5 5.5 0 0 1-.257-.369h-.098v.822h-.794Zm.808-2.676c0 .404.06.761.178 1.07.118.306.291.547.519.721.227.172.506.258.836.258.344 0 .63-.091.86-.272a1.66 1.66 0 0 0 .523-.739c.118-.311.178-.657.178-1.038 0-.376-.058-.715-.175-1.017a1.57 1.57 0 0 0-.519-.721c-.23-.179-.519-.268-.867-.268-.335 0-.616.084-.843.254-.228.167-.4.402-.516.704a2.89 2.89 0 0 0-.174 1.048Zm5.119 4.682c-.14 0-.264-.011-.373-.035a.942.942 0 0 1-.226-.062l.209-.725c.2.051.376.07.53.056a.636.636 0 0 0 .407-.206c.12-.12.23-.317.33-.588l.154-.418-1.979-5.379h.892l1.477 4.264h.056l1.477-4.264h.892l-2.272 6.131a2.317 2.317 0 0 1-.38.686c-.15.184-.326.32-.525.408-.198.088-.42.132-.67.132Zm8.229-5.1v3.094h-1.484v-7.135h1.442v2.728h.063c.12-.316.316-.563.585-.742.27-.181.607-.272 1.014-.272.371 0 .695.081.972.244.279.16.495.391.648.693.155.3.232.659.23 1.077v3.407h-1.484v-3.143c.002-.329-.082-.586-.251-.769-.167-.184-.402-.276-.704-.276-.202 0-.38.043-.536.129a.919.919 0 0 0-.363.376c-.085.163-.13.359-.132.589Zm4.97 5.1c-.188 0-.365-.015-.53-.045a1.956 1.956 0 0 1-.404-.108l.335-1.108c.174.054.331.083.47.087a.599.599 0 0 0 .366-.097c.104-.07.189-.188.254-.356l.087-.226-1.919-5.504h1.56l1.108 3.929h.056l1.118-3.929h1.571l-2.08 5.929a2.457 2.457 0 0 1-.407.752 1.67 1.67 0 0 1-.645.499c-.26.118-.573.177-.94.177Zm4.439 0v-7.357h1.463v.899h.067a1.95 1.95 0 0 1 .282-.439c.125-.151.288-.277.487-.377.203-.102.453-.153.753-.153.39 0 .75.102 1.08.307.33.202.593.507.791.916.197.406.296.916.296 1.529 0 .597-.097 1.101-.289 1.512-.191.409-.451.719-.781.93a2.001 2.001 0 0 1-1.101.314 1.72 1.72 0 0 1-.735-.143 1.527 1.527 0 0 1-.491-.359 1.834 1.834 0 0 1-.292-.442h-.046v2.863h-1.484Zm1.453-4.682c0 .318.044.596.132.833.089.237.216.421.384.554.167.13.37.195.609.195a.952.952 0 0 0 .613-.199c.168-.134.294-.32.38-.557.088-.239.132-.515.132-.826 0-.309-.043-.58-.128-.815a1.217 1.217 0 0 0-.38-.55.96.96 0 0 0-.617-.199.98.98 0 0 0-.613.192 1.205 1.205 0 0 0-.38.543 2.36 2.36 0 0 0-.132.829Zm6.801 2.78c-.55 0-1.024-.111-1.421-.334a2.292 2.292 0 0 1-.913-.955c-.213-.413-.32-.902-.32-1.466 0-.551.107-1.034.32-1.45.214-.415.515-.739.903-.971.39-.233.847-.349 1.372-.349.353 0 .682.057.986.171.307.111.574.28.801.505a2.3 2.3 0 0 1 .537.85c.127.339.191.736.191 1.191v.408h-4.518v-.92h3.121c0-.213-.046-.403-.139-.568a1.004 1.004 0 0 0-.387-.386 1.103 1.103 0 0 0-.567-.143c-.226 0-.426.052-.6.157a1.1 1.1 0 0 0-.404.414 1.186 1.186 0 0 0-.15.575v.874c0 .265.049.494.147.687.1.193.24.341.421.446.181.104.396.156.645.156.165 0 .316-.023.453-.069a.903.903 0 0 0 .574-.551l1.373.091c-.07.33-.213.618-.429.864-.213.244-.49.434-.829.571a3.115 3.115 0 0 1-1.167.202Zm3.032-.104v-5.351h1.439v.933h.056c.097-.332.261-.582.491-.752.23-.172.495-.258.794-.258a2.326 2.326 0 0 1 .467.052v1.317a1.916 1.916 0 0 0-.289-.055 2.482 2.482 0 0 0-.338-.025 1.19 1.19 0 0 0-.585.143 1.051 1.051 0 0 0-.551.968v3.028h-1.484Zm3.622 0v-5.351h1.484v5.351h-1.484Zm.746-6.041a.807.807 0 0 1-.568-.219.712.712 0 0 1-.234-.533c0-.205.078-.38.234-.526a.798.798 0 0 1 .568-.223c.22 0 .408.074.564.223a.708.708 0 0 1 0 1.059.796.796 0 0 1-.564.219Zm3.952 6.145c-.541 0-1.009-.115-1.404-.345a2.365 2.365 0 0 1-.909-.968c-.214-.416-.321-.898-.321-1.446 0-.553.107-1.036.321-1.449.214-.416.517-.739.909-.968.395-.233.863-.349 1.404-.349.541 0 1.008.116 1.401.349.394.229.699.552.912.968.214.413.321.896.321 1.449 0 .548-.107 1.03-.321 1.446a2.352 2.352 0 0 1-.912.968c-.393.23-.86.345-1.401.345Zm.007-1.149c.246 0 .452-.07.617-.209.165-.142.289-.335.372-.579.086-.244.129-.521.129-.832a2.5 2.5 0 0 0-.129-.833 1.29 1.29 0 0 0-.372-.578.913.913 0 0 0-.617-.213.945.945 0 0 0-.627.213 1.31 1.31 0 0 0-.38.578 2.581 2.581 0 0 0-.125.833c0 .311.042.588.125.832.086.244.213.437.38.579.17.139.379.209.627.209Zm4.067 1.135a.81.81 0 0 1-.592-.244.81.81 0 0 1-.244-.592c0-.227.081-.422.244-.585a.81.81 0 0 1 .592-.244.81.81 0 0 1 .585.244.79.79 0 0 1 .251.585.79.79 0 0 1-.119.422.896.896 0 0 1-.303.303.798.798 0 0 1-.414.111Zm4.08.014c-.549 0-1.02-.116-1.415-.348a2.365 2.365 0 0 1-.906-.976c-.209-.415-.313-.894-.313-1.435 0-.548.106-1.029.317-1.442.214-.416.517-.74.909-.972.393-.235.859-.352 1.401-.352.466 0 .875.085 1.226.254.351.17.628.408.832.715.205.306.317.666.338 1.08h-1.4a1.082 1.082 0 0 0-.314-.645c-.167-.165-.386-.247-.658-.247a.992.992 0 0 0-.603.188 1.198 1.198 0 0 0-.397.54 2.314 2.314 0 0 0-.143.86c0 .342.047.632.14.871.095.239.228.422.4.547a.992.992 0 0 0 .603.188.985.985 0 0 0 .456-.104.886.886 0 0 0 .338-.303c.091-.135.15-.296.178-.485h1.4a2.186 2.186 0 0 1-.334 1.08 2.02 2.02 0 0 1-.819.725c-.348.174-.76.261-1.236.261Zm4.431-3.198v3.094h-1.484v-7.135h1.442v2.728h.063c.121-.316.316-.563.585-.742.27-.181.608-.272 1.014-.272.372 0 .696.081.972.244.279.16.495.391.648.693.156.3.232.659.23 1.077v3.407h-1.484v-3.143c.002-.329-.081-.586-.251-.769-.167-.184-.402-.276-.704-.276-.202 0-.381.043-.536.129a.918.918 0 0 0-.362.376 1.27 1.27 0 0 0-.133.589Z"/>
    </g>
  </g>
  <defs>
    <clipPath id="a">
      <path fill="#fff" d="M0 .951h326.667v409H0z"/>
    </clipPath>
    <clipPath id="b">
      <path fill="#fff" d="M0 1h327v408.75H0z"/>
    </clipPath>
  </defs>
</svg>
