<svg xmlns="http://www.w3.org/2000/svg" width="327" height="410" fill="none" viewBox="0 0 327 410">
  <g clip-path="url(#a)">
    <g clip-path="url(#b)">
      <path fill="#131729" d="M0 1h327v408.75H0z"/>
      <path fill="#FD9E28" d="M379.967-134.851c4.483 42.59 6.725 77.336 6.725 104.235 0 36.987-1.681 72.292-5.044 105.917-4.483 86.302-35.305 153.551-92.466 201.746-56.041 48.194-131.696 72.292-226.964 72.292-89.665 0-161.958-22.416-216.877-67.249-54.92-44.832-87.984-111.52-99.192-200.064l-5.043-47.074c0-13.45 6.724-20.175 20.174-20.175h196.702c13.45 0 20.735 6.725 21.856 20.175 0 6.724 1.12 15.69 3.363 26.899 10.087 56.041 36.426 84.061 79.017 84.061 22.416 0 40.349-7.286 53.798-21.856 14.571-15.691 24.098-36.987 28.581-63.886 3.363-29.141 5.044-59.964 5.044-92.467 0-23.537-2.242-52.118-6.725-85.742-4.483-25.779-14.01-45.393-28.581-58.843-13.449-13.449-30.822-20.174-52.117-20.174-42.591 0-70.051 19.614-82.38 58.842-3.362 12.329-10.648 18.494-21.856 18.494H-240.4c-5.604 0-10.648-1.681-15.131-5.044-3.362-4.483-5.044-9.527-5.044-15.131v-680.892c0-5.604 1.682-10.087 5.044-13.45 4.483-4.483 9.527-6.724 15.131-6.724h593.469c5.604 0 10.087 2.241 13.449 6.724 4.484 3.363 6.725 7.846 6.725 13.45v163.078c0 5.604-2.241 10.648-6.725 15.131-3.362 3.362-7.845 5.044-13.449 5.044H-15.118c-5.604 0-8.406 2.802-8.406 8.406v282.444c0 3.362 1.12 5.604 3.362 6.725 2.242 1.12 4.483 0 6.725-3.363 19.054-19.054 41.47-33.624 67.248-43.711 25.78-10.088 53.239-15.131 82.38-15.131 71.732 0 128.893 23.537 171.484 70.611 43.712 47.074 67.809 112.641 72.292 196.702Z"/>
      <path fill="#fff" d="M41.779 77.472c0 .2-.08.38-.24.54a.65.65 0 0 1-.48.18H28.573c-.2 0-.3.1-.3.3v9.484c0 .2.1.3.3.3h7.143c.2 0 .36.08.48.24.16.12.24.28.24.48v5.824c0 .2-.08.38-.24.54-.12.12-.28.18-.48.18h-7.143c-.2 0-.3.1-.3.3v16.387c0 .2-.08.38-.24.54a.65.65 0 0 1-.48.181h-7.024a.88.88 0 0 1-.54-.181.878.878 0 0 1-.18-.54V71.649c0-.2.06-.36.18-.48.16-.16.34-.24.54-.24h20.53c.2 0 .36.08.48.24.16.12.24.28.24.48v5.823Zm1.614 35.476a.88.88 0 0 1-.54-.181.878.878 0 0 1-.18-.54V71.649c0-.2.06-.36.18-.48.16-.16.34-.24.54-.24h7.024c.2 0 .36.08.48.24.16.12.24.28.24.48v40.578c0 .2-.08.38-.24.54a.65.65 0 0 1-.48.181h-7.023Zm18.817 0c-.44 0-.7-.221-.78-.661l-8.584-40.578-.06-.24c0-.36.22-.54.66-.54h7.744c.48 0 .74.22.78.66l4.142 26.412c.04.16.1.24.18.24.08 0 .14-.08.18-.24l4.022-26.412c.04-.44.3-.66.78-.66h7.503c.52 0 .72.26.6.78l-8.643 40.578c-.08.44-.34.661-.78.661H62.21Zm40.835-35.476c0 .2-.08.38-.24.54-.12.12-.28.18-.48.18H89.779c-.2 0-.3.1-.3.3v9.484c0 .2.1.3.3.3h7.203c.2 0 .36.08.48.24.16.12.24.28.24.48v5.824c0 .2-.08.38-.24.54-.12.12-.28.18-.48.18H89.78c-.2 0-.3.1-.3.3v9.544c0 .2.1.3.3.3h12.546c.2 0 .36.08.48.24.16.12.24.281.24.481v5.822c0 .2-.08.38-.24.54a.65.65 0 0 1-.48.181h-20.59a.88.88 0 0 1-.54-.181.878.878 0 0 1-.18-.54V71.649c0-.2.06-.36.18-.48.16-.16.34-.24.54-.24h20.59c.2 0 .36.08.48.24.16.12.24.28.24.48v5.823Zm-71.89 84.956c-3.602 0-6.504-1.061-8.705-3.182-2.16-2.161-3.241-5.042-3.241-8.644v-19.448c0-3.562 1.08-6.403 3.241-8.524 2.201-2.121 5.103-3.181 8.704-3.181 3.642 0 6.543 1.06 8.704 3.181 2.201 2.121 3.302 4.962 3.302 8.524v.66c0 .2-.08.38-.24.54a.65.65 0 0 1-.48.18l-7.024.301c-.48 0-.72-.22-.72-.661v-1.56c0-1.161-.32-2.101-.96-2.822-.641-.72-1.501-1.08-2.582-1.08-1.04 0-1.88.36-2.521 1.08-.64.721-.96 1.661-.96 2.822v20.709c0 1.16.32 2.101.96 2.821.64.68 1.48 1.021 2.521 1.021 1.08 0 1.941-.341 2.581-1.021.64-.72.96-1.661.96-2.821v-1.621c0-.2.06-.36.18-.48.16-.16.341-.24.541-.24l7.023.3c.2 0 .36.08.48.24.16.12.24.28.24.48v.6c0 3.602-1.1 6.483-3.301 8.644-2.201 2.121-5.102 3.182-8.704 3.182Zm25.623 0c-3.682 0-6.623-1.081-8.824-3.242-2.201-2.161-3.302-5.042-3.302-8.644v-19.208c0-3.602 1.1-6.483 3.302-8.644 2.2-2.161 5.142-3.241 8.824-3.241 3.681 0 6.623 1.08 8.823 3.241 2.241 2.161 3.362 5.042 3.362 8.644v19.208c0 3.602-1.12 6.483-3.362 8.644-2.2 2.161-5.142 3.242-8.823 3.242Zm0-7.263c1.12 0 2.02-.381 2.7-1.141.681-.8 1.021-1.841 1.021-3.121v-19.929c0-1.281-.34-2.301-1.02-3.062-.68-.8-1.581-1.2-2.701-1.2-1.121 0-2.021.4-2.702 1.2-.64.761-.96 1.781-.96 3.062v19.929c0 1.28.32 2.321.96 3.121.68.76 1.581 1.141 2.702 1.141Zm26.21 7.263c-3.601 0-6.502-1.121-8.703-3.362-2.161-2.281-3.242-5.302-3.242-9.064v-29.353c0-.2.06-.36.18-.48.16-.16.34-.24.54-.24h7.024c.2 0 .36.08.48.24.16.12.24.28.24.48v30.194c0 1.28.32 2.321.96 3.121.64.8 1.481 1.201 2.522 1.201 1.04 0 1.86-.401 2.46-1.201.64-.8.961-1.841.961-3.121v-30.194c0-.2.06-.36.18-.48.16-.16.34-.24.54-.24h7.023c.2 0 .36.08.48.24.16.12.24.28.24.48v29.353c0 3.762-1.1 6.783-3.3 9.064-2.162 2.241-5.023 3.362-8.584 3.362Zm31.374-41.779c0-.2.06-.36.18-.48.16-.16.34-.24.54-.24h6.963c.2 0 .36.08.48.24.16.12.24.28.24.48v40.578c0 .2-.08.38-.24.54a.65.65 0 0 1-.48.181h-7.923c-.401 0-.661-.201-.781-.601l-7.443-23.23c-.04-.12-.12-.16-.24-.12-.08 0-.12.06-.12.18l.06 23.05c0 .2-.08.38-.24.54a.65.65 0 0 1-.48.181h-6.963a.88.88 0 0 1-.54-.181.878.878 0 0 1-.18-.54v-40.578c0-.2.06-.36.18-.48.16-.16.34-.24.54-.24h7.863c.4 0 .66.2.78.6l7.504 23.23c.04.121.1.181.18.181.12-.04.18-.121.18-.241l-.06-23.05Zm34.555-.72c.2 0 .361.08.481.24.16.12.24.28.24.48v5.823c0 .2-.08.38-.24.54a.651.651 0 0 1-.481.18h-7.503c-.2 0-.3.1-.3.3v33.735c0 .2-.08.38-.24.54a.65.65 0 0 1-.48.181h-7.024c-.2 0-.38-.061-.54-.181a.878.878 0 0 1-.18-.54v-33.735c0-.2-.1-.3-.3-.3h-7.203c-.2 0-.38-.06-.54-.18a.878.878 0 0 1-.18-.54v-5.823c0-.2.06-.36.18-.48.16-.16.34-.24.54-.24h23.77Zm24.418 6.543c0 .2-.08.38-.241.54-.12.12-.28.18-.48.18h-12.545c-.2 0-.3.1-.3.3v9.484c0 .201.1.301.3.301h7.203c.2 0 .36.08.48.24.16.12.24.28.24.48v5.822c0 .201-.08.381-.24.541-.12.12-.28.18-.48.18h-7.203c-.2 0-.3.1-.3.3v9.544c0 .2.1.3.3.3h12.545c.2 0 .36.08.48.24a.57.57 0 0 1 .241.481v5.822c0 .2-.08.38-.241.54a.65.65 0 0 1-.48.181h-20.589c-.2 0-.38-.061-.54-.181a.878.878 0 0 1-.18-.54v-40.578c0-.2.06-.36.18-.48.16-.16.34-.24.54-.24h20.589c.2 0 .36.08.48.24.161.12.241.28.241.48v5.823Zm18.456 35.476c-.44 0-.72-.201-.84-.601l-4.622-16.567c-.08-.16-.18-.24-.3-.24h-2.041c-.2 0-.3.1-.3.3v16.387c0 .2-.08.38-.24.54a.65.65 0 0 1-.481.181h-7.023c-.2 0-.38-.061-.54-.181a.878.878 0 0 1-.18-.54v-40.578c0-.2.06-.36.18-.48.16-.16.34-.24.54-.24h12.126c2.201 0 4.162.54 5.882 1.621 1.721 1.04 3.042 2.521 3.962 4.442.96 1.92 1.441 4.121 1.441 6.603 0 2.361-.461 4.441-1.381 6.242-.88 1.801-2.121 3.202-3.722 4.202-.08.04-.14.1-.18.18-.04.04-.04.1 0 .18l5.523 17.708.06.24c0 .4-.22.601-.66.601h-7.204Zm-7.803-34.756c-.2 0-.3.1-.3.3v10.265c0 .2.1.3.3.3h2.701c1.241 0 2.241-.48 3.001-1.441.801-1 1.201-2.321 1.201-3.961 0-1.681-.4-3.002-1.201-3.962-.76-1.001-1.76-1.501-3.001-1.501h-2.701Zm16.609 20.649c-.2 0-.38-.06-.54-.18a.878.878 0 0 1-.18-.54v-5.823c0-.2.06-.36.18-.48.16-.16.34-.24.54-.24h15.547c.2 0 .36.08.481.24.16.12.24.28.24.48v5.823c0 .2-.08.38-.24.54a.653.653 0 0 1-.481.18h-15.547ZM20.53 210.948a.88.88 0 0 1-.54-.181.878.878 0 0 1-.18-.54v-40.578c0-.2.06-.36.18-.48.16-.16.34-.24.54-.24h7.023c.2 0 .36.08.48.24.16.12.24.28.24.48v40.578c0 .2-.08.38-.24.54a.65.65 0 0 1-.48.181h-7.024Zm27.88-41.299c0-.2.06-.36.18-.48.16-.16.34-.24.54-.24h6.963c.2 0 .36.08.48.24.16.12.24.28.24.48v40.578c0 .2-.08.38-.24.54a.65.65 0 0 1-.48.181H48.17c-.4 0-.66-.201-.78-.601l-7.444-23.23c-.04-.12-.12-.16-.24-.12-.08 0-.12.06-.12.18l.06 23.05c0 .2-.08.38-.24.54a.65.65 0 0 1-.48.181h-6.963a.88.88 0 0 1-.54-.181.877.877 0 0 1-.18-.54v-40.578c0-.2.06-.36.18-.48.16-.16.34-.24.54-.24h7.863c.4 0 .66.2.78.6l7.504 23.23c.04.121.1.181.18.181.12-.04.18-.121.18-.241l-.06-23.05Zm34.556-.72c.2 0 .36.08.48.24.16.12.24.28.24.48v5.823c0 .2-.08.38-.24.54-.12.12-.28.18-.48.18h-7.504c-.2 0-.3.1-.3.3v33.735c0 .2-.08.38-.24.54a.65.65 0 0 1-.48.181h-7.023a.88.88 0 0 1-.54-.181.877.877 0 0 1-.18-.54v-33.735c0-.2-.1-.3-.3-.3h-7.204c-.2 0-.38-.06-.54-.18a.877.877 0 0 1-.18-.54v-5.823c0-.2.06-.36.18-.48.16-.16.34-.24.54-.24h23.77Zm14.152 42.499c-3.601 0-6.503-1.121-8.704-3.362-2.16-2.281-3.241-5.302-3.241-9.064v-29.353c0-.2.06-.36.18-.48.16-.16.34-.24.54-.24h7.023c.2 0 .36.08.48.24.16.12.24.28.24.48v30.194c0 1.28.32 2.321.961 3.121.64.8 1.48 1.201 2.521 1.201 1.04 0 1.861-.401 2.461-1.201.641-.8.961-1.841.961-3.121v-30.194c0-.2.06-.36.18-.48.16-.16.34-.24.54-.24h7.023c.2 0 .36.08.48.24.16.12.24.28.24.48v29.353c0 3.762-1.1 6.783-3.301 9.064-2.161 2.241-5.022 3.362-8.584 3.362Zm15.278-.48c-.2 0-.38-.061-.54-.181a.878.878 0 0 1-.18-.54v-40.578c0-.2.06-.36.18-.48.16-.16.34-.24.54-.24h7.023c.2 0 .36.08.48.24.16.12.24.28.24.48v40.578c0 .2-.08.38-.24.54a.65.65 0 0 1-.48.181h-7.023Zm34.003-42.019c.2 0 .36.08.48.24.16.12.24.28.24.48v5.823c0 .2-.08.38-.24.54-.12.12-.28.18-.48.18h-7.503c-.2 0-.3.1-.3.3v33.735c0 .2-.08.38-.241.54a.65.65 0 0 1-.48.181h-7.023c-.2 0-.38-.061-.54-.181a.878.878 0 0 1-.18-.54v-33.735c0-.2-.1-.3-.3-.3h-7.203a.878.878 0 0 1-.541-.18.878.878 0 0 1-.18-.54v-5.823c0-.2.06-.36.18-.48.16-.16.34-.24.541-.24h23.77Zm3.108 42.019c-.2 0-.38-.061-.54-.181a.878.878 0 0 1-.18-.54v-40.578c0-.2.06-.36.18-.48.16-.16.34-.24.54-.24h7.023c.2 0 .36.08.48.24.16.12.24.28.24.48v40.578c0 .2-.08.38-.24.54a.65.65 0 0 1-.48.181h-7.023Zm18.816 0c-.44 0-.7-.221-.78-.661l-8.584-40.578-.06-.24c0-.36.22-.54.66-.54h7.744c.48 0 .74.22.78.66l4.142 26.412c.04.16.1.24.18.24.08 0 .14-.08.18-.24l4.022-26.412c.04-.44.3-.66.78-.66h7.504c.52 0 .72.26.6.78l-8.644 40.578c-.08.44-.34.661-.78.661h-7.744Zm40.835-35.476c0 .2-.08.38-.24.54-.12.12-.28.18-.48.18h-12.546c-.2 0-.3.1-.3.3v9.484c0 .201.1.301.3.301h7.204c.2 0 .36.08.48.24.16.12.24.28.24.48v5.822c0 .201-.08.381-.24.541-.12.12-.28.18-.48.18h-7.204c-.2 0-.3.1-.3.3v9.544c0 .2.1.3.3.3h12.546c.2 0 .36.08.48.24.16.12.24.281.24.481v5.822c0 .2-.08.38-.24.54a.65.65 0 0 1-.48.181h-20.589c-.2 0-.38-.061-.54-.181a.878.878 0 0 1-.181-.54v-40.578c0-.2.061-.36.181-.48.16-.16.34-.24.54-.24h20.589c.2 0 .36.08.48.24.16.12.24.28.24.48v5.823Zm-167.38 49c0 .2-.08.38-.24.54a.65.65 0 0 1-.48.18H28.574c-.2 0-.3.1-.3.3v9.484c0 .201.1.301.3.301h7.143c.2 0 .36.08.48.24.16.12.24.28.24.48v5.822c0 .201-.08.381-.24.541a.65.65 0 0 1-.48.18h-7.143c-.2 0-.3.1-.3.3v16.387c0 .2-.08.38-.24.54a.65.65 0 0 1-.48.181H20.53a.88.88 0 0 1-.54-.181.878.878 0 0 1-.18-.54v-40.578c0-.2.06-.36.18-.48.16-.16.34-.24.54-.24h20.53c.2 0 .36.08.48.24.16.12.24.28.24.48v5.823Zm16.08 35.476c-.48 0-.74-.221-.78-.661l-.96-5.762c0-.2-.12-.3-.36-.3h-7.623c-.24 0-.36.1-.36.3l-.96 5.762c-.041.44-.301.661-.781.661H39.01c-.52 0-.72-.261-.6-.781l8.823-40.578c.08-.44.34-.66.78-.66h8.104c.44 0 .7.22.78.66l8.764 40.578.06.24c0 .36-.22.541-.66.541H57.86Zm-8.883-13.566c0 .2.08.3.24.3h5.402c.2 0 .28-.1.24-.3l-2.82-16.388c-.04-.12-.1-.18-.18-.18-.08 0-.14.06-.18.18l-2.702 16.388Zm28.024 14.046c-3.601 0-6.502-1.061-8.703-3.182-2.161-2.161-3.242-5.042-3.242-8.644v-19.448c0-3.562 1.08-6.403 3.242-8.524 2.2-2.121 5.102-3.181 8.703-3.181 3.642 0 6.543 1.06 8.704 3.181 2.201 2.121 3.302 4.962 3.302 8.524v.66c0 .2-.08.38-.24.54a.65.65 0 0 1-.48.18l-7.024.301c-.48 0-.72-.22-.72-.661v-1.56c0-1.161-.32-2.101-.96-2.822-.64-.72-1.501-1.08-2.582-1.08-1.04 0-1.88.36-2.52 1.08-.641.721-.961 1.661-.961 2.822v20.709c0 1.16.32 2.101.96 2.821.64.68 1.481 1.021 2.521 1.021 1.08 0 1.941-.341 2.582-1.021.64-.72.96-1.661.96-2.821v-1.621c0-.2.06-.36.18-.48.16-.16.34-.24.54-.24l7.023.3c.2 0 .36.08.48.24.16.12.24.28.24.48v.6c0 3.602-1.1 6.483-3.3 8.644-2.202 2.121-5.103 3.182-8.705 3.182Zm37.389-42.499c.2 0 .36.08.48.24.16.12.24.28.24.48v5.823c0 .2-.08.38-.24.54-.12.12-.28.18-.48.18h-7.503c-.2 0-.3.1-.3.3v33.735c0 .2-.08.38-.241.54a.65.65 0 0 1-.48.181h-7.023a.88.88 0 0 1-.54-.181.877.877 0 0 1-.18-.54v-33.735c0-.2-.1-.3-.3-.3h-7.203c-.2 0-.38-.06-.54-.18a.877.877 0 0 1-.18-.54v-5.823c0-.2.06-.36.18-.48.16-.16.34-.24.54-.24h23.77Zm13.192 42.499c-2.321 0-4.362-.46-6.122-1.381-1.761-.92-3.122-2.201-4.082-3.842-.961-1.68-1.441-3.601-1.441-5.762v-1.741c0-.2.06-.36.18-.48.16-.16.34-.24.54-.24h6.903a.57.57 0 0 1 .481.24c.16.12.24.28.24.48v1.321c0 1.24.32 2.241.96 3.001.641.76 1.441 1.141 2.401 1.141.961 0 1.761-.361 2.401-1.081.641-.72.961-1.661.961-2.821 0-1.201-.4-2.221-1.201-3.062-.8-.88-2.361-2.161-4.682-3.841-2.001-1.441-3.621-2.721-4.862-3.842-1.241-1.12-2.301-2.501-3.181-4.142-.881-1.641-1.321-3.541-1.321-5.702 0-3.402 1.061-6.123 3.181-8.164 2.121-2.041 4.923-3.061 8.404-3.061 3.522 0 6.343 1.06 8.464 3.181 2.161 2.121 3.241 4.902 3.241 8.344v1.44c0 .201-.08.381-.24.541-.12.12-.28.18-.48.18h-6.903c-.2 0-.38-.06-.54-.18a.878.878 0 0 1-.18-.541v-1.62c0-1.241-.32-2.221-.961-2.942-.6-.76-1.4-1.14-2.401-1.14-.96 0-1.741.36-2.341 1.08-.6.681-.9 1.641-.9 2.882 0 1.2.38 2.261 1.14 3.181.761.92 2.261 2.201 4.502 3.842 2.481 1.841 4.342 3.341 5.583 4.502 1.28 1.12 2.261 2.381 2.941 3.781.72 1.361 1.08 3.002 1.08 4.923 0 3.521-1.08 6.322-3.241 8.403-2.161 2.081-5.002 3.122-8.524 3.122Zm40.73-.48c-.48 0-.74-.221-.78-.661l-.961-5.762c0-.2-.12-.3-.36-.3h-7.623c-.24 0-.36.1-.36.3l-.961 5.762c-.04.44-.3.661-.78.661h-7.023c-.52 0-.721-.261-.6-.781l8.823-40.578c.08-.44.341-.66.781-.66h8.103c.441 0 .701.22.781.66l8.764 40.578.06.24c0 .36-.22.541-.661.541h-7.203Zm-8.884-13.566c0 .2.08.3.24.3h5.403c.2 0 .28-.1.24-.3l-2.821-16.388c-.04-.12-.1-.18-.18-.18-.081 0-.141.06-.181.18l-2.701 16.388Zm41.924 1.98c0 3.722-1.12 6.583-3.361 8.584-2.241 2.001-5.143 3.002-8.704 3.002H177.94c-.2 0-.38-.061-.541-.181a.878.878 0 0 1-.18-.54v-40.578c0-.2.06-.36.18-.48a.75.75 0 0 1 .541-.24h10.024c4.002 0 7.123.96 9.364 2.881 2.281 1.921 3.422 4.782 3.422 8.584 0 3.962-1.361 6.843-4.082 8.644-.16.12-.18.24-.06.36 3.161 2.241 4.742 5.562 4.742 9.964Zm-15.367-23.17c-.2 0-.3.1-.3.3v9.424c0 .201.1.301.3.301h2.161c1.361 0 2.421-.421 3.182-1.261.76-.88 1.14-2.101 1.14-3.662 0-1.64-.38-2.901-1.14-3.781-.721-.881-1.781-1.321-3.182-1.321h-2.161Zm2.641 27.432c1.321 0 2.362-.48 3.122-1.44.76-.961 1.14-2.321 1.14-4.082 0-1.761-.38-3.162-1.14-4.202-.76-1.04-1.781-1.561-3.062-1.561h-2.701c-.2 0-.3.1-.3.3v10.685c0 .2.1.3.3.3h2.641Zm25.916 7.804c-3.682 0-6.623-1.081-8.824-3.242-2.201-2.161-3.302-5.042-3.302-8.644v-19.208c0-3.602 1.101-6.483 3.302-8.644 2.201-2.161 5.142-3.241 8.824-3.241 3.681 0 6.622 1.08 8.823 3.241 2.241 2.161 3.362 5.042 3.362 8.644v19.208c0 3.602-1.121 6.483-3.362 8.644-2.201 2.161-5.142 3.242-8.823 3.242Zm0-7.263c1.12 0 2.02-.381 2.701-1.141.68-.8 1.02-1.841 1.02-3.121v-19.929c0-1.281-.34-2.301-1.02-3.062-.681-.8-1.581-1.2-2.701-1.2-1.121 0-2.021.4-2.702 1.2-.64.761-.96 1.781-.96 3.062v19.929c0 1.28.32 2.321.96 3.121.681.76 1.581 1.141 2.702 1.141Zm26.21 7.263c-3.601 0-6.502-1.121-8.703-3.362-2.161-2.281-3.242-5.302-3.242-9.064v-29.353c0-.2.06-.36.18-.48.16-.16.34-.24.541-.24h7.023c.2 0 .36.08.48.24.16.12.24.28.24.48v30.194c0 1.28.32 2.321.96 3.121.641.8 1.481 1.201 2.521 1.201 1.041 0 1.861-.401 2.462-1.201.64-.8.96-1.841.96-3.121v-30.194c0-.2.06-.36.18-.48.16-.16.34-.24.54-.24h7.023a.57.57 0 0 1 .481.24c.16.12.24.28.24.48v29.353c0 3.762-1.101 6.783-3.302 9.064-2.161 2.241-5.022 3.362-8.584 3.362Zm37.848-42.499c.2 0 .36.08.48.24.16.12.24.28.24.48v5.823c0 .2-.08.38-.24.54-.12.12-.28.18-.48.18h-7.503c-.2 0-.3.1-.3.3v33.735c0 .2-.08.38-.24.54a.652.652 0 0 1-.481.181h-7.023c-.2 0-.38-.061-.54-.181a.878.878 0 0 1-.18-.54v-33.735c0-.2-.1-.3-.3-.3h-7.203a.88.88 0 0 1-.541-.18.878.878 0 0 1-.18-.54v-5.823c0-.2.06-.36.18-.48.16-.16.341-.24.541-.24h23.77Zm-246.003 48.94c2.2 0 4.162.54 5.882 1.621 1.721 1.08 3.042 2.601 3.962 4.562.96 1.92 1.44 4.121 1.44 6.603 0 3.721-1 6.703-3 8.944-2.001 2.24-4.623 3.361-7.864 3.361h-4.502c-.2 0-.3.1-.3.3v15.967c0 .2-.08.38-.24.54a.65.65 0 0 1-.48.181h-7.024a.88.88 0 0 1-.54-.181.877.877 0 0 1-.18-.54v-40.638c0-.2.06-.36.18-.48.16-.16.34-.24.54-.24h12.126Zm-1.44 18.488c1.28 0 2.3-.48 3.06-1.441.8-1 1.201-2.361 1.201-4.081 0-1.761-.4-3.142-1.2-4.142-.76-1.001-1.781-1.501-3.062-1.501h-2.641c-.2 0-.3.1-.3.3v10.565c0 .2.1.3.3.3h2.641Zm30.723 23.591c-.44 0-.72-.201-.84-.601l-4.622-16.567c-.08-.16-.18-.24-.3-.24h-2.041c-.2 0-.3.1-.3.3v16.387c0 .2-.08.38-.24.54a.65.65 0 0 1-.48.181H46.03a.88.88 0 0 1-.54-.181.878.878 0 0 1-.18-.54v-40.578c0-.2.06-.36.18-.48.16-.16.34-.24.54-.24h12.126c2.2 0 4.162.54 5.882 1.621 1.721 1.04 3.042 2.521 3.962 4.442.96 1.92 1.44 4.121 1.44 6.603 0 2.361-.46 4.441-1.38 6.242-.88 1.801-2.12 3.202-3.722 4.202-.08.04-.14.1-.18.18-.04.04-.04.1 0 .18l5.523 17.708.06.24c0 .4-.22.601-.66.601h-7.204Zm-7.803-34.756c-.2 0-.3.1-.3.3v10.265c0 .2.1.3.3.3h2.701c1.24 0 2.241-.48 3.001-1.441.8-1 1.201-2.321 1.201-3.961 0-1.681-.4-3.002-1.2-3.962-.76-1.001-1.761-1.501-3.002-1.501h-2.701Zm28.615 35.236c-3.682 0-6.623-1.081-8.824-3.242-2.201-2.161-3.302-5.042-3.302-8.644v-19.208c0-3.602 1.1-6.483 3.302-8.644 2.2-2.161 5.142-3.241 8.824-3.241 3.681 0 6.623 1.08 8.824 3.241 2.24 2.161 3.361 5.042 3.361 8.644v19.208c0 3.602-1.12 6.483-3.361 8.644-2.201 2.161-5.143 3.242-8.824 3.242Zm0-7.263c1.12 0 2.02-.381 2.701-1.141.68-.8 1.02-1.841 1.02-3.121v-19.929c0-1.281-.34-2.301-1.02-3.062-.68-.8-1.58-1.2-2.701-1.2-1.12 0-2.021.4-2.701 1.2-.64.761-.96 1.781-.96 3.062v19.929c0 1.28.32 2.321.96 3.121.68.76 1.58 1.141 2.7 1.141Zm25.791 7.263c-3.602 0-6.503-1.021-8.704-3.062-2.161-2.081-3.242-4.842-3.242-8.283v-20.289c0-3.442 1.08-6.183 3.242-8.224 2.201-2.081 5.102-3.121 8.704-3.121 3.601 0 6.502 1.04 8.703 3.121 2.201 2.081 3.302 4.842 3.302 8.284v2.281c0 .2-.08.38-.24.54-.12.12-.28.18-.48.18h-7.024c-.2 0-.38-.06-.54-.18a.878.878 0 0 1-.18-.54v-2.401c0-1.201-.32-2.161-.96-2.882-.641-.76-1.501-1.14-2.581-1.14-1.041 0-1.881.38-2.522 1.14-.64.721-.96 1.681-.96 2.882v20.409c0 1.2.32 2.181.96 2.941.641.72 1.481 1.081 2.522 1.081 1.08 0 1.94-.361 2.581-1.081.64-.76.96-1.741.96-2.941v-4.802c0-.2-.1-.301-.3-.301h-2.641c-.2 0-.38-.06-.54-.18a.878.878 0 0 1-.18-.54v-5.342c0-.2.06-.36.18-.48.16-.16.34-.241.54-.241h10.685c.2 0 .36.081.48.241.16.12.24.28.24.48v11.105c0 3.441-1.101 6.202-3.302 8.283-2.201 2.041-5.102 3.062-8.703 3.062Zm30.841-.48c-.44 0-.72-.201-.84-.601l-4.622-16.567c-.08-.16-.18-.24-.301-.24h-2.04c-.201 0-.301.1-.301.3v16.387c0 .2-.08.38-.24.54a.65.65 0 0 1-.48.181h-7.023c-.2 0-.38-.061-.54-.181a.878.878 0 0 1-.18-.54v-40.578c0-.2.06-.36.18-.48.16-.16.34-.24.54-.24H135.6c2.201 0 4.162.54 5.883 1.621 1.721 1.04 3.041 2.521 3.962 4.442.96 1.92 1.44 4.121 1.44 6.603 0 2.361-.46 4.441-1.38 6.242-.881 1.801-2.121 3.202-3.722 4.202-.08.04-.14.1-.18.18-.04.04-.04.1 0 .18l5.522 17.708.061.24c0 .4-.221.601-.661.601h-7.203Zm-7.803-34.756c-.201 0-.301.1-.301.3v10.265c0 .2.1.3.301.3h2.701c1.24 0 2.241-.48 3.001-1.441.8-1 1.201-2.321 1.201-3.961 0-1.681-.401-3.002-1.201-3.962-.76-1.001-1.761-1.501-3.001-1.501h-2.701Zm35.03 34.756c-.48 0-.74-.221-.78-.661l-.961-5.762c0-.2-.12-.3-.36-.3h-7.623c-.24 0-.36.1-.36.3l-.961 5.762c-.04.44-.3.661-.78.661h-7.023c-.52 0-.72-.261-.6-.781l8.824-40.578c.08-.44.34-.66.78-.66h8.103c.441 0 .701.22.781.66l8.764 40.578.06.24c0 .36-.22.541-.661.541h-7.203Zm-8.884-13.566c0 .2.08.3.24.3h5.403c.2 0 .28-.1.24-.3l-2.821-16.388c-.04-.12-.1-.18-.18-.18-.08 0-.14.06-.181.18l-2.701 16.388Zm37.002-27.973c.16-.32.46-.48.9-.48h6.963a.57.57 0 0 1 .481.24c.16.12.24.28.24.48v40.578c0 .2-.08.38-.24.54a.65.65 0 0 1-.481.181h-7.023c-.2 0-.38-.061-.54-.181a.878.878 0 0 1-.18-.54v-26.952c0-.16-.04-.24-.12-.24-.08 0-.16.06-.24.18l-4.682 8.284c-.2.32-.36.48-.48.48s-.281-.16-.481-.48l-4.682-8.284c-.08-.12-.16-.18-.24-.18-.08 0-.12.08-.12.24v26.952c0 .2-.08.38-.24.54a.65.65 0 0 1-.48.181h-7.023c-.2 0-.38-.061-.541-.181a.878.878 0 0 1-.18-.54v-40.578c0-.2.06-.36.18-.48a.75.75 0 0 1 .541-.24h6.903c.4 0 .7.16.9.48l5.343 9.544c.12.16.24.16.36 0l5.162-9.544Zm30.485 0c.16-.32.46-.48.9-.48h6.963c.2 0 .36.08.48.24.16.12.24.28.24.48v40.578c0 .2-.08.38-.24.54a.65.65 0 0 1-.48.181h-7.023c-.2 0-.38-.061-.54-.181a.878.878 0 0 1-.18-.54v-26.952c0-.16-.04-.24-.12-.24-.08 0-.161.06-.241.18l-4.682 8.284c-.2.32-.36.48-.48.48s-.28-.16-.48-.48l-4.682-8.284c-.08-.12-.16-.18-.24-.18-.08 0-.12.08-.12.24v26.952c0 .2-.08.38-.24.54a.652.652 0 0 1-.481.181h-7.023c-.2 0-.38-.061-.54-.181a.878.878 0 0 1-.18-.54v-40.578c0-.2.06-.36.18-.48.16-.16.34-.24.54-.24h6.903c.401 0 .701.16.901.48l5.342 9.544c.12.16.24.16.36 0l5.163-9.544Zm11.996 41.539c-.2 0-.38-.061-.54-.181a.878.878 0 0 1-.18-.54v-40.578c0-.2.06-.36.18-.48.16-.16.34-.24.54-.24h7.023c.2 0 .36.08.48.24.16.12.24.28.24.48v40.578c0 .2-.08.38-.24.54a.65.65 0 0 1-.48.181h-7.023Zm27.88-41.299c0-.2.06-.36.181-.48.16-.16.34-.24.54-.24h6.963c.2 0 .36.08.48.24.16.12.24.28.24.48v40.578c0 .2-.08.38-.24.54a.65.65 0 0 1-.48.181h-7.924c-.4 0-.66-.201-.78-.601l-7.443-23.23c-.04-.12-.12-.16-.24-.12-.08 0-.12.06-.12.18l.06 23.05c0 .2-.08.38-.241.54a.65.65 0 0 1-.48.181h-6.963c-.2 0-.38-.061-.54-.181a.878.878 0 0 1-.18-.54v-40.578c0-.2.06-.36.18-.48.16-.16.34-.24.54-.24h7.864c.4 0 .66.2.78.6l7.503 23.23c.04.121.1.181.18.181.12-.04.18-.121.18-.241l-.06-23.05Zm22.611 41.779c-3.602 0-6.503-1.021-8.704-3.062-2.161-2.081-3.242-4.842-3.242-8.283v-20.289c0-3.442 1.081-6.183 3.242-8.224 2.201-2.081 5.102-3.121 8.704-3.121 3.601 0 6.503 1.04 8.704 3.121 2.201 2.081 3.301 4.842 3.301 8.284v2.281c0 .2-.08.38-.24.54-.12.12-.28.18-.48.18h-7.023a.88.88 0 0 1-.541-.18.878.878 0 0 1-.18-.54v-2.401c0-1.201-.32-2.161-.96-2.882-.64-.76-1.501-1.14-2.581-1.14-1.041 0-1.881.38-2.521 1.14-.641.721-.961 1.681-.961 2.882v20.409c0 1.2.32 2.181.961 2.941.64.72 1.48 1.081 2.521 1.081 1.08 0 1.941-.361 2.581-1.081.64-.76.96-1.741.96-2.941v-4.802c0-.2-.1-.301-.3-.301h-2.641c-.2 0-.38-.06-.54-.18a.878.878 0 0 1-.18-.54v-5.342c0-.2.06-.36.18-.48.16-.16.34-.241.54-.241h10.685c.2 0 .36.081.48.241.16.12.24.28.24.48v11.105c0 3.441-1.1 6.202-3.301 8.283-2.201 2.041-5.103 3.062-8.704 3.062ZM44.317 34.462a.363.363 0 0 1-.082.25c-.053.06-.146.106-.28.138a2.61 2.61 0 0 1-.55.046c-.172 0-.354-.01-.544-.032a4.185 4.185 0 0 1-.481-.081l.06-.342c.366.081.726.122 1.079.122.163 0 .27-.008.32-.023.05-.016.076-.046.076-.09 0-.04-.012-.067-.036-.08a.323.323 0 0 0-.127-.03l-.79-.045c-.217-.01-.372-.05-.465-.12-.094-.07-.14-.173-.14-.31 0-.159.074-.273.221-.343.148-.071.389-.107.721-.107.131 0 .288.01.47.03.182.017.342.041.479.07l-.07.321a5.04 5.04 0 0 0-.977-.088c-.189 0-.31.007-.363.021-.053.013-.08.041-.08.086 0 .038.014.063.04.075a.44.44 0 0 0 .145.025l.78.047c.205.01.355.053.45.127.096.074.144.185.144.333Zm2.844.258c-.187.119-.485.178-.892.178-.408 0-.706-.06-.893-.178-.187-.12-.28-.309-.28-.566 0-.257.093-.444.28-.563.188-.12.485-.18.893-.18.407 0 .705.06.892.18.187.119.28.306.28.563 0 .257-.093.446-.28.566Zm-.892-.187c.282 0 .475-.027.58-.083.106-.056.16-.155.16-.296 0-.14-.054-.24-.16-.295-.105-.056-.298-.084-.58-.084-.284 0-.48.029-.587.086-.107.056-.161.154-.161.293 0 .14.054.238.161.296.108.056.303.083.587.083Zm2.349.336h-.425V33.44h1.906v.365h-1.481v.261h1.441v.336h-1.441v.467Zm3.095-1.064h-.848v-.365h2.12v.365h-.846v1.064h-.426v-1.064Zm2.616 1.064-.637-1.429h.48l.442 1.041.511-1.04h.507l.524 1.04.431-1.04h.48l-.637 1.428h-.545l-.505-1.016-.506 1.016h-.545Zm4.989 0-.171-.277H58.09l-.174.277h-.511l.932-1.429h.566l.93 1.429h-.516Zm-1.043-.572h.685l-.341-.549-.344.549Zm2.702.572h-.425V33.44h1.43c.398 0 .597.166.597.499 0 .3-.167.463-.502.49l-.093.002.113.069.47.369h-.534l-.514-.415h-.542v.415Zm0-1.064v.33h.963c.07 0 .12-.012.151-.037.032-.025.048-.067.048-.126 0-.063-.015-.106-.046-.13-.03-.025-.081-.037-.153-.037h-.963Zm4.323 1.064h-1.907V33.44H65.3v.333h-1.481v.237h1.44v.274h-1.44v.252h1.48v.333Z"/>
      <path fill="#fff" fill-rule="evenodd" d="M58.709 24.855c-.367 0-.668-.106-.904-.318a1.077 1.077 0 0 1-.342-.806c0-.326.114-.595.342-.806.236-.22.537-.33.904-.33.358 0 .652.11.88.33.236.211.354.48.354.806 0 .318-.118.586-.354.806-.228.212-.522.318-.88.318Zm1.038.709v6.818h-2.089v-6.818h2.09Zm-30.654-1.76v8.578h-2.09V28.85h-3.25v3.53h-2.089v-8.577h2.09v3.36h3.25v-3.36h2.089Zm10.584 11.429v-3.804c.204.309.485.562.843.757.367.196.786.293 1.259.293.562 0 1.07-.142 1.527-.427a3.007 3.007 0 0 0 1.075-1.234c.269-.538.403-1.157.403-1.858 0-.7-.134-1.315-.403-1.845a2.917 2.917 0 0 0-1.075-1.221 2.824 2.824 0 0 0-1.527-.428c-.48 0-.9.098-1.259.293-.358.196-.64.452-.843.77v-.965h-2.09v9.669h2.09Zm-6.59 0 4.112-9.67h-2.26l-1.564 4.265-1.577-4.264h-2.333l2.773 6.585-1.39 3.084h2.239Zm9.132-7.494c.293.293.44.7.44 1.221 0 .522-.147.937-.44 1.247a1.429 1.429 0 0 1-1.063.452c-.416 0-.77-.15-1.063-.452-.286-.302-.428-.713-.428-1.234 0-.522.142-.933.428-1.234a1.429 1.429 0 0 1 1.063-.453c.423 0 .778.151 1.063.453Zm9.844 1.124c0 .195-.012.399-.037.61h-4.728c.032.424.167.75.403.978.244.22.542.33.892.33.521 0 .884-.22 1.087-.66h2.224a3.012 3.012 0 0 1-.623 1.21c-.293.358-.664.64-1.112.843a3.59 3.59 0 0 1-1.503.305c-.668 0-1.262-.142-1.784-.427a3.041 3.041 0 0 1-1.221-1.222c-.294-.53-.44-1.149-.44-1.857 0-.709.142-1.328.427-1.857.294-.53.7-.937 1.222-1.222.522-.285 1.12-.428 1.796-.428.66 0 1.247.139 1.76.415a2.94 2.94 0 0 1 1.197 1.186c.293.513.44 1.111.44 1.796Zm-2.138-.55c0-.358-.122-.644-.367-.855-.244-.212-.55-.318-.916-.318-.35 0-.648.102-.892.305-.236.204-.383.493-.44.868h2.615Zm5.757-2.493a2.7 2.7 0 0 0-.916.88v-1.136h-2.09v6.818h2.09v-3.165c0-.562.13-.953.39-1.173.261-.228.652-.342 1.174-.342h.574V25.49c-.448 0-.855.11-1.222.33Zm6.386 6.232a3.8 3.8 0 0 0 1.808.427c.668 0 1.271-.142 1.809-.427a3.141 3.141 0 0 0 1.282-1.222c.318-.538.477-1.157.477-1.857s-.155-1.316-.464-1.845a3.14 3.14 0 0 0-1.27-1.234 3.8 3.8 0 0 0-1.81-.428 3.8 3.8 0 0 0-1.807.428 3.14 3.14 0 0 0-1.271 1.234c-.31.53-.465 1.144-.465 1.845 0 .708.151 1.327.453 1.857.31.53.729.937 1.258 1.222Zm2.822-1.82c-.276.292-.615.439-1.014.439s-.733-.147-1.002-.44c-.26-.293-.39-.713-.39-1.258 0-.554.134-.974.403-1.259.269-.293.606-.44 1.014-.44.399 0 .733.147 1.002.44.277.293.415.713.415 1.259 0 .545-.142.965-.428 1.258Z" clip-rule="evenodd"/>
      <path fill="#FD9E28" d="M57.805 24.537c.236.212.538.318.904.318.358 0 .652-.106.88-.318a1.06 1.06 0 0 0 .354-.806c0-.326-.118-.595-.354-.807-.228-.22-.521-.33-.88-.33-.366 0-.668.11-.904.33a1.054 1.054 0 0 0-.342.807c0 .318.114.586.342.806Z"/>
      <path fill="#fff" d="M17.214 386.189v-7.135h2.494c.497 0 .907.086 1.23.258.322.17.563.398.72.686.159.286.238.603.238.951 0 .307-.055.56-.164.76a1.287 1.287 0 0 1-.425.474 1.917 1.917 0 0 1-.568.257v.07a1.4 1.4 0 0 1 .658.23c.221.139.406.339.554.599.149.26.223.578.223.955 0 .357-.081.679-.244.965-.162.285-.419.512-.77.679-.35.167-.806.251-1.369.251h-2.577Zm.864-.767h1.713c.565 0 .965-.109 1.202-.327.24-.221.36-.488.36-.801 0-.242-.062-.465-.186-.669a1.334 1.334 0 0 0-.526-.495 1.654 1.654 0 0 0-.808-.188h-1.755v2.48Zm0-3.233h1.602c.26 0 .495-.051.704-.153.211-.102.378-.246.501-.432.126-.186.188-.404.188-.655 0-.313-.109-.579-.327-.797-.218-.221-.564-.331-1.038-.331h-1.63v2.368Zm5.012 4v-5.351h.794v.808h.056a1.28 1.28 0 0 1 .53-.644c.255-.165.543-.248.864-.248a6.857 6.857 0 0 1 .431.014v.836a2.533 2.533 0 0 0-.191-.031 1.913 1.913 0 0 0-.31-.025c-.26 0-.492.055-.697.164a1.202 1.202 0 0 0-.655 1.091v3.386h-.822Zm5.269.111c-.484 0-.907-.115-1.272-.345a2.34 2.34 0 0 1-.85-.965c-.202-.413-.303-.896-.303-1.449 0-.557.101-1.044.303-1.46.204-.415.488-.738.85-.968.365-.23.788-.345 1.272-.345.483 0 .905.115 1.268.345.364.23.648.553.85.968.204.416.306.903.306 1.46 0 .553-.102 1.036-.306 1.449a2.308 2.308 0 0 1-.85.965c-.363.23-.785.345-1.268.345Zm0-.738c.366 0 .668-.094.905-.283a1.66 1.66 0 0 0 .526-.742 2.83 2.83 0 0 0 .171-.996 2.87 2.87 0 0 0-.17-1 1.688 1.688 0 0 0-.527-.749c-.237-.19-.538-.285-.905-.285s-.67.095-.906.285c-.237.191-.412.44-.526.749a2.87 2.87 0 0 0-.17 1c0 .358.056.69.17.996.114.307.289.554.526.742.237.189.539.283.906.283Zm6.659-1.561v-3.163h.822v5.351h-.822v-.906h-.056a1.75 1.75 0 0 1-.585.693c-.265.188-.6.282-1.003.282a1.79 1.79 0 0 1-.892-.219 1.54 1.54 0 0 1-.613-.669c-.149-.3-.223-.677-.223-1.132v-3.4h.822v3.344c0 .39.11.702.327.934.221.232.502.348.843.348.205 0 .413-.052.624-.157a1.35 1.35 0 0 0 .536-.48c.147-.216.22-.492.22-.826Zm4.095 4.306c-.397 0-.738-.051-1.024-.153a2.174 2.174 0 0 1-1.163-.92l.655-.46c.074.098.168.209.282.334.114.128.27.238.467.331.2.096.46.143.783.143.432 0 .789-.104 1.07-.313.28-.209.421-.537.421-.983v-1.087h-.07a4.34 4.34 0 0 1-.257.363 1.47 1.47 0 0 1-.474.379c-.204.11-.48.164-.829.164-.432 0-.82-.102-1.163-.306a2.157 2.157 0 0 1-.812-.892c-.198-.39-.296-.864-.296-1.422 0-.548.096-1.025.289-1.431.193-.409.46-.725.805-.948.343-.225.74-.338 1.191-.338.348 0 .625.058.83.174.206.114.364.244.473.39.111.144.197.263.258.356h.083v-.85h.795v5.504c0 .46-.105.834-.314 1.122-.207.29-.485.503-.836.637a3.155 3.155 0 0 1-1.164.206Zm-.027-2.94c.33 0 .608-.076.836-.227.227-.151.4-.368.519-.651.118-.284.177-.623.177-1.018 0-.385-.058-.725-.174-1.02a1.538 1.538 0 0 0-.515-.694c-.228-.167-.509-.25-.843-.25-.349 0-.64.088-.871.264-.23.177-.403.414-.52.711-.113.297-.17.627-.17.989 0 .372.058.701.174.986.119.284.293.507.523.669.232.16.52.241.864.241Zm4.275-2.397v3.219h-.822v-7.135h.822v2.62h.07a1.52 1.52 0 0 1 .564-.659c.253-.164.59-.247 1.01-.247.365 0 .684.073.959.22.274.144.486.365.637.665.153.297.23.676.23 1.136v3.4h-.822v-3.345c0-.425-.11-.753-.331-.985-.218-.235-.521-.352-.91-.352-.269 0-.51.057-.724.17-.211.114-.378.28-.502.499-.12.218-.18.483-.18.794Zm6.909-2.132v.697h-2.773v-.697h2.773Zm-1.965-1.282h.822v5.1c0 .232.034.406.101.522a.52.52 0 0 0 .265.23c.109.038.224.056.345.056a1.5 1.5 0 0 0 .223-.014l.14-.028.166.739a1.739 1.739 0 0 1-.613.097c-.232 0-.46-.05-.683-.149-.22-.1-.404-.252-.55-.457-.144-.204-.216-.462-.216-.773v-5.323Zm7.503 1.282v.697h-2.773v-.697h2.773Zm-1.965-1.282h.822v5.1c0 .232.034.406.101.522a.52.52 0 0 0 .265.23c.11.038.224.056.345.056a1.5 1.5 0 0 0 .223-.014l.14-.028.166.739a1.738 1.738 0 0 1-.613.097c-.232 0-.46-.05-.683-.149-.22-.1-.404-.252-.55-.457-.144-.204-.216-.462-.216-.773v-5.323Zm4.925 6.744c-.483 0-.907-.115-1.271-.345a2.34 2.34 0 0 1-.85-.965c-.202-.413-.303-.896-.303-1.449 0-.557.1-1.044.303-1.46.204-.415.488-.738.85-.968.364-.23.788-.345 1.271-.345.483 0 .906.115 1.268.345.365.23.648.553.85.968.205.416.307.903.307 1.46 0 .553-.102 1.036-.306 1.449a2.308 2.308 0 0 1-.85.965c-.363.23-.785.345-1.269.345Zm0-.738c.367 0 .67-.094.906-.283a1.66 1.66 0 0 0 .526-.742 2.83 2.83 0 0 0 .17-.996 2.87 2.87 0 0 0-.17-1 1.687 1.687 0 0 0-.526-.749c-.237-.19-.539-.285-.906-.285s-.668.095-.905.285a1.68 1.68 0 0 0-.526.749 2.87 2.87 0 0 0-.171 1c0 .358.057.69.17.996.114.307.29.554.527.742.237.189.538.283.905.283Zm6.184 2.633c-.14 0-.264-.011-.373-.035a.942.942 0 0 1-.226-.062l.209-.725c.2.051.376.07.53.056a.636.636 0 0 0 .407-.206c.12-.12.23-.317.33-.588l.154-.418-1.979-5.379h.892l1.477 4.264h.056l1.477-4.264h.892l-2.272 6.131a2.32 2.32 0 0 1-.38.686c-.15.184-.326.32-.525.408-.198.088-.42.132-.67.132Zm6.52-1.895c-.482 0-.906-.115-1.27-.345a2.34 2.34 0 0 1-.85-.965c-.203-.413-.304-.896-.304-1.449 0-.557.101-1.044.303-1.46.205-.415.488-.738.85-.968.365-.23.789-.345 1.272-.345s.906.115 1.268.345c.364.23.648.553.85.968.204.416.306.903.306 1.46 0 .553-.102 1.036-.306 1.449a2.308 2.308 0 0 1-.85.965c-.362.23-.785.345-1.268.345Zm0-.738c.368 0 .67-.094.907-.283a1.66 1.66 0 0 0 .525-.742 2.83 2.83 0 0 0 .171-.996 2.87 2.87 0 0 0-.17-1 1.687 1.687 0 0 0-.526-.749c-.237-.19-.54-.285-.906-.285-.367 0-.67.095-.906.285-.237.191-.412.44-.526.749a2.87 2.87 0 0 0-.17 1c0 .358.056.69.17.996.114.307.29.554.526.742.237.189.539.283.906.283Zm6.66-1.561v-3.163h.822v5.351h-.822v-.906h-.056a1.75 1.75 0 0 1-.585.693c-.265.188-.599.282-1.003.282a1.79 1.79 0 0 1-.892-.219 1.54 1.54 0 0 1-.613-.669c-.149-.3-.223-.677-.223-1.132v-3.4h.822v3.344c0 .39.11.702.328.934.22.232.501.348.843.348.204 0 .412-.052.623-.157.214-.104.393-.264.537-.48.146-.216.22-.492.22-.826Zm4.414 2.188v-7.135h.822v2.634h.07c.06-.093.144-.212.25-.356.11-.146.265-.276.467-.39.205-.116.481-.174.83-.174.45 0 .847.113 1.19.338.345.225.613.545.806.958.192.413.289.901.289 1.463 0 .567-.097 1.058-.29 1.474a2.28 2.28 0 0 1-.8.961 2.09 2.09 0 0 1-1.182.338c-.343 0-.619-.057-.825-.171a1.53 1.53 0 0 1-.478-.393 5.5 5.5 0 0 1-.257-.369h-.098v.822h-.794Zm.808-2.676c0 .404.06.761.178 1.07.118.306.291.547.519.721.227.172.506.258.836.258.344 0 .63-.091.86-.272a1.66 1.66 0 0 0 .523-.739c.118-.311.178-.657.178-1.038 0-.376-.058-.715-.175-1.017a1.57 1.57 0 0 0-.519-.721c-.23-.179-.519-.268-.867-.268-.335 0-.616.084-.843.254-.228.167-.4.402-.516.704a2.89 2.89 0 0 0-.174 1.048Zm5.119 4.682c-.14 0-.264-.011-.373-.035a.942.942 0 0 1-.226-.062l.209-.725c.2.051.376.07.53.056a.636.636 0 0 0 .407-.206c.12-.12.23-.317.33-.588l.154-.418-1.979-5.379h.892l1.477 4.264h.056l1.477-4.264h.892l-2.272 6.131a2.317 2.317 0 0 1-.38.686c-.15.184-.326.32-.525.408-.198.088-.42.132-.67.132Zm8.229-5.1v3.094h-1.484v-7.135h1.442v2.728h.063c.12-.316.316-.563.585-.742.27-.181.607-.272 1.014-.272.371 0 .695.081.972.244.279.16.495.391.648.693.155.3.232.659.23 1.077v3.407h-1.484v-3.143c.002-.329-.082-.586-.251-.769-.167-.184-.402-.276-.704-.276-.202 0-.38.043-.536.129a.919.919 0 0 0-.363.376c-.085.163-.13.359-.132.589Zm4.97 5.1c-.188 0-.365-.015-.53-.045a1.956 1.956 0 0 1-.404-.108l.335-1.108c.174.054.331.083.47.087a.599.599 0 0 0 .366-.097c.104-.07.189-.188.254-.356l.087-.226-1.919-5.504h1.56l1.108 3.929h.056l1.118-3.929h1.571l-2.08 5.929a2.457 2.457 0 0 1-.407.752 1.67 1.67 0 0 1-.645.499c-.26.118-.573.177-.94.177Zm4.439 0v-7.357h1.463v.899h.067a1.95 1.95 0 0 1 .282-.439c.125-.151.288-.277.487-.377.203-.102.453-.153.753-.153.39 0 .75.102 1.08.307.33.202.593.507.791.916.197.406.296.916.296 1.529 0 .597-.097 1.101-.289 1.512-.191.409-.451.719-.781.93a2.001 2.001 0 0 1-1.101.314 1.72 1.72 0 0 1-.735-.143 1.527 1.527 0 0 1-.491-.359 1.834 1.834 0 0 1-.292-.442h-.046v2.863h-1.484Zm1.453-4.682c0 .318.044.596.132.833.089.237.216.421.384.554.167.13.37.195.609.195a.952.952 0 0 0 .613-.199c.168-.134.294-.32.38-.557.088-.239.132-.515.132-.826 0-.309-.043-.58-.128-.815a1.217 1.217 0 0 0-.38-.55.96.96 0 0 0-.617-.199.98.98 0 0 0-.613.192 1.205 1.205 0 0 0-.38.543 2.36 2.36 0 0 0-.132.829Zm6.801 2.78c-.55 0-1.024-.111-1.421-.334a2.292 2.292 0 0 1-.913-.955c-.213-.413-.32-.902-.32-1.466 0-.551.107-1.034.32-1.45.214-.415.515-.739.903-.971.39-.233.847-.349 1.372-.349.353 0 .682.057.986.171.307.111.574.28.801.505a2.3 2.3 0 0 1 .537.85c.127.339.191.736.191 1.191v.408h-4.518v-.92h3.121c0-.213-.046-.403-.139-.568a1.004 1.004 0 0 0-.387-.386 1.103 1.103 0 0 0-.567-.143c-.226 0-.426.052-.6.157a1.1 1.1 0 0 0-.404.414 1.186 1.186 0 0 0-.15.575v.874c0 .265.049.494.147.687.1.193.24.341.421.446.181.104.396.156.645.156.165 0 .316-.023.453-.069a.903.903 0 0 0 .574-.551l1.373.091c-.07.33-.213.618-.429.864-.213.244-.49.434-.829.571a3.115 3.115 0 0 1-1.167.202Zm3.032-.104v-5.351h1.439v.933h.056c.097-.332.261-.582.491-.752.23-.172.495-.258.794-.258a2.326 2.326 0 0 1 .467.052v1.317a1.916 1.916 0 0 0-.289-.055 2.482 2.482 0 0 0-.338-.025 1.19 1.19 0 0 0-.585.143 1.051 1.051 0 0 0-.551.968v3.028h-1.484Zm3.622 0v-5.351h1.484v5.351h-1.484Zm.746-6.041a.807.807 0 0 1-.568-.219.712.712 0 0 1-.234-.533c0-.205.078-.38.234-.526a.798.798 0 0 1 .568-.223c.22 0 .408.074.564.223a.708.708 0 0 1 0 1.059.796.796 0 0 1-.564.219Zm3.952 6.145c-.541 0-1.009-.115-1.404-.345a2.365 2.365 0 0 1-.909-.968c-.214-.416-.321-.898-.321-1.446 0-.553.107-1.036.321-1.449.214-.416.517-.739.909-.968.395-.233.863-.349 1.404-.349.541 0 1.008.116 1.401.349.394.229.699.552.912.968.214.413.321.896.321 1.449 0 .548-.107 1.03-.321 1.446a2.352 2.352 0 0 1-.912.968c-.393.23-.86.345-1.401.345Zm.007-1.149c.246 0 .452-.07.617-.209.165-.142.289-.335.372-.579.086-.244.129-.521.129-.832a2.5 2.5 0 0 0-.129-.833 1.29 1.29 0 0 0-.372-.578.913.913 0 0 0-.617-.213.945.945 0 0 0-.627.213 1.31 1.31 0 0 0-.38.578 2.581 2.581 0 0 0-.125.833c0 .311.042.588.125.832.086.244.213.437.38.579.17.139.379.209.627.209Zm4.067 1.135a.81.81 0 0 1-.592-.244.81.81 0 0 1-.244-.592c0-.227.081-.422.244-.585a.81.81 0 0 1 .592-.244.81.81 0 0 1 .585.244.79.79 0 0 1 .251.585.79.79 0 0 1-.119.422.896.896 0 0 1-.303.303.798.798 0 0 1-.414.111Zm4.08.014c-.549 0-1.02-.116-1.415-.348a2.365 2.365 0 0 1-.906-.976c-.209-.415-.313-.894-.313-1.435 0-.548.106-1.029.317-1.442.214-.416.517-.74.909-.972.393-.235.859-.352 1.401-.352.466 0 .875.085 1.226.254.351.17.628.408.832.715.205.306.317.666.338 1.08h-1.4a1.082 1.082 0 0 0-.314-.645c-.167-.165-.386-.247-.658-.247a.992.992 0 0 0-.603.188 1.198 1.198 0 0 0-.397.54 2.314 2.314 0 0 0-.143.86c0 .342.047.632.14.871.095.239.228.422.4.547a.992.992 0 0 0 .603.188.985.985 0 0 0 .456-.104.886.886 0 0 0 .338-.303c.091-.135.15-.296.178-.485h1.4a2.186 2.186 0 0 1-.334 1.08 2.02 2.02 0 0 1-.819.725c-.348.174-.76.261-1.236.261Zm4.431-3.198v3.094h-1.484v-7.135h1.442v2.728h.063c.121-.316.316-.563.585-.742.27-.181.608-.272 1.014-.272.372 0 .696.081.972.244.279.16.495.391.648.693.156.3.232.659.23 1.077v3.407h-1.484v-3.143c.002-.329-.081-.586-.251-.769-.167-.184-.402-.276-.704-.276-.202 0-.381.043-.536.129a.918.918 0 0 0-.362.376 1.27 1.27 0 0 0-.133.589Z"/>
    </g>
  </g>
  <defs>
    <clipPath id="a">
      <rect width="326.667" height="409" y=".951" fill="#fff" rx="20"/>
    </clipPath>
    <clipPath id="b">
      <path fill="#fff" d="M0 1h327v408.75H0z"/>
    </clipPath>
  </defs>
</svg>
